<svg version="1.1" id="nav-tab-Territories" class="nav nav-tabs border-0 states-territories-map-tabs" xmlns="http://www.w3.org/2000/svg" xmlns:xlink="http://www.w3.org/1999/xlink" x="0px" y="0px" viewBox="0 0 512 498" style="enable-background:new 0 0 512 498;" xml:space="preserve" role="tablist">
                        <style type="text/css">
                        .st0 {
                            fill: #224099;
                        }

                        .st1 {
                            fill: #FFFFFF;
                        }
                        </style>
                        <path id="tca" class="st0 focus-none cursor-pointer" data-bs-toggle="tab" data-bs-target="#AU-TCA" href="#" role="tab" d="M404,457.1c-0.1,0.6-0.1,1.2-0.3,1.9c0,0.2,0.2,0.8,0.2,0.9c-0.2,0.4-0.6,0.2-0.9,0.5
	c-0.5,0.8-1,2.6-1,3.5c0,0.3,1,4.6-0.8,2.4c-0.5-0.7,0.1-1.2-0.9-1.6c-0.4-0.2-2-0.5-2.5-0.5c0,0.7,0.4,1.5-0.1,2.1
	c-0.4-0.3-0.7-0.8-0.8-1.3c-1.6,0.2-1.2,1.3-0.8,2.3c0.2,0.5,1.1,2.6-0.4,2.1c0-1-0.2-1.9-1-1.3c-0.5,0.4-0.1,2.4-1.5,1.3
	c-0.4,1.3-1.8,3.9-3.1,4.4c-1.1,0.4-1.6-0.1-2.4-0.6c-0.8-0.5-1.1-0.6-2-0.8c-1.4-0.3-3.6-0.1-4.2-1.2c-1.5-2.8,1.8-0.9,2.5-1.5
	c-0.7-1.1-2.6-0.8-3.3-1.7c-0.1,0.4-0.5,0.5-0.7,0.7c-0.8-0.6-0.2-1.3-0.4-2.1c-0.2-0.7-0.7-1-1.2-1.5c-0.2-0.2-0.2-0.6-0.4-0.9
	c-0.2-0.2-0.7,0-0.9-0.2c-0.3-0.5-0.2-1.3-0.4-1.9l-0.1,0.1c0.1-1.1-0.7-2.3-1.2-3.2c-0.7-1.2-0.6-1.6-0.8-3.1
	c-0.4-4.4,1.6,1.4,3.4-0.5c-1.7-1-1.3-1.6-1.8-3c-1.6,1.8-1-1.3-1.1-2c-0.2-1.5-1.2-3-2.5-3.6l-0.1,0.3c0.1-0.9,0-2.1-0.3-2.9
	c-0.3-0.7-2.2-2.4-1-2.9c-0.1-0.7-0.6-1.6-0.7-2.4c-0.1-0.8,0-1.8,0-2.6c0-0.5-0.4-0.6-0.3-1.1c0.1-0.5,0.7-0.4,0.8-0.9
	c0.3-0.7,0-2,0.1-2.7l0.1-0.4c1,1.2,1.2,0.5,2.1-0.1c0.6-0.3,1.9-1.3,1.8,0.2c-0.1,0.9-1.4,0.5-1,1.5c0.1,0.3,2,0.8,2.4,0.8
	c0-0.9,0.8-1.1,1.4-0.7c0.2,0.2-0.2,0.9,0,1.1c0.3,0.3,0.8,0,1.1,0.1c0.4,0.2,0.6,0.2,1,0.5c0.2,0.2,0.2,0.8,0.5,1
	c0.5,0.4,1.5,0.5,2.1,1c2.3,2,6,3.7,9.1,2.6h0.1c1.3,0.2,2.5-1.3,3.9-1.4c1.1-0.1,2.3-0.4,3.4-0.3c0.7,0.1,0.5,0.7,1.5,0.3
	c0.8-0.3,0.9-1,1.9-1c0.7,0,1.2,0.6,1.9,0.3c0.7-0.3,0.9-1.4,1.8-1.4c1.1-0.1,3,2.3,3.2,3.3c0.1,0.7-0.2,1-0.3,1.6
	c-0.1,0.5-0.4,0.7-0.4,1.2c0,0.3,0.4,0.8,0.4,0.8c0,1.2-1.1,2-0.9,3.6c0.1,0.8,0.3,1,0,1.8c-0.4,0.9-1.1,1.1-1,2.3
	c0.1,0.7,1.1,3.8,0.5,4.3c-0.8,0.8-1.3-0.6-1.9-0.6c-0.8,0.1-1.3,1.5-1.2,2.2L404,457.1z M395,472.9c0.2-0.6,0.7-0.8,0.8-1.4
	c0-0.2-0.3-1.2-0.4-1.3c-0.7-0.3-2,1.3-2.2,1.7c0.5,1.1,1.5,0,2,1H395z M400.3,469.7c0.2-0.4,0.4-0.8,0.7-1.1
	c0.1,0.4,0.3,0.7,0.6,1.1c1-0.4,1-1.5,0.2-2.1c-0.4-0.3-0.8-0.1-1.1-0.4c-0.3-0.2-0.4-0.9-0.7-1c-1.2-0.6-1.1,0.8-0.8,1.4
	c0,0.1,0.6,0,0.6,0.2c0.1,0.2-0.2,0.5-0.2,0.6c0.1,0.4-0.4,0.9,0.5,1L400.3,469.7z M363.9,423.1c1.8-0.2,2.3-2,2.2-3.3
	c-0.1-1.4,0.3-3.4-1.7-3.6c0,0.2,0.1,0.8,0,0.9c-0.2,0.3-0.7,0.4-0.8,0.6c-0.2,0.5-0.4,1.4-0.6,2c-0.3,1,0,0.8,0.2,1.7
	c0.2,0.6-0.2,1.3,0.2,1.7L363.9,423.1z M406.7,430.9c-0.3,1.3,1.1,1,1.8,1.5c-0.2,0.1-0.3,0.3-0.6,0.3c-0.1,1.6,0.8,1.3,1.5,0.2
	c0.3-0.5,0.1-1,0.8-0.8c0.4,0.1,0.1,1.3,1,0.8c1-0.6-0.5-2.5-1.3-2.4c-0.4,0-0.8,0.5-1.3,0.5c-0.5,0-0.9-0.4-1.5-0.3L406.7,430.9z
	 M408.7,429.1c0.6,0,1.4,0.4,1.7-0.2c0.3-0.6-0.3-1.2-0.9-1.1c0-0.6,0.8-0.8,0.8-1.4c0-1-0.8-1-1.3-1.4c-0.7-0.7-1.1-2.8-2.2-2.8
	c-0.2,0.6-0.6,0.8-1.1,1.2c-0.5,0.5-1,0.2-0.3,0.8c0.4,0.4,1,0,1.2,0.7c0.2,0.5-0.2,1.1-0.4,1.4c0.5,0.5,0.7,1.3,1,1.9
	c0.3,0.9,0.2,0.9,1.3,1.1L408.7,429.1z" aria-selected="false" tabindex="-1"></path>
                        <path id="sa" class="st0 focus-none cursor-pointer" data-bs-toggle="tab" data-bs-target="#AU-SA" href="#" role="tab" d="M297.4,363.3c-1.1,0.7-1.4,0.5-2.5,0c-1-0.4-1.3-0.1-2.3,0.1c-0.7,0.1-1.5-0.1-2.2-0.1
	c-1.4-0.1-1.7,0.2-2.9,0.8c0.1-1.6-0.9-1.7-2-2.2c0.4-1.2,0.5-2.1,1.7-2.3c1.2-0.3,2.4-0.7,3.6-1c1.1-0.3,2.1-0.7,3.2-0.9
	c0.6-0.1,1.2,0,1.9-0.1c0.7-0.2,1.3-0.6,2.1-0.4c-0.3,0.6-0.1,1.1,0.6,1.2c-0.4,0.2-1.5,0.8-0.8,1.4c0.3,0.3,1.8,0,2.2,0.1
	c-0.4,0.6-0.5,1.4-1.2,1.9c-0.6,0.5-1.1,0.4-1,1.5L297.4,363.3z M300.6,360.3c-1.2,0.8,2.6,2.3,2.9,0.7c0.1-0.7-0.9-1.2-1.5-1.4
	c-0.9-0.3-1.4,0.2-1.7,1L300.6,360.3z M198,231.6l3.1,72.6c2.3-0.8,4.6-1.5,6.9-1.6c3.9-0.2,7.7,0.5,11.6,0.5h0.5
	c1-0.1,2.1-0.2,2.9-0.8c1.2-0.8,1.6-1.6,3.2-1.3c2.2,0.4,5.6,3,7.2,4.4c2.5,2.3,3.1,3.5,6.3,1.8c1-0.5,1.7-0.8,2.9-0.3
	c1.3,0.6,1.9,2.1,3.5,2c0.9,1,2,1.4,3.3,1.4c1.1,0,2.5-1.1,3.3-1c0.6,0,1.2,0.8,1.7,1c0.6,0.3,1.3,0.2,1.8,0.5
	c2.2,1.1,0.6,1.2-0.3,2.4c-1.1,1.3-0.8,2.5,0.8,2c1.5-0.5,1.6-1.9,2.9-0.4c0.5,0.6,1.3,2,1.1,2.8c-0.4,1.5-0.9-0.8-2.1-0.2
	c0.1,0.6-0.1,1.2,0.1,1.8c0.2,0.8,0.3,0.8,0.7,1.5c0.6,1,1.1,2.2,1.9,3.2l0.8,0.1c2.1,0.5,4.3,1.2,4.5,4c0.1,1.3-0.8,2,0.4,3
	c0.8,0.7,2.3,0.6,3.2,1.3c0.8,0.6,1.2,1.8,1.4,2.8c0.1,0.4-0.1,1.1,0,1.5c0.2,0.6,0.7,0.8,0.9,1.5c0.2,0.8-0.2,1.8,0,2.6
	c0.3,0.9,1.8,1.9,1.4,2.8c-0.6-0.9-2.3-1-2.2-2c-0.8,0-1.4,0.9-1.8,1.6c1.1,0.4,2.7-0.5,2.7,1.6c0.8,0.7,3.7,5.4,4.4,2.8
	c1,0.1,2,2,2.8,1.4c0.4-0.3,0.5-2.7,0.4-3.1c-0.7,0.1-1.6,0.4-2.3,0.3c0.4-0.6,0.5-1.5,1-2.1c0.5-0.6,1.2-0.6,1.8-1.1
	c0.6-0.5,0.6-1.2,0.9-1.8c0.3-0.6,0.8-1,1.2-1.5c0.8-1.1,0.8-2.5,1.8-3.4c1.4-1.2,3.4-2.1,5-3.1c1.2-0.8,2.4-1,3.7-1.6
	c1.2-0.6,1.4-1.7,2-3.1c0.5-1.3,1-2.7,1.8-3.8c0.5-0.8,1.6-2.4,2.3-2.9c1.4-1,2.1,0.4,1.6-2c-0.3-1.2-0.6-2.4-0.4-3.6
	c1.2,0.4,1.5,3.1,1.9,4.2c0.5,1.5,0.1,2.7,0.2,4.2c-3.9,0.3,0.2,4.2-0.1,5.6c-0.1,0.6-2.2,1.8-2.7,2.3c-0.9,0.8-1.7,1.6-1.5,2.9
	l-0.3,0.3c-0.1,0.6-0.6,1-0.7,1.5c-0.2,0.6,0,1.1-0.1,1.6c-0.2,0.6-0.8,1.1-0.9,1.8c-0.1,0.7,0.3,1.3,0.4,2c0.2,1.4-0.4,2.6-0.7,4
	c-0.1,0.7,0.1,1.1-0.4,1.7c-0.8,0.9-0.7,0.3-1.6,0.2c-1.5-0.2-1.9-0.4-2.7,0.9c-0.3,0.5-0.3,1-0.6,1.5c-0.4,0.5-1.4,0.8-1.6,1.5
	c-0.8,2.2,1.1,0.8,2,0.7c0.7-0.1,0.9,0.4,1.7,0.1c0.4-0.2,0.7-0.8,1.2-1c0.7-0.4,2-0.6,2.8-0.6c0.8,0.1,1.8,0.9,2.6,0.3
	c0.7-0.6,0.6-2.4,0.8-3.2c0.2-1,0.8-1.8,1.1-2.8c0.3-0.9,0-1.9,0.2-2.8c0.3-1.1,1.3-1.7,1.6-2.8c0.2-0.9-0.1-2.1,1.5-1.2
	c0.9,0.6,0.8,1.6,1,2.5c0.7,2.2,2.8,3.7,3.4,6c0.6,2.4-1,4.2-1,6.6h-0.1c-0.6,0.3-1.4,0.4-1.9,0.9c-0.6,0.5-0.7,1.2-1.4,1.6
	c-0.8,0.5-2.4,1.4-0.5,2.2c0.8,0.3,2.5-0.1,3.3-0.2c1.1-0.1,1-0.2,1.9-0.6c0.7-0.4,0.6-0.9,1.6-0.8c2.1,0.1,5.2,3.1,6.4,4.7
	c1.8,2.2,3.4,4.6,4.3,7.3c0.7,2.3,0.3,4.1,0.2,6.4l-0.1,0.1c-1.3,1.5-1.2,0.7-0.6,2.4c0.6,1.5-0.1,1.8,0,3.2
	c0.2,1.7,1.6,2.1,2.6,2.9c0.8,0.6,1.2,1.5,1.7,2.4c1,2,1.6,4.1,3.5,5.4c1.9,1.3,4.4,0.4,6.1,2h0.1c1.5,0.2,1,1.7,1.6,2.6
	c0.2,0.3,0.4,0.4,0.5,0.4l6.5-166.8C295.3,229.9,246.3,230.4,198,231.6L198,231.6z" aria-selected="false" tabindex="-1"></path>
                        <path id="vic" class="st0 focus-none cursor-pointer" data-bs-toggle="tab" data-bs-target="#AU-VIC" href="#" role="tab" d="M433,392.5c-0.1,1.1-0.4,0.7,0.5,1.8c-1.4,0.6-2.6,0.8-4,1.8c-1.7,1.2-3.2,1.5-5.3,1.3
	c-1.7-0.2-3.2-0.7-5-0.7c-1.7-0.1-3.2,0.2-4.9,0.3l-0.6,0.4c-5.7,0-11.4,3.1-15.4,7.1c-1.3,1.3-2.1,1.2-3.7,1.7
	c-0.8,0.2-1.2,0.9-2.2,0.6c-0.7-0.2-1-1.3-1.9-1.1c-1.4,0.4-0.2,2.5,0.7,2.7c0.8,0.2,0.9-1.2,1.4,0.1c0.1,0.4-0.3,1.5-0.5,1.9
	c-0.2,0.5-0.4,1.9-1.3,1.6c-0.3-0.1-0.7-1.5-0.8-1.9c-0.4-1-2.1-3.7-2.9-1.6c-0.4-0.4-1.9-5.4-3.1-3.4v0.1c-1.2-0.6-2-1.5-3.4-1.9
	c-0.9-0.2-3-1-1.1-1.9c0.3,0.5,0.9,1,1.6,0.9c0,0,1.7-1.2,1.7-1.1c0.9-1.5-0.5-3.2-2.2-2.3c-0.8,0.4-0.6,1-1,1.4
	c-0.4,0.4-1.7,0.7-2.2,0.7c-1.6,0.2-2.5-0.7-3.4-2c2-0.3,2,0.9,3.7-0.9c0.4-0.5,1.4-1,1.2-1.8c-0.1-0.7-1.2-0.9-1.6-1.8
	c-0.4-0.8,0.5-1.2-0.7-1.3c-0.7-0.1-1.7,0.9-2.3,1.2c-1,0.4-3.4,0.6-3.6,1.9c0.9,0.3,4.1-0.4,4.2,0.7c0.2,2-3.6,2.1-4.6,2.3
	c-1.8,0.4-8.9,8.2-10.6,5.7h-0.1c-0.9-0.3-2.1-0.7-2.8-1.3c-0.8-0.7-1.2-1.6-2-2.3c-0.9-0.6-2-0.9-2.9-1.4c-1-0.6-1.6-1.8-2.7-2.2
	c-0.8-0.2-1.8,0.2-2.6,0.1c-1.3-0.2-1.7-1.2-2.8-1.6c-0.7-0.3-2.1-0.5-2.8,0c-0.7,0.5-0.5,1.8-1.9,1.5c-0.6-0.1,0-0.6-0.5-0.9
	l2.2-55.7c0.1,0,0.2-0.1,0.3-0.1c0,0,0.1,0,0.2-0.1c0.1,0.1,0.3,0.3,0.6,0.4c0.3,0.1,0.6,0,0.8,0l0.4,0c0.1,0,0.1,0,0.2,0.1
	c0.1,0.1,0.3,0.2,0.5,0.3c0.3,0.2,0.7,0.3,1,0.5l0.7,0.3c0.2,0.1,0.5,0.2,0.8,0.3c0.7,0,0.9-0.6,1-0.9c0.1-0.1,0.1-0.1,0.1-0.1
	c0,0,0.1,0,0.1,0c0.1,0.1,0.2,0.1,0.3,0.2c0.3,0.1,0.8,0.1,0.9,0.1c0.3,0.1,0.6,0.1,1,0.1l0.3,0c0.3,0,0.5,0,0.8,0
	c0.3-0.1,0.5-0.2,0.6-0.3c0.1,0,0.1-0.1,0.2-0.1c0.4-0.1,0.7-0.1,0.8,0c0,0.1,0,0.2,0.1,0.2c0.1,0.4,0.4,0.8,0.8,1
	c0.2,0.1,0.4,0.2,0.5,0.3c0.1,0,0.1,0.1,0.1,0.1c0,0,0.1,0.1,0.1,0.3c0,0.1,0,0.2,0,0.3c0,0.5,0,1.1,0.5,1.6
	c0.2,0.1,0.3,0.2,0.6,0.3c0,0.1,0,0.1,0,0.1l0,0.2l0,0.2c0,0.2,0,0.4-0.1,0.6c-0.1,0.3-0.2,0.7,0.1,1.1c0.3,0.4,0.6,0.6,0.9,0.8
	c0.3,0.1,0.3,0.2,0.3,0.3l0,0.2c0.1,0.5,0.3,1.2,0.9,1.4c0.1,0.1,0.3,0.1,0.4,0.1c0.2,0,0.4,0,0.5-0.1c0.7-0.3,0.9-1.2,1-1.8
	c0-0.1,0-0.2,0.1-0.5c0.1-0.1,0.2-0.3,0.2-0.5c0,0,0,0,0,0c0.1,0.2,0.2,0.4,0.4,0.5c0.4,0.3,0.7,0.2,1.2,0.2c0.1,0,0.2,0,0.2,0
	c0,0.1,0.1,0.2,0.2,0.3c0.4,0.4,0.9,0.5,1.3,0.4c0.1,0,0.3,0,0.3,0c0.7,0.3,1.2,0.7,1.8,1.3c0,0,0.1,0.1,0.1,0.1h0
	c-0.2,0.1-0.4,0.1-0.6,0.3c-0.9,0.7-0.1,1.9,0.2,2.4c0.1,0.1,0.1,0.2,0.1,0.2c0.1,0.2,0.1,0.3,0.1,0.7c0,0.8,0.3,1.4,1,1.8
	c0.4,0.2,0.9,0.3,1.3,0.4c0.1,0,0.2,0,0.3,0c0.1,0,0.2,0,0.4,0c0,0.1,0,0.2,0,0.4c0,0.6,0,1.5,0.8,1.8c0.2,0.1,0.5,0.1,0.7,0.1
	c0.1,0,0.2,0,0.3,0l-0.1,0.1c0.1,0.5,0.3,0.6,0.6,0.8c0.3,0.5,0.8,0.8,1.2,1.1c0.3,0.2,0.6,0.4,0.8,0.7c0.1,0.1,0.2,0.2,0.2,0.4
	c0.1,0.3,0.3,0.6,0.7,0.8c0.1,0.1,0.1,0.1,0.2,0.2c0.1,0.1,0.1,0.2,0.2,0.2c0.2,0.2,0.4,0.3,0.8,0.4c0.2,0.1,0.4,0.2,0.7,0.3
	c0.1,0,0.3,0.1,0.4,0.1c0.2,0.1,0.5,0.3,0.7,0.6l0.1,0.2c0,0.1,0,0.2,0.1,0.4c0.1,0.3,0.2,0.6,0.3,0.8c0,0.1,0.1,0.2,0.1,0.3
	c0.2,0.5,0.4,0.9,0.9,1.2c0.2,0.2,0.4,0.4,0.7,0.8c0.2,0.2,0.4,0.4,0.6,0.6c0.1,0.1,0.2,0.2,0.3,0.4c0.2,0.3,0.4,0.3,0.6,0.4
	l0.2,0.1c0.1,0.1,0.4,0.2,0.7,0.3c0,0,0.2,0,0.4,0c0.1,0,0.3,0,0.4,0c0.4-0.1,0.6-0.3,0.7-0.7c0.1,0,0.3,0,0.4-0.1
	c0.7-0.3,0.7-1,0.7-1.5c0-0.3,0-0.3,0.2-0.4c0.2-0.2,0.5-0.4,0.5-1c0,0,0-0.1,0.6-0.1l0.4,0c0.7,0,1.3,0,1.5,0.3l0.6-0.4l0.6,0.6
	c0.3-0.3,0.4-0.4,0.6-0.4l0.2,0c0.1,0,0.5,0,0.5,0c0,0,0.1,0.1,0.1,0.2c0.2,0.2,0.4,0.6,1.1,0.7c0.1,0.1,0.2,0.2,0.3,0.4
	c0.2,0.3,0.6,0.9,1.3,0.9c0.3,0,0.5,0,0.8,0l0.4,0l0,0c0.1,0.1,0.1,0.2,0.2,0.4c0.2,0.5,0.5,0.7,1,0.7l0.1,0c0.1,0,0.4,0,0.7,0
	c0.1,0,0.3,0,0.4,0c0.1,0.1,0.2,0.1,0.3,0.2c0.3,0.2,0.6,0.5,1,0.6c0.1,0,0.3,0.1,0.4,0.1c0.4,0,0.8-0.2,1-0.3
	c0.1-0.1,0.2-0.1,0.4-0.2c0.2-0.1,0.6-0.2,0.8-0.8c0-0.2,0-0.4-0.1-0.7c0.1,0,0.1,0,0.2,0.2c0.1,0.1,0.2,0.2,0.4,0.3
	c0.2,0.1,0.4,0.2,0.6,0.3l0.1,0.2c0.1,0.2,0.3,0.6,0.7,0.7c0.2,0.1,0.4,0.2,0.5,0.1l0.4,0.1l0.2,0.2h0.9c0.1,0,0.3,0,0.4,0
	c0.2,0,0.5,0,0.6,0c0.1,0,0.2,0.1,0.4,0.2c0.1,0.1,0.2,0.2,0.3,0.2c0.2,0.2,0.5,0.3,0.9,0.3h0c0.6,0,0.8-0.3,1-0.6
	c0.3-0.3,0.6-0.3,1.3-0.1l0.4,0.1c0.4,0.1,0.9,0,1.3-0.2c0.3-0.2,0.5-0.5,0.5-0.8c0-0.1,0-0.1,0-0.2c0.1,0,0.2,0.1,0.3,0.1
	c0.1,0,0.6,0.2,1.1,0.2c0.3,0,0.5-0.1,0.7-0.2c0,0,0.8,0,1.1,0.2c0.4,0.3,0.7,0.5,1.1,0.8c0.1,0.1,0.3,0.1,0.4,0.2
	c0.2,0.1,0.3,0.1,0.4,0.2c-0.1,0.1-0.1,0.2-0.2,0.4c-0.2,0.6,0.3,1,0.5,1.2c0,0,0.1,0.2,0.1,0.3c-0.1,0.2-0.2,0.4-0.2,0.8
	c0,0.5,0.3,0.9,0.5,1.1c0.1,0.1,0.2,0.2,0.2,0.4c0,0.1,0,0.2,0,0.4l0,0.3c0,0.3-0.1,0.7,0.1,1c0.1,0.2,0.3,0.3,0.5,0.4v0.1
	c0,0.4,0,0.7,0.3,1.1c0.1,0.1,0.2,0.2,0.3,0.3c0,0,0,0.1,0,0.1c-0.1,0.1-0.1,0.3-0.2,0.4c-0.1,0.2-0.1,0.3-0.2,0.5
	c0,0.2-0.1,0.3-0.2,0.5c-0.3,0.6-0.8,1.3-0.4,1.9c0.1,0.1,0.4,0.5,1,0.3c0.2,0,0.4-0.1,0.5-0.2c0.2-0.1,0.3-0.1,0.4-0.1
	c0.1,0,0.2,0,0.5,0.2l0.3,0.2c0.2,0.1,0.5,0.3,0.7,0.5c0.4,0.3,0.8,0.6,1.2,0.9c0.1,0.1,0.2,0.1,0.4,0.2l0.2,0.1
	c0.1,0.1,0.2,0.2,0.4,0.3c0.2,0.1,0.3,0.2,0.4,0.3l0.3,0.2c0.2,0.1,0.3,0.3,0.5,0.4c0.2,0.2,0.4,0.3,0.6,0.5l0.4,0.3
	c0.2,0.1,0.4,0.3,0.6,0.5c0.3,0.3,0.7,0.6,1,0.8c0.1,0.1,0.3,0.2,0.5,0.2c0.2,0.1,0.4,0.2,0.6,0.3l0.3,0.2c0.2,0.1,0.4,0.3,0.6,0.4
	l0.2,0.1c0.3,0.1,0.5,0.3,0.8,0.5c0.1,0,0.1,0.1,0.1,0.1c0.1,0.1,0.2,0.2,0.5,0.4c0.1,0.1,0.2,0.2,0.3,0.3c0.1,0.1,0.2,0.1,0.4,0.2
	c0.1,0,0.1,0.1,0.2,0.1c0.1,0.1,0.2,0.2,0.4,0.3c0.2,0.1,0.4,0.3,0.6,0.4c0.2,0.1,0.3,0.2,0.6,0.4c0.1,0.1,0.2,0.2,0.3,0.3
	c0.1,0.1,0.2,0.1,0.3,0.2c0.1,0,0.2,0.1,0.2,0.1L433,392.5L433,392.5z" aria-selected="false" tabindex="-1"></path>
                        <path d="M361.2,348.9C361.2,348.9,361.2,348.9,361.2,348.9C361.2,348.9,361.2,348.9,361.2,348.9L361.2,348.9z"></path>
                        <path id="wa" class="st0 active focus-none cursor-pointer" data-bs-toggle="tab" data-bs-target="#AU-WA" href="#" role="tab" d="M4.3,248.2c-1-0.6-6-7.9-3.7-8.3c1.1-0.2,1.6,3.4,2.1,4.2c0.4,0.7,0.6,1.4,0.9,2.1
	c0.3,0.6,1.1,1.3,1.1,1.9L4.3,248.2z M11,247.5c0-1.1,0.4-3.1,0.1-3.8c-0.2-0.4-0.8-0.6-1-0.9c-0.2-0.3-0.2-0.7-0.4-1
	c-0.2-0.2-0.7-0.1-0.8-0.4c-0.3-0.3-0.3-0.8-0.6-1.1c-0.1,0.2-0.3,0.4-0.4,0.5c-0.2-1.2-0.8-2.3-1.3-0.4c-0.1,0.3-0.1,1.2,0,1.5
	c0.3,0.8,0.6,0.5,0.8,1c0.5,0.9,0.8,1.9,1.3,2.8c0.5,0.8,0.5,2.7,1.9,2.4c0.1-0.2,0.2-0.4,0.2-0.6L11,247.5z M187.6,74.4h-0.1
	c-1-0.8-3.7-1.1-4.8-0.4c-1.2,0.8,0.2,0.8,0.6,1.5c0.4,0.7-0.2,1.2-0.9,0.5c-0.1,0.2-0.1,0.2-0.1,0.4c-0.1-0.1-0.3-0.3-0.4-0.4
	c-0.3,0.3-0.3,0.8-0.1,1.2c-1.1-1.1-1.5,0.4-1.4,1.3c0,0.9,0.9,1.7,0.7,2.4c-0.6,0.1-1.2-1.1-1.7-0.7c-0.2,0.2-0.2,1.7-0.3,2
	c-1.5-1-0.2-8.5,1.3-8.8c-0.2-0.4-1.4-0.6-1.9-0.9c-0.7-0.4-1.2-0.9-1.8-1.3c-0.8-0.7-2.6-1.8-2.8-2.9l-0.2,0.4
	c-1.8,0.4-5.2-5.4-7.5-6.1c-0.7-0.2-1.1,0.6-2.1,0.3c-0.8-0.3-1.3-1.7-1.9-1.9c-2.4-0.4-2.1,1.6-0.9,2.7c-2.2-0.2-2.1,2.4-3.4,2.9
	c-2.4,1-1.4-1.4-1.3-2.7c-2,0.2-2.4,3-4,2.1c-0.1-0.1-2.2-5.2-3.4-1.6c-0.7,2.2,2.8,0.6,3,2.6c0.3,2.3-3.3,1.5-1.2,4.4
	c-1,0.1-1.7,0.8-2.3,1.5c-0.8-1.1-0.5-2.8-2.5-2.4c0.6-0.9,0.6-1.9-0.7-1.8c-1.6,0.1-0.9,1.1-1.3,2.1c-1,2.7-1.2,1.4-3.7,2.6
	l-0.5,0.2c-2.1,1.3-0.2,2.4,0.2,3.7c0.4,1.2-0.4,2.6,1.5,3.1c-1.9,0.5-5.7-2-6,1.4c-0.1,1.4,4.8,3.9,0.6,3.7c-1.5-0.1-1.2-2.2-3-0.9
	c-0.6,0.4,0,1.3-0.4,1.7c-0.5,0.5-1,0.4-1.4,0.7c-1.3,1-2.2,0.6-1.8,2.9c0.3,1.5,0.8,1.7,1.2,3c1.1-0.1,1.8-1.5,2.7-2.2
	c0.8,1.2-1.7,3.5-2.2,4.8c-2.4-0.8-0.6,4.1-3,4.4c0.1,0-2.3-1.3-2.4-1.4c-0.7-0.4-1.5-1-2.3-1.1c0,1,0.6,1.8,0.3,2.8
	c-1.6-0.7-1.3-3.3-3.1-3.5c-3-0.3-1.2,2.7-0.1,3.6c-0.7,0.6-2.7,0-3.1,0.9c-0.7,1.5,1.9,1.7,2.5,2.1c1,0.8,4,4.6,3.2,5.8
	c-1-0.2-1.8-1.1-2.7-1.4c-0.7,2.2,0.5,4.8-1.1,6.9c-2.2-1.3-3.2-5.6-4.4-7.6c-0.5-0.9-1.8-2.8-2-3.6c-0.3-1.1,0.4-2,0.1-3.4
	c-2.1,0-2.9,3.8-4.2,4.9c-1.3,1.1-2.7,1.4-2.6,4.3c-1.4-0.8-4,3.5-4.2,4.8c-0.2,1.4,0.2,2.4,0.5,3.7c0.2,0.9,0.1,3,0.5,3.7
	c0.5,1.3,2.5,1,2.8,2.1c0.3,1.2-2.1,3.2-2.8,3.8c-2.1,1.7-4.5,2.2-3.5,5.4c-2.3,0.9-2.3,1.2-2.6,3.5c-0.2,2.1-0.5,3.4-1.6,5.3
	c-1.7,2.6-6.1,8.2-9.6,7.5h-0.2c-3.2,1-6.4,3.3-9.6,4.6c-3.2,1.3-6.5-0.1-9.3,1c-3.4,1.3-3.8,5.2-7.7,6.1c-1.8,0.4-3.5,0.7-5.1,1.8
	c-1.2,0.8-2.4,2.9-4,2.8h-0.2c-1,0.6-2.3,1.2-3.5,1.5c-1.3,0.3-1.7-0.2-2.7-0.2c-1.5,0-3.2,1.2-4.8,0.7c-0.1-1.1-0.3-2.1-0.5-3.2
	c-1.3,0.7-2.5,3.7-3.6,5c-0.3,0.4-0.8,1.5-1.2,1.8c-0.5,0.3-1.1,0-1.5,0.3c-1.4,0.8-0.7,0.4-1.8,1.8c-1.5,2-3.3,3.3-4.6,5.4
	c-1.1,2-3.6,3.5-4.4,5.4l0.5-0.9c-3.2,2.2-7,3.9-8.7,7.5c-0.7,1.4-0.7,3.2-1.4,4.5c-0.8,1.5-1.5,1.5-3.2,2c1.1-1.9-0.6-2.7-1-4.5
	c-0.3-1.6,0.5-3.2,0.2-4.8c-2.6,2-3.7,5.5-3.7,8.6c-0.2,1.6-1.8,3-1.1,4.7c0.5,1.3,2.4,2.4,2.9,3.8c1,2.6,1.6,5.1,0.6,7.9
	c-1.2,3.3-3.4,4.7-2.9,8.6c0.4,3.1,2.8,5.1,3.5,7.9l-0.2,0.2c0.6,2.5,3.2,4.2,4.4,6.5c0.7,1.4,1,2.7,2.2,3.9
	c0.9,0.9,2.9,1.6,3.5,2.7c0.6,1.2,0.9,4.9,0.4,6.1c-0.9,2.1-0.6,1.4-1.7,0.3c-0.9-0.9-1.8-2.5-2.2-3.6c0.1,1.8,1.3,7.1-0.7,7.9
	c-1.9,0.8-5.4-5.1-5.4-6.8c-4,5.8,7,8.8,8.2,14.4v-0.5c1.4,1.6,3.3,4.5,4,6.4c1,2.5,0.2,4.5,2.3,6.8c2.3,2.4,4.1,3.9,5.4,7.1
	c0.8,2.1,3.4,3.9,3.2,6.4l0.7-0.2c2.7,3.4,1.2,7.3,2.6,11.1c1.3,3.5,2.6,7,4.8,10c1.2,1.8,2.3,3.5,3.6,5.2c1.2,1.5,2.7,2.9,3.8,4.5
	c1.9,2.7,1.3,6.1,1.3,9.3l0.2,0.2c1.7,2-0.2,3.2-0.2,5.4c0,2.1,1.6,3.9,1.9,5.9c0.3,2.3-0.9,4.3-2,6.2c-1.4,2.4-2.4,2.4-4.8,0.5
	c-1.6,1.9-0.4,4.6,0.1,6.6c0.6,2.7,1,4.6,4.6,4.1l0.2-0.2c1.5-0.2,4,1.2,5.1,2c0.9,0.7,1.3,2,2.1,2.6c1.3,1,1.1,0.5,2.4,0.7
	c3.8,0.6,7.5,1.2,11.4,1.2c3.7,0,7.2,0.1,10.7-0.9c2.9-0.8,2.2-1.4,3-3.8c0.7-2.1,2.3-2,4.2-2.8c-1.5-4.8,6.7-0.8,6.6-4.4
	c0.4,0.1,1-0.1,1.4,0c-0.2-2.8-0.1-4.7,2.7-6.2c2.2-1.2,4.6-0.5,6.9-1.5c2.8-1.2,4.5-2.2,7.7-1.9c2.4,0.2,4.8,0,7.2,0l0.3-0.4
	c2.5-3.4,2.5,1.3,4.5,1.2c1.2-0.1,1-1.3,2.3-1.4c0.9-0.1,2.7,1.6,2.6-0.3c1.4-0.1,3.1-1.5,4.5-1.2c1.2,0.2,1,1.7,1.9,2
	c1.1,0.4,1.2-0.8,1.8-1.2c1.2-0.9,2.5-0.3,3.6-1.4c1.3-1.3,0-2.8,1.3-4c0.8-0.7,1.3-0.4,1.8-1.4c0.3-0.5,0.2-1.4,0.4-2
	c0.4-1.5,1.1-3.4,2.1-4.6c2-2.7,5.4-2.4,8.1-4c2.3-1.4,5.5-4.5,8.3-4.8l0.8-0.2c1.9-1.9,2.6-3.4,5.4-3.2c1.9,0.1,3.7,0.3,5.7,0.3
	c4.1,0,8-1.5,11.6-3.2c1.9-0.9,4-1.4,5.9-2.2c2.1-0.9,4-2.2,6.1-3.2c0.9-0.4,1.1-0.8,2.1-1.2L190.1,75
	C189,74.6,188.5,74.4,187.6,74.4L187.6,74.4z" aria-selected="true"></path>
                        <path id="qld" class="st0 focus-none cursor-pointer" data-bs-toggle="tab" data-bs-target="#AU-QLD" href="#" role="tab" d="M370.9,20.7c-0.7-0.2-0.5-1.7,0-1.9c0.4-0.2,1.7,0.9,1.9,1.2C372.3,20.3,371.5,20.6,370.9,20.7
	L370.9,20.7z M372.8,13.8c1-0.5,0.8-1.7-0.4-1.5c-1.3,0.3-0.2,1.4,0.7,1.3L372.8,13.8z M370.8,12.7c0.6-0.3,1.6-1.2,0.6-1.6
	c-1-0.4-1.3,0.7-0.5,1.3L370.8,12.7z M372.1,18.7c-0.1,0.7,0.5,1.2,0.9,0.4c0.3-0.7-0.4-1.1-1-0.6L372.1,18.7z M378.3,2.9
	c0.8,0,1.3-0.2,2.1-0.4c-0.2-0.7-2.2-0.7-2.3-0.1c0.2,0,0.2,0.1,0.4,0.1L378.3,2.9z M372.4,0.8c0.5,0,1,0.1,1.4-0.1
	c0-0.9-2.3-0.9-2.4-0.3c0.4,0,0.7,0,1.1,0.1L372.4,0.8z M326.8,100.3c0.6,0,1.6,0.2,1.8-0.4c1.8,0,1.1-0.6,1.9-1.9
	c0.9-1.2,1.2,0.1,2.6-0.3c0.8-2.4-3.6-1.4-4.6-1.1c-1.6,0.5-3.7,2-3,3.9c0.6-0.6,0.9-0.7,1.7-0.2L326.8,100.3z M329.4,105.4
	c1.1,0.9,1.8-0.8,0.6-1.2c-0.2,0.4-0.5,0.8-0.9,1L329.4,105.4z M490.6,239.6c0-2.4,1.8-4.4,3.2-6.2c0.6-0.8,1.9-1.9,2-2.9
	c0.1-0.7-0.4-0.9-0.7-1.4c-0.3-0.5-0.2-1.2-0.2-1.7c0-0.6,0.4-1.4-0.5-1.4c-0.4,0-1.5,0.8-1.7,1.2c0.6,1,1.8,1.8,0.9,3.1
	c-0.7,0.9-2.2,1.4-3.1,2.2c0.2,0.2,0.5,0.4,0.7,0.6c-0.3,0.4-0.1,0.8-0.3,1.3c-0.3,0.7-1,1-1.2,1.7c-0.3,1.2-0.1,2.1,0.7,3
	L490.6,239.6z M344.3,228.7l0,0.7l0.7,0l-1.6,40.5c30.5,0.7,61.4,1.9,91.9,3.6c0,0,0.1-0.1,0.1-0.1c0.1-0.1,0.2-0.3,0.3-0.4l0.2-0.2
	c0.1-0.1,0.1-0.1,0.1-0.1c0.1-0.1,0.2-0.3,0.3-0.4l0.2-0.4c0.2-0.3,0.4-0.7,0.9-0.9c0.3-0.1,0.6-0.1,0.9-0.1c0.1,0,0.2,0,0.2,0
	c0.1,0,0.2-0.3,0.3-0.4c0.1-0.1,0.1-0.2,0.2-0.3c0.1-0.2,0.2-0.4,0.4-0.5c0.3-0.3,0.8-0.3,1-0.3c0.4,0,0.6,0,0.9,0.1c0,0,0,0,0,0
	c0.1-0.2,0.1-0.4,0.2-0.5c0.2-0.4,0.4-0.6,0.7-0.7c0.3-0.2,0.6-0.1,0.9-0.1c1,0,1.4,0.5,1.8,0.9c0.1,0.1,0.2,0.2,0.2,0.3
	c0,0,0.1,0.1,0.1,0.1c0.1-0.1,0.3-0.1,0.5-0.1c0.3,0,0.5,0,0.6,0.1v0c0,0,0.1-0.1,0.1-0.1c0.2-0.2,0.4-0.5,0.7-0.6
	c0.6-0.2,1.4,0,1.7,0.1c0,0,0.1-0.1,0.2-0.1c0.1-0.1,0.2-0.1,0.3-0.1c0.3-0.1,0.6-0.2,0.9-0.2c0.1,0,0.2,0,0.3-0.1
	c0.3-0.1,0.5,0,0.7-0.1l0.2,0c0.9-0.7,1.7,0.1,2,0.4c0.2,0.3,0.3,0.5,0.4,0.8c0,0.1,0.1,0.2,0.1,0.2c0.5,0.1,0.8,0.4,1.1,0.7
	c0.3,0,0.5,0,0.7,0c0.3-0.1,0.6-0.1,0.8-0.3c0.3-0.1,0.6-0.2,0.9-0.3c0.5-0.2,1.1-0.4,1.6-0.1c0.3,0.2,0.4,0.5,0.4,0.7
	c0.1,0.1,0.2,0.1,0.3,0.2c0.3,0.1,0.6,0.2,0.9,0.4c0.5,0.4,0.7,0.8,1,1.2c0.2,0.2,0.3,0.4,0.3,0.6c0.1,0,0.2,0,0.3,0
	c0.7,0,1,0.4,1.2,0.7c0.2,0.2,0.3,0.4,0.4,0.5c0.1,0.2,0.2,0.3,0.3,0.4c0.3,0.5,0.3,0.8,0.3,1.1l0,0.4c0,0.5,0,1,0.2,1.4
	c0,0.1,0.1,0.2,0.1,0.2c0.3,0,0.3,0,0.4-0.1l0.1-0.1c0-0.1,0-0.3,0.1-0.5c0.1-0.4,0.3-0.8,0.6-1.1c0,0,0.1-0.1,0.1-0.2
	c0.2-0.2,0.4-0.5,0.8-0.7c0.3-0.1,0.5-0.1,0.7-0.1c0.1,0,0.2,0,0.2,0c0.2-0.2,0.5-0.5,1.1-0.5h0.1c0.4,0,0.8,0.2,1.1,0.6l0.1-0.1
	c0.2-0.2,0.4-0.3,0.7-0.4l0.2-0.1l0.3-0.1l0.3-0.1h0.7c-0.1-0.2-0.1-0.4-0.1-0.6c0-0.8,0.5-1.1,0.7-1.2h0l0.1-0.1
	c0-0.1,0-0.3,0.2-0.6c0.1-0.1,0.1-0.1,0.1-0.2c-0.1-0.1-0.2-0.2-0.2-0.3c-0.1-0.1-0.2-0.3-0.3-0.4c0,0-0.8-1.2-0.4-2
	c0.3-0.7,1.2-0.7,1.7-0.8c0.1,0,0.2-0.1,0.3-0.1c0.2-0.1,0.5-0.1,0.8-0.1h0l0.2,0c0.2,0,0.3,0,0.5,0c0.1,0,0.3,0.1,0.4,0.1
	c0.4-0.4,0.7-0.6,1.2-0.6c0.2,0,0.5,0,0.6,0c0.1-0.1,0.1-0.2,0.1-0.2c0.2-0.4,0.7-1.2,1.6-0.9c0.6,0.2,0.8,0.6,0.9,0.9
	c0.1,0.2,0.5,0.1,0.7,0.1c0.2,0,0.3,0,0.4,0l0.2,0c0.1,0,0.1,0,0.2,0c0.1-0.1,0.2-0.1,0.4-0.2c0.3-0.1,0.9,0,0.9,0
	c0.4,0.1,0.6,0.2,0.8,0.4c0.1,0,0.1,0.1,0.1,0.1c0.1,0,0.1,0,0.3,0c0.1-0.1,0.2-0.1,0.4-0.2c0.5-0.2,1-0.1,1.4-0.1l0.4,0l0.3-0.2
	c0.1-0.1,0.3-0.3,0.6-0.4c0.4-0.2,0.9-0.2,1.3-0.1l0.2,0h0.1c0-0.7,0-1.3-0.2-1.9c-0.3-1.1-0.8-2.1-1.1-3.2
	c-0.3-1.1-0.7-1.8-0.3-2.9c0.1-0.2,0.6-0.3,0.8-0.6c0.1-0.2-0.1-0.5,0-0.7c0.1-0.5-0.1-1,0.1-1.5c0.2-0.7,0.7-0.8,0.8-1.5
	c0-0.3-0.2-0.9-0.3-1.2c-0.1-1,0-2.1,0-3.1l0.1-0.6c0-2.6,0.4-4.4,2.1-6.4c-1.3-1-2.7-2.7-2.8-4.3c-0.1-0.6-0.1-1.8,0.1-2.4
	c0.4-1,1.4-1.4,0.8-2.6c-0.9-1.8-3.8-0.9-4.3-3.4c-0.4-2,1-3.6-1-5.1l-0.3-0.1c-2.8-1.1-3.4-4.4-4.2-7c-0.4-1.3-3.7-6.5-3.9-3.1
	c-1-1-2.9-2.1-3.4-3.6c2.5,0.5,0.4-4.2-0.4-5c-0.2-0.2-1.4-0.7-1.7-0.7c-1-0.1-0.5,0.2-1,0.4c-0.6,0.3-1.1,0.6-2.1,0
	c1.4-0.3,0.5-2.1,0.1-2.8c0.5-0.3,0.5-0.9,0.3-1.4l-0.1-0.3c0-2.1,0.9-3.8,0.9-5.8c0-0.9-0.3-1.7-0.5-2.6c-0.2-0.7-0.4-0.6-0.4-1.4
	c0-0.4,0.7-0.3,0.6-0.9c-0.1-1-1.6-1.4-2-2c-0.3-0.4-0.5-2.8-1.2-1.5c-0.4,0.7,0.5,1.9,0.6,2.5c0.1,0.7,0,1.6,0,2.3
	c-1-0.2-2.5-1.6-3.2-2.5c-0.7-0.9-0.7-3.1-1.7-3.7c-1-0.6-2.2,1.1-2.3,2.2c0,1.2,1,2.1,0.9,3.4H459c-1.8-0.4-1.4-2.7-2.6-3.5
	c-0.6,0.3-1,1-1.3,1.5c-0.2-2.1-0.7-3.8-1.4-5.8c-0.7-1.9-0.4-3.8-0.3-5.8c0-0.5,0.5-0.8,0.2-1.3c-0.2-0.3-1.1-0.3-1.4-0.8
	c-0.5-0.8,0.3-1.7,0-2.6c-0.2-0.5-0.9-0.8-1-1.3c-0.1-0.6,0.6-0.7,0.6-1.1c0-1.5-1.3-1.6-1.9-2.8l-0.3-0.4c-1.1-1.1-2.6-1.4-3.6-2.7
	c-0.6-0.8-1.7-3.1,0.1-3.4c0.9-0.2,3.2,1.8,2.3-0.5c-0.2-0.4-0.8-0.4-0.9-0.8c-0.1-0.3,0.1-0.8-0.1-1c-0.3-0.5-0.3-0.9-1-1
	c0.3-1.3-1.2-1.2-1.5-2.5c-1.2-0.1-2.1-1.4-1.9,0.8c-0.7,0.1-1.9-1-2.1-1.7c-0.2-0.7,0.7-1,0.2-1.8c-0.3-0.4-1.6-0.4-2-0.6
	c-0.5-0.2-0.5-0.6-1.1-0.7c-0.4-0.1-0.7,0.7-1.1,0.5c-0.8-0.3-0.1-4.5-2-2.9c-0.6,0.5,0.4,1.6-0.8,1.6c-0.7-0.1-1.5-1.5-1.7-2l0-0.4
	c0.1-1.1-0.3-5.9-1.7-5.2c0.3,0.5,0.4,1.1,0.3,1.6c-0.9-0.1-2.3-0.4-3.1-0.9c-0.9-0.7-0.9-2.6-1.9-2.8c-0.4-0.1-0.8,1-1.3,1
	c-0.7,0.1-1-0.5-1.5-0.9c-0.9-0.7-1.7-1.3-2.6-1.9c-1.8-1.2-4.4-3.5-3.3-6c0.2-0.4,0.9-0.6,1.1-1.1c0,0.1,0.1-1.5,0.2-1.5
	c-0.1-1.1-1-2.2-0.3-3.3c-0.9-0.5-1.5,0.4-2.3-0.1c0.2,1.1,1.3,1.7,0.6,2.8c-0.7-0.5-1.1-1.4-1-2.3l-0.2-0.2
	c-2.1-1.3,0.7-4.2,1.1-5.5c0.5-1.6,0.6-3.5,0.3-5.2c-0.4-1.9-1-3.9-1.6-5.7c-0.2-0.6-0.6-0.6-0.5-1.3c0.1-0.5,1.1-0.4,1-1.1
	c-0.2-1-1.9-0.6-2.6-0.5c-1.1-0.7-1.4-2.3-1.9-3.4c-0.6-1.3-2-2.5-1.9-4.1c0-0.5,0.8-0.2,0.8-0.9c0-0.5-0.6-1-0.7-1.5
	c-0.1-1.1,0.4-1.9,0.1-3c-0.1-0.5-0.5-1-0.6-1.5c0-0.6,0.5-0.9,0.5-1.5c0-0.8-0.7-2.2-1-3c-0.3-1.2-0.3-1.7,0.3-2.8
	c0.3-0.5,1.5-2.1-0.4-1.6c-0.1-1.8,1.1-2.3,1.4-3.6c-0.5,0.1-0.7-0.3-1.1-0.3h-0.2V80l0.2-0.5c-0.7-0.5-1.8-0.3-2.7-0.7
	c-1.4-0.7-1-1.6-1.9-2.6c-0.4-0.5-1.8-0.8-2.5-1.4c-1-0.9-1.3-1.1-0.5-2.6c-0.2,0-0.6-0.2-0.9-0.2c0.4-1.1,0.1-2.6-1.2-2.3
	c-0.6,0.2-0.9,1.3-1.9,1.4c-0.6,0-1.3-0.3-1.9-0.4c-0.9,2.3-2.8,3.7-5,1.7c-1.8-1.6-1-4.1-1.8-5.8c-0.7-1.5-1.9-3.4-1.5-5.3
	c0.2-0.9,0.9-1.9,0.9-2.8c0-0.5-0.5-0.7-0.6-1.2c0-0.3,0.2-0.8,0.2-1.2c0-1.3,0.6-4.3,0.2-5.4c-0.6,0.2-1.2,0.3-1.8,0.4
	c0,0.2,0.1,0.2,0.1,0.5c-1.6,0.2-0.7-2.1-0.3-2.9c0.9-1.7,1.1-2-1-2.3v-0.5c0-2-0.4-1.3-1.6-2.3c-0.9-0.7-1-1.6-0.6-2.8
	c0.3-0.8,2-2.4,1-3.4c-0.8-0.8-2.4,0.4-3.4-0.4c-0.9-0.7-0.5-1.9-0.5-3c0-0.6-0.1-1.3,0-1.9c0.1-0.5,0.6-1.6,0.6-1.8
	c0-0.8-1-1.9-1.3-3.1c-0.2-1.1,0.1-2.6-1.1-3.1c-0.2,0.2-0.5,0.3-0.6,0.5c0-0.3-0.1-0.7-0.1-0.9c-0.1,0-0.3,0-0.4-0.1
	c0-0.3-0.1-0.5-0.2-0.8c-0.7,0.2-2.1,1.2-2.8,1.7c0.6-0.2,3-2.8,2.9-3.3c-0.4-2.2-3.1,0.6-3.6,1c-1.7,1-2.7,0.5-3,2.9
	c-0.2,1.7-1.1,2.9-1.3,4.5l0.3-0.3c-0.3,1.7-0.8,3.2-1.5,4.7c-1,2.1-0.6,2.2,0.1,4.1c-0.7,0-0.5-0.1-1.1,0.3
	c-0.7-0.7-0.5-1.6-0.9-2.2c-0.6,0.6-1.2,1.8-1.4,2.7c-0.6,1-3.1,5.2-2.7,6.1c1.2-0.1,1.4-0.6,2.5-0.4c0.2,0,1.8,0.5,2,0.7
	c-0.3,0-0.7,0.2-1,0.2c0.3,0.7,0.6,1.4,0.4,2.1c-0.4-0.2-0.8-0.6-1.1-1.1c-0.8,0.5-2.5,2.2-3,3.2c-0.6,1.2,0.3,1.9,0.1,3.5l0.2,0.2
	c0.3,0.7,0,1.4,0,2.1c0,0.6,0.4,1.3,0.3,2c-1.3-2.1-2.8,2.4-3.1,3.5c-0.4,1.4-0.4,1.9,0.3,3.1c0.5,0.9,1.2,1.7,1.1,2.8l0.2,0.2
	c0.3,2-1.4,3.5-1.3,5.6c0.1,1.8,0.8,3.5,0.8,5.2c0.1,3.6-3.7,6.4-3.7,10.3l0.3,0.2c-0.2,0.6-0.6,1.4-0.7,2.1
	c-0.1,0.7,0.4,1.3,0.4,1.9c-0.1,1.4-1.6,2.4-2,3.8c-0.4,1.2-0.1,2.3-0.6,3.5c-0.6,1.3-2.7,2.5-2.9,3.8l-0.2,0.2
	c-1.2,1.4-1.7,2.2-1.9,3.9c-0.3,1.7-0.9,3.1-2.3,4.2c-2.2,1.6-4.6,2.5-7.3,2.5c-2.5,0-4.7-1.8-7-2.8c-1.2-0.5-2.2-1.4-3.3-1.9
	c-1.1-0.6-2-1.2-2.5-2.5c-0.4-0.9,0-2.2-0.5-3c-0.4-0.6-2.1-1.9-2.7-1.8l-0.3,0c-1.2,0.1-2.1-0.8-3.2-1.1c-1-0.3-1.9-0.3-3-0.6
	c-2-0.5-3.7-1.7-5.2-3.1l-3.1,131.4C320.3,228.8,332.4,228.6,344.3,228.7L344.3,228.7z" aria-selected="false" tabindex="-1"></path>
                        <path id="nt" class="st0 focus-none cursor-pointer" data-bs-toggle="tab" data-bs-target="#AU-NT" href="#" role="tab" d="M298.7,86.5c-1,0.3-1.3-1-1.9-1.6c1.2-1.5,2.2-0.2,2,1.3L298.7,86.5z M291.7,84.5
	c0.5-0.4,1.6-1.8,0.4-2c-1.1-0.2-1.7,1.7-0.2,1.8L291.7,84.5z M289.1,65c1.2-0.4,1.5,0.1,2.7,0.4c0.9,0.2,1.8,0.2,2.5,0.2
	c0.5,0,0.8,0,1.3,0.1c0.6,0.1,0.8,0.6,1.4,0.2c0.6-0.4,1-2.1,0.1-2.3c-0.1,0.3-0.4,0.6-0.4,1c-0.1-0.1-0.6-0.6-0.7-0.6
	c-0.3,0-0.5,0.3-0.7,0.2c-0.5-0.1-1.3,0-1.2-0.7c0.1-0.7,1.4-0.3,1.5-1c0.1-0.5-1.4-0.5-0.7-1.5c0.4-0.7,3.1-0.3,2.2-2
	c-0.7-1.3-1.7,1-2.7,0.4c0-0.8-0.4-1,0.3-1.7c-0.6-0.4-1.7-0.3-2.3-0.1c1.8,2.7-1.8,0.8-2.5,2c0.8,0.7,0.2,2.1,0.1,3
	c0,0.7,0.3,0.5-0.2,1.1c-0.4,0.5-1,0.3-1,1.1L289.1,65z M287.8,59.6c0.5-0.5,0.8-0.2,0.9-1c0.1-0.5-0.1-1-0.6-1.1
	c-1.6-0.5-0.7,1.4-0.2,1.9L287.8,59.6z M209.7,29.8c0.6,0.5,1.3,0.8,1.9,1.3c0.7,0.6,1.3,0.9,2.2,1.3c0.6,0.3,1.3,0.9,2,1.1
	c0.7,0.2,1-0.3,1.6-0.6c0.7-0.4,1.2-1,1.9-1.5c0.6-0.4,1.1-1.2,1.7-1.6c0.5-0.3,1.6,0,1.8-1c0.1-0.4-0.2-0.6-0.2-1
	c0-0.4,0.2-0.6,0.3-0.9c0.2-0.9,0-0.6-0.7-1.2c-0.5-0.5-0.6-1.1-1.5-0.9c0-0.3,0-0.7-0.2-1c-0.8,0.2-1.8,0.4-1.7,1.3
	c-0.4-0.2-0.5-0.8-0.8-0.8c-0.2,0-0.9,0.5-1.1,0.6c-0.7,0.6-0.1,0.5-0.9,0.5c-0.3,0-0.4-0.4-0.9-0.2c-0.4,0.1-0.7,0.5-1.1,0.6
	c-0.3,0.1-0.8,0.1-1.1,0.2c-0.9,0.5-0.9,0.7-1.2-0.4c-0.3,0.2-1,0.9-1.4,0.5c-0.5-0.4,0.3-0.7,0.3-1c0.1-1.1-0.5-0.2-1.2-0.5
	c-0.9-0.3-0.4-1.6-1.4-1.3c-1.1,0.3-0.5,1.4,0,1.9c-0.4,0.4-0.1,0.7,0,1.1c0.1,0.5,0.3,0.6,0.4,1.2c0,0.6,0.2,0.6,0.4,1
	c0.2,0.4,0.4,0.4,0.4,1L209.7,29.8z M209.1,30v0.2c-0.4-0.4-1-1.4-1.1-1.9c-0.1-0.3,0.2-0.9,0-1.2c-0.1-0.3-0.7-0.6-0.9-0.9
	c-0.4-0.4,0-0.7-0.7-0.4c-0.3,0.2-0.9,0.8-1.2,1.1c-0.3,0.2-0.9,0.5-0.7,1c0.2,0.4,0.7,0.2,1,0.4c-0.2,0.2-0.6,0.6-0.7,0.9
	c-0.1,0.3,0.3,0.6,0.3,0.9c-0.2,1.2-1,0.1-1.5,0.4c-0.1,0.1-0.9,1.4-0.9,1.4c0.1,0.4,1.3,0.3,1.7,0.3c1.2-0.1,2.3-0.6,3.4-0.4
	c0.7,0.1,2.4,0.6,3,0.3C212,31.4,209.4,30.5,209.1,30L209.1,30z M306.8,228.8l3.1-132.1c-1.9-1.9-2.6-3.7-5.1-4.7
	c-1-0.4-2-0.9-3-1.4c-0.8-0.4-2-1.1-2.7-1.7H299c-0.4-0.4-0.8-0.8-1.1-1.3h-0.3c-1-0.4-1.2,0.3-2,0.3c-0.9,0-1-0.8-1.9,0.1
	c-0.4-2.7-4.2-3.5-5.7-5.6c-0.9-1.3-1.5-1.6-2.8-2.3c-1.3-0.6-2-1.7-3.1-2.5c-0.8-0.6-1.7-1.4-2.6-1.8c-1.1-0.5-2.1-0.1-2.7-1.6
	c-0.4-1,0.1-2.2,0.6-3.1c0.3-0.4,0.6-0.7,0.9-1.2c0.2-0.4,0.3-1,0.6-1.4c0.7-1,1.3-1,2.1-2.1c0.6-0.9,1.1-2.2,2.4-2.1
	c-0.1-1.2,0.8-2,0.6-3.1l0.1-0.6c0.5-0.2,1.4-2.4,1.5-2.9c0.5-2.6-0.8,0-1.4,0.4c-1.1,0.7-0.6-0.1-0.9-0.8c-0.1-0.3-0.5-1.1-0.5-1.3
	c0,0.1,0.3-1.6,0.2-1.4c0.3-0.4,0.3-0.7,1.1-0.6c0-0.5-0.7-1.1-0.6-1.7c0.2-0.8,0.9-0.9,1.3-0.3c0.1-0.2,0.3-0.5,0.4-0.8
	c0.4,0.3,0.5,0.8,0.7,1.1c0-0.9,0.3-1.9,1.1-2.5c0,0.5-0.1,1.2,0.3,1.4c0.6,0.3,1.1-0.4,1.2-0.9c1.2,0.8,1.2-1.3,1.6-1.9
	c0.5,0.6,0.2,1.7-0.1,2.4c-0.5,1-1,1.8,0.4,1.2c-0.2,0.1,0.8-0.9,0.8-0.8c0.3-0.4,0.6-0.7,0.9-1.1c0.9-1.1,0.9-1.4-0.3-2.2
	c0.7,0.2,2.4,0.1,1.6-0.9c-0.4-0.7-1.6-0.2-1.9-1.3c0.6,0.1,0.9-0.1,1-0.7c0.8,0.6,0.8,0.5,1.3,0c0.1-0.2-0.2-0.7,0-1
	c0.1-0.2,0.7,0.1,0.8,0c0.7-0.8,1.2-1.8,1.9-2.8c0.7-0.9,2.1-1.6,1.5-2.8c-0.5-1.1-1.8-1.5-2.8-1.3c0,0.1,0,0.2,0,0.3
	c0.2,0,0.4,0.2,0.6,0.3c-0.9,2.4-2.2-0.1-2.2-1.4V36c-0.1-0.2-0.3-0.9-0.4-1.1c-0.2-0.2-0.7-0.3-0.7-0.3c0.4,0.4-1.3-0.8-0.7-0.6
	c-0.6-0.2,0-0.4-0.8-0.2c-0.3,0.1-0.4,0.8-0.6,1c-0.3,0.2-0.7,0.1-0.9,0.3c-0.7,0.4-1.1,1-1.9,1.2c-0.1,2,2.2,0.5,2.7,1.2
	c0.3,0.3-0.2,2-0.4,2.3c-0.6,0.7-1.4,0.5-2.2,0.5c-1.5,0-0.8-0.2-1.9,0.9c0.1-0.9-0.7-0.9-0.7-1.5c0-0.7,1.2-1.2,1.1-1.8
	c-0.2-1-1.1,0.2-1.5-0.6c-0.2-0.5,0.9-1.4,1.2-1.7c-1.1,0-3.4,1.6-4,2.6c-2.4-0.9,0.3-2.4,0.9-3.2c0.4-0.6,0.3-1,0.8-1.9
	c0.3-0.4,1.7-1.3,1.3-1.9c-0.6-1.1-1.3,0.6-1.4,0.7c-0.7,0.8-0.9,0.7-1.9,1.1c-1.1,0.4-3.4,0.8-1.4,2.2v0.1c-0.2,0.6-0.6,0.3-1-0.2
	c-0.9,1-1.5,0-2.4,0.2c-0.7,0.1-1.7,0.9-1.8,1.5c0,0.4,1.7,0.9-0.1,1.1c-0.6,0.1-1.3-0.5-1.9-0.7c-0.4-0.1-0.7,0.1-1.1-0.1
	c-0.4-0.2-0.4-0.9-0.7-1.1c-0.3-0.2-0.7,0.1-1-0.1c-0.4-0.3-0.4-0.7-0.7-0.9s-1-1.4-1.2-1.5c-0.8-0.3-1.1,0.2-1.9,0.8
	c-1.4,0.9-2.6,1-4-0.2c-1.1-1.2-0.9,1-2-0.1c-0.2-0.2-0.2-0.9-0.5-1.2c-0.2-0.2-0.9-0.1-1.2-0.6c-0.7,0.6-1.4,1.1-2.3,0.6
	c-1.5-0.8-0.1-1.2,0.6-2.1c-1-0.7-2-0.2-2.9,0.3c-0.9,0.5-2.1,0.2-2.9,0.9c0.1-0.3,0.2-0.6,0.3-0.9c-0.5,0.2-1.1,0.2-1.3-0.3
	c-0.5,0-1.1,0-1.6,0c0.4-0.2,0.4-0.5,0.6-0.7c-0.8-0.2-1.6,0.5-2.4,0.2c-0.8-0.3-1.2-1.3-1.7-2v-0.3c-0.1-0.9-1.4-3.3-2.5-2.6
	c1.2,1.3-0.5,1-1.2,1.2c-0.8,0.4-0.9,1.3-1.9,0.7c-0.5-0.4-0.8-1.7-0.8-2.3c-0.1-0.8,0.2-1.5-0.4-2.1c0.5-0.5,0-2-0.6-2.5
	c-0.2,0.4-0.6,0.6-1,0.8c0.5,0.5,0.8,1,0,1.3c0.4,1.1,1.4,1.5,0.5,2.8c-0.6-0.1-0.9-0.7-1.3-1.2c-0.1,0.2-0.2,0.4-0.3,0.6
	c-0.4-0.5-0.3-1.5-0.8-2.2c-0.9,0.5-0.6,1-0.8,1.8c-0.4-0.5-1.1-1.7-1.8-2c-0.2,0.6,0.6,1.3,0.8,2c0.2,0.9,0.1,0.2,0,1.1
	c-0.1,0.3-0.1,0.8-0.1,1.1c-0.8-0.1-0.4-1.2-0.8-1.8c-0.1,0-0.2,0.1-0.2,0.2c-0.1-1.3-1.2-1.5-2-2.3c0,0.3-0.2,0.9-0.2,1.3
	c-0.5,0-0.7-0.1-1-0.6c-0.1,0-0.1,0.2-0.2,0.4c-0.1,0-0.4-0.1-0.5-0.1c-0.2,1,1,2.1,1.9,2.2c-1,0.9,0.6,1.2,1.3,1.3
	c-0.2,0.4,0,0.8-0.1,1.2c1.3,0.1,2.1-0.7,3.3-1.1c1.4-0.5,2.1-0.1,3.2,0.7v0.1c0.1,0.6-0.5,1.4-0.5,1.6c0.1,0.8,0.7,0.7,1.4,1.2
	c0.8,0.5,1.3,1.4,1.1,2.6c-0.2,1.3-1.4,1.7-2.2,2.4c-0.3,0.2-1.1,1-1.5,1.2c-0.6,0.3-1-0.8-1.5,0.3c-1.2-1.1-2.1,0.9-3.4,0.9
	c-1.6,0-1.8-1.7-3.3-0.4l-0.3-0.1c-0.6,1.1-3.4,1-4.5,0.7c-2.3-0.5-0.8-2.4-2-3.4c-0.9,0.6-0.7,1.8-1.5,2.5
	c-0.6-0.4-1.1-1.4-1.8-0.7c-1.3-1.6-0.9,2.1-0.7,2.7c-0.8-0.3-3-0.1-2.3,1.3c0.4-0.1,0.7-0.3,0.9-0.7c0.4,0.2,0.4,0.4,0.1,0.8
	c0.8,0.5,0.3,1-0.5,0.9c0.4,0.2,0.7,0.5,0.9,0.9c-0.3,0.1-0.6,0.4-0.9,0.6c-0.3-0.3-0.5-0.8-0.6-1.2c-0.2,0-0.3,0-0.5,0.1
	c0.1-0.7-0.4-2.2-1.3-2c-0.5-0.2-1.1-0.3-1.6-0.2v0.1c0.1,0.5,0,0.9,0,1.5c0,0.2-0.2,0.5-0.2,0.7c0,0.2,0.3,0.3,0.3,0.7
	c-0.2,1.7-1.3,0.6-2.2,0.3c0.2,0.9-0.5,0.7-0.7,1.2c-0.1,0.4-0.2,1-0.3,1.4c-0.2,0.7-1.2,2.9-2.1,1.4c-0.9,0.2-0.7,1.2-0.7,1.9
	c0,1.1,0.1,1.2,0.6,1.9c0.3,0.3,1.8,1.4,1.7,1.8c-0.1,0.4-1.4,0.6-1.8,1c-0.1,0.1-0.5,0.7-0.6,0.9c-0.2,0.2-0.7,0.7-1,0.8
	c-1.2,0.6-0.8-0.2-1.8-0.4c-1.8-0.2-1.6,2.6-1.6,3.6l0.4,0.6c-0.3,0.3-0.9,0.8-1.1,1.2c-0.2,0.5,0.2,0.8,0.1,1.2
	c-0.3,1.4-1.6,0.7-1.9,1.7c-1.3-1-1.3,0.2-1.6,1.2c-0.2,0.7-0.3,0.7-0.6,1.3c-0.1,0.2-0.7,1.2-0.7,1.4c-0.1,1,0,0.5,0.7,1.2
	c0.5,0.4,0.8,0.9,1.4,1.2c1.1,0.6,2.1-0.3,3.1,0.2c-0.6,0.8-1.5,0.6-2,1.2c1.1,1.6,1.8,2.1,3.6,2.2c0.3,1-0.8,0.7-1.5,0.7
	c-1,0.1-1.1-0.1-1.4,0.8c-0.4,1.1,1.7,3.5-0.1,3.2c0,0.1-0.1,0.3-0.2,0.4c-0.3-0.2-0.7-1.2-0.8-1.4c-0.2-0.5-0.6-1.4-1-1.7
	c-0.3-0.2-0.7-0.1-0.9-0.2c-0.2-0.1-0.5-0.4-0.6-0.5c-0.6-0.2-1-0.6-1.7-0.5c0.2,0.6,0.4,2.4,0.4,3.1c-0.3,2.1-0.8,0.2-1.1-0.6
	c-0.2-0.6-0.8-1-1.5-1.4l6.5,154.8C234.1,229.3,270.5,228.9,306.8,228.8L306.8,228.8z" aria-selected="false" tabindex="-1"></path>
                        <path id="nsw" class="st0 focus-none cursor-pointer" data-bs-toggle="tab" data-bs-target="#AU-NSW" href="#" role="tab" d="M490.9,273.6c-1.2-1.7-1.1-3.6-1.4-5.7c0,0,0-0.1,0-0.1h-0.1c-0.1,0-0.2,0.1-0.3,0.1
	c-0.2,0-0.5,0-0.6,0c-0.1,0-0.2,0.1-0.2,0.2l-0.2,0.2c-0.3,0.2-0.5,0.3-0.9,0.3c-0.2,0-0.3,0-0.5,0c-0.4,0-0.7,0-0.9,0.1
	c-0.3,0.1-0.5,0.2-1,0.2c-0.2,0-0.5,0-0.8-0.2c-0.2-0.1-0.3-0.2-0.4-0.3c-0.2-0.1-0.4-0.1-0.5-0.1c-0.1,0.1-0.2,0.2-0.5,0.2
	c-0.2,0-0.3,0-0.5,0c-0.2,0-0.3,0-0.5,0c-0.4,0-1,0.1-1.4-0.2c-0.3-0.2-0.5-0.5-0.6-0.7c0,0,0,0,0,0.1c-0.1,0.1-0.1,0.2-0.2,0.3
	c-0.4,0.6-1,0.7-1.4,0.7l-0.2,0c-0.1,0-0.2,0-0.2,0.1c-0.2,0.2-0.4,0.4-0.8,0.5c-0.3,0.1-0.6,0-0.7-0.1c-0.2,0-0.2,0-0.3,0
	c-0.1,0-0.2,0-0.3,0h0c-0.1,0-0.3,0-0.4,0.1c-0.2,0.1-0.4,0.1-0.5,0.1c-0.2,0-0.4,0.1-0.5,0.1c0.1,0.2,0.2,0.4,0.3,0.6
	c0.1,0.1,0.1,0.2,0.2,0.2c0.3,0.3,0.6,0.7,0.6,1.3c0,0.5-0.3,0.8-0.4,0.9c0,0.2-0.1,0.4-0.2,0.6c-0.2,0.3-0.4,0.4-0.6,0.5
	c0,0.1,0.1,0.2,0.1,0.3l0.1,0.2c0.1,0.2,0.2,0.5,0.1,0.9c-0.1,0.2-0.2,0.4-0.5,0.5c-0.2,0.1-0.4,0.1-0.5,0.1c-0.1,0-0.2,0-0.3,0
	l-0.9,0v0c-0.1,0-0.2,0.1-0.3,0.1l-0.1,0l-0.1,0c-0.3,0.4-0.9,1-1.6,0.6c-0.4-0.2-0.5-0.6-0.6-0.7c0,0-0.1,0.1-0.2,0.2
	c-0.4,0.4-0.9,0.4-1.2,0.3c-0.1,0-0.2,0-0.2,0c0,0-0.1,0.1-0.1,0.2c-0.1,0.1-0.2,0.2-0.2,0.3c-0.1,0.1-0.2,0.3-0.3,0.6
	c0,0.2,0,0.3-0.1,0.5c-0.1,0.3-0.3,0.5-0.5,0.6c-0.5,0.4-1,0.5-1.3,0.5c-0.4,0-0.6,0-1-0.3c-0.2-0.2-0.3-0.5-0.4-0.7
	c-0.3-0.8-0.3-1.4-0.3-2.1l0-0.4c0-0.1,0-0.2,0-0.2c-0.2-0.2-0.3-0.4-0.4-0.6c-0.1-0.1-0.2-0.2-0.2-0.4l-0.2-0.3
	c0,0-0.1,0.1-0.2,0.1c-0.2,0.1-0.6,0.1-0.9,0l-0.4-0.1l-0.1-0.4c-0.1-0.2-0.1-0.4,0-0.5l0-0.1l-0.1-0.2c-0.3-0.5-0.4-0.7-0.7-0.9
	c-0.1-0.1-0.2-0.1-0.4-0.2c-0.1,0-0.3-0.1-0.4-0.1c-0.3-0.1-0.6-0.3-0.8-0.6c0-0.1-0.1-0.1-0.1-0.2c-0.1,0-0.1,0-0.2,0.1
	c-0.4,0.1-0.6,0.2-0.8,0.3c-0.3,0.2-0.7,0.2-1,0.3c-0.4,0.1-0.8,0.1-1.2,0.1h-0.2l-0.5-0.3c-0.3-0.3-0.4-0.4-0.6-0.5
	c-0.7-0.2-0.9-0.8-1-1.1c0-0.1-0.1-0.2-0.1-0.2c-0.1-0.1-0.1-0.2-0.2-0.2c-0.3,0.2-0.5,0.2-0.9,0.2c-0.2,0-0.4,0-0.5,0
	c-0.1,0-0.3,0.1-0.4,0.1c-0.2,0-0.4,0.1-0.5,0.1l-0.2,0.1c-0.3,0.2-0.9,0.5-1.5,0.2c-0.2-0.1-0.5-0.1-0.6-0.1c0,0-0.1,0.1-0.1,0.2
	c-0.2,0.3-0.6,0.8-1.3,0.7c-0.1,0-0.2,0-0.3-0.1l0,0l-0.3,0c-0.2,0.1-0.7,0.3-1.1-0.1c-0.2-0.1-0.3-0.3-0.5-0.4l-0.1-0.1
	c-0.4-0.4-0.5-0.5-0.8-0.5l-0.2,0c0,0-0.1,0-0.1,0c0,0-0.1,0.1-0.1,0.1c-0.1,0.2-0.1,0.2-0.1,0.3c-0.1,0.3-0.4,1.1-1.2,1
	c-0.3,0-0.6-0.1-0.9-0.1l-0.2,0c-0.1,0.1-0.1,0.2-0.2,0.2c0,0.1-0.1,0.1-0.1,0.2c-0.2,0.4-0.5,0.8-1,1c-0.3,0.1-0.6,0.1-0.9,0.1
	c-0.1,0-0.2,0-0.3,0c0,0-0.1,0.2-0.2,0.2c-0.1,0.1-0.1,0.2-0.2,0.2c-0.1,0.1-0.1,0.2-0.2,0.3c-0.1,0.1-0.1,0.2-0.2,0.3
	c-0.1,0.2-0.3,0.4-0.4,0.5c-0.2,0.2-0.2,0.2-0.2,0.3c-0.2,0.2-0.5,0.8-1.1,0.8c0,0-0.1,0-0.1,0c-30.5-1.7-61.5-2.9-92-3.6l-2.7,68.7
	c0.4-0.1,0.7-0.2,1,0c0.2,0.1,0.4,0.3,0.4,0.4c0,0,0.2,0,0.3,0l0.3,0c0.3,0,0.6,0,0.9,0.1c0.2,0.1,0.4,0.2,0.5,0.3
	c0,0,0.1,0.1,0.1,0.1c0.3,0.2,0.6,0.3,1,0.4l0.7,0.3l0,0c0.1-0.2,0.4-0.8,1.1-0.9c0.2,0,0.4,0,0.6,0c0.3,0.1,0.4,0.2,0.5,0.3
	c0,0,0.1,0,0.2,0c0.1,0,0.3,0,0.5,0c0.2,0,0.5,0,0.6,0h0c0.2,0,0.3,0,0.4,0c0.2,0,0.4,0,0.5,0c0,0,0.1-0.1,0.2-0.1
	c0.1-0.1,0.3-0.2,0.4-0.2c0.5-0.2,1.3-0.4,2,0c0.4,0.3,0.5,0.7,0.6,0.9c0.1,0.3,0.2,0.4,0.3,0.5c0,0,0.1,0.1,0.2,0.1
	c0.2,0.1,0.4,0.2,0.6,0.4c0.4,0.4,0.4,0.8,0.5,1.2c0,0.1,0,0.3,0,0.4c0,0.2,0,0.5,0,0.5c0.3,0.1,0.6,0.2,0.9,0.5
	c0.2,0.4,0.2,0.8,0.2,1.1v0.3c0,0.2,0,0.5,0,0.8l0,0.2c0,0.2,0.1,0.2,0.3,0.3c0.3,0.2,0.8,0.4,1,1.1c0,0.1,0,0.2,0.1,0.3
	c0,0,0,0,0,0.1c0-0.1,0.1-0.3,0.1-0.3c0-0.3,0-0.4,0.1-0.6c0.1-0.2,0.1-0.3,0.2-0.4l0.1-0.2c0-0.2,0-0.5,0.3-0.9
	c0.3-0.3,0.7-0.6,1.2-0.6c0.3,0,0.6,0.1,0.8,0.4c0.2,0.3,0.4,0.7,0.4,0.9c0,0,0,0,0,0l0.2,0c0.4,0,1.1-0.1,1.4,0.4l0.2,0.2
	c0,0,0-0.4,0,0c0-0.1,0.1,0,0,0c0.1,0,0.1,0.1,0.2,0.1c0.3,0,0.6,0,1,0.1c0.8,0.4,1.5,0.9,2.2,1.6c0.9,0.9,0.6,1.6,0.4,1.9
	c-0.2,0.4-0.6,0.5-0.9,0.6c0,0,0,0,0,0c0.1,0.2,0.3,0.5,0.4,0.6c0.1,0.1,0.2,0.3,0.2,0.3c0.3,0.5,0.2,0.9,0.2,1.3
	c0,0.4,0,0.4,0.3,0.6c0.2,0.1,0.6,0.2,0.9,0.3c0,0,0.1,0,0.2,0c0.3,0,1.2-0.1,1.5,0.6c0.2,0.4,0.1,0.7,0.1,1.1c0,0.2,0,0.5,0,0.6
	c0-0.1,0.2,0,0.4,0c0.3,0,0.6,0,0.9,0.3c0.3,0.3,0.3,0.6,0.4,0.8l0.1,0.2l0.2,0.1c0.2,0.3,0.5,0.5,0.9,0.8c0.4,0.2,0.8,0.5,1.1,0.9
	c0.1,0.2,0.2,0.4,0.4,0.5c0.1,0.2,0.2,0.4,0.3,0.4c0.1,0.1,0.2,0.2,0.3,0.3c0,0.1,0.1,0.1,0.1,0.1c0,0,0.1,0.1,0.2,0.1l0.2,0.1
	c0.1,0.1,0.3,0.1,0.5,0.2c0.2,0.1,0.4,0.1,0.6,0.2c0.5,0.2,0.9,0.6,1.1,0.9c0.4,0.4,0.4,0.7,0.4,1c0,0.1,0,0.1,0,0.2
	c0,0.2,0.1,0.3,0.2,0.5c0.1,0.1,0.1,0.2,0.2,0.4c0.1,0.3,0.2,0.5,0.5,0.7c0.4,0.3,0.6,0.6,0.8,0.9c0.2,0.3,0.4,0.4,0.5,0.6
	c0.1,0.1,0.3,0.3,0.4,0.4l0.2,0.1c0.1,0.1,0.2,0.1,0.4,0.2c0,0,0,0,0,0c0.1-0.3,0.4-0.7,1-0.7v0c0-0.6,0.1-1.1,0.7-1.6l0,0
	c0-0.3,0.1-0.5,0.2-0.8c0.5-0.7,1.1-0.7,1.6-0.6l0.5,0c0.7,0,1.6,0,2.3,0.5c0.3-0.2,0.6-0.4,1-0.4c0.5,0,0.9-0.1,1.3,0.1
	c0.4,0.1,0.6,0.4,0.7,0.6c0,0.1,0.1,0.2,0.1,0.2c0.3,0.1,0.5,0.1,0.8,0.4c0.1,0.1,0.3,0.3,0.4,0.5c0.2,0.2,0.3,0.4,0.3,0.4
	c0.2,0,0.5,0,0.7,0l0.4,0c0.7,0,0.9,0.2,1.2,0.7c0.1,0.2,0.2,0.3,0.2,0.5l0.5,0c0.4,0,0.9-0.1,1.3,0.2c0.1,0.1,0.2,0.2,0.4,0.3
	c0.2,0.1,0.4,0.3,0.5,0.3c0.1,0,0.2,0,0.4-0.1c0.2-0.1,0.3-0.2,0.5-0.2c0-0.1,0-0.2,0-0.2c0-0.8,0.5-1.3,1.2-1.4
	c0.7-0.1,1.1,0.3,1.3,0.5c0.1,0.1,0.1,0.1,0.2,0.2c0,0,0.1,0.1,0.2,0.1c0.1,0,0.2,0.1,0.4,0.1c0.3,0.2,0.5,0.4,0.6,0.6
	c0.1,0.2,0.2,0.3,0.2,0.4c0.2,0,0.4,0.1,0.6,0.2h0.7c0.1,0,0.2,0,0.4,0c0.3,0,0.6,0,0.9,0c0.4,0.1,0.7,0.3,1,0.5
	c0.1,0.1,0.1,0.1,0.2,0.2c0,0,0.1-0.1,0.1-0.1c0.9-0.9,1.9-0.7,2.7-0.5l0.4,0.1c0.1,0,0.2,0,0.2,0c-0.1-0.1-0.1-0.4,0-0.7
	c0.2-0.4,0.5-0.8,1.3-0.6c0.2,0,0.4,0.1,0.5,0.2l0.2,0.1c0.2,0.1,0.4,0.1,0.5,0.1l0.2-0.1c0.3-0.1,0.6-0.1,0.8-0.1h0
	c0.7,0,1.4,0.2,1.8,0.6c0.3,0.3,0.6,0.5,1,0.7c0.1,0.1,0.2,0.1,0.3,0.2c0.2,0.1,0.5,0.3,0.8,0.5c0.2,0.2,0.5,0.4,0.5,0.8
	c0,0.3-0.1,0.6-0.2,0.7c0,0,0.1,0.1,0.1,0.1c0.2,0.2,0.3,0.5,0.3,0.8c0.1,0.4-0.1,0.8-0.2,1c0,0.2,0,0.3,0.2,0.5
	c0.1,0.2,0.3,0.4,0.4,0.7c0.1,0.3,0.1,0.6,0.1,0.9c0,0.2,0,0.3,0,0.4c0,0,0,0.1,0,0.1c0.1,0.1,0.2,0.2,0.4,0.3
	c0.3,0.4,0.3,0.7,0.3,0.9l0,0.2c0.1,0.1,0.2,0.1,0.3,0.2l0.2,0.2l0.2,0.3l0,0.4c0,0.3-0.2,0.6-0.3,0.8c0,0.1-0.1,0.1-0.1,0.2
	c-0.1,0.1-0.1,0.2-0.1,0.3c-0.1,0.2-0.1,0.4-0.3,0.7c0,0,0,0,0,0c0.1,0,0.2,0,0.3,0c0.5,0,0.9,0.2,1.2,0.4l0.3,0.2
	c0.3,0.2,0.6,0.4,0.9,0.6c0.4,0.3,0.7,0.5,1.1,0.8c0.2,0.1,0.4,0.2,0.4,0.2c0.1,0.1,0.2,0.1,0.3,0.2c0.3,0.2,0.5,0.3,0.7,0.4
	l0.3,0.2c0.2,0.2,0.5,0.4,0.7,0.5c0.1,0.1,0.3,0.3,0.4,0.4l0.4,0.2c0.3,0.2,0.5,0.4,0.7,0.5c0.2,0.2,0.5,0.4,0.8,0.6
	c0.1,0.1,0.3,0.1,0.4,0.2c0.2,0.1,0.5,0.2,0.7,0.4l0.4,0.2c0.2,0.1,0.3,0.2,0.5,0.3l0.2,0.1c0.3,0.2,0.7,0.4,0.9,0.6
	c0.1,0.1,0.2,0.2,0.3,0.3c0.1,0.1,0.1,0.1,0.2,0.1c0.2,0.1,0.3,0.2,0.4,0.3l0.3,0.2c0.1,0.1,0.3,0.1,0.4,0.3
	c0.1,0.1,0.1,0.1,0.2,0.1l0.2,0.1c0.1,0.1,0.3,0.2,0.4,0.3c0.2,0.1,0.5,0.2,0.7,0.4c0.1,0.1,0.2,0.2,0.3,0.3
	c0.2,0.1,0.2,0.2,0.3,0.2c0.1,0.1,0.3,0.2,0.5,0.3c0-0.4,0-0.8-0.1-1.2c-0.3-0.8-0.8-0.9-0.7-1.9c0.1-0.7,0.5-1.2,0.6-1.9
	c0.2-1,0-1.3,0.5-2.1c0.6-0.9,1-1.2,1.4-2.2c0.5-1.5,1.5-2.6,1.9-4.1c0-1.1-0.2-2.4,0.2-3.4c0.3-0.7,1.1-1.2,1.3-1.9
	c0.1-0.4-0.3-0.9-0.1-1.2c0.3-0.9,1.1-1,1.6-1.8c0.3-0.4,0.1-1.1,0.5-1.6c0.4-0.5,1.1-0.8,1.5-1.4c0.4-0.7,0.5-2.1,1.4-2.6
	c0.5-0.3,2.4,0.4,2.5-0.4c0.1-1-1.9-0.4-0.8-1.8c1.1-1.2,0.9,0.7,1.5,1c0.6-0.7,0-1.1,0-1.9c-0.1-1.1,0.2-0.9,0.6-1.9
	c0.6-1.4,0.7-3,1.4-4.5c0.3-0.7,0.6-1.5,1.1-2.2c0.6-0.9,1.5-1,2.1-1.8c0.5-0.6,0.6-1.3,1.1-1.9c0.5-0.6,1.3-0.9,1.2-1.8v-0.3
	c0.6-0.9,0.5-1.6,0.9-2.4c0.5-1.1,0.8-0.8,1.5-1.5c1.1-1.1,1.7-3,2.5-4.3c0.9-1.5,1.5-3,3.3-3.4c1.8-0.4,3.2-0.3,4.4-2
	c0.5-0.7,0.5-1.2,1.2-1.7c0.6-0.4,1.4-0.2,2-0.5c1.8-0.8,1.1-1.9,1.2-3.4c0.1-2.4,2.9-4.5,4.4-6.1c1.1-1.2,0.7-1.9,1.3-3.2
	c0.6-1.3,1.6-1.7,1.5-3.4l0.1-0.4c0.2-0.8,0.9-0.9,1.2-1.4c0.3-0.6,0.4-1,0.6-1.8c0.1-0.6,0.5-0.7,0.3-1.5c-0.1-0.6-0.7-1-0.8-1.6
	c-0.4-2.6,2.4-4.7,3.3-6.8c0.5-1,0.4-2.3,0.8-3.2c0.4-1,1.1-2.2,1.6-3.4c0.5-1.2,1.2-2.3,1.4-3.7c0.2-1.5,0.2-1.8,1-3
	c0.4-0.6,0.5-0.8,0.7-1.5c0.3-0.7,0.1-1,0.7-1.6c1.2-1.3,1.6-1.2,1.6-3l0.3-0.7c0-1.1-0.2-2.4,0.1-3.5
	C491.4,275.1,492.2,275.5,490.9,273.6z M432.2,355.3c0,0.4-0.4,0.8-0.8,0.8h-1.5H429l-0.7,1v1.1v1.1v1.6v2.3c0,0.4-0.4,0.8-0.8,0.8
	h-1.7c-0.2,0-0.4-0.1-0.6-0.2l-1.1-1.1l-1.1-1.1c-0.1-0.1-0.2-0.4-0.2-0.6v-2v-2.6v-1.7c0-0.3,0.1-0.5,0.3-0.7l1.3-0.9
	c0,0,0.1,0,0.1-0.1l1.5-0.7c0.1-0.1,0.2-0.1,0.4-0.1h1.5h0.9c0.4,0,0.8,0.4,0.8,0.8v0.4l0.5,0.2h1.4c0.4,0,0.8,0.4,0.8,0.8V355.3z" aria-selected="false" tabindex="-1"></path>
                        <polygon id="act" class="st0 focus-none cursor-pointer" data-bs-toggle="tab" data-bs-target="#AU-ACT" href="#" role="tab" points="429.9,355.3 431.4,355.3 431.4,354.2 429.9,354.2 428.7,353.8 428.7,352.9 427.8,352.9 
	426.3,352.9 424.8,353.6 423.5,354.6 423.5,356.3 423.5,358.9 423.5,360.9 424.6,362 425.8,363.1 427.4,363.1 427.4,360.9 
	427.4,359.2 427.4,358.2 427.4,356.9 428.6,355.3 " aria-selected="false" tabindex="-1"></polygon>
                        <g>
                            <path class="st1" d="M87.1,239.6h-5.9l-1.2,2.8h-1.6l5.1-11.2H85l5.1,11.2h-1.7L87.1,239.6z M86.6,238.3l-2.4-5.5l-2.4,5.5H86.6z"></path>
                            <path class="st1" d="M91.4,237.5v-6.4H93v6.3c0,2.5,1.1,3.6,3.2,3.6s3.2-1.1,3.2-3.6v-6.3h1.6v6.4c0,3.2-1.8,5-4.7,5
		C93.2,242.5,91.4,240.8,91.4,237.5z"></path>
                            <path class="st1" d="M103.4,237.3h4.3v1.3h-4.3V237.3z"></path>
                            <path class="st1" d="M125.7,231.2l-3.7,11.2h-1.7l-3.1-8.9l-3.1,8.9h-1.7l-3.7-11.2h1.6l3,9.1l3.2-9.1h1.5l3.1,9.1l3.1-9.1H125.7z"></path>
                            <path class="st1" d="M134.4,239.6h-5.9l-1.2,2.8h-1.6l5.1-11.2h1.6l5.1,11.2h-1.7L134.4,239.6z M133.9,238.3l-2.4-5.5l-2.4,5.5
		H133.9z"></path>
                        </g>
                        <g>
                            <path class="st1" d="M235,160.6h-5.9l-1.2,2.8h-1.6l5.1-11.2h1.6l5.1,11.2h-1.7L235,160.6z M234.5,159.3l-2.4-5.5l-2.4,5.5H234.5z"></path>
                            <path class="st1" d="M239.3,158.6v-6.4h1.6v6.3c0,2.5,1.1,3.6,3.2,3.6c2,0,3.2-1.1,3.2-3.6v-6.3h1.6v6.4c0,3.2-1.8,5-4.7,5
		C241.1,163.5,239.3,161.8,239.3,158.6z"></path>
                            <path class="st1" d="M251.2,158.3h4.3v1.3h-4.3V158.3z"></path>
                            <path class="st1" d="M267.8,152.2v11.2h-1.3l-6.7-8.3v8.3h-1.6v-11.2h1.3l6.7,8.3v-8.3H267.8z"></path>
                            <path class="st1" d="M273.3,153.6h-3.8v-1.4h9.3v1.4h-3.8v9.8h-1.6V153.6z"></path>
                        </g>
                        <g>
                            <path class="st1" d="M266.7,280.2h-5.9l-1.2,2.8h-1.6l5.1-11.2h1.6l5.1,11.2h-1.7L266.7,280.2z M266.1,279l-2.4-5.5l-2.4,5.5H266.1
		z"></path>
                            <path class="st1" d="M270.9,278.2v-6.4h1.6v6.3c0,2.5,1.1,3.6,3.2,3.6s3.2-1.1,3.2-3.6v-6.3h1.6v6.4c0,3.2-1.8,5-4.7,5
		C272.7,283.2,270.9,281.5,270.9,278.2z"></path>
                            <path class="st1" d="M282.9,278h4.3v1.3h-4.3V278z"></path>
                            <path class="st1" d="M288.5,281.8l0.6-1.2c0.8,0.8,2.3,1.3,3.7,1.3c1.9,0,2.8-0.8,2.8-1.7c0-2.7-6.8-1-6.8-5.2
		c0-1.7,1.3-3.2,4.3-3.2c1.3,0,2.7,0.4,3.6,1l-0.5,1.3c-1-0.6-2.1-0.9-3.1-0.9c-1.9,0-2.7,0.8-2.7,1.8c0,2.7,6.8,1,6.8,5.1
		c0,1.7-1.4,3.2-4.3,3.2C291.1,283.2,289.4,282.6,288.5,281.8z"></path>
                            <path class="st1" d="M306.6,280.2h-5.9l-1.2,2.8h-1.6l5.1-11.2h1.6l5.1,11.2h-1.7L306.6,280.2z M306,279l-2.4-5.5l-2.4,5.5H306z"></path>
                        </g>
                        <g>
                            <path class="st1" d="M360.6,192.9h-5.9l-1.2,2.8h-1.6l5.1-11.2h1.6l5.1,11.2h-1.7L360.6,192.9z M360,191.6l-2.4-5.5l-2.4,5.5H360z"></path>
                            <path class="st1" d="M364.8,190.8v-6.4h1.6v6.3c0,2.5,1.1,3.6,3.2,3.6c2,0,3.2-1.1,3.2-3.6v-6.3h1.6v6.4c0,3.2-1.8,5-4.7,5
		C366.6,195.8,364.8,194.1,364.8,190.8z"></path>
                            <path class="st1" d="M376.8,190.6h4.3v1.3h-4.3V190.6z"></path>
                            <path class="st1" d="M395.3,196.7c-0.7,0.8-1.7,1.3-2.8,1.3c-1.4,0-2.5-0.6-4.1-2.2c-3.2-0.2-5.5-2.6-5.5-5.7c0-3.3,2.5-5.7,6-5.7
		c3.4,0,5.9,2.4,5.9,5.7c0,2.8-1.8,4.9-4.4,5.5c0.8,0.8,1.4,1.1,2.1,1.1c0.8,0,1.5-0.3,2-1L395.3,196.7z M388.9,194.4
		c2.5,0,4.3-1.8,4.3-4.3c0-2.5-1.9-4.3-4.3-4.3c-2.5,0-4.4,1.8-4.4,4.3C384.5,192.5,386.4,194.4,388.9,194.4z"></path>
                            <path class="st1" d="M397.3,184.5h1.6v9.8h6.1v1.4h-7.7V184.5z"></path>
                            <path class="st1" d="M406.8,184.5h4.7c3.6,0,6,2.3,6,5.6s-2.4,5.6-6,5.6h-4.7V184.5z M411.4,194.3c2.8,0,4.5-1.7,4.5-4.2
		c0-2.5-1.8-4.2-4.5-4.2h-3v8.4H411.4z"></path>
                        </g>
                        <g>
                            <path class="st1" d="M378.2,316.6h-5.9l-1.2,2.8h-1.6l5.1-11.2h1.6l5.1,11.2h-1.7L378.2,316.6z M377.6,315.3l-2.4-5.5l-2.4,5.5
		H377.6z"></path>
                            <path class="st1" d="M382.4,314.6v-6.4h1.6v6.3c0,2.5,1.1,3.6,3.2,3.6c2,0,3.2-1.1,3.2-3.6v-6.3h1.6v6.4c0,3.2-1.8,5-4.7,5
		C384.2,319.5,382.4,317.8,382.4,314.6z"></path>
                            <path class="st1" d="M394.4,314.3h4.3v1.3h-4.3V314.3z"></path>
                            <path class="st1" d="M410.9,308.2v11.2h-1.3l-6.7-8.3v8.3h-1.6v-11.2h1.3l6.7,8.3v-8.3H410.9z"></path>
                            <path class="st1" d="M413.3,318.1l0.6-1.2c0.8,0.8,2.3,1.3,3.7,1.3c1.9,0,2.8-0.8,2.8-1.7c0-2.7-6.8-1-6.8-5.2
		c0-1.7,1.3-3.2,4.3-3.2c1.3,0,2.7,0.4,3.6,1l-0.5,1.3c-1-0.6-2.1-0.9-3.1-0.9c-1.9,0-2.7,0.8-2.7,1.8c0,2.7,6.8,1,6.8,5.1
		c0,1.7-1.4,3.2-4.3,3.2C415.8,319.5,414.2,318.9,413.3,318.1z"></path>
                            <path class="st1" d="M440,308.2l-3.7,11.2h-1.7l-3.1-8.9l-3.1,8.9h-1.7l-3.7-11.2h1.6l3,9.1l3.2-9.1h1.5l3.1,9.1l3.1-9.1H440z"></path>
                        </g>
                        <g>
                            <path class="st1" d="M358.1,387.2h-5.9l-1.2,2.8h-1.6l5.1-11.2h1.6L361,390h-1.7L358.1,387.2z M357.5,385.9l-2.4-5.5l-2.4,5.5
		H357.5z"></path>
                            <path class="st1" d="M362.3,385.2v-6.4h1.6v6.3c0,2.5,1.1,3.6,3.2,3.6c2,0,3.2-1.1,3.2-3.6v-6.3h1.6v6.4c0,3.2-1.8,5-4.7,5
		C364.1,390.1,362.3,388.4,362.3,385.2z"></path>
                            <path class="st1" d="M374.3,384.9h4.3v1.3h-4.3V384.9z"></path>
                            <path class="st1" d="M390.6,378.8l-4.9,11.2h-1.6l-4.9-11.2h1.7l4,9.2l4.1-9.2H390.6z"></path>
                            <path class="st1" d="M392,378.8h1.6V390H392V378.8z"></path>
                            <path class="st1" d="M396,384.4c0-3.3,2.5-5.7,5.9-5.7c1.7,0,3.2,0.6,4.3,1.7l-1,1c-0.9-0.9-1.9-1.3-3.2-1.3
		c-2.5,0-4.4,1.8-4.4,4.3c0,2.5,1.9,4.3,4.4,4.3c1.2,0,2.3-0.4,3.2-1.3l1,1c-1,1.2-2.5,1.8-4.3,1.8C398.5,390.1,396,387.7,396,384.4
		z"></path>
                        </g>
                        <g>
                            <path class="st0" d="M458.4,364.8h-5.9l-1.2,2.8h-1.6l5.1-11.2h1.6l5.1,11.2h-1.7L458.4,364.8z M457.9,363.5l-2.4-5.5l-2.4,5.5
		H457.9z"></path>
                            <path class="st0" d="M462.7,362.8v-6.4h1.6v6.3c0,2.5,1.1,3.6,3.2,3.6s3.2-1.1,3.2-3.6v-6.3h1.6v6.4c0,3.2-1.8,5-4.7,5
		C464.5,367.7,462.7,366,462.7,362.8z"></path>
                            <path class="st0" d="M474.7,362.6h4.3v1.3h-4.3V362.6z"></path>
                            <path class="st0" d="M488.4,364.8h-5.9l-1.2,2.8h-1.6l5.1-11.2h1.6l5.1,11.2h-1.7L488.4,364.8z M487.8,363.5l-2.4-5.5l-2.4,5.5
		H487.8z"></path>
                            <path class="st0" d="M491.9,362c0-3.3,2.5-5.7,5.9-5.7c1.7,0,3.2,0.6,4.3,1.7l-1,1c-0.9-0.9-1.9-1.3-3.2-1.3
		c-2.5,0-4.4,1.8-4.4,4.3c0,2.5,1.9,4.3,4.4,4.3c1.2,0,2.3-0.4,3.2-1.3l1,1c-1,1.2-2.5,1.8-4.3,1.8
		C494.4,367.7,491.9,365.3,491.9,362z"></path>
                            <path class="st0" d="M506.5,357.8h-3.8v-1.4h9.3v1.4h-3.8v9.8h-1.6V357.8z"></path>
                        </g>
                        <g>
                            <path class="st0" d="M366,491h-5.9l-1.2,2.8h-1.6l5.1-11.2h1.6l5.1,11.2h-1.7L366,491z M365.5,489.7l-2.4-5.5l-2.4,5.5H365.5z"></path>
                            <path class="st0" d="M370.3,489v-6.4h1.6v6.3c0,2.5,1.1,3.6,3.2,3.6c2,0,3.2-1.1,3.2-3.6v-6.3h1.6v6.4c0,3.2-1.8,5-4.7,5
		C372.1,493.9,370.3,492.2,370.3,489z"></path>
                            <path class="st0" d="M382.2,488.7h4.3v1.3h-4.3V488.7z"></path>
                            <path class="st0" d="M390.8,484H387v-1.4h9.3v1.4h-3.8v9.8h-1.6V484z"></path>
                            <path class="st0" d="M396.9,488.2c0-3.3,2.5-5.7,5.9-5.7c1.7,0,3.2,0.6,4.3,1.7l-1,1c-0.9-0.9-1.9-1.3-3.2-1.3
		c-2.5,0-4.4,1.8-4.4,4.3c0,2.5,1.9,4.3,4.4,4.3c1.2,0,2.3-0.4,3.2-1.3l1,1c-1,1.2-2.5,1.8-4.3,1.8
		C399.4,493.9,396.9,491.5,396.9,488.2z"></path>
                            <path class="st0" d="M416.3,491h-5.9l-1.2,2.8h-1.6l5.1-11.2h1.6l5.1,11.2h-1.7L416.3,491z M415.7,489.7l-2.4-5.5l-2.4,5.5H415.7z"></path>
                        </g>
                    </svg>