<svg xmlns="http://www.w3.org/2000/svg" viewBox="0 0 2090 1405" width="2090" height="1405" preserveAspectRatio="xMidYMid meet" style="width: 100%; height: 100%; transform: translate3d(0px, 0px, 0px);"><defs><clipPath id="__lottie_element_3"><rect width="2090" height="1405" x="0" y="0"></rect></clipPath></defs><g clip-path="url(#__lottie_element_3)"><g transform="matrix(1,0,0,1,-0.25,8.156005859375)" opacity="1" style="display: block;"><g opacity="1" transform="matrix(1,0,0,1,339.84600830078125,922.958984375)"><path fill="rgb(0,182,241)" fill-opacity="1" d=" M339.59600830078125,-462.7090148925781 C339.59600830078125,-462.7090148925781 -19.375999450683594,-462.7090148925781 -19.375999450683594,-462.7090148925781 C-196.22900390625,-462.7090148925781 -339.59600830078125,-319.3420104980469 -339.59600830078125,-142.48899841308594 C-339.59600830078125,-142.48899841308594 -339.59600830078125,462.7090148925781 -339.59600830078125,462.7090148925781 C-339.59600830078125,462.7090148925781 339.59600830078125,462.7090148925781 339.59600830078125,462.7090148925781 C339.59600830078125,462.7090148925781 339.59600830078125,-462.7090148925781 339.59600830078125,-462.7090148925781z"></path></g><g opacity="1" transform="matrix(1,0,0,1,1750.4100341796875,692.958984375)"><path fill="rgb(145,228,255)" fill-opacity="1" d=" M-339.59600830078125,-692.708984375 C-339.59600830078125,-692.708984375 19.37700080871582,-692.708984375 19.37700080871582,-692.708984375 C196.22900390625,-692.708984375 339.59698486328125,-549.3419799804688 339.59698486328125,-372.489013671875 C339.59698486328125,-372.489013671875 339.59698486328125,692.708984375 339.59698486328125,692.708984375 C339.59698486328125,692.708984375 -339.59600830078125,692.708984375 -339.59600830078125,692.708984375 C-339.59600830078125,692.708984375 -339.59600830078125,-692.708984375 -339.59600830078125,-692.708984375z"></path></g><g opacity="1" transform="matrix(1,0,0,1,820.083984375,356.85400390625)"><path fill="rgb(237,28,36)" fill-opacity="1" d=" M430.6409912109375,260.7070007324219 C430.6409912109375,260.7070007324219 430.6409912109375,125.52799987792969 430.6409912109375,125.52799987792969 C430.6409912109375,-87.78199768066406 257.718994140625,-260.7070007324219 44.409000396728516,-260.7070007324219 C44.409000396728516,-260.7070007324219 -430.6409912109375,-260.7070007324219 -430.6409912109375,-260.7070007324219 C-430.6409912109375,-260.7070007324219 -430.6409912109375,260.7070007324219 -430.6409912109375,260.7070007324219 C-430.6409912109375,260.7070007324219 430.6409912109375,260.7070007324219 430.6409912109375,260.7070007324219z"></path></g></g><g transform="matrix(1,0,0,1,1591.406005859375,36.7449951171875)" opacity="1" style="display: block;"><g opacity="1" transform="matrix(1,0,0,1,455.2690124511719,408.3810119628906)"><path fill="rgb(237,28,36)" fill-opacity="1" d=" M43.08100128173828,0.0010000000474974513 C43.08100128173828,0.0010000000474974513 43.08100128173828,86.16200256347656 43.08100128173828,86.16200256347656 C-4.185999870300293,86.16200256347656 -43.08000183105469,47.266998291015625 -43.08000183105469,0.0010000000474974513 C-43.08000183105469,-47.26599884033203 -4.185999870300293,-86.16200256347656 43.08100128173828,-86.16200256347656 C43.08100128173828,-86.16200256347656 43.08100128173828,0.0010000000474974513 43.08100128173828,0.0010000000474974513z"></path></g><g opacity="1" transform="matrix(1,0,0,1,88.02100372314453,44.13600158691406)"><path fill="rgb(34,64,153)" fill-opacity="1" d=" M0,-43.88600158691406 C0,-43.88600158691406 87.77100372314453,-43.88600158691406 87.77100372314453,-43.88600158691406 C87.77100372314453,4.263999938964844 48.150001525878906,43.88600158691406 0,43.88600158691406 C-48.14899826049805,43.88600158691406 -87.77100372314453,4.263999938964844 -87.77100372314453,-43.88600158691406 C-87.77100372314453,-43.88600158691406 0,-43.88600158691406 0,-43.88600158691406z"></path></g></g><g transform="matrix(1,0,0,1,147.77297973632812,542.4719848632812)" opacity="1" style="display: block;"><g opacity="1" transform="matrix(1,0,0,1,401.14898681640625,661.9110107421875)"><path fill="rgb(40,40,40)" fill-opacity="1" d=" M24.76300048828125,192.50999450683594 C24.76300048828125,192.50999450683594 25.45199966430664,192.4969940185547 25.45199966430664,192.4969940185547 C31.08099937438965,192.3939971923828 35.42900085449219,187.79299926757812 34.89899826049805,182.5 C34.89899826049805,182.5 -2.6559998989105225,-192.5679931640625 -2.6559998989105225,-192.5679931640625 C-2.6559998989105225,-192.5679931640625 -35.428001403808594,-189.6439971923828 -35.428001403808594,-189.6439971923828 C-35.428001403808594,-189.6439971923828 18.499000549316406,187.44200134277344 18.499000549316406,187.44200134277344 C18.920000076293945,190.38800048828125 21.614999771118164,192.5679931640625 24.76300048828125,192.50999450683594z"></path></g><g opacity="1" transform="matrix(1,0,0,1,89.0479965209961,661.9110107421875)"><path fill="rgb(40,40,40)" fill-opacity="1" d=" M-24.76300048828125,192.50999450683594 C-24.76300048828125,192.50999450683594 -25.451000213623047,192.4969940185547 -25.451000213623047,192.4969940185547 C-31.08099937438965,192.3939971923828 -35.428001403808594,187.79299926757812 -34.89899826049805,182.5 C-34.89899826049805,182.5 2.6570000648498535,-192.5679931640625 2.6570000648498535,-192.5679931640625 C2.6570000648498535,-192.5679931640625 35.428001403808594,-189.6439971923828 35.428001403808594,-189.6439971923828 C35.428001403808594,-189.6439971923828 -18.499000549316406,187.44200134277344 -18.499000549316406,187.44200134277344 C-18.920000076293945,190.38800048828125 -21.614999771118164,192.5679931640625 -24.76300048828125,192.50999450683594z"></path></g><g opacity="1" transform="matrix(1,0,0,1,666.0999755859375,661.9110107421875)"><path fill="rgb(140,180,244)" fill-opacity="1" d=" M24.761999130249023,192.50999450683594 C24.761999130249023,192.50999450683594 25.451000213623047,192.4969940185547 25.451000213623047,192.4969940185547 C31.079999923706055,192.3939971923828 35.428001403808594,187.79299926757812 34.89799880981445,182.5 C34.89799880981445,182.5 -2.6570000648498535,-192.5679931640625 -2.6570000648498535,-192.5679931640625 C-2.6570000648498535,-192.5679931640625 -35.428001403808594,-189.6439971923828 -35.428001403808594,-189.6439971923828 C-35.428001403808594,-189.6439971923828 18.49799919128418,187.44200134277344 18.49799919128418,187.44200134277344 C18.91900062561035,190.38800048828125 21.61400032043457,192.5679931640625 24.761999130249023,192.50999450683594z"></path></g><g opacity="1" transform="matrix(1,0,0,1,203.36399841308594,207.51699829101562)"><path fill="rgb(58,58,58)" fill-opacity="1" d=" M-127.89399719238281,207.26699829101562 C-127.89399719238281,207.26699829101562 -194.55799865722656,-121.93800354003906 -194.55799865722656,-121.93800354003906 C-203.11399841308594,-166.50999450683594 -166.17999267578125,-207.26699829101562 -118.2239990234375,-206.17100524902344 C-118.2239990234375,-206.17100524902344 10.342000007629395,-203.23500061035156 10.342000007629395,-203.23500061035156 C54.694000244140625,-202.22300720214844 93.25599670410156,-172.53900146484375 105.58300018310547,-129.9219970703125 C105.58300018310547,-129.9219970703125 203.11399841308594,207.26699829101562 203.11399841308594,207.26699829101562 C203.11399841308594,207.26699829101562 -127.89399719238281,207.26699829101562 -127.89399719238281,207.26699829101562z"></path></g><g opacity="1" transform="matrix(1,0,0,1,348.3789978027344,444.80499267578125)"><path fill="rgb(40,40,40)" fill-opacity="1" d=" M-254.32899475097656,30.020999908447266 C-254.32899475097656,30.020999908447266 254.32899475097656,30.020999908447266 254.32899475097656,30.020999908447266 C264.54901123046875,30.020999908447266 272.9100036621094,21.65999984741211 272.9100036621094,11.4399995803833 C272.9100036621094,11.4399995803833 272.9100036621094,-11.4399995803833 272.9100036621094,-11.4399995803833 C272.9100036621094,-21.65999984741211 264.54901123046875,-30.020999908447266 254.32899475097656,-30.020999908447266 C254.32899475097656,-30.020999908447266 -272.9100036621094,-30.020999908447266 -272.9100036621094,-30.020999908447266 C-272.9100036621094,-30.020999908447266 -272.9100036621094,11.4399995803833 -272.9100036621094,11.4399995803833 C-272.9100036621094,21.65999984741211 -264.5480041503906,30.020999908447266 -254.32899475097656,30.020999908447266z"></path></g><g opacity="1" transform="matrix(1,0,0,1,494.8789978027344,444.80499267578125)"><path fill="rgb(140,180,244)" fill-opacity="1" d=" M-162.12899780273438,30.020999908447266 C-162.12899780273438,30.020999908447266 162.12899780273438,30.020999908447266 162.12899780273438,30.020999908447266 C170.36199951171875,30.020999908447266 177.0970001220703,23.285999298095703 177.0970001220703,15.053000450134277 C177.0970001220703,15.053000450134277 177.0970001220703,-15.053000450134277 177.0970001220703,-15.053000450134277 C177.0970001220703,-23.285999298095703 170.36199951171875,-30.020999908447266 162.12899780273438,-30.020999908447266 C162.12899780273438,-30.020999908447266 -162.12899780273438,-30.020999908447266 -162.12899780273438,-30.020999908447266 C-170.36199951171875,-30.020999908447266 -177.0970001220703,-23.285999298095703 -177.0970001220703,-15.053000450134277 C-177.0970001220703,-15.053000450134277 -177.0970001220703,15.053000450134277 -177.0970001220703,15.053000450134277 C-177.0970001220703,23.285999298095703 -170.36199951171875,30.020999908447266 -162.12899780273438,30.020999908447266z"></path></g></g><g transform="matrix(0.9946370124816895,0.10342739522457123,-0.10342739522457123,0.9946370124816895,173.58763122558594,180.30210876464844)" opacity="1" style="display: block;"><g opacity="1" transform="matrix(1,0,0,1,212.3560028076172,207.81500244140625)"><path fill="rgb(0,0,0)" fill-opacity="1" d=" M112.5770034790039,-184.48599243164062 C90.10199737548828,-196.28799438476562 55.90599822998047,-197.88400268554688 50.349998474121094,-198.63099670410156 C-16.131000518798828,-207.56500244140625 -56.14400100708008,-110.96099853515625 -58.49800109863281,-81.69000244140625 C-62.834999084472656,-27.736000061035156 -91.37699890136719,-19.510000228881836 -131.55099487304688,14.279999732971191 C-212.1060028076172,82.03199768066406 -188.48300170898438,160.75999450683594 -144.43600463867188,190.01300048828125 C-118.00700378417969,207.56500244140625 -71.42400360107422,190.00999450683594 -71.42400360107422,190.00999450683594 C-70.76599884033203,190.4709930419922 55.9739990234375,119.16000366210938 118.447998046875,84.76100158691406 C212.1060028076172,71.4469985961914 169.84800720214844,-154.41200256347656 112.5770034790039,-184.48599243164062z"></path></g></g><g transform="matrix(1,0,0,1,183.0830078125,371.2330322265625)" opacity="1" style="display: block;"><g opacity="1" transform="matrix(1,0,0,1,390.7179870605469,532.051025390625)"><path fill="rgb(35,56,98)" fill-opacity="1" d=" M92.56300354003906,-14.92199993133545 C65.04499816894531,32.97100067138672 30.43400001525879,51.45899963378906 30.43400001525879,51.45899963378906 C30.43400001525879,51.45899963378906 -113.55599975585938,51.45899963378906 -113.55599975585938,51.45899963378906 C-113.55599975585938,51.45899963378906 113.55599975585938,-51.45899963378906 92.56300354003906,-14.92199993133545z"></path></g><g opacity="1" transform="matrix(1,0,0,1,730.0889892578125,959.176025390625)"><path fill="rgb(255,175,159)" fill-opacity="1" d=" M-69.21399688720703,33.77199935913086 C-70.77100372314453,48.87900161743164 -49.75699996948242,52.78200149536133 -25.38800048828125,54.257999420166016 C-1.0169999599456787,55.73400115966797 -8.4399995803833,60.64899826049805 24.910999298095703,67.05899810791016 C58.26100158691406,73.46900177001953 71.75,64.46900177001953 74.21700286865234,59.979000091552734 C76.41400146484375,55.99800109863281 60.94499969482422,49.566001892089844 44.465999603271484,42.30799865722656 C42.38999938964844,41.402000427246094 40.31399917602539,40.46799850463867 38.237998962402344,39.534000396728516 C19.691999435424805,31.141000747680664 9.416000366210938,14.317000389099121 -4.945000171661377,-1.3320000171661377 C-18.548999786376953,-16.1560001373291 -31.110000610351562,-63.28499984741211 -31.110000610351562,-63.28499984741211 C-31.110000610351562,-63.28499984741211 -76.41500091552734,-73.46900177001953 -76.41500091552734,-73.46900177001953 C-76.41500091552734,-73.46900177001953 -64.11900329589844,-31.041000366210938 -59.88600158691406,-12.939000129699707 C-57.39699935913086,-2.2909998893737793 -61.3650016784668,9.539999961853027 -64.87200164794922,18.540000915527344 C-66.76300048828125,23.43600082397461 -68.6719970703125,28.448999404907227 -69.21399688720703,33.77199935913086z"></path></g><g opacity="1" transform="matrix(1,0,0,1,732.9110107421875,1005.1799926757812)"><path fill="rgb(15,37,73)" fill-opacity="1" d=" M-28.208999633789062,8.253999710083008 C-3.8380000591278076,9.729999542236328 -11.26200008392334,14.645000457763672 22.089000701904297,21.05500030517578 C55.4379997253418,27.46500015258789 68.9280014038086,18.46500015258789 71.39399719238281,13.975000381469727 C73.59200286865234,9.993000030517578 58.12300109863281,3.562000036239624 41.64400100708008,-3.696000099182129 C41.64400100708008,-3.696000099182129 41.382999420166016,-3.4170000553131104 41.382999420166016,-3.4170000553131104 C41.382999420166016,-3.4170000553131104 17.801000595092773,4.309000015258789 -9.23900032043457,-3.3550000190734863 C-31.280000686645508,-9.595000267028809 -52.51100158691406,-23.033000946044922 -67.69300079345703,-27.46500015258789 C-69.58399963378906,-22.56800079345703 -71.49400329589844,-17.55500030517578 -72.03600311279297,-12.232000350952148 C-73.59300231933594,2.875 -52.577999114990234,6.7779998779296875 -28.208999633789062,8.253999710083008z"></path></g><g opacity="1" transform="matrix(1,0,0,1,436.3489990234375,633.2860107421875)"><path fill="rgb(27,44,101)" fill-opacity="1" d=" M155.88699340820312,-165.21800231933594 C131.50900268554688,-182.33599853515625 -29.749000549316406,-212.85299682617188 -112.04299926757812,-221.6790008544922 C-112.04299926757812,-221.6790008544922 -203.00100708007812,-300.6369934082031 -203.00100708007812,-300.6369934082031 C-203.00100708007812,-300.6369934082031 -280.42401123046875,-185.96200561523438 -281.0369873046875,-98.23500061035156 C-281.322998046875,-57.32899856567383 -262.48199462890625,-53.268001556396484 -262.4779968261719,-53.25899887084961 C-262.4779968261719,-53.25899887084961 29.106000900268555,-51.09600067138672 41.88800048828125,-49.77799987792969 C62.808998107910156,-47.619998931884766 90.40699768066406,4.498000144958496 97.30400085449219,51.96900177001953 C104.19999694824219,99.43900299072266 225.78900146484375,292.510986328125 225.78900146484375,292.510986328125 C225.78900146484375,292.510986328125 251.1479949951172,300.6369934082031 262.8739929199219,299.947998046875 C275.4859924316406,299.2080078125 281.322998046875,294.98199462890625 281.322998046875,294.98199462890625 C281.322998046875,294.98199462890625 210.86399841308594,-126.61299896240234 155.88699340820312,-165.21800231933594z"></path></g><g opacity="1" transform="matrix(1,0,0,1,654.6680297851562,959.176025390625)"><path fill="rgb(255,175,159)" fill-opacity="1" d=" M-69.21199798583984,33.77199935913086 C-70.76899719238281,48.87900161743164 -49.75600051879883,52.78200149536133 -25.38599967956543,54.257999420166016 C-1.0149999856948853,55.73400115966797 -8.439000129699707,60.64899826049805 24.910999298095703,67.05899810791016 C58.26100158691406,73.46900177001953 71.7509994506836,64.46900177001953 74.21800231933594,59.979000091552734 C76.41500091552734,55.99800109863281 60.946998596191406,49.566001892089844 44.465999603271484,42.30799865722656 C42.391998291015625,41.402000427246094 40.316001892089844,40.46799850463867 38.2400016784668,39.534000396728516 C19.694000244140625,31.141000747680664 9.416000366210938,14.317000389099121 -4.945000171661377,-1.3320000171661377 C-18.54800033569336,-16.1560001373291 -31.108999252319336,-63.28499984741211 -31.108999252319336,-63.28499984741211 C-31.108999252319336,-63.28499984741211 -76.41400146484375,-73.46900177001953 -76.41400146484375,-73.46900177001953 C-76.41400146484375,-73.46900177001953 -64.11799621582031,-31.041000366210938 -59.8849983215332,-12.939000129699707 C-57.395999908447266,-2.2909998893737793 -61.3650016784668,9.539999961853027 -64.87200164794922,18.540000915527344 C-66.76200103759766,23.43600082397461 -68.66999816894531,28.448999404907227 -69.21199798583984,33.77199935913086z"></path></g><g opacity="1" transform="matrix(1,0,0,1,657.489990234375,1005.1799926757812)"><path fill="rgb(35,56,98)" fill-opacity="1" d=" M-28.208999633789062,8.253999710083008 C-3.8380000591278076,9.729999542236328 -11.26099967956543,14.645000457763672 22.08799934387207,21.05500030517578 C55.43899917602539,27.46500015258789 68.9280014038086,18.46500015258789 71.3949966430664,13.975000381469727 C73.59200286865234,9.993000030517578 58.124000549316406,3.562000036239624 41.643001556396484,-3.696000099182129 C41.643001556396484,-3.696000099182129 41.38199996948242,-3.4170000553131104 41.38199996948242,-3.4170000553131104 C41.38199996948242,-3.4170000553131104 17.801000595092773,4.309000015258789 -9.23900032043457,-3.3550000190734863 C-31.27899932861328,-9.595000267028809 -52.51100158691406,-23.033000946044922 -67.69400024414062,-27.46500015258789 C-69.58399963378906,-22.56800079345703 -71.49299621582031,-17.55500030517578 -72.03500366210938,-12.232000350952148 C-73.59200286865234,2.875 -52.57899856567383,6.7779998779296875 -28.208999633789062,8.253999710083008z"></path></g><g opacity="1" transform="matrix(1,0,0,1,360.260986328125,633.2860107421875)"><path fill="rgb(15,67,127)" fill-opacity="1" d=" M155.88699340820312,-165.21800231933594 C134.70799255371094,-180.08900451660156 71.01000213623047,-191.61700439453125 0.6970000267028809,-200.1750030517578 C-18.743999481201172,-202.5399932861328 -34.70500183105469,-216.6750030517578 -39.452999114990234,-235.6750030517578 C-39.452999114990234,-235.6750030517578 -203.00100708007812,-300.6369934082031 -203.00100708007812,-300.6369934082031 C-203.00100708007812,-300.6369934082031 -280.42401123046875,-185.96200561523438 -281.0369873046875,-98.23500061035156 C-281.322998046875,-57.32899856567383 -262.48199462890625,-53.268001556396484 -262.4779968261719,-53.25899887084961 C-262.4779968261719,-53.25899887084961 29.106000900268555,-51.09600067138672 41.88800048828125,-49.77799987792969 C62.808998107910156,-47.619998931884766 90.40699768066406,4.498000144958496 97.30400085449219,51.96900177001953 C104.19999694824219,99.43900299072266 225.79100036621094,292.510986328125 225.79100036621094,292.510986328125 C225.79100036621094,292.510986328125 251.14700317382812,300.6369934082031 262.8739929199219,299.947998046875 C275.4849853515625,299.2080078125 281.322998046875,294.98199462890625 281.322998046875,294.98199462890625 C281.322998046875,294.98199462890625 210.86399841308594,-126.61299896240234 155.88699340820312,-165.21800231933594z"></path></g><g opacity="1" transform="matrix(1,0,0,1,239.19500732421875,53.09199905395508)"><path fill="rgb(255,175,159)" fill-opacity="1" d=" M44.2400016784668,39.124000549316406 C44.53099822998047,39.27299880981445 14.699999809265137,52.84199905395508 -6.835000038146973,45.72700119018555 C-27.093000411987305,39.051998138427734 -44.9370002746582,8.552000045776367 -44.6510009765625,8.506999969482422 C-35.858001708984375,7.23199987411499 -26.920000076293945,-1.4420000314712524 -24.424999237060547,-52.84199905395508 C-24.424999237060547,-52.84199905395508 -20.5310001373291,-51.861000061035156 -20.5310001373291,-51.861000061035156 C-20.5310001373291,-51.861000061035156 44.9370002746582,-35.31399917602539 44.9370002746582,-35.31399917602539 C44.9370002746582,-35.31399917602539 42.34700012207031,-14.574999809265137 41.279998779296875,5.034999847412109 C40.37699890136719,21.499000549316406 40.56100082397461,37.16899871826172 44.2400016784668,39.124000549316406z"></path></g><g opacity="1" transform="matrix(1,0,0,1,250.4759979248047,23.506000518798828)"><path fill="rgb(255,175,159)" fill-opacity="1" d=" M33.65700149536133,-5.729000091552734 C33.65700149536133,-5.729000091552734 33.65700149536133,-1.4609999656677246 31.209999084472656,17.833999633789062 C-5.815999984741211,8.494999885559082 -22.143999099731445,-3.7829999923706055 -33.65700149536133,-17.833999633789062 C-33.65700149536133,-17.833999633789062 33.65700149536133,-5.729000091552734 33.65700149536133,-5.729000091552734z"></path></g><g opacity="1" transform="matrix(1,0,0,1,232.16099548339844,226.84100341796875)"><path fill="rgb(255,255,255)" fill-opacity="1" d=" M120.53399658203125,-2.5840001106262207 C117.90599822998047,173.39199829101562 119.81199645996094,136.61900329589844 100.56300354003906,153.31700134277344 C95.92500305175781,157.33700561523438 82.88600158691406,159.73399353027344 65.7229995727539,160.8679962158203 C11.763999938964844,164.4499969482422 -83.09100341796875,155.5590057373047 -86.6989974975586,145.58700561523438 C-99.1449966430664,111.08200073242188 -90.35800170898438,100.36299896240234 -100.74299621582031,47.5369987487793 C-101.82499694824219,41.91999816894531 -103.16500091552734,35.83700180053711 -104.73699951171875,29.21500015258789 C-113.3949966430664,-7.067999839782715 -121.8219985961914,-19.40999984741211 -91.1050033569336,-77.6989974975586 C-63.249000549316406,-130.5 -30.490999221801758,-173.39300537109375 -27.888999938964844,-171.8470001220703 C45.604000091552734,-128.22000122070312 48.119998931884766,-164.7899932861328 48.119998931884766,-164.7899932861328 C48.119998931884766,-164.7899932861328 121.8219985961914,-88.41999816894531 120.53399658203125,-2.5840001106262207z"></path></g><g opacity="1" transform="matrix(1,0,0,1,352.8970031738281,200.14300537109375)"><path fill="rgb(255,255,255)" fill-opacity="1" d=" M-72.61599731445312,-138.0919952392578 C-72.61599731445312,-138.0919952392578 2.5999999046325684,-125.34200286865234 11.479999542236328,-92.78199768066406 C20.360000610351562,-60.222999572753906 72.61599731445312,131.18499755859375 72.61599731445312,131.18499755859375 C72.61599731445312,131.18499755859375 34.17300033569336,138.0919952392578 16.413000106811523,120.33200073242188 C-1.3459999561309814,102.5719985961914 -45.382999420166016,-44.4370002746582 -45.382999420166016,-44.4370002746582 C-45.382999420166016,-44.4370002746582 -72.61599731445312,-138.0919952392578 -72.61599731445312,-138.0919952392578z"></path></g><g opacity="1" transform="matrix(1,0,0,1,214.6510009765625,296.1910095214844)"><path fill="rgb(235,243,255)" fill-opacity="1" d=" M83.23300170898438,91.51699829101562 C29.273000717163086,95.0989990234375 -65.58200073242188,86.20999908447266 -69.18900299072266,76.23799896240234 C-81.63600158691406,41.733001708984375 -72.8489990234375,31.011999130249023 -83.23300170898438,-21.81399917602539 C-83.23300170898438,-21.81399917602539 -57.207000732421875,-95.0999984741211 -57.207000732421875,-95.0999984741211 C-57.207000732421875,-95.0999984741211 -61.5099983215332,-13.491000175476074 -37.44200134277344,7.974999904632568 C-13.399999618530273,29.440000534057617 61.097999572753906,49.4109992980957 72.7969970703125,67.34700012207031 C78.44000244140625,75.95500183105469 82.1510009765625,84.58499908447266 83.23300170898438,91.51699829101562z"></path></g><g opacity="1" transform="matrix(1,0,0,1,284.3919982910156,361.29400634765625)"><path fill="rgb(255,175,159)" fill-opacity="1" d=" M-48.332000732421875,-7.909999847412109 C-48.332000732421875,-7.909999847412109 4.9029998779296875,-19.763999938964844 13.493000030517578,-15.038999557495117 C22.08300018310547,-10.314000129699707 43.07500076293945,6.892000198364258 45.70399856567383,12.878000259399414 C48.33300018310547,18.864999771118164 26.579999923706055,8.331999778747559 19.503999710083008,6.434999942779541 C14.92300033569336,5.205999851226807 2.86299991607666,9.39799976348877 -3.1080000400543213,11.387999534606934 C-28.23200035095215,19.76300048828125 -43.62799835205078,15.454000473022461 -43.62799835205078,15.454000473022461 C-43.62799835205078,15.454000473022461 -48.332000732421875,-7.909999847412109 -48.332000732421875,-7.909999847412109z"></path></g><g opacity="1" transform="matrix(1,0,0,1,124.1729965209961,231.62399291992188)"><path fill="rgb(255,255,255)" fill-opacity="1" d=" M80.0989990234375,-176.62899780273438 C80.0989990234375,-176.62899780273438 4.754000186920166,-172.2259979248047 -19.990999221801758,-137.71299743652344 C-54.82400131225586,-89.13099670410156 -123.9229965209961,117.91799926757812 -84.32099914550781,145.531005859375 C-39.722999572753906,176.62899780273438 118.6520004272461,153.66700744628906 118.6520004272461,153.66700744628906 C118.6520004272461,153.66700744628906 123.9229965209961,129.03199768066406 116.58999633789062,117.11599731445312 C109.25700378417969,105.1989974975586 -9.907999992370605,85.9489974975586 -15.407999992370605,80.44999694824219 C-20.908000946044922,74.94999694824219 53.340999603271484,-26.79800033569336 53.340999603271484,-43.29800033569336 C53.340999603271484,-59.79800033569336 80.0989990234375,-176.62899780273438 80.0989990234375,-176.62899780273438z"></path></g><g opacity="1" transform="matrix(1,0,0,1,310.8760070800781,369.9840087890625)"><path fill="rgb(255,175,159)" fill-opacity="1" d=" M-10.414999961853027,-8.911999702453613 C-10.414999961853027,-8.911999702453613 0.7390000224113464,5.47599983215332 4.395999908447266,7.193999767303467 C8.053000450134277,8.91100025177002 10.414999961853027,8.482999801635742 10.414999961853027,8.482999801635742 C10.414999961853027,8.482999801635742 2.8989999294281006,-5.046000003814697 2.8989999294281006,-5.046000003814697 C2.8989999294281006,-5.046000003814697 -10.414999961853027,-8.911999702453613 -10.414999961853027,-8.911999702453613z"></path></g><g opacity="1" transform="matrix(1,0,0,1,314.0989990234375,355.2590026855469)"><path fill="rgb(255,175,159)" fill-opacity="1" d=" M-16.21500015258789,-9.003000259399414 C-16.21500015258789,-9.003000259399414 16.21500015258789,6.744999885559082 16.21500015258789,6.744999885559082 C16.21500015258789,6.744999885559082 14.836000442504883,9.003000259399414 10.843000411987305,8.819999694824219 C6.848999977111816,8.638999938964844 -3.2230000495910645,4.954999923706055 -3.2230000495910645,4.954999923706055 C-3.2230000495910645,4.954999923706055 -16.21500015258789,-9.003000259399414 -16.21500015258789,-9.003000259399414z"></path></g></g><g transform="matrix(0.9946370124816895,0.10342739522457123,-0.10342739522457123,0.9946370124816895,369.2529296875,220.88189697265625)" opacity="1" style="display: block;"><g opacity="1" transform="matrix(1,0,0,1,78.5780029296875,98.86199951171875)"><path fill="rgb(255,175,159)" fill-opacity="1" d=" M48.340999603271484,68.52799987792969 C48.340999603271484,68.52799987792969 -38.23400115966797,82.625 -46.180999755859375,28.576000213623047 C-54.130001068115234,-25.472999572753906 -70.65499877929688,-60.05400085449219 -15.717000007629395,-71.33899688720703 C39.22200012207031,-82.6240005493164 53.01900100708008,-63.58300018310547 60.060001373291016,-46.1870002746582 C67.10099792480469,-28.79199981689453 70.65599822998047,63.46799850463867 48.340999603271484,68.52799987792969z"></path></g><g opacity="1" transform="matrix(1,0,0,1,63.625999450683594,60.933998107910156)"><path fill="rgb(0,0,0)" fill-opacity="1" d=" M63.375999450683594,-35.67599868774414 C63.375999450683594,-35.67599868774414 24.06100082397461,26.385000228881836 -11.03600025177002,41.08300018310547 C-46.132999420166016,55.78099822998047 -63.375999450683594,48.31800079345703 -63.375999450683594,48.31800079345703 C-63.375999450683594,48.31800079345703 -47.409000396728516,24.107999801635742 -43.249000549316406,-8.399999618530273 C-42.02199935913086,-17.98200035095215 -35.779998779296875,-26.195999145507812 -26.812000274658203,-29.78700065612793 C-1.6269999742507935,-39.874000549316406 47.09199905395508,-55.78099822998047 63.375999450683594,-35.67599868774414z"></path></g><g opacity="1" transform="matrix(1,0,0,1,123.90699768066406,53.54499816894531)"><path fill="rgb(0,0,0)" fill-opacity="1" d=" M-31.440000534057617,-22.288000106811523 C-31.440000534057617,-22.288000106811523 -8.395999908447266,-10.473999977111816 1.093999981880188,0.5979999899864197 C10.251999855041504,11.282999992370605 20.82900047302246,40.275001525878906 20.072999954223633,53.29499816894531 C20.072999954223633,53.29499816894531 31.440000534057617,-9.10200023651123 7.763999938964844,-30.551000595092773 C-17.341999053955078,-53.29499816894531 -31.440000534057617,-22.288000106811523 -31.440000534057617,-22.288000106811523z"></path></g></g><g transform="matrix(1,0,0,1,353.9639892578125,590.5340576171875)" opacity="1" style="display: block;"><g opacity="1" transform="matrix(1,0,0,1,171.15899658203125,158.28599548339844)"><path fill="rgb(27,44,101)" fill-opacity="1" d=" M75.30899810791016,6.002999782562256 C75.30899810791016,6.002999782562256 -75.30899810791016,6.002999782562256 -75.30899810791016,6.002999782562256 C-75.30899810791016,-0.628000020980835 -69.93299865722656,-6.002999782562256 -63.301998138427734,-6.002999782562256 C-63.301998138427734,-6.002999782562256 75.30899810791016,-6.002999782562256 75.30899810791016,-6.002999782562256 C75.30899810791016,-6.002999782562256 75.30899810791016,6.002999782562256 75.30899810791016,6.002999782562256z"></path></g><g opacity="1" transform="matrix(1,0,0,1,333.7850036621094,82.27100372314453)"><path fill="rgb(27,44,101)" fill-opacity="1" d=" M-87.75,-82.01899719238281 C-87.75,-82.01899719238281 145.11500549316406,-82.01899719238281 145.11500549316406,-82.01899719238281 C145.11500549316406,-82.01899719238281 89.26000213623047,82.01899719238281 89.26000213623047,82.01899719238281 C89.26000213623047,82.01899719238281 -145.11500549316406,82.01899719238281 -145.11500549316406,82.01899719238281 C-145.11500549316406,82.01899719238281 -87.75,-82.01899719238281 -87.75,-82.01899719238281z"></path></g><g opacity="1" transform="matrix(1,0,0,1,337.2130126953125,82.26899719238281)"><path fill="rgb(15,67,127)" fill-opacity="1" d=" M145.11599731445312,-82.0199966430664 C145.11599731445312,-82.0199966430664 89.26100158691406,82.0199966430664 89.26100158691406,82.0199966430664 C89.26100158691406,82.0199966430664 -145.11599731445312,82.0199966430664 -145.11599731445312,82.0199966430664 C-145.11599731445312,82.0199966430664 -87.74700164794922,-82.0199966430664 -87.74700164794922,-82.0199966430664 C-87.74700164794922,-82.0199966430664 145.11599731445312,-82.0199966430664 145.11599731445312,-82.0199966430664z"></path></g><g opacity="1" transform="matrix(1,0,0,1,345.4339904785156,80.75399780273438)"><path fill="rgb(255,255,255)" fill-opacity="1" d=" M11.347999572753906,-0.0010000000474974513 C9.901000022888184,6.267000198364258 3.6470000743865967,11.348999977111816 -2.619999885559082,11.348999977111816 C-8.887999534606934,11.348999977111816 -12.795000076293945,6.267000198364258 -11.347999572753906,-0.0010000000474974513 C-9.901000022888184,-6.26800012588501 -3.6480000019073486,-11.348999977111816 2.619999885559082,-11.348999977111816 C8.887999534606934,-11.348999977111816 12.795000076293945,-6.26800012588501 11.347999572753906,-0.0010000000474974513z"></path></g><g opacity="1" transform="matrix(1,0,0,1,554.0339965820312,182.74200439453125)"><path fill="rgb(24,45,79)" fill-opacity="1" d=" M-510.2439880371094,18.45199966430664 C-510.2439880371094,18.45199966430664 510.2439880371094,18.45199966430664 510.2439880371094,18.45199966430664 C514.5349731445312,18.45199966430664 518.0150146484375,14.972999572753906 518.0150146484375,10.680999755859375 C518.0150146484375,10.680999755859375 518.0150146484375,-10.682000160217285 518.0150146484375,-10.682000160217285 C518.0150146484375,-14.973999977111816 514.5349731445312,-18.45199966430664 510.2439880371094,-18.45199966430664 C510.2439880371094,-18.45199966430664 -510.2439880371094,-18.45199966430664 -510.2439880371094,-18.45199966430664 C-514.5360107421875,-18.45199966430664 -518.0150146484375,-14.973999977111816 -518.0150146484375,-10.682000160217285 C-518.0150146484375,-10.682000160217285 -518.0150146484375,10.680999755859375 -518.0150146484375,10.680999755859375 C-518.0150146484375,14.972999572753906 -514.5360107421875,18.45199966430664 -510.2439880371094,18.45199966430664z"></path></g><g opacity="1" transform="matrix(1,0,0,1,1036.18505859375,496.3370056152344)"><path fill="rgb(24,45,79)" fill-opacity="1" d=" M53.077999114990234,312.76800537109375 C53.077999114990234,312.76800537109375 53.51499938964844,312.7139892578125 53.51499938964844,312.7139892578125 C58.74300003051758,312.0690002441406 62.44499969482422,307.4020080566406 61.784000396728516,302.2919921875 C61.784000396728516,302.2919921875 -29.15399932861328,-313.27099609375 -29.15399932861328,-313.27099609375 C-29.15399932861328,-313.27099609375 -62.44599914550781,-312.3179931640625 -62.44599914550781,-312.3179931640625 C-62.44599914550781,-312.3179931640625 44.54999923706055,306.57598876953125 44.54999923706055,306.57598876953125 C45.23500061035156,310.5409851074219 48.99700164794922,313.2720031738281 53.077999114990234,312.76800537109375z"></path></g><g opacity="1" transform="matrix(1,0,0,1,62.69499969482422,496.3370056152344)"><path fill="rgb(24,45,79)" fill-opacity="1" d=" M-53.077999114990234,312.76800537109375 C-53.077999114990234,312.76800537109375 -53.51499938964844,312.7139892578125 -53.51499938964844,312.7139892578125 C-58.74300003051758,312.0690002441406 -62.44499969482422,307.4020080566406 -61.78499984741211,302.2919921875 C-61.78499984741211,302.2919921875 29.152999877929688,-313.27099609375 29.152999877929688,-313.27099609375 C29.152999877929688,-313.27099609375 62.44499969482422,-312.3179931640625 62.44499969482422,-312.3179931640625 C62.44499969482422,-312.3179931640625 -44.54999923706055,306.57598876953125 -44.54999923706055,306.57598876953125 C-45.23500061035156,310.5409851074219 -48.99700164794922,313.2720031738281 -53.077999114990234,312.76800537109375z"></path></g><g opacity="1" transform="matrix(1,0,0,1,273.2200012207031,496.3370056152344)"><path fill="rgb(24,45,79)" fill-opacity="1" d=" M-53.077999114990234,312.76800537109375 C-53.077999114990234,312.76800537109375 -53.51499938964844,312.7139892578125 -53.51499938964844,312.7139892578125 C-58.74300003051758,312.0690002441406 -62.44499969482422,307.4020080566406 -61.78499984741211,302.2919921875 C-61.78499984741211,302.2919921875 29.152999877929688,-313.27099609375 29.152999877929688,-313.27099609375 C29.152999877929688,-313.27099609375 62.44499969482422,-312.3179931640625 62.44499969482422,-312.3179931640625 C62.44499969482422,-312.3179931640625 -44.54999923706055,306.57598876953125 -44.54999923706055,306.57598876953125 C-45.236000061035156,310.5409851074219 -48.99700164794922,313.2720031738281 -53.077999114990234,312.76800537109375z"></path></g></g><g transform="matrix(1,0,0,1,-0.25,1374.9320068359375)" opacity="1" style="display: block;"><g opacity="1" transform="matrix(1,0,0,1,1045.1280517578125,15.013999938964844)"><path fill="rgb(34,64,153)" fill-opacity="1" d=" M1034.6739501953125,14.763999938964844 C1034.6739501953125,14.763999938964844 -1034.6739501953125,14.763999938964844 -1034.6739501953125,14.763999938964844 C-1040.3089599609375,14.763999938964844 -1044.8780517578125,10.194000244140625 -1044.8780517578125,4.559000015258789 C-1044.8780517578125,4.559000015258789 -1044.8780517578125,-4.559000015258789 -1044.8780517578125,-4.559000015258789 C-1044.8780517578125,-10.194999694824219 -1040.3089599609375,-14.763999938964844 -1034.6739501953125,-14.763999938964844 C-1034.6739501953125,-14.763999938964844 1034.6739501953125,-14.763999938964844 1034.6739501953125,-14.763999938964844 C1040.31005859375,-14.763999938964844 1044.8780517578125,-10.194999694824219 1044.8780517578125,-4.559000015258789 C1044.8780517578125,-4.559000015258789 1044.8780517578125,4.559000015258789 1044.8780517578125,4.559000015258789 C1044.8780517578125,10.194000244140625 1040.31005859375,14.763999938964844 1034.6739501953125,14.763999938964844z"></path></g></g><g transform="matrix(1,0,0,1,1030.60302734375,282.9649658203125)" opacity="1" style="display: block;"><g opacity="1" transform="matrix(1,0,0,1,174.57000732421875,1058.279052734375)"><path fill="rgb(35,56,98)" fill-opacity="1" d=" M-94.56700134277344,57.895999908447266 C-94.56700134277344,57.895999908447266 85.88800048828125,57.895999908447266 85.88800048828125,57.895999908447266 C94.56700134277344,47.30400085449219 91.37000274658203,8.220999717712402 90.05599975585938,-4.539999961853027 C89.78500366210938,-7.109000205993652 89.5989990234375,-8.607999801635742 89.5989990234375,-8.607999801635742 C89.5989990234375,-8.607999801635742 27.976999282836914,-57.89699935913086 19.511999130249023,-20.1560001373291 C19.2549991607666,-18.97100067138672 18.941999435424805,-17.815000534057617 18.599000930786133,-16.672000885009766 C7.935999870300293,18.62700080871582 -39.89699935913086,34.67100143432617 -67.51699829101562,39.138999938964844 C-85.4739990234375,42.05099868774414 -92.11199951171875,51.38600158691406 -94.56700134277344,57.895999908447266z"></path></g><g opacity="1" transform="matrix(1,0,0,1,443.9209899902344,802.5800170898438)"><path fill="rgb(27,44,101)" fill-opacity="1" d=" M128.4770050048828,-272.7659912109375 C121.96199798583984,-272.7659912109375 -180.6320037841797,-215.95199584960938 -230.6840057373047,-153.9949951171875 C-255.68800354003906,-123.04299926757812 -259.406005859375,234.41299438476562 -259.406005859375,234.41299438476562 C-259.406005859375,234.41299438476562 -228.47000122070312,272.7659912109375 -161.66200256347656,250.4969940185547 C-161.66200256347656,250.4969940185547 -112.677001953125,5.932000160217285 -116.29399871826172,-68.24700164794922 C-117.29499816894531,-88.75800323486328 90.4530029296875,-71.21499633789062 128.4770050048828,-81.05599975585938 C166.50100708007812,-90.89700317382812 259.4049987792969,-173.61300659179688 238.9340057373047,-213.91000366210938 C218.46299743652344,-254.20700073242188 128.4770050048828,-272.7659912109375 128.4770050048828,-272.7659912109375z"></path></g><g opacity="1" transform="matrix(1,0,0,1,154.9409942626953,458.15899658203125)"><path fill="rgb(255,175,159)" fill-opacity="1" d=" M59.595001220703125,-15.878000259399414 C59.595001220703125,-15.878000259399414 -1.4429999589920044,-15.053999900817871 -15.878000259399414,-8.866999626159668 C-30.312000274658203,-2.680999994277954 -59.59400177001953,11.519000053405762 -51.75899887084961,13.699000358581543 C-43.92300033569336,15.878000259399414 -6.5320000648498535,12.800999641418457 1.5460000038146973,14.038000106811523 C9.625,15.274999618530273 19.59000015258789,13.696999549865723 24.538999557495117,13.697999954223633 C29.488000869750977,13.699000358581543 52.573001861572266,13.697999954223633 52.573001861572266,13.697999954223633 C52.573001861572266,13.697999954223633 59.595001220703125,-15.878000259399414 59.595001220703125,-15.878000259399414z"></path></g><g opacity="1" transform="matrix(1,0,0,1,387.5360107421875,297)"><path fill="rgb(29,210,252)" fill-opacity="1" d=" M154.7220001220703,-174.85699462890625 C154.7220001220703,-174.85699462890625 108.26000213623047,-160.45700073242188 62.481998443603516,-34.395999908447266 C16.70199966430664,91.66500091552734 -0.6809999942779541,98.47000122070312 -17.32200050354004,103.41899871826172 C-33.9630012512207,108.36900329589844 -180.02200317382812,137.44500732421875 -180.02200317382812,137.44500732421875 C-180.02200317382812,137.44500732421875 -180.02200317382812,174.85699462890625 -180.02200317382812,174.85699462890625 C-180.02200317382812,174.85699462890625 45.03200149536133,174.85699462890625 45.03200149536133,174.85699462890625 C45.03200149536133,174.85699462890625 129.4219970703125,94.58100128173828 154.7220001220703,40.53900146484375 C180.02200317382812,-13.501999855041504 154.7220001220703,-174.85699462890625 154.7220001220703,-174.85699462890625z"></path></g><g opacity="1" transform="matrix(1,0,0,1,94.81600189208984,1058.279052734375)"><path fill="rgb(27,48,81)" fill-opacity="1" d=" M-94.56600189208984,57.895999908447266 C-94.56600189208984,57.895999908447266 85.88800048828125,57.895999908447266 85.88800048828125,57.895999908447266 C94.56700134277344,47.30400085449219 91.36900329589844,8.220999717712402 90.05500030517578,-4.539999961853027 C89.78500366210938,-7.109000205993652 89.5989990234375,-8.607999801635742 89.5989990234375,-8.607999801635742 C89.5989990234375,-8.607999801635742 27.97800064086914,-57.89699935913086 19.51300048828125,-20.1560001373291 C19.256000518798828,-18.97100067138672 18.94099998474121,-17.815000534057617 18.599000930786133,-16.672000885009766 C7.935999870300293,18.62700080871582 -39.89699935913086,34.67100143432617 -67.51799774169922,39.138999938964844 C-85.4749984741211,42.05099868774414 -92.11100006103516,51.38600158691406 -94.56600189208984,57.895999908447266z"></path></g><g opacity="1" transform="matrix(1,0,0,1,354.75201416015625,802.5800170898438)"><path fill="rgb(15,67,127)" fill-opacity="1" d=" M128.4770050048828,-272.7659912109375 C121.96099853515625,-272.7659912109375 -180.63299560546875,-215.95199584960938 -230.68499755859375,-153.9949951171875 C-255.68899536132812,-123.04299926757812 -259.406005859375,234.41299438476562 -259.406005859375,234.41299438476562 C-259.406005859375,234.41299438476562 -228.47000122070312,272.7659912109375 -161.66200256347656,250.4969940185547 C-161.66200256347656,250.4969940185547 -112.677001953125,5.932000160217285 -116.2959976196289,-68.24700164794922 C-117.2969970703125,-88.75800323486328 90.4520034790039,-71.21499633789062 128.4770050048828,-81.05599975585938 C166.5,-90.89700317382812 259.406005859375,-173.61300659179688 238.9340057373047,-213.91000366210938 C218.46299743652344,-254.20700073242188 128.4770050048828,-272.7659912109375 128.4770050048828,-272.7659912109375z"></path></g><g opacity="1" transform="matrix(1,0,0,1,543.4920043945312,81.92500305175781)"><path fill="rgb(255,175,159)" fill-opacity="1" d=" M-41.32600021362305,80.16899871826172 C-19.55900001525879,78.37200164794922 3.265000104904175,72.56999969482422 22.990999221801758,66.16899871826172 C47.64899826049805,58.167999267578125 67.5250015258789,46.4739990234375 54.71699905395508,23.93600082397461 C42.91299819946289,3.1659998893737793 23.80900001525879,-43.23500061035156 25.099000930786133,-81.67400360107422 C25.099000930786133,-81.67400360107422 -20.78499984741211,-44.69900131225586 -20.78499984741211,-44.69900131225586 C-20.78499984741211,-44.69900131225586 -51.952999114990234,-19.584999084472656 -51.952999114990234,-19.584999084472656 C-51.952999114990234,-19.584999084472656 -51.82400131225586,-4.7779998779296875 -48.417999267578125,21.17099952697754 C-47.79499816894531,25.900999069213867 -47.066001892089844,31.007999420166016 -46.207000732421875,36.46500015258789 C-45.51300048828125,40.87300109863281 -47.53900146484375,45.275001525878906 -51.332000732421875,47.62699890136719 C-51.56700134277344,47.77299880981445 -51.801998138427734,47.91899871826172 -52.03499984741211,48.066001892089844 C-67.5250015258789,57.79899978637695 -59.558998107910156,81.67400360107422 -41.32600021362305,80.16899871826172z"></path></g><g opacity="1" transform="matrix(1,0,0,1,564.3829956054688,388.66900634765625)"><path fill="rgb(0,182,241)" fill-opacity="1" d=" M119.89700317382812,-173.90899658203125 C104.4489974975586,-236.08799743652344 61.75,-301.3320007324219 32.87900161743164,-301.2770080566406 C-16.316999435424805,-301.1830139160156 -87.03800201416016,-288.2019958496094 -115.59200286865234,-217.76199340820312 C-136.6230010986328,-165.8820037841797 -164.6750030517578,132.54600524902344 -132.9709930419922,153.77000427246094 C-60.499000549316406,202.2899932861328 107.49199676513672,301.3320007324219 137.33299255371094,200.32899475097656 C164.6750030517578,107.78299713134766 146.70899963378906,-65.99099731445312 119.89700317382812,-173.90899658203125z"></path></g><g opacity="1" transform="matrix(1,0,0,1,538.4169921875,95.33499908447266)"><path fill="rgb(255,255,255)" fill-opacity="1" d=" M63.79800033569336,-7.34499979019165 C63.79800033569336,-7.34499979019165 52.659000396728516,-32.4370002746582 52.659000396728516,-32.4370002746582 C52.659000396728516,-32.4370002746582 -47.04100036621094,-24.30699920654297 -63.79800033569336,32.4370002746582 C-63.79800033569336,32.4370002746582 13.487000465393066,-6.127999782562256 63.79800033569336,-7.34499979019165z"></path></g><g opacity="1" transform="matrix(1,0,0,1,819.5070190429688,921.4180297851562)"><path fill="rgb(40,40,40)" fill-opacity="1" d=" M24.76300048828125,192.50999450683594 C24.76300048828125,192.50999450683594 25.451000213623047,192.4969940185547 25.451000213623047,192.4969940185547 C31.08099937438965,192.3939971923828 35.42900085449219,187.79200744628906 34.89899826049805,182.49899291992188 C34.89899826049805,182.49899291992188 -2.6570000648498535,-192.56900024414062 -2.6570000648498535,-192.56900024414062 C-2.6570000648498535,-192.56900024414062 -35.428001403808594,-189.64500427246094 -35.428001403808594,-189.64500427246094 C-35.428001403808594,-189.64500427246094 18.49799919128418,187.4409942626953 18.49799919128418,187.4409942626953 C18.920000076293945,190.38699340820312 21.614999771118164,192.5679931640625 24.76300048828125,192.50999450683594z"></path></g><g opacity="1" transform="matrix(1,0,0,1,626.2020263671875,921.4180297851562)"><path fill="rgb(40,40,40)" fill-opacity="1" d=" M24.761999130249023,192.50999450683594 C24.761999130249023,192.50999450683594 25.450000762939453,192.4969940185547 25.450000762939453,192.4969940185547 C31.079999923706055,192.3939971923828 35.428001403808594,187.79200744628906 34.89799880981445,182.49899291992188 C34.89799880981445,182.49899291992188 -2.6570000648498535,-192.56900024414062 -2.6570000648498535,-192.56900024414062 C-2.6570000648498535,-192.56900024414062 -35.428001403808594,-189.64500427246094 -35.428001403808594,-189.64500427246094 C-35.428001403808594,-189.64500427246094 18.496999740600586,187.4409942626953 18.496999740600586,187.4409942626953 C18.91900062561035,190.38699340820312 21.61400032043457,192.5679931640625 24.761999130249023,192.50999450683594z"></path></g><g opacity="1" transform="matrix(1,0,0,1,312.82501220703125,921.4180297851562)"><path fill="rgb(40,40,40)" fill-opacity="1" d=" M-24.761999130249023,192.50999450683594 C-24.761999130249023,192.50999450683594 -25.450000762939453,192.4969940185547 -25.450000762939453,192.4969940185547 C-31.07900047302246,192.3939971923828 -35.428001403808594,187.79200744628906 -34.89799880981445,182.49899291992188 C-34.89799880981445,182.49899291992188 2.6579999923706055,-192.56900024414062 2.6579999923706055,-192.56900024414062 C2.6579999923706055,-192.56900024414062 35.428001403808594,-189.64500427246094 35.428001403808594,-189.64500427246094 C35.428001403808594,-189.64500427246094 -18.496999740600586,187.4409942626953 -18.496999740600586,187.4409942626953 C-18.91900062561035,190.38699340820312 -21.613000869750977,192.5679931640625 -24.761999130249023,192.50999450683594z"></path></g><g opacity="1" transform="matrix(1,0,0,1,688.9299926757812,482.10699462890625)"><path fill="rgb(58,58,58)" fill-opacity="1" d=" M144.7270050048828,193.60800170898438 C144.7270050048828,193.60800170898438 180.37100219726562,-119.65299987792969 180.37100219726562,-119.65299987792969 C185.04400634765625,-164.7969970703125 169.93699645996094,-209 104.79199981689453,-212.42100524902344 C104.79199981689453,-212.42100524902344 -9.814000129699707,-219.40199279785156 -9.814000129699707,-219.40199279785156 C-77.74099731445312,-222.20399475097656 -108.40899658203125,-165.6719970703125 -117.00800323486328,-122.1500015258789 C-117.00800323486328,-122.1500015258789 -185.04400634765625,222.20399475097656 -185.04400634765625,222.20399475097656 C-185.04400634765625,222.20399475097656 144.7270050048828,193.60800170898438 144.7270050048828,193.60800170898438z"></path></g><g opacity="1" transform="matrix(1,0,0,1,560.1749877929688,704.31201171875)"><path fill="rgb(40,40,40)" fill-opacity="1" d=" M254.32899475097656,30.020999908447266 C254.32899475097656,30.020999908447266 -254.32899475097656,30.020999908447266 -254.32899475097656,30.020999908447266 C-264.54901123046875,30.020999908447266 -272.90899658203125,21.65999984741211 -272.90899658203125,11.4399995803833 C-272.90899658203125,11.4399995803833 -272.90899658203125,-11.4399995803833 -272.90899658203125,-11.4399995803833 C-272.90899658203125,-21.65999984741211 -264.54901123046875,-30.020999908447266 -254.32899475097656,-30.020999908447266 C-254.32899475097656,-30.020999908447266 272.90899658203125,-30.020999908447266 272.90899658203125,-30.020999908447266 C272.90899658203125,-30.020999908447266 272.90899658203125,11.4399995803833 272.90899658203125,11.4399995803833 C272.90899658203125,21.65999984741211 264.54901123046875,30.020999908447266 254.32899475097656,30.020999908447266z"></path></g><g opacity="1" transform="matrix(1,0,0,1,668.4849853515625,704.31201171875)"><path fill="rgb(40,40,40)" fill-opacity="1" d=" M150.1699981689453,30.020999908447266 C150.1699981689453,30.020999908447266 -150.17100524902344,30.020999908447266 -150.17100524902344,30.020999908447266 C-158.1060028076172,30.020999908447266 -164.60000610351562,23.527000427246094 -164.60000610351562,15.59000015258789 C-164.60000610351562,15.59000015258789 -164.60000610351562,-15.590999603271484 -164.60000610351562,-15.590999603271484 C-164.60000610351562,-23.527999877929688 -158.1060028076172,-30.020999908447266 -150.17100524902344,-30.020999908447266 C-150.17100524902344,-30.020999908447266 164.60000610351562,-30.020999908447266 164.60000610351562,-30.020999908447266 C164.60000610351562,-30.020999908447266 164.60000610351562,15.59000015258789 164.60000610351562,15.59000015258789 C164.60000610351562,23.527000427246094 158.10699462890625,30.020999908447266 150.1699981689453,30.020999908447266z"></path></g></g><g transform="matrix(0.9786055684089661,0.20574542880058289,-0.20574542880058289,0.9786055684089661,1075.999755859375,288.3564758300781)" opacity="1" style="display: block;"><g opacity="1" transform="matrix(1,0,0,1,66.25,150.39500427246094)"><path fill="rgb(255,175,159)" fill-opacity="1" d=" M60.479000091552734,41.9010009765625 C60.479000091552734,41.9010009765625 39.66699981689453,27.030000686645508 19.459999084472656,24.14299964904785 C7.934000015258789,22.496000289916992 -3.2720000743865967,20.44300079345703 -10.045000076293945,18.05699920654297 C-28.69300079345703,11.486000061035156 -66.0009994506836,-22.05900001525879 -63.176998138427734,-25.9950008392334 C-54.12900161743164,-38.60599899291992 -10.571000099182129,-11.918999671936035 -2.9690001010894775,-14.784000396728516 C4.631999969482422,-17.64900016784668 -17.582000732421875,-33.444000244140625 -9.854000091552734,-39 C-5.817999839782715,-41.9010009765625 3.621999979019165,-27.357999801635742 11.33899974822998,-25.898000717163086 C21.780000686645508,-23.922000885009766 29.94300079345703,-9.178000450134277 33.084999084472656,-8.409000396728516 C39.202999114990234,-6.910999774932861 66,13.017999649047852 66,13.017999649047852 C66,13.017999649047852 60.479000091552734,41.9010009765625 60.479000091552734,41.9010009765625z"></path></g><g opacity="1" transform="matrix(1,0,0,1,327.7409973144531,140.16299438476562)"><path fill="rgb(29,210,252)" fill-opacity="1" d=" M220.60899353027344,-90.78399658203125 C206.5749969482422,-127.29199981689453 161.3070068359375,-139.91299438476562 130.43699645996094,-115.89600372314453 C113.74099731445312,-102.90699768066406 93.29299926757812,-84.40899658203125 68.59500122070312,-58.108001708984375 C-23.21299934387207,39.65800094604492 -41.87099838256836,39.051998138427734 -59.1150016784668,37.03300094604492 C-76.35800170898438,35.013999938964844 -222.03900146484375,4.0929999351501465 -222.03900146484375,4.0929999351501465 C-222.03900146484375,4.0929999351501465 -229.49899291992188,9.595999717712402 -233.88900756835938,18.490999221801758 C-239.7519989013672,30.37299919128418 -236.80099487304688,38.470001220703125 -236.80099487304688,38.470001220703125 C-242.5070037841797,34.78300094604492 -185.16299438476562,74.31099700927734 -156.6179962158203,90.072998046875 C-118.9209976196289,110.88700103759766 -62.119998931884766,130.4010009765625 -39.49700164794922,137.81100463867188 C-33.08399963378906,139.91200256347656 -26.16900062561035,139.80599975585938 -19.820999145507812,137.51800537109375 C13.756999969482422,125.41500091552734 126.52400207519531,81.31099700927734 218.3209991455078,4.7829999923706055 C242.5070037841797,-15.380999565124512 233.6219940185547,-56.933998107910156 220.60899353027344,-90.78399658203125z"></path></g></g><g transform="matrix(0.9786055684089661,-0.20574542880058289,0.20574542880058289,0.9786055684089661,1434.0294189453125,170.06968688964844)" opacity="1" style="display: block;"><g opacity="1" transform="matrix(1,0,0,1,94.55899810791016,110.02999877929688)"><path fill="rgb(255,175,159)" fill-opacity="1" d=" M-59.97999954223633,84.45999908447266 C-59.97999954223633,84.45999908447266 46.90399932861328,102.21700286865234 56.9379997253418,35.48500061035156 C66.97100067138672,-31.24799919128418 87.52400207519531,-73.89900207519531 19.70400047302246,-88.05899810791016 C-48.11399841308594,-102.21700286865234 -65.23200225830078,-78.7509994506836 -74,-57.29199981689453 C-82.76499938964844,-35.832000732421875 -87.52400207519531,78.12100219726562 -59.97999954223633,84.45999908447266z"></path></g><g opacity="1" transform="matrix(1,0,0,1,96.28399658203125,93.91699981689453)"><path fill="rgb(0,0,0)" fill-opacity="1" d=" M-91.44300079345703,-70.70999908447266 C-96.03399658203125,-54.64099884033203 -83.75,-35.06700134277344 -63.130001068115234,-28.624000549316406 C-32.520999908447266,-19.05900001525879 -39.28499984741211,18.486000061035156 -25.51099967956543,17.97599983215332 C-11.737000465393066,17.465999603271484 -6.179999828338623,-3.6050000190734863 6.120999813079834,13.229999542236328 C16.614999771118164,27.59000015258789 -2.61299991607666,44.61399841308594 -1.2899999618530273,52.48899841308594 C0.9810000061988831,66.00700378417969 22.156999588012695,93.66699981689453 41.2400016784668,92.27999877929688 C60.32400131225586,90.89199829101562 96.03399658203125,0.19900000095367432 88.89199829101562,-27.857999801635742 C81.75,-55.91600036621094 53.18199920654297,-85.50399780273438 26.145000457763672,-89.58499908447266 C-0.8920000195503235,-93.66699981689453 -38.441001892089844,-81.99199676513672 -47.112998962402344,-81.99199676513672 C-55.78499984741211,-81.99199676513672 -88.96299743652344,-79.38999938964844 -91.44300079345703,-70.70999908447266z"></path></g></g><g transform="matrix(1,0,0,1,1013.6670532226562,-0.25099945068359375)" opacity="1" style="display: block;"><g opacity="1" transform="matrix(1,0,0,1,107.86100006103516,104.6500015258789)"><path fill="rgb(192,216,251)" fill-opacity="1" d=" M92.21700286865234,104.4000015258789 C92.21700286865234,104.4000015258789 -92.21900177001953,104.4000015258789 -92.21900177001953,104.4000015258789 C-100.68499755859375,104.4000015258789 -107.61100006103516,97.47200012207031 -107.61100006103516,89.00599670410156 C-107.61100006103516,89.00599670410156 -107.61100006103516,-89.00599670410156 -107.61100006103516,-89.00599670410156 C-107.61100006103516,-97.4729995727539 -100.68499755859375,-104.4000015258789 -92.21900177001953,-104.4000015258789 C-92.21900177001953,-104.4000015258789 92.21700286865234,-104.4000015258789 92.21700286865234,-104.4000015258789 C100.68399810791016,-104.4000015258789 107.61100006103516,-97.4729995727539 107.61100006103516,-89.00599670410156 C107.61100006103516,-89.00599670410156 107.61100006103516,89.00599670410156 107.61100006103516,89.00599670410156 C107.61100006103516,97.47200012207031 100.68399810791016,104.4000015258789 92.21700286865234,104.4000015258789z"></path></g><g opacity="1" transform="matrix(1,0,0,1,107.86100006103516,104.6500015258789)"><path fill="rgb(223,235,253)" fill-opacity="1" d=" M84.22699737548828,95.35399627685547 C84.22699737548828,95.35399627685547 -84.22699737548828,95.35399627685547 -84.22699737548828,95.35399627685547 C-91.95999908447266,95.35399627685547 -98.28800201416016,89.0270004272461 -98.28800201416016,81.29399871826172 C-98.28800201416016,81.29399871826172 -98.28800201416016,-81.29399871826172 -98.28800201416016,-81.29399871826172 C-98.28800201416016,-89.0270004272461 -91.95999908447266,-95.35399627685547 -84.22699737548828,-95.35399627685547 C-84.22699737548828,-95.35399627685547 84.22699737548828,-95.35399627685547 84.22699737548828,-95.35399627685547 C91.95999908447266,-95.35399627685547 98.28800201416016,-89.0270004272461 98.28800201416016,-81.29399871826172 C98.28800201416016,-81.29399871826172 98.28800201416016,81.29399871826172 98.28800201416016,81.29399871826172 C98.28800201416016,89.0270004272461 91.95999908447266,95.35399627685547 84.22699737548828,95.35399627685547z"></path></g><g opacity="1" transform="matrix(1,0,0,1,107.86100006103516,28.351999282836914)"><path fill="rgb(183,211,243)" fill-opacity="1" d=" M-4.458000183105469,0 C-4.458000183105469,-2.4619998931884766 -2.4630000591278076,-4.458000183105469 0,-4.458000183105469 C2.4619998931884766,-4.458000183105469 4.458000183105469,-2.4619998931884766 4.458000183105469,0 C4.458000183105469,2.4619998931884766 2.4619998931884766,4.458000183105469 0,4.458000183105469 C-2.4630000591278076,4.458000183105469 -4.458000183105469,2.4619998931884766 -4.458000183105469,0z"></path></g><g opacity="1" transform="matrix(1,0,0,1,143.2740020751953,36.81999969482422)"><path fill="rgb(183,211,243)" fill-opacity="1" d=" M-3.8970000743865967,-2.1659998893737793 C-2.7009999752044678,-4.317999839782715 0.013000000268220901,-5.0929999351501465 2.1649999618530273,-3.8970000743865967 C4.317999839782715,-2.7009999752044678 5.0929999351501465,0.013000000268220901 3.8970000743865967,2.1649999618530273 C2.7009999752044678,4.316999912261963 -0.013000000268220901,5.0929999351501465 -2.1659998893737793,3.8959999084472656 C-4.317999839782715,2.7009999752044678 -5.0929999351501465,-0.014000000432133675 -3.8970000743865967,-2.1659998893737793z"></path></g><g opacity="1" transform="matrix(1,0,0,1,172.61300659179688,62.8849983215332)"><path fill="rgb(183,211,243)" fill-opacity="1" d=" M-2.4159998893737793,-3.746999979019165 C-0.3479999899864197,-5.081999778747559 2.4119999408721924,-4.485000133514404 3.746999979019165,-2.4159998893737793 C5.080999851226807,-0.34700000286102295 4.486000061035156,2.4119999408721924 2.4170000553131104,3.746999979019165 C0.3490000069141388,5.081999778747559 -2.4110000133514404,4.486000061035156 -3.746000051498413,2.4170000553131104 C-5.080999851226807,0.3479999899864197 -4.485000133514404,-2.4119999408721924 -2.4159998893737793,-3.746999979019165z"></path></g><g opacity="1" transform="matrix(1,0,0,1,185.46200561523438,101.49600219726562)"><path fill="rgb(183,211,243)" fill-opacity="1" d=" M0.0010000000474974513,-4.459000110626221 C2.4630000591278076,-4.459000110626221 4.458000183105469,-2.4630000591278076 4.458000183105469,-0.0010000000474974513 C4.458000183105469,2.4609999656677246 2.4630000591278076,4.459000110626221 0.0010000000474974513,4.459000110626221 C-2.4619998931884766,4.459000110626221 -4.458000183105469,2.4609999656677246 -4.458000183105469,-0.0010000000474974513 C-4.458000183105469,-2.4630000591278076 -2.4619998931884766,-4.459000110626221 0.0010000000474974513,-4.459000110626221z"></path></g><g opacity="1" transform="matrix(1,0,0,1,174.51499938964844,144.17100524902344)"><path fill="rgb(183,211,243)" fill-opacity="1" d=" M3.1530001163482666,-3.1530001163482666 C4.894000053405762,-1.4119999408721924 4.894000053405762,1.4119999408721924 3.1530001163482666,3.1530001163482666 C1.4119999408721924,4.894000053405762 -1.4119999408721924,4.894000053405762 -3.1530001163482666,3.1530001163482666 C-4.894000053405762,1.4119999408721924 -4.894000053405762,-1.4119999408721924 -3.1530001163482666,-3.1530001163482666 C-1.4119999408721924,-4.894000053405762 1.4119999408721924,-4.894000053405762 3.1530001163482666,-3.1530001163482666z"></path></g><g opacity="1" transform="matrix(1,0,0,1,146.52000427246094,172.24000549316406)"><path fill="rgb(183,211,243)" fill-opacity="1" d=" M3.1519999504089355,-3.1530001163482666 C4.894000053405762,-1.4119999408721924 4.894000053405762,1.4119999408721924 3.1519999504089355,3.1530001163482666 C1.4119999408721924,4.894000053405762 -1.4110000133514404,4.894000053405762 -3.1530001163482666,3.1530001163482666 C-4.894000053405762,1.4119999408721924 -4.894000053405762,-1.4119999408721924 -3.1530001163482666,-3.1530001163482666 C-1.4110000133514404,-4.894000053405762 1.4119999408721924,-4.894000053405762 3.1519999504089355,-3.1530001163482666z"></path></g><g opacity="1" transform="matrix(1,0,0,1,107.86100006103516,183.55499267578125)"><path fill="rgb(183,211,243)" fill-opacity="1" d=" M-4.458000183105469,0 C-4.458000183105469,-2.4619998931884766 -2.4630000591278076,-4.458000183105469 0,-4.458000183105469 C2.4619998931884766,-4.458000183105469 4.458000183105469,-2.4619998931884766 4.458000183105469,0 C4.458000183105469,2.4619998931884766 2.4619998931884766,4.458000183105469 0,4.458000183105469 C-2.4630000591278076,4.458000183105469 -4.458000183105469,2.4619998931884766 -4.458000183105469,0z"></path></g><g opacity="1" transform="matrix(1,0,0,1,72.30599975585938,36.81999969482422)"><path fill="rgb(183,211,243)" fill-opacity="1" d=" M3.8970000743865967,-2.1659998893737793 C2.7019999027252197,-4.317999839782715 -0.013000000268220901,-5.0929999351501465 -2.1649999618530273,-3.8970000743865967 C-4.317999839782715,-2.7009999752044678 -5.0929999351501465,0.013000000268220901 -3.8980000019073486,2.1649999618530273 C-2.7019999027252197,4.316999912261963 0.013000000268220901,5.0929999351501465 2.1659998893737793,3.8959999084472656 C4.316999912261963,2.7009999752044678 5.0929999351501465,-0.014000000432133675 3.8970000743865967,-2.1659998893737793z"></path></g><g opacity="1" transform="matrix(1,0,0,1,42.96699905395508,62.8849983215332)"><path fill="rgb(183,211,243)" fill-opacity="1" d=" M2.4170000553131104,-3.746999979019165 C0.3479999899864197,-5.081999778747559 -2.4119999408721924,-4.485000133514404 -3.746000051498413,-2.4159998893737793 C-5.080999851226807,-0.34700000286102295 -4.486000061035156,2.4119999408721924 -2.4170000553131104,3.746999979019165 C-0.3479999899864197,5.081999778747559 2.4119999408721924,4.486000061035156 3.746000051498413,2.4170000553131104 C5.080999851226807,0.3479999899864197 4.486000061035156,-2.4119999408721924 2.4170000553131104,-3.746999979019165z"></path></g><g opacity="1" transform="matrix(1,0,0,1,30.118000030517578,101.49600219726562)"><path fill="rgb(183,211,243)" fill-opacity="1" d=" M0.0010000000474974513,-4.459000110626221 C-2.4619998931884766,-4.459000110626221 -4.458000183105469,-2.4630000591278076 -4.458000183105469,-0.0010000000474974513 C-4.458000183105469,2.4609999656677246 -2.4619998931884766,4.459000110626221 0.0010000000474974513,4.459000110626221 C2.4630000591278076,4.459000110626221 4.458000183105469,2.4609999656677246 4.458000183105469,-0.0010000000474974513 C4.458000183105469,-2.4630000591278076 2.4630000591278076,-4.459000110626221 0.0010000000474974513,-4.459000110626221z"></path></g><g opacity="1" transform="matrix(1,0,0,1,41.064998626708984,144.17100524902344)"><path fill="rgb(183,211,243)" fill-opacity="1" d=" M-3.1530001163482666,-3.1530001163482666 C-4.894000053405762,-1.4119999408721924 -4.894000053405762,1.4119999408721924 -3.1530001163482666,3.1530001163482666 C-1.4119999408721924,4.894000053405762 1.4119999408721924,4.894000053405762 3.1519999504089355,3.1530001163482666 C4.894000053405762,1.4119999408721924 4.894000053405762,-1.4119999408721924 3.1519999504089355,-3.1530001163482666 C1.4119999408721924,-4.894000053405762 -1.4119999408721924,-4.894000053405762 -3.1530001163482666,-3.1530001163482666z"></path></g><g opacity="1" transform="matrix(1,0,0,1,69.05999755859375,172.24000549316406)"><path fill="rgb(183,211,243)" fill-opacity="1" d=" M-3.1519999504089355,-3.1530001163482666 C-4.89300012588501,-1.4119999408721924 -4.89300012588501,1.4119999408721924 -3.1519999504089355,3.1530001163482666 C-1.4110000133514404,4.894000053405762 1.4110000133514404,4.894000053405762 3.1530001163482666,3.1530001163482666 C4.894000053405762,1.4119999408721924 4.894000053405762,-1.4119999408721924 3.1530001163482666,-3.1530001163482666 C1.4110000133514404,-4.894000053405762 -1.4110000133514404,-4.894000053405762 -3.1519999504089355,-3.1530001163482666z"></path></g><g opacity="1" transform="matrix(1,0,0,1,111.11799621582031,101.49500274658203)"><path fill="rgb(183,211,243)" fill-opacity="1" d=" M-4.458000183105469,0 C-4.458000183105469,-2.4619998931884766 -2.4630000591278076,-4.458000183105469 -0.0010000000474974513,-4.458000183105469 C2.4619998931884766,-4.458000183105469 4.458000183105469,-2.4619998931884766 4.458000183105469,0 C4.458000183105469,2.4619998931884766 2.4619998931884766,4.458000183105469 -0.0010000000474974513,4.458000183105469 C-2.4630000591278076,4.458000183105469 -4.458000183105469,2.4619998931884766 -4.458000183105469,0z"></path></g></g><g transform="matrix(1,0,0,1,1122.844970703125,76.30099487304688)" opacity="1" style="display: block;"><g opacity="1" transform="matrix(1,0,0,1,16.141000747680664,13.276000022888184)"><path fill="rgb(183,211,243)" fill-opacity="1" d=" M-13.63599967956543,13.024999618530273 C-13.63599967956543,13.024999618530273 -15.890999794006348,10.152999877929688 -15.890999794006348,10.152999877929688 C-15.890999794006348,10.152999877929688 13.63599967956543,-13.024999618530273 13.63599967956543,-13.024999618530273 C13.63599967956543,-13.024999618530273 15.890999794006348,-10.152999877929688 15.890999794006348,-10.152999877929688 C15.890999794006348,-10.152999877929688 -13.63599967956543,13.024999618530273 -13.63599967956543,13.024999618530273z"></path></g></g><g transform="matrix(1,0,0,1,1123.926025390625,45.30000305175781)" opacity="1" style="display: block;"><g opacity="1" transform="matrix(1,0,0,1,0.859000027179718,28.097000122070312)"><path fill="rgb(183,211,243)" fill-opacity="1" d=" M0.609000027179718,27.847000122070312 C0.609000027179718,27.847000122070312 -0.609000027179718,27.847000122070312 -0.609000027179718,27.847000122070312 C-0.609000027179718,27.847000122070312 -0.609000027179718,-27.847000122070312 -0.609000027179718,-27.847000122070312 C-0.609000027179718,-27.847000122070312 0.609000027179718,-27.847000122070312 0.609000027179718,-27.847000122070312 C0.609000027179718,-27.847000122070312 0.609000027179718,27.847000122070312 0.609000027179718,27.847000122070312z"></path></g></g></g></svg>