<?xml version="1.0" encoding="utf-8"?>
<!-- Generator: Adobe Illustrator 27.0.1, SVG Export Plug-In . SVG Version: 6.00 Build 0)  -->
<svg version="1.1" id="Layer_1" xmlns="http://www.w3.org/2000/svg" xmlns:xlink="http://www.w3.org/1999/xlink" x="0px" y="0px"
	 viewBox="0 0 442.8 215.9" style="enable-background:new 0 0 442.8 215.9;" xml:space="preserve">
<style type="text/css">
	.st0{fill:#4A4A4A;}
	.st1{fill:#1E70AD;}
	.st2{fill:#185A96;}
	.st3{fill:#2384C1;}
	.st4{fill:#134781;}
	.st5{fill:#FFFFFF;}
	.st6{fill:url(#SVGID_1_);}
	.st7{fill:#DC3626;}
	.st8{fill:url(#SVGID_00000069370179093855745130000016613857971680668592_);}
	.st9{fill:url(#SVGID_00000113325023193222376550000009166247780389783724_);}
	.st10{fill:url(#SVGID_00000135678474281681091520000016387556211206343572_);}
</style>
<g>
	<g>
		<g>
			<g>
				<path class="st0" d="M158.1,79.4c-0.4,0-0.7-0.2-0.9-0.5l-14.5-27c-0.3-0.5-0.1-1.1,0.4-1.3c0.5-0.3,1.1-0.1,1.3,0.4l14.5,27
					c0.3,0.5,0.1,1.1-0.4,1.3C158.4,79.3,158.3,79.4,158.1,79.4z"/>
			</g>
			<g>
				<path class="st0" d="M161.3,76.5c1,1.8,0.3,4-1.5,5c-1.8,1-4,0.3-5-1.5c-1-1.8-0.3-4,1.5-5C158.1,74,160.3,74.7,161.3,76.5z"/>
			</g>
			<g>
				<path class="st0" d="M147,49.8c-1-1.8-3.2-2.5-5-1.5c-1.8,1-2.5,3.2-1.5,5c1,1.8,3.2,2.5,5,1.5C147.3,53.9,148,51.6,147,49.8z"
					/>
			</g>
		</g>
		<g>
			<g>
				<path class="st0" d="M80.7,159c-0.1,0-0.3,0-0.4-0.1l-33.7-14.6c-0.5-0.2-0.7-0.8-0.5-1.3c0.2-0.5,0.8-0.7,1.3-0.5l33.7,14.6
					c0.5,0.2,0.7,0.8,0.5,1.3C81.4,158.8,81.1,159,80.7,159z"/>
			</g>
			<g>
				<path class="st0" d="M82,154.5c1.9,0.8,2.7,3,1.9,4.9c-0.8,1.9-3,2.7-4.9,1.9c-1.9-0.8-2.7-3-1.9-4.9
					C77.9,154.6,80.1,153.7,82,154.5z"/>
			</g>
			<g>
				<path class="st0" d="M48.7,140c-1.9-0.8-4.1,0-4.9,1.9c-0.8,1.9,0,4.1,1.9,4.9c1.9,0.8,4.1,0,4.9-1.9
					C51.4,143,50.5,140.8,48.7,140z"/>
			</g>
		</g>
		<g>
			<g>
				<path class="st0" d="M273.5,79.4c-0.2,0-0.3,0-0.5-0.1c-0.5-0.3-0.7-0.9-0.4-1.3l14.5-27c0.3-0.5,0.9-0.7,1.3-0.4
					c0.5,0.3,0.7,0.9,0.4,1.3l-14.5,27C274.2,79.2,273.9,79.4,273.5,79.4z"/>
			</g>
			<g>
				<path class="st0" d="M276.9,80c-1,1.8-3.2,2.5-5,1.5c-1.8-1-2.5-3.2-1.5-5c1-1.8,3.2-2.5,5-1.5C277.2,75.9,277.8,78.2,276.9,80z
					"/>
			</g>
			<g>
				<path class="st0" d="M291.2,53.3c1-1.8,0.3-4-1.5-5c-1.8-1-4-0.3-5,1.5c-1,1.8-0.3,4,1.5,5C288,55.8,290.2,55.1,291.2,53.3z"/>
			</g>
		</g>
		<g>
			<g>
				<path class="st0" d="M350.9,159c-0.4,0-0.7-0.2-0.9-0.6c-0.2-0.5,0-1.1,0.5-1.3l33.7-14.6c0.5-0.2,1.1,0,1.3,0.5
					c0.2,0.5,0,1.1-0.5,1.3l-33.7,14.6C351.2,158.9,351.1,159,350.9,159z"/>
			</g>
			<g>
				<path class="st0" d="M352.6,161.3c-1.9,0.8-4.1,0-4.9-1.9c-0.8-1.9,0-4.1,1.9-4.9c1.9-0.8,4.1,0,4.9,1.9
					C355.3,158.3,354.5,160.5,352.6,161.3z"/>
			</g>
			<g>
				<path class="st0" d="M385.9,146.8c1.9-0.8,2.7-3,1.9-4.9c-0.8-1.9-3-2.7-4.9-1.9c-1.9,0.8-2.7,3-1.9,4.9
					C381.9,146.8,384.1,147.6,385.9,146.8z"/>
			</g>
		</g>
		<g>
			<g>
				<path class="st1" d="M217.6,80.7c-37,0-70.6,15-94.8,39.2l94.8,94.8V80.7z"/>
			</g>
			<g>
				<path class="st2" d="M312.4,119.9c-24.3-24.3-57.8-39.2-94.8-39.2v134.1L312.4,119.9z"/>
			</g>
			<g>
				<path class="st3" d="M122.8,119.9c-24.3,24.3-39.2,57.8-39.2,94.8h134.1L122.8,119.9z"/>
			</g>
			<g>
				<path class="st4" d="M351.7,214.7c0-37-15-70.6-39.2-94.8l-94.8,94.8H351.7z"/>
			</g>
		</g>
		<path class="st5" d="M258,174.6c-10.3-10.5-24.6-17.1-40.4-17.1c-15.8,0-30.1,6.5-40.4,17.1c-10.3,10.5-16.7,25.1-16.7,41.2h57.1
			h57.1C274.8,199.8,268.4,185.2,258,174.6z"/>
		<g>
			<radialGradient id="SVGID_1_" cx="94.6895" cy="168.9917" r="30.3708" gradientUnits="userSpaceOnUse">
				<stop  offset="0.3599" style="stop-color:#ACC2D4"/>
				<stop  offset="0.4428" style="stop-color:#BBCDDC"/>
				<stop  offset="0.6833" style="stop-color:#E0E8EF"/>
				<stop  offset="0.8776" style="stop-color:#F7F9FB"/>
				<stop  offset="1" style="stop-color:#FFFFFF"/>
			</radialGradient>
			<circle class="st6" cx="94.7" cy="169" r="30.4"/>
			<circle class="st5" cx="94.7" cy="166" r="23.6"/>
			<circle class="st7" cx="94.7" cy="166" r="20"/>
		</g>
		<g>
			
				<radialGradient id="SVGID_00000136392455704463067490000015573590590566250173_" cx="339.6053" cy="168.9917" r="30.3708" gradientUnits="userSpaceOnUse">
				<stop  offset="0.3599" style="stop-color:#ACC2D4"/>
				<stop  offset="0.4428" style="stop-color:#BBCDDC"/>
				<stop  offset="0.6833" style="stop-color:#E0E8EF"/>
				<stop  offset="0.8776" style="stop-color:#F7F9FB"/>
				<stop  offset="1" style="stop-color:#FFFFFF"/>
			</radialGradient>
			<circle style="fill:url(#SVGID_00000136392455704463067490000015573590590566250173_);" cx="339.6" cy="169" r="30.4"/>
			<circle class="st5" cx="339.6" cy="166" r="23.6"/>
			<circle class="st7" cx="339.6" cy="166" r="20"/>
		</g>
		<g>
			
				<radialGradient id="SVGID_00000119805419088193245220000016168358390270843298_" cx="165.739" cy="97.0792" r="30.3708" gradientUnits="userSpaceOnUse">
				<stop  offset="0.3599" style="stop-color:#ACC2D4"/>
				<stop  offset="0.4428" style="stop-color:#BBCDDC"/>
				<stop  offset="0.6833" style="stop-color:#E0E8EF"/>
				<stop  offset="0.8776" style="stop-color:#F7F9FB"/>
				<stop  offset="1" style="stop-color:#FFFFFF"/>
			</radialGradient>
			<circle style="fill:url(#SVGID_00000119805419088193245220000016168358390270843298_);" cx="165.7" cy="97.1" r="30.4"/>
			<circle class="st5" cx="165.7" cy="94.1" r="23.6"/>
			<ellipse transform="matrix(0.1602 -0.9871 0.9871 0.1602 46.32 242.6136)" class="st7" cx="165.7" cy="94.1" rx="20" ry="20"/>
		</g>
		<g>
			
				<radialGradient id="SVGID_00000078045988590384959810000002555331758115259815_" cx="265.5788" cy="97.0792" r="30.3708" gradientUnits="userSpaceOnUse">
				<stop  offset="0.3599" style="stop-color:#ACC2D4"/>
				<stop  offset="0.4428" style="stop-color:#BBCDDC"/>
				<stop  offset="0.6833" style="stop-color:#E0E8EF"/>
				<stop  offset="0.8776" style="stop-color:#F7F9FB"/>
				<stop  offset="1" style="stop-color:#FFFFFF"/>
			</radialGradient>
			<circle style="fill:url(#SVGID_00000078045988590384959810000002555331758115259815_);" cx="265.6" cy="97.1" r="30.4"/>
			<circle class="st5" cx="265.6" cy="94.1" r="23.6"/>
			<ellipse transform="matrix(0.7071 -0.7071 0.7071 0.7071 11.2578 215.3496)" class="st7" cx="265.6" cy="94.1" rx="20" ry="20"/>
		</g>
	</g>
</g>
<path class="st5" d="M100.9,157.9c-0.3,0-0.5,0.1-0.7,0.3c-0.2,0.2-0.3,0.5-0.3,0.7v0.7c-0.3-0.2-0.6-0.3-1-0.3
	c-0.4,0-0.8,0.1-1.1,0.4c-0.3,0.3-0.5,0.7-0.5,1.1H95c0-0.4-0.2-0.9-0.6-1.1c-0.3-0.3-0.8-0.4-1.2-0.4c-0.4,0.1-0.8,0.3-1.1,0.7
	c-0.3-0.4-0.8-0.7-1.3-0.7c-0.4,0-0.7,0.1-1,0.4v-0.7c0-0.4-0.2-0.7-0.5-0.9c-0.3-0.2-0.7-0.2-1.1,0s-0.5,0.5-0.5,0.9v12.3
	c-0.4,0.2-0.7,0.6-0.7,1.1c-0.1,0.5,0.1,0.9,0.4,1.3c0.3,0.3,0.7,0.5,1.2,0.5h12.9c0.5,0,0.9-0.2,1.2-0.6c0.3-0.4,0.4-0.9,0.3-1.3
	c-0.1-0.5-0.4-0.9-0.8-1.1v-12.2c0-0.3-0.1-0.6-0.3-0.8C101.4,158,101.2,157.9,100.9,157.9L100.9,157.9z M100.5,164.4v-5.5
	c0-0.2,0.2-0.4,0.4-0.4s0.4,0.2,0.4,0.4v12l-0.9,0L100.5,164.4z M98.8,159.9c0.3,0,0.5,0.1,0.7,0.3c0.2,0.2,0.3,0.4,0.3,0.7
	c0,0.3-0.1,0.5-0.3,0.7c-0.2,0.2-0.4,0.3-0.7,0.3c-0.3,0-0.5-0.1-0.7-0.3c-0.2-0.2-0.3-0.4-0.3-0.7c0-0.3,0.1-0.5,0.3-0.7
	C98.3,160,98.6,159.9,98.8,159.9L98.8,159.9z M93.3,159.9c0.3,0,0.5,0.1,0.7,0.3c0.2,0.2,0.3,0.4,0.3,0.7c0,0.3-0.1,0.5-0.3,0.7
	s-0.4,0.3-0.7,0.3c-0.3,0-0.5-0.1-0.7-0.3c-0.2-0.2-0.3-0.4-0.3-0.7c0-0.3,0.1-0.5,0.3-0.7C92.8,160,93.1,159.9,93.3,159.9
	L93.3,159.9z M92,161.9c0.3,0.4,0.6,0.6,1.1,0.7c0.4,0.1,0.9,0,1.2-0.3c0.3-0.3,0.6-0.7,0.6-1.1h2.3c0,0.4,0.2,0.7,0.5,1
	c0.3,0.3,0.6,0.4,1,0.4c0.4,0,0.8-0.1,1.1-0.3v0.9v0c-0.3-0.2-0.6-0.3-1-0.3c-0.3,0-0.6,0.1-0.8,0.2c-0.3,0.2-0.5,0.4-0.6,0.6
	c-0.2-0.4-0.6-0.7-1.1-0.8c-0.5-0.1-1,0-1.3,0.3c-0.4,0.3-0.6,0.7-0.6,1.2h-4.6v-2.1v0c0.3,0.3,0.8,0.4,1.2,0.3
	C91.4,162.5,91.8,162.2,92,161.9L92,161.9z M96,169.9c0.4,0,0.8-0.2,1.1-0.4c0.3-0.3,0.5-0.6,0.5-1h2.2v2.5H89.7v-1.4
	c0.3,0.2,0.6,0.3,1,0.3c0.4,0,0.8-0.2,1.1-0.4c0.3-0.3,0.5-0.6,0.5-1h2c0,0.4,0.2,0.8,0.5,1C95.2,169.8,95.6,169.9,96,169.9
	L96,169.9z M95,168.3L95,168.3c0-0.3,0.1-0.5,0.3-0.7c0.2-0.2,0.4-0.3,0.7-0.3s0.5,0.1,0.7,0.3c0.2,0.2,0.3,0.4,0.3,0.7
	c0,0.3-0.1,0.5-0.3,0.7c-0.2,0.2-0.4,0.3-0.7,0.3c-0.3,0-0.5-0.1-0.7-0.3C95.1,168.8,95,168.6,95,168.3L95,168.3z M97.6,168.1
	L97.6,168.1c0-0.5-0.4-1-0.8-1.3c-0.5-0.3-1.1-0.3-1.5,0c-0.5,0.3-0.8,0.7-0.8,1.3h-2c0-0.4-0.2-0.8-0.5-1c-0.3-0.3-0.7-0.4-1.1-0.4
	c-0.4,0-0.7,0.1-1,0.3v-2.4h4.6c0.1,0.5,0.3,0.9,0.7,1.1c0.4,0.3,0.9,0.3,1.3,0.2c0.4-0.1,0.8-0.4,1-0.8c0.1,0.3,0.3,0.5,0.6,0.6
	c0.3,0.2,0.5,0.2,0.8,0.2c0.4,0,0.7-0.1,1-0.3v2.4L97.6,168.1z M95,164.4c0-0.3,0.1-0.5,0.3-0.7c0.2-0.2,0.4-0.3,0.7-0.3
	s0.5,0.1,0.7,0.3c0.2,0.2,0.3,0.4,0.3,0.7c0,0.3-0.1,0.5-0.3,0.7c-0.2,0.2-0.4,0.3-0.7,0.3c-0.3,0-0.5-0.1-0.7-0.3
	C95.1,165,95,164.7,95,164.4L95,164.4z M98.8,165.4c-0.3,0-0.5-0.1-0.7-0.3c-0.2-0.2-0.3-0.4-0.3-0.7c0-0.3,0.1-0.5,0.3-0.7
	c0.2-0.2,0.4-0.3,0.7-0.3c0.3,0,0.5,0.1,0.7,0.3c0.2,0.2,0.3,0.4,0.3,0.7c0,0.3-0.1,0.5-0.3,0.7C99.3,165.3,99.1,165.4,98.8,165.4z
	 M90.7,159.9c0.3,0,0.5,0.1,0.7,0.3c0.2,0.2,0.3,0.4,0.3,0.7c0,0.3-0.1,0.5-0.3,0.7c-0.2,0.2-0.4,0.3-0.7,0.3
	c-0.3,0-0.5-0.1-0.7-0.3c-0.2-0.2-0.3-0.4-0.3-0.7c0-0.3,0.1-0.5,0.3-0.7C90.2,160,90.5,159.9,90.7,159.9L90.7,159.9z M90.7,167.3
	c0.3,0,0.5,0.1,0.7,0.3c0.2,0.2,0.3,0.4,0.3,0.7s-0.1,0.5-0.3,0.7c-0.2,0.2-0.4,0.3-0.7,0.3c-0.3,0-0.5-0.1-0.7-0.3
	c-0.2-0.2-0.3-0.4-0.3-0.7c0-0.3,0.1-0.5,0.3-0.7C90.2,167.4,90.5,167.3,90.7,167.3L90.7,167.3z M88.2,158.9c0-0.2,0.2-0.4,0.4-0.4
	c0.2,0,0.4,0.2,0.4,0.4v12h-0.7c-0.1,0-0.1,0-0.2,0L88.2,158.9z M102.2,172.5c0,0.2-0.1,0.5-0.3,0.7s-0.4,0.3-0.7,0.3H88.4
	c-0.3,0-0.6-0.2-0.8-0.5c-0.2-0.3-0.2-0.6,0-0.9c0.2-0.3,0.5-0.5,0.8-0.5h12.9c0.2,0,0.5,0.1,0.7,0.3
	C102.1,172.1,102.2,172.3,102.2,172.5L102.2,172.5z"/>
<g>
	<path class="st5" d="M157.9,95.8h1.2v-0.2V90c0-0.5,0.2-1,0.5-1.4c-0.2,0-0.3,0-0.7,0c-0.8,0-1.4,0.6-1.4,1.4l-0.2,4.9
		C157.2,95.4,157.5,95.8,157.9,95.8L157.9,95.8z"/>
	<path class="st5" d="M159.6,96.9c-0.2,1.4-0.7,4.2-2.1,5.4c-0.4,0.3-0.4,0.9-0.1,1.3c0.3,0.4,0.9,0.4,1.3,0.1
		c1.6-1.4,2.3-4,2.6-5.7c-0.1-0.1-0.1-0.2-0.1-0.3C160.6,97.7,160,97.3,159.6,96.9L159.6,96.9z"/>
	<path class="st5" d="M162,90.9c0.5-0.7,0.6-1.5,0.5-2.3c-0.3-0.3-0.7-0.4-1.2-0.4c-1,0-1.9,0.8-1.9,1.9v2.6
		c0.2-0.1,0.5-0.2,0.7-0.3c-0.1-1.2,0.1-2.1,0.1-2.3c0.1-0.5,0.5-0.9,1-0.8c0.5,0.1,0.9,0.5,0.8,1.1C162,90.5,162,90.7,162,90.9
		L162,90.9z"/>
	<path class="st5" d="M163.2,95.5V90c0-0.4-0.1-0.7-0.3-1c0.1,0.9-0.2,1.7-0.9,2.4c0,0.8,0.1,2.6,0.6,3.2c0.3,0.4,0.3,1-0.1,1.3
		c-0.4,0.3-1,0.3-1.3-0.1c-0.7-0.8-0.9-2.1-1-3.2c-0.2,0.1-0.5,0.2-0.7,0.3v2.5c0,1.1,0.9,1.9,2,1.9c0.3,0.6,1.1,2.6,1.1,5.6
		c0,0.5,0.4,0.9,0.9,0.9c0.5,0,0.9-0.4,0.9-0.9c0-3.7-1.1-6-1.4-6.6C163.1,96.1,163.2,95.8,163.2,95.5L163.2,95.5z"/>
	<path class="st5" d="M161.3,87.9c1,0,1.8-0.8,1.8-1.8c0-1-0.8-1.8-1.8-1.8c-1,0-1.8,0.8-1.8,1.8C159.5,87.1,160.3,87.9,161.3,87.9z
		"/>
	<path class="st5" d="M161.2,89.6c-0.3,0-0.7,0.2-0.7,0.5c-0.1,0.4-0.4,4,0.9,5.6c0.2,0.3,0.6,0.3,0.9,0.1c0.2-0.2,0.3-0.6,0.1-0.9
		c-0.9-1-0.7-3.7-0.6-4.7C161.8,89.9,161.6,89.6,161.2,89.6L161.2,89.6z"/>
	<path class="st5" d="M166.5,95.8h1.2v-0.2V90c0-0.5,0.2-1,0.5-1.4c-0.2,0-0.3,0-0.7,0c-0.8,0-1.4,0.6-1.4,1.4l-0.2,4.9
		C165.8,95.4,166.1,95.8,166.5,95.8L166.5,95.8z"/>
	<path class="st5" d="M168.2,96.9c-0.2,1.4-0.7,4.2-2.1,5.4c-0.4,0.3-0.4,0.9-0.1,1.3c0.3,0.4,0.9,0.4,1.3,0.1
		c1.6-1.4,2.3-4,2.6-5.7c0-0.1-0.1-0.2-0.1-0.3C169.1,97.7,168.6,97.3,168.2,96.9L168.2,96.9z"/>
	<path class="st5" d="M170.6,90.9c0.1-0.1,0.2-0.2,0.2-0.3c0.4-0.8,0.3-1.6,0.3-2c-0.3-0.3-0.7-0.4-1.2-0.4c-1,0-1.9,0.8-1.9,1.9
		v2.6c0.2-0.1,0.5-0.2,0.7-0.3c-0.1-1.2,0-2.1,0.1-2.3c0.1-0.5,0.5-0.9,1-0.8c0.5,0.1,0.9,0.5,0.8,1.1
		C170.6,90.5,170.6,90.7,170.6,90.9L170.6,90.9z"/>
	<path class="st5" d="M169.9,87.9c1,0,1.8-0.8,1.8-1.8c0-1-0.8-1.8-1.8-1.8c-1,0-1.8,0.8-1.8,1.8C168,87.1,168.8,87.9,169.9,87.9
		L169.9,87.9z"/>
	<path class="st5" d="M171.5,96.3c0.1-0.2,0.2-0.5,0.2-0.8V90c0-0.4-0.1-0.7-0.3-1c0,0.5,0,1.1-0.4,1.7c-0.1,0.2-0.3,0.5-0.5,0.7
		v0.2c0,1.2,0.2,2.4,0.7,3c0.3,0.4,0.3,1-0.1,1.3c-0.4,0.3-1,0.3-1.3-0.1c-0.7-0.8-0.9-2.1-1-3.2c-0.2,0.1-0.5,0.2-0.7,0.3v2.5
		c0,1,0.8,1.9,1.9,1.9h0.1c0.3,0.6,1.1,2.6,1.1,5.6c0,0.5,0.4,0.9,0.9,0.9c0.5,0,0.9-0.4,0.9-0.9C173,99.3,171.9,96.9,171.5,96.3
		L171.5,96.3z"/>
	<path class="st5" d="M169.8,89.6c-0.3,0-0.7,0.2-0.7,0.5c-0.1,0.4-0.4,4,0.9,5.6c0.2,0.3,0.6,0.3,0.9,0.1s0.3-0.6,0.1-0.9
		c-0.9-1-0.7-3.7-0.6-4.7C170.4,89.9,170.1,89.6,169.8,89.6L169.8,89.6z"/>
</g>
<g>
	<path class="st5" d="M266.1,89.4c-0.1,0-0.3,0.1-0.4,0.1c-0.1,0-0.3,0-0.4-0.1l-2.6-0.8c-0.2,0.4-0.3,0.9-0.3,1.3
		c0,1.8,1.5,3.3,3.3,3.3c1.8,0,3.3-1.5,3.3-3.3c0-0.5-0.1-0.9-0.3-1.3L266.1,89.4z"/>
	<path class="st5" d="M260.9,85.9l1.6,0.5v1.7c0,0,0,0.1,0.1,0.1l2.8,0.8c0.2,0.1,0.4,0.1,0.6,0l2.8-0.8c0,0,0.1-0.1,0.1-0.1v-1.7
		l1-0.3v1.6c-0.1,0-0.1,0.1-0.1,0.2V88c0,0.1,0.1,0.2,0.1,0.2l-0.2,0.5c0,0.1,0,0.1,0.1,0.1l0.2,0h0.1l0.2,0c0.1,0,0.1-0.1,0.1-0.1
		l-0.2-0.5c0.1,0,0.1-0.1,0.1-0.2v-0.2c0-0.1-0.1-0.2-0.1-0.2v-1.7l0.4-0.1c0.1,0,0.1-0.2,0-0.2l-4.6-1.4c-0.1,0-0.2,0-0.3,0
		l-4.6,1.4C260.8,85.7,260.8,85.9,260.9,85.9L260.9,85.9z"/>
	<path class="st5" d="M266.5,97.2V97c0-0.2,0.1-0.3,0.2-0.4c0.1-0.1,0.2-0.1,0.3-0.1h0.1l3.2,0.7l1.2-0.3c-0.1-1.1-0.2-2.1-0.3-2.6
		c-0.1-1-0.6-1.6-1.5-1.6H269c-0.1,0-0.3,0.1-0.3,0.1c-0.8,0.7-1.8,1.2-3,1.2c-1.2,0-2.2-0.4-3-1.2c-0.1-0.1-0.2-0.1-0.3-0.1h-0.9
		c-0.9,0-1.4,0.6-1.5,1.6c-0.1,1-0.6,5.6-0.6,5.6c0,0.7,0.5,1.3,1.2,1.6c1.3,0.4,3.5,0.7,5,0.7h0.4v-0.1v-4.4
		C266.1,97.4,266.2,97.2,266.5,97.2C266.5,97.2,266.5,97.2,266.5,97.2L266.5,97.2z"/>
	<path class="st5" d="M267.5,97.9l1.1,0.2l1.1,0.2h0c0,0,0.1,0,0.1-0.1c0-0.1,0-0.1-0.1-0.1l-1.1-0.2l-1.1-0.2c-0.1,0-0.1,0-0.1,0.1
		C267.4,97.9,267.5,97.9,267.5,97.9z"/>
	<path class="st5" d="M267.5,98.4l1.1,0.2l1.1,0.2h0c0,0,0.1,0,0.1-0.1c0-0.1,0-0.1-0.1-0.1l-1.1-0.2l-1.1-0.2c-0.1,0-0.1,0-0.1,0.1
		C267.4,98.4,267.5,98.4,267.5,98.4z"/>
	<path class="st5" d="M267.5,99l1.1,0.2l1.1,0.2h0c0,0,0.1,0,0.1-0.1c0-0.1,0-0.1-0.1-0.1l-1.1-0.2l-1.1-0.2c-0.1,0-0.1,0-0.1,0.1
		C267.4,98.9,267.5,98.9,267.5,99z"/>
	<path class="st5" d="M267.5,99.5l1.1,0.2l1.1,0.2h0c0,0,0.1,0,0.1-0.1c0-0.1,0-0.1-0.1-0.1l-1.1-0.2l-1.1-0.2c-0.1,0-0.1,0-0.1,0.1
		C267.4,99.4,267.5,99.5,267.5,99.5z"/>
	<path class="st5" d="M267.5,100l1.1,0.2l1.1,0.2h0c0,0,0.1,0,0.1-0.1c0-0.1,0-0.1-0.1-0.1l-1.1-0.2l-1.1-0.2c-0.1,0-0.1,0-0.1,0.1
		C267.4,99.9,267.5,100,267.5,100z"/>
	<path class="st5" d="M267.5,100.5l1.1,0.2l1.1,0.2h0c0,0,0.1,0,0.1-0.1c0-0.1,0-0.1-0.1-0.1l-1.1-0.2l-1.1-0.2
		c-0.1,0-0.1,0-0.1,0.1C267.4,100.4,267.5,100.5,267.5,100.5z"/>
	<path class="st5" d="M267.5,101l1.1,0.2l1.1,0.2h0c0,0,0.1,0,0.1-0.1c0-0.1,0-0.1-0.1-0.1l-1.1-0.2l-1.1-0.2c-0.1,0-0.1,0-0.1,0.1
		C267.4,100.9,267.5,101,267.5,101z"/>
	<path class="st5" d="M274.2,97.6c-0.1,0-0.3,0-0.4,0V97c0,0,0-0.1,0-0.1c0,0-0.1,0-0.1,0l-3.3,0.7l-3.3-0.7c0,0-0.1,0-0.1,0
		c0,0,0,0.1,0,0.1v0.6c-0.1,0-0.3,0-0.4,0c0,0-0.1,0-0.1,0.1v4.4c0,0,0,0,0,0.1c0,0,0,0,0.1,0c1.3-0.1,2.5,0.1,3.7,0.5l0.1,0h0h0
		l0.1,0c1.2-0.4,2.4-0.5,3.7-0.5c0,0,0,0,0.1,0c0,0,0,0,0-0.1v-4.4C274.2,97.7,274.2,97.6,274.2,97.6L274.2,97.6z M270.2,102.1
		l-3.1-0.6v-4.3l3.1,0.6V102.1z M273.5,101.4l-3.1,0.6v-4.3l3.1-0.6V101.4z"/>
	<path class="st5" d="M270.9,98.4L270.9,98.4l1.1-0.2l1.1-0.2c0.1,0,0.1-0.1,0.1-0.1c0-0.1-0.1-0.1-0.1-0.1L272,98l-1.1,0.2
		C270.8,98.2,270.8,98.2,270.9,98.4C270.8,98.3,270.9,98.4,270.9,98.4L270.9,98.4z"/>
	<path class="st5" d="M270.9,98.9L270.9,98.9l1.1-0.2l1.1-0.2c0.1,0,0.1-0.1,0.1-0.1c0-0.1-0.1-0.1-0.1-0.1l-1.1,0.2l-1.1,0.2
		C270.8,98.7,270.8,98.7,270.9,98.9C270.8,98.9,270.9,98.9,270.9,98.9L270.9,98.9z"/>
	<path class="st5" d="M270.9,99.4L270.9,99.4l1.1-0.2l1.1-0.2c0.1,0,0.1-0.1,0.1-0.1c0-0.1-0.1-0.1-0.1-0.1L272,99l-1.1,0.2
		C270.8,99.2,270.8,99.3,270.9,99.4C270.8,99.4,270.9,99.4,270.9,99.4L270.9,99.4z"/>
	<path class="st5" d="M270.9,99.9L270.9,99.9l1.1-0.2l1.1-0.2c0.1,0,0.1-0.1,0.1-0.1c0-0.1-0.1-0.1-0.1-0.1l-1.1,0.2l-1.1,0.2
		C270.8,99.7,270.8,99.8,270.9,99.9C270.8,99.9,270.9,99.9,270.9,99.9L270.9,99.9z"/>
	<path class="st5" d="M270.9,100.4L270.9,100.4l1.1-0.2l1.1-0.2c0.1,0,0.1-0.1,0.1-0.1c0-0.1-0.1-0.1-0.1-0.1L272,100l-1.1,0.2
		C270.8,100.2,270.8,100.3,270.9,100.4C270.8,100.4,270.9,100.4,270.9,100.4L270.9,100.4z"/>
	<path class="st5" d="M270.9,100.9L270.9,100.9l1.1-0.2l1.1-0.2c0.1,0,0.1-0.1,0.1-0.1c0-0.1-0.1-0.1-0.1-0.1l-1.1,0.2l-1.1,0.2
		C270.8,100.8,270.8,100.8,270.9,100.9C270.8,100.9,270.8,100.9,270.9,100.9L270.9,100.9z"/>
	<path class="st5" d="M270.9,101.4L270.9,101.4l1.1-0.2l1.1-0.2c0.1,0,0.1-0.1,0.1-0.1c0-0.1-0.1-0.1-0.1-0.1L272,101l-1.1,0.2
		C270.8,101.3,270.8,101.3,270.9,101.4C270.8,101.4,270.8,101.4,270.9,101.4L270.9,101.4z"/>
</g>
<g>
	<path class="st5" d="M341.1,167.4c0.5,1.4,0.5,2.8,0,4h-1.6c0,0,0,0,0,0c0,0,0,0,0,0h-1.3c0.5-1.4,0.5-2.7,0-4h0.1
		c0.8,0,1.6,0,2.4,0H341.1z M332.3,171.8c-0.2,0-0.4-0.1-0.5-0.2c-0.9-1.3-0.9-3.2,0-4.5c0.1-0.2,0.3-0.2,0.5-0.2
		c2.3,0.2,4,0.4,5.6,0.4c0.5,1.3,0.5,2.7,0,4.1C336.3,171.5,334.7,171.6,332.3,171.8L332.3,171.8z M341.1,174.7l-1.4-0.9
		c0,0,0,0-0.1,0c0,0-0.1,0-0.1,0l-1.4,0.9v-3c1,0,2,0,3,0V174.7z M347.2,171.7c-0.1,0.1-0.3,0.2-0.4,0.2c-2.3-0.2-3.9-0.4-5.4-0.4
		c0.5-1.3,0.5-2.7,0-4.1c1.5-0.1,3.1-0.2,5.4-0.4c0.2,0,0.3,0.1,0.5,0.2C348.4,168.4,348.4,170.4,347.2,171.7L347.2,171.7z"/>
	<path class="st5" d="M344.5,162v2.7c0,1-2.6,1.4-4.9,1.4c-2.3,0-4.9-0.4-4.9-1.4V162c4.9,1.3,4.7,1.3,4.9,1.3
		C339.8,163.3,339.8,163.3,344.5,162L344.5,162z"/>
	<path class="st5" d="M339.6,160.4c-0.6,0-1,0.2-1,0.3c0,0.1,0.4,0.3,1,0.3s1-0.2,1-0.3C340.6,160.6,340.2,160.4,339.6,160.4z"/>
	<path class="st5" d="M346.8,163v-2.2c0,0,0,0,0,0c0,0,0,0,0-0.1c0,0,0,0,0,0c0,0,0,0,0,0c0,0,0,0,0,0l-7-1.8c0,0,0,0-0.1,0l-7,1.8
		c-0.1,0-0.1,0.1-0.1,0.1s0,0.1,0.1,0.1l7,1.8c0,0,0,0,0,0c0,0,0,0,0,0l6.9-1.8v2.1c-0.3,0.1-0.6,0.4-0.6,0.7v0.9
		c0,0.1,0.1,0.1,0.1,0.1h1.2c0.1,0,0.1-0.1,0.1-0.1l0-0.9C347.4,163.4,347.1,163.1,346.8,163L346.8,163z M339.6,161.4
		c-0.6,0-1.3-0.2-1.3-0.6c0-0.4,0.6-0.6,1.3-0.6s1.3,0.2,1.3,0.6C340.9,161.2,340.2,161.4,339.6,161.4z"/>
</g>
<g>
	<path class="st7" d="M16.6,102.6c0,1.5-1.1,2.5-3,2.5H12v2h-1.3v-7h2.9C15.4,100.1,16.6,101,16.6,102.6z M15.3,102.6
		c0-0.9-0.6-1.4-1.7-1.4H12v2.8h1.5C14.7,104,15.3,103.5,15.3,102.6z"/>
	<path class="st7" d="M20.8,101.7v1.2c-0.1,0-0.2,0-0.3,0c-0.9,0-1.5,0.6-1.5,1.6v2.6h-1.2v-5.3h1.2v0.8
		C19.3,102,19.9,101.7,20.8,101.7z"/>
	<path class="st7" d="M21.7,100.1c0-0.4,0.3-0.7,0.8-0.7s0.8,0.3,0.8,0.7c0,0.4-0.3,0.8-0.8,0.8C22,100.9,21.7,100.6,21.7,100.1z
		 M21.9,101.8h1.2v5.3h-1.2V101.8z"/>
	<path class="st7" d="M33.7,104v3.1h-1.2v-2.9c0-0.9-0.4-1.4-1.2-1.4c-0.8,0-1.4,0.5-1.4,1.6v2.7h-1.2v-2.9c0-0.9-0.4-1.4-1.2-1.4
		c-0.8,0-1.4,0.5-1.4,1.6v2.7h-1.2v-5.3h1.2v0.7c0.4-0.5,1-0.7,1.7-0.7c0.8,0,1.4,0.3,1.8,0.9c0.4-0.5,1.1-0.9,2-0.9
		C32.8,101.7,33.7,102.4,33.7,104z"/>
	<path class="st7" d="M39.8,104v3.1h-1.2v-0.6c-0.3,0.5-0.9,0.7-1.7,0.7c-1.2,0-2-0.7-2-1.6c0-0.9,0.6-1.6,2.2-1.6h1.4v-0.1
		c0-0.7-0.4-1.2-1.3-1.2c-0.6,0-1.2,0.2-1.6,0.5l-0.5-0.9c0.6-0.4,1.4-0.7,2.3-0.7C38.9,101.7,39.8,102.4,39.8,104z M38.5,105.4
		v-0.6h-1.3c-0.8,0-1.1,0.3-1.1,0.7c0,0.4,0.4,0.7,1,0.7C37.8,106.3,38.3,106,38.5,105.4z"/>
	<path class="st7" d="M44.4,101.7v1.2c-0.1,0-0.2,0-0.3,0c-0.9,0-1.5,0.6-1.5,1.6v2.6h-1.2v-5.3h1.2v0.8
		C42.9,102,43.6,101.7,44.4,101.7z"/>
	<path class="st7" d="M50.7,101.8l-2.5,5.8c-0.5,1.2-1.2,1.6-2.1,1.6c-0.5,0-1.1-0.2-1.4-0.5l0.5-0.9c0.2,0.2,0.6,0.4,0.9,0.4
		c0.4,0,0.7-0.2,0.9-0.7l0.1-0.2l-2.3-5.4h1.3l1.7,3.9l1.7-3.9H50.7z"/>
	<path class="st7" d="M53.8,106.4l0.4-1c0.6,0.4,1.4,0.8,2.3,0.8c1.1,0,1.5-0.4,1.5-0.9c0-1.5-4.2-0.5-4.2-3.1
		c0-1.1,0.9-2.1,2.8-2.1c0.8,0,1.7,0.2,2.3,0.6l-0.4,1c-0.6-0.4-1.3-0.5-1.9-0.5c-1.1,0-1.5,0.4-1.5,0.9c0,1.5,4.1,0.5,4.1,3.1
		c0,1.1-0.9,2.1-2.8,2.1C55.4,107.2,54.4,106.9,53.8,106.4z"/>
	<path class="st7" d="M60.1,104.4c0-1.6,1.2-2.7,2.9-2.7c1,0,1.9,0.4,2.3,1.2l-1,0.6c-0.3-0.5-0.8-0.7-1.3-0.7
		c-0.9,0-1.6,0.6-1.6,1.7c0,1,0.7,1.7,1.6,1.7c0.5,0,1-0.2,1.3-0.7l1,0.6c-0.4,0.8-1.2,1.2-2.3,1.2C61.3,107.2,60.1,106,60.1,104.4z
		"/>
	<path class="st7" d="M71.6,104v3.1h-1.2v-2.9c0-0.9-0.5-1.4-1.3-1.4c-0.9,0-1.5,0.5-1.5,1.6v2.7h-1.2v-7.4h1.2v2.7
		c0.4-0.4,1-0.7,1.8-0.7C70.6,101.7,71.6,102.4,71.6,104z"/>
	<path class="st7" d="M72.8,104.4c0-1.6,1.2-2.7,2.8-2.7c1.7,0,2.8,1.1,2.8,2.7s-1.2,2.7-2.8,2.7C74,107.2,72.8,106,72.8,104.4z
		 M77.2,104.4c0-1-0.7-1.7-1.6-1.7c-0.9,0-1.6,0.6-1.6,1.7s0.7,1.7,1.6,1.7C76.5,106.1,77.2,105.5,77.2,104.4z"/>
	<path class="st7" d="M79.2,104.4c0-1.6,1.2-2.7,2.8-2.7c1.7,0,2.8,1.1,2.8,2.7s-1.2,2.7-2.8,2.7C80.4,107.2,79.2,106,79.2,104.4z
		 M83.6,104.4c0-1-0.7-1.7-1.6-1.7c-0.9,0-1.6,0.6-1.6,1.7s0.7,1.7,1.6,1.7C83,106.1,83.6,105.5,83.6,104.4z"/>
	<path class="st7" d="M86.1,99.7h1.2v7.4h-1.2V99.7z"/>
</g>
<g>
	<path d="M10.7,114.9h0.5v4.9h-0.5V114.9z"/>
	<path d="M14.7,119.6c-0.2,0.2-0.5,0.3-0.8,0.3c-0.7,0-1.1-0.4-1.1-1.1v-2.2h-0.7v-0.4h0.7v-0.8h0.5v0.8h1.1v0.4h-1.1v2.2
		c0,0.4,0.2,0.7,0.6,0.7c0.2,0,0.4-0.1,0.5-0.2L14.7,119.6z"/>
	<path d="M19.2,116.1v0.5c0,0-0.1,0-0.1,0c-0.8,0-1.2,0.5-1.2,1.4v1.9h-0.5v-3.7h0.5v0.7C18.1,116.4,18.6,116.1,19.2,116.1z"/>
	<path d="M23.5,116.1v3.7H23v-0.7c-0.3,0.4-0.7,0.7-1.3,0.7c-0.9,0-1.6-0.5-1.6-1.6v-2.1h0.5v2.1c0,0.8,0.4,1.2,1.1,1.2
		c0.8,0,1.3-0.5,1.3-1.3v-1.9H23.5z"/>
	<path d="M28.3,117.7v2.1h-0.5v-2.1c0-0.8-0.4-1.2-1.1-1.2c-0.8,0-1.3,0.5-1.3,1.3v1.9h-0.5v-3.7h0.5v0.7c0.3-0.4,0.8-0.7,1.4-0.7
		C27.7,116.1,28.3,116.6,28.3,117.7z"/>
	<path d="M29.1,119.4l0.2-0.4c0.3,0.2,0.8,0.4,1.3,0.4c0.7,0,1-0.2,1-0.6c0-1-2.4-0.2-2.4-1.7c0-0.6,0.5-1.1,1.5-1.1
		c0.5,0,1,0.1,1.3,0.3l-0.2,0.4c-0.3-0.2-0.7-0.3-1.1-0.3c-0.7,0-1,0.3-1,0.6c0,1,2.4,0.2,2.4,1.7c0,0.6-0.6,1.1-1.5,1.1
		C30,119.9,29.4,119.7,29.1,119.4z"/>
	<path d="M35.5,115.7v0.4h1.1v0.4h-1.1v3.3H35v-3.3h-0.7v-0.4H35v-0.5c0-0.7,0.4-1.1,1.1-1.1c0.3,0,0.6,0.1,0.7,0.2l-0.2,0.4
		c-0.1-0.1-0.3-0.2-0.5-0.2C35.7,115,35.5,115.3,35.5,115.7z"/>
	<path d="M36.8,118c0-1.1,0.8-1.9,1.9-1.9s1.9,0.8,1.9,1.9s-0.8,1.9-1.9,1.9S36.8,119.1,36.8,118z M40.1,118c0-0.9-0.6-1.4-1.4-1.4
		c-0.8,0-1.4,0.6-1.4,1.4s0.6,1.4,1.4,1.4C39.5,119.4,40.1,118.8,40.1,118z"/>
	<path d="M43.5,116.1v0.5c0,0-0.1,0-0.1,0c-0.8,0-1.2,0.5-1.2,1.4v1.9h-0.5v-3.7h0.5v0.7C42.3,116.4,42.8,116.1,43.5,116.1z"/>
	<path d="M49.4,114.9v0.4l-2.1,4.5h-0.5l2-4.5h-2.5v0.9h-0.5v-1.4H49.4z"/>
	<path d="M51.8,118c0-1.1,0.8-1.9,1.9-1.9s1.9,0.8,1.9,1.9s-0.8,1.9-1.9,1.9S51.8,119.1,51.8,118z M55.1,118c0-0.9-0.6-1.4-1.4-1.4
		c-0.8,0-1.4,0.6-1.4,1.4s0.6,1.4,1.4,1.4C54.5,119.4,55.1,118.8,55.1,118z"/>
	<path d="M58.4,116.1v0.5c0,0-0.1,0-0.1,0c-0.8,0-1.2,0.5-1.2,1.4v1.9h-0.5v-3.7h0.5v0.7C57.3,116.4,57.8,116.1,58.4,116.1z"/>
	<path d="M64.7,118.5c0,0.9-0.7,1.4-1.9,1.4c-1.2,0-1.9-0.5-1.9-1.4c0-0.6,0.3-1,0.9-1.2c-0.5-0.2-0.8-0.6-0.8-1.1
		c0-0.8,0.7-1.3,1.7-1.3s1.7,0.5,1.7,1.3c0,0.5-0.3,0.9-0.8,1.1C64.3,117.5,64.7,117.9,64.7,118.5z M64.2,118.5c0-0.6-0.5-1-1.4-1
		c-0.9,0-1.4,0.4-1.4,1c0,0.6,0.5,1,1.4,1C63.6,119.4,64.2,119.1,64.2,118.5z M62.8,117.1c0.8,0,1.2-0.3,1.2-0.9
		c0-0.6-0.5-0.9-1.2-0.9c-0.7,0-1.2,0.3-1.2,0.9C61.6,116.7,62,117.1,62.8,117.1z"/>
	<path d="M70.6,116.1l-1.8,4.1c-0.3,0.7-0.7,1-1.2,1c-0.3,0-0.7-0.1-0.9-0.3l0.2-0.4c0.2,0.2,0.4,0.3,0.7,0.3c0.3,0,0.6-0.2,0.8-0.6
		l0.2-0.4l-1.6-3.7h0.5l1.4,3.1l1.4-3.1H70.6z"/>
	<path d="M74.4,118.1h-3.1c0.1,0.8,0.6,1.3,1.4,1.3c0.4,0,0.8-0.2,1.1-0.5l0.3,0.3c-0.3,0.4-0.8,0.6-1.4,0.6c-1.1,0-1.9-0.8-1.9-1.9
		s0.8-1.9,1.8-1.9s1.8,0.8,1.8,1.9C74.4,118,74.4,118.1,74.4,118.1z M71.3,117.8H74c-0.1-0.7-0.6-1.2-1.3-1.2
		C71.9,116.5,71.4,117,71.3,117.8z"/>
	<path d="M78.1,117.5v2.3h-0.5v-0.6c-0.2,0.4-0.7,0.6-1.3,0.6c-0.8,0-1.3-0.4-1.3-1.1c0-0.6,0.4-1,1.4-1h1.2v-0.2c0-0.6-0.4-1-1-1
		c-0.5,0-0.9,0.2-1.2,0.4l-0.2-0.4c0.4-0.3,0.9-0.5,1.5-0.5C77.6,116.1,78.1,116.6,78.1,117.5z M77.6,118.7v-0.6h-1.2
		c-0.7,0-0.9,0.3-0.9,0.7c0,0.4,0.3,0.7,0.9,0.7C77,119.5,77.4,119.2,77.6,118.7z"/>
	<path d="M81.3,116.1v0.5c0,0-0.1,0-0.1,0c-0.8,0-1.2,0.5-1.2,1.4v1.9h-0.5v-3.7h0.5v0.7C80.2,116.4,80.6,116.1,81.3,116.1z"/>
	<path d="M81.7,119.4L82,119c0.3,0.2,0.8,0.4,1.3,0.4c0.7,0,1-0.2,1-0.6c0-1-2.4-0.2-2.4-1.7c0-0.6,0.5-1.1,1.5-1.1
		c0.5,0,1,0.1,1.3,0.3l-0.2,0.4c-0.3-0.2-0.7-0.3-1.1-0.3c-0.7,0-1,0.3-1,0.6c0,1,2.4,0.2,2.4,1.7c0,0.6-0.6,1.1-1.5,1.1
		C82.6,119.9,82,119.7,81.7,119.4z"/>
	<path d="M86.1,119.5c0,0.1,0,0.2-0.1,0.4l-0.3,1h-0.3l0.2-1c-0.1,0-0.3-0.2-0.3-0.4c0-0.2,0.2-0.4,0.4-0.4
		C85.9,119.1,86.1,119.3,86.1,119.5z"/>
	<path d="M0.6,129.4l0.2-0.4c0.3,0.2,0.8,0.4,1.3,0.4c0.7,0,1-0.2,1-0.6c0-1-2.4-0.2-2.4-1.7c0-0.6,0.5-1.1,1.5-1.1
		c0.5,0,1,0.1,1.3,0.3l-0.2,0.4c-0.3-0.2-0.7-0.3-1.1-0.3c-0.7,0-1,0.3-1,0.6c0,1,2.4,0.2,2.4,1.7c0,0.6-0.6,1.1-1.5,1.1
		C1.5,129.9,0.9,129.7,0.6,129.4z"/>
	<path d="M6.5,129.6c-0.2,0.2-0.5,0.3-0.8,0.3c-0.7,0-1.1-0.4-1.1-1.1v-2.2H4v-0.4h0.7v-0.8h0.5v0.8h1.1v0.4H5.1v2.2
		c0,0.4,0.2,0.7,0.6,0.7c0.2,0,0.4-0.1,0.5-0.2L6.5,129.6z"/>
	<path d="M10.2,127.5v2.3H9.7v-0.6c-0.2,0.4-0.7,0.6-1.3,0.6c-0.8,0-1.3-0.4-1.3-1.1c0-0.6,0.4-1,1.4-1h1.2v-0.2c0-0.6-0.4-1-1-1
		c-0.5,0-0.9,0.2-1.2,0.4l-0.2-0.4c0.4-0.3,0.9-0.5,1.5-0.5C9.6,126.1,10.2,126.6,10.2,127.5z M9.7,128.7v-0.6H8.5
		c-0.7,0-0.9,0.3-0.9,0.7c0,0.4,0.3,0.7,0.9,0.7C9.1,129.5,9.5,129.2,9.7,128.7z"/>
	<path d="M13.4,126.1v0.5c0,0-0.1,0-0.1,0c-0.8,0-1.2,0.5-1.2,1.4v1.9h-0.5v-3.7H12v0.7C12.2,126.4,12.7,126.1,13.4,126.1z"/>
	<path d="M16.4,129.6c-0.2,0.2-0.5,0.3-0.8,0.3c-0.7,0-1.1-0.4-1.1-1.1v-2.2h-0.7v-0.4h0.7v-0.8H15v0.8h1.1v0.4H15v2.2
		c0,0.4,0.2,0.7,0.6,0.7c0.2,0,0.4-0.1,0.5-0.2L16.4,129.6z"/>
	<path d="M17.2,125c0-0.2,0.2-0.4,0.4-0.4s0.4,0.2,0.4,0.3c0,0.2-0.2,0.4-0.4,0.4C17.3,125.3,17.2,125.2,17.2,125z M17.3,126.1h0.5
		v3.7h-0.5V126.1z"/>
	<path d="M22.6,127.7v2.1h-0.5v-2.1c0-0.8-0.4-1.2-1.1-1.2c-0.8,0-1.3,0.5-1.3,1.3v1.9h-0.5v-3.7h0.5v0.7c0.3-0.4,0.8-0.7,1.4-0.7
		C21.9,126.1,22.6,126.6,22.6,127.7z"/>
	<path d="M27.3,126.1v3.2c0,1.3-0.6,1.8-1.8,1.8c-0.7,0-1.3-0.2-1.7-0.6l0.3-0.4c0.4,0.3,0.9,0.5,1.4,0.5c0.9,0,1.4-0.4,1.4-1.3V129
		c-0.3,0.5-0.8,0.7-1.4,0.7c-1.1,0-1.8-0.7-1.8-1.8s0.8-1.8,1.8-1.8c0.6,0,1.1,0.3,1.5,0.7v-0.7H27.3z M26.9,127.9
		c0-0.8-0.6-1.3-1.4-1.3s-1.4,0.5-1.4,1.3c0,0.8,0.6,1.4,1.4,1.4S26.9,128.7,26.9,127.9z"/>
	<path d="M31.1,125.7v0.4h1.1v0.4h-1.1v3.3h-0.5v-3.3H30v-0.4h0.7v-0.5c0-0.7,0.4-1.1,1.1-1.1c0.3,0,0.6,0.1,0.7,0.2l-0.2,0.4
		c-0.1-0.1-0.3-0.2-0.5-0.2C31.4,125,31.1,125.3,31.1,125.7z"/>
	<path d="M35.4,126.1v0.5c0,0-0.1,0-0.1,0c-0.8,0-1.2,0.5-1.2,1.4v1.9h-0.5v-3.7H34v0.7C34.2,126.4,34.7,126.1,35.4,126.1z"/>
	<path d="M35.8,128c0-1.1,0.8-1.9,1.9-1.9s1.9,0.8,1.9,1.9s-0.8,1.9-1.9,1.9S35.8,129.1,35.8,128z M39.1,128c0-0.9-0.6-1.4-1.4-1.4
		c-0.8,0-1.4,0.6-1.4,1.4s0.6,1.4,1.4,1.4C38.5,129.4,39.1,128.8,39.1,128z"/>
	<path d="M46.7,127.7v2.1h-0.5v-2.1c0-0.8-0.4-1.2-1.1-1.2c-0.8,0-1.2,0.5-1.2,1.3v1.9h-0.5v-2.1c0-0.8-0.4-1.2-1.1-1.2
		c-0.7,0-1.2,0.5-1.2,1.3v1.9h-0.5v-3.7h0.5v0.7c0.3-0.4,0.7-0.7,1.4-0.7c0.6,0,1.1,0.3,1.3,0.8c0.3-0.5,0.8-0.8,1.5-0.8
		C46.1,126.1,46.7,126.6,46.7,127.7z"/>
	<path d="M51.5,127.5l-1,1v1.3H50v-4.9h0.5v3l2.9-3H54l-2.1,2.2l2.3,2.7h-0.6L51.5,127.5z"/>
	<path d="M54.7,125c0-0.2,0.2-0.4,0.4-0.4s0.4,0.2,0.4,0.3c0,0.2-0.2,0.4-0.4,0.4C54.8,125.3,54.7,125.2,54.7,125z M54.8,126.1h0.5
		v3.7h-0.5V126.1z"/>
	<path d="M60,127.7v2.1h-0.5v-2.1c0-0.8-0.4-1.2-1.1-1.2c-0.8,0-1.3,0.5-1.3,1.3v1.9h-0.5v-3.7h0.5v0.7c0.3-0.4,0.8-0.7,1.4-0.7
		C59.4,126.1,60,126.6,60,127.7z"/>
	<path d="M64.8,124.6v5.2h-0.5v-0.7c-0.3,0.5-0.8,0.8-1.4,0.8c-1.1,0-1.8-0.8-1.8-1.9c0-1.1,0.8-1.9,1.8-1.9c0.6,0,1.1,0.3,1.4,0.7
		v-2.2H64.8z M64.3,128c0-0.9-0.6-1.4-1.4-1.4c-0.8,0-1.4,0.6-1.4,1.4s0.6,1.4,1.4,1.4C63.7,129.4,64.3,128.8,64.3,128z"/>
	<path d="M69.4,128.1h-3.1c0.1,0.8,0.6,1.3,1.4,1.3c0.4,0,0.8-0.2,1.1-0.5l0.3,0.3c-0.3,0.4-0.8,0.6-1.4,0.6c-1.1,0-1.9-0.8-1.9-1.9
		s0.8-1.9,1.8-1.9s1.8,0.8,1.8,1.9C69.4,128,69.4,128.1,69.4,128.1z M66.3,127.8h2.6c-0.1-0.7-0.6-1.2-1.3-1.2
		C66.9,126.5,66.3,127,66.3,127.8z"/>
	<path d="M72.2,126.1v0.5c0,0-0.1,0-0.1,0c-0.8,0-1.2,0.5-1.2,1.4v1.9h-0.5v-3.7h0.5v0.7C71.1,126.4,71.6,126.1,72.2,126.1z"/>
	<path d="M76.5,126.1v3.2c0,1.3-0.6,1.8-1.8,1.8c-0.7,0-1.3-0.2-1.7-0.6l0.3-0.4c0.4,0.3,0.9,0.5,1.4,0.5c0.9,0,1.4-0.4,1.4-1.3V129
		c-0.3,0.5-0.8,0.7-1.4,0.7c-1.1,0-1.8-0.7-1.8-1.8s0.8-1.8,1.8-1.8c0.6,0,1.1,0.3,1.5,0.7v-0.7H76.5z M76,127.9
		c0-0.8-0.6-1.3-1.4-1.3s-1.4,0.5-1.4,1.3c0,0.8,0.6,1.4,1.4,1.4S76,128.7,76,127.9z"/>
	<path d="M80.7,127.5v2.3h-0.5v-0.6c-0.2,0.4-0.7,0.6-1.3,0.6c-0.8,0-1.3-0.4-1.3-1.1c0-0.6,0.4-1,1.4-1h1.2v-0.2c0-0.6-0.4-1-1-1
		c-0.5,0-0.9,0.2-1.2,0.4l-0.2-0.4c0.4-0.3,0.9-0.5,1.5-0.5C80.1,126.1,80.7,126.6,80.7,127.5z M80.2,128.7v-0.6H79
		c-0.7,0-0.9,0.3-0.9,0.7c0,0.4,0.3,0.7,0.9,0.7C79.6,129.5,80,129.2,80.2,128.7z"/>
	<path d="M83.9,126.1v0.5c0,0-0.1,0-0.1,0c-0.8,0-1.2,0.5-1.2,1.4v1.9H82v-3.7h0.5v0.7C82.7,126.4,83.2,126.1,83.9,126.1z"/>
	<path d="M86.9,129.6c-0.2,0.2-0.5,0.3-0.8,0.3c-0.7,0-1.1-0.4-1.1-1.1v-2.2h-0.7v-0.4H85v-0.8h0.5v0.8h1.1v0.4h-1.1v2.2
		c0,0.4,0.2,0.7,0.6,0.7c0.2,0,0.4-0.1,0.5-0.2L86.9,129.6z"/>
	<path d="M90.9,128.1h-3.1c0.1,0.8,0.6,1.3,1.4,1.3c0.4,0,0.8-0.2,1.1-0.5l0.3,0.3c-0.3,0.4-0.8,0.6-1.4,0.6c-1.1,0-1.9-0.8-1.9-1.9
		s0.8-1.9,1.8-1.9s1.8,0.8,1.8,1.9C90.9,128,90.9,128.1,90.9,128.1z M87.8,127.8h2.6c-0.1-0.7-0.6-1.2-1.3-1.2
		C88.4,126.5,87.8,127,87.8,127.8z"/>
	<path d="M95.3,127.7v2.1h-0.5v-2.1c0-0.8-0.4-1.2-1.1-1.2c-0.8,0-1.3,0.5-1.3,1.3v1.9h-0.5v-3.7h0.5v0.7c0.3-0.4,0.8-0.7,1.4-0.7
		C94.6,126.1,95.3,126.6,95.3,127.7z"/>
</g>
<g>
	<path class="st7" d="M97.5,7.8l0.4-1c0.6,0.4,1.4,0.8,2.3,0.8c1.1,0,1.5-0.4,1.5-0.9c0-1.5-4.2-0.5-4.2-3.1c0-1.1,0.9-2.1,2.8-2.1
		c0.8,0,1.7,0.2,2.3,0.6l-0.4,1c-0.6-0.4-1.3-0.5-1.9-0.5c-1.1,0-1.5,0.4-1.5,0.9c0,1.5,4.1,0.5,4.1,3.1c0,1.1-0.9,2.1-2.8,2.1
		C99.1,8.6,98,8.3,97.5,7.8z"/>
	<path class="st7" d="M109.2,6.2H105c0.1,0.8,0.8,1.3,1.7,1.3c0.6,0,1.1-0.2,1.4-0.6l0.7,0.8c-0.5,0.6-1.2,0.9-2.1,0.9
		c-1.8,0-2.9-1.1-2.9-2.7c0-1.6,1.2-2.7,2.8-2.7c1.6,0,2.7,1.1,2.7,2.8C109.2,6,109.2,6.1,109.2,6.2z M105,5.4h3
		c-0.1-0.8-0.7-1.3-1.5-1.3C105.7,4.1,105.1,4.6,105,5.4z"/>
	<path class="st7" d="M110,5.8c0-1.6,1.2-2.7,2.9-2.7c1,0,1.9,0.4,2.3,1.2l-1,0.6c-0.3-0.5-0.8-0.7-1.3-0.7c-0.9,0-1.6,0.6-1.6,1.7
		c0,1,0.7,1.7,1.6,1.7c0.5,0,1-0.2,1.3-0.7l1,0.6c-0.4,0.8-1.2,1.2-2.3,1.2C111.2,8.6,110,7.4,110,5.8z"/>
	<path class="st7" d="M115.7,5.8c0-1.6,1.2-2.7,2.8-2.7c1.7,0,2.8,1.1,2.8,2.7s-1.2,2.7-2.8,2.7C116.9,8.6,115.7,7.4,115.7,5.8z
		 M120.2,5.8c0-1-0.7-1.7-1.6-1.7c-0.9,0-1.6,0.6-1.6,1.7s0.7,1.7,1.6,1.7C119.5,7.5,120.2,6.9,120.2,5.8z"/>
	<path class="st7" d="M127.9,5.4v3.1h-1.2V5.6c0-0.9-0.5-1.4-1.3-1.4c-0.9,0-1.5,0.5-1.5,1.6v2.7h-1.2V3.2h1.2v0.7
		c0.4-0.5,1.1-0.7,1.8-0.7C126.9,3.1,127.9,3.8,127.9,5.4z"/>
	<path class="st7" d="M134.7,1.1v7.4h-1.2V7.8c-0.4,0.5-1,0.8-1.8,0.8c-1.5,0-2.7-1.1-2.7-2.7s1.1-2.7,2.7-2.7
		c0.7,0,1.3,0.2,1.7,0.7V1.1H134.7z M133.5,5.8c0-1-0.7-1.7-1.6-1.7c-0.9,0-1.6,0.6-1.6,1.7s0.7,1.7,1.6,1.7
		C132.8,7.5,133.5,6.9,133.5,5.8z"/>
	<path class="st7" d="M140.9,5.4v3.1h-1.2V7.9c-0.3,0.5-0.9,0.7-1.7,0.7c-1.2,0-2-0.7-2-1.6c0-0.9,0.6-1.6,2.2-1.6h1.4V5.3
		c0-0.7-0.4-1.2-1.3-1.2c-0.6,0-1.2,0.2-1.6,0.5l-0.5-0.9c0.6-0.4,1.4-0.7,2.3-0.7C140,3.1,140.9,3.8,140.9,5.4z M139.6,6.8V6.2
		h-1.3c-0.8,0-1.1,0.3-1.1,0.7c0,0.4,0.4,0.7,1,0.7C138.9,7.7,139.4,7.4,139.6,6.8z"/>
	<path class="st7" d="M145.5,3.1v1.2c-0.1,0-0.2,0-0.3,0c-0.9,0-1.5,0.6-1.5,1.6v2.6h-1.2V3.2h1.2v0.8C144,3.4,144.7,3.1,145.5,3.1z
		"/>
	<path class="st7" d="M151.8,3.2l-2.5,5.8c-0.5,1.2-1.2,1.6-2.1,1.6c-0.5,0-1.1-0.2-1.4-0.5l0.5-0.9c0.2,0.2,0.6,0.4,0.9,0.4
		c0.4,0,0.7-0.2,0.9-0.7l0.1-0.2l-2.3-5.4h1.3l1.7,3.9l1.7-3.9H151.8z"/>
	<path class="st7" d="M154.9,7.8l0.5-1c0.6,0.4,1.4,0.8,2.3,0.8c1.1,0,1.5-0.4,1.5-0.9c0-1.5-4.2-0.5-4.2-3.1c0-1.1,0.9-2.1,2.8-2.1
		c0.8,0,1.7,0.2,2.3,0.6l-0.4,1c-0.6-0.4-1.3-0.5-1.9-0.5c-1.1,0-1.5,0.4-1.5,0.9c0,1.5,4.1,0.5,4.1,3.1c0,1.1-0.9,2.1-2.8,2.1
		C156.5,8.6,155.5,8.3,154.9,7.8z"/>
	<path class="st7" d="M161.2,5.8c0-1.6,1.2-2.7,2.9-2.7c1,0,1.9,0.4,2.3,1.2l-1,0.6c-0.3-0.5-0.8-0.7-1.3-0.7
		c-0.9,0-1.6,0.6-1.6,1.7c0,1,0.7,1.7,1.6,1.7c0.5,0,1-0.2,1.3-0.7l1,0.6c-0.4,0.8-1.2,1.2-2.3,1.2C162.4,8.6,161.2,7.4,161.2,5.8z"
		/>
	<path class="st7" d="M172.7,5.4v3.1h-1.2V5.6c0-0.9-0.5-1.4-1.3-1.4c-0.9,0-1.5,0.5-1.5,1.6v2.7h-1.2V1.1h1.2v2.7
		c0.4-0.4,1-0.7,1.8-0.7C171.7,3.1,172.7,3.8,172.7,5.4z"/>
	<path class="st7" d="M173.9,5.8c0-1.6,1.2-2.7,2.8-2.7c1.7,0,2.8,1.1,2.8,2.7s-1.2,2.7-2.8,2.7C175.1,8.6,173.9,7.4,173.9,5.8z
		 M178.3,5.8c0-1-0.7-1.7-1.6-1.7c-0.9,0-1.6,0.6-1.6,1.7s0.7,1.7,1.6,1.7C177.6,7.5,178.3,6.9,178.3,5.8z"/>
	<path class="st7" d="M180.3,5.8c0-1.6,1.2-2.7,2.8-2.7c1.7,0,2.8,1.1,2.8,2.7s-1.2,2.7-2.8,2.7C181.5,8.6,180.3,7.4,180.3,5.8z
		 M184.7,5.8c0-1-0.7-1.7-1.6-1.7c-0.9,0-1.6,0.6-1.6,1.7s0.7,1.7,1.6,1.7C184.1,7.5,184.7,6.9,184.7,5.8z"/>
	<path class="st7" d="M187.2,1.1h1.2v7.4h-1.2V1.1z"/>
</g>
<g>
	<path d="M97.2,16.3h0.5v4.9h-0.5V16.3z"/>
	<path d="M101.2,21c-0.2,0.2-0.5,0.3-0.8,0.3c-0.7,0-1.1-0.4-1.1-1.1V18h-0.7v-0.4h0.7v-0.8h0.5v0.8h1.1V18h-1.1v2.2
		c0,0.4,0.2,0.7,0.6,0.7c0.2,0,0.4-0.1,0.5-0.2L101.2,21z"/>
	<path d="M103.4,20.8l0.2-0.4c0.3,0.2,0.8,0.4,1.3,0.4c0.7,0,1-0.2,1-0.6c0-1-2.4-0.2-2.4-1.7c0-0.6,0.5-1.1,1.5-1.1
		c0.5,0,1,0.1,1.3,0.3l-0.2,0.4c-0.3-0.2-0.7-0.3-1.1-0.3c-0.7,0-1,0.3-1,0.6c0,1,2.4,0.2,2.4,1.7c0,0.6-0.6,1.1-1.5,1.1
		C104.3,21.3,103.7,21.1,103.4,20.8z"/>
	<path d="M109.3,21c-0.2,0.2-0.5,0.3-0.8,0.3c-0.7,0-1.1-0.4-1.1-1.1V18h-0.7v-0.4h0.7v-0.8h0.5v0.8h1.1V18h-1.1v2.2
		c0,0.4,0.2,0.7,0.6,0.7c0.2,0,0.4-0.1,0.5-0.2L109.3,21z"/>
	<path d="M112.9,18.9v2.3h-0.5v-0.6c-0.2,0.4-0.7,0.6-1.3,0.6c-0.8,0-1.3-0.4-1.3-1.1c0-0.6,0.4-1,1.4-1h1.2v-0.2c0-0.6-0.4-1-1-1
		c-0.5,0-0.9,0.2-1.2,0.4L110,18c0.4-0.3,0.9-0.5,1.5-0.5C112.4,17.5,112.9,18,112.9,18.9z M112.4,20.1v-0.6h-1.2
		c-0.7,0-0.9,0.3-0.9,0.7c0,0.4,0.3,0.7,0.9,0.7C111.8,20.9,112.2,20.6,112.4,20.1z"/>
	<path d="M116.1,17.5V18c0,0-0.1,0-0.1,0c-0.8,0-1.2,0.5-1.2,1.4v1.9h-0.5v-3.7h0.5v0.7C115,17.8,115.5,17.5,116.1,17.5z"/>
	<path d="M119.1,21c-0.2,0.2-0.5,0.3-0.8,0.3c-0.7,0-1.1-0.4-1.1-1.1V18h-0.7v-0.4h0.7v-0.8h0.5v0.8h1.1V18h-1.1v2.2
		c0,0.4,0.2,0.7,0.6,0.7c0.2,0,0.4-0.1,0.5-0.2L119.1,21z"/>
	<path d="M119.5,20.8l0.2-0.4c0.3,0.2,0.8,0.4,1.3,0.4c0.7,0,1-0.2,1-0.6c0-1-2.4-0.2-2.4-1.7c0-0.6,0.5-1.1,1.5-1.1
		c0.5,0,1,0.1,1.3,0.3l-0.2,0.4c-0.3-0.2-0.7-0.3-1.1-0.3c-0.7,0-1,0.3-1,0.6c0,1,2.4,0.2,2.4,1.7c0,0.6-0.6,1.1-1.5,1.1
		C120.4,21.3,119.8,21.1,119.5,20.8z"/>
	<path d="M125.9,17.1v0.4h1.1V18h-1.1v3.3h-0.5V18h-0.7v-0.4h0.7v-0.5c0-0.7,0.4-1.1,1.1-1.1c0.3,0,0.6,0.1,0.7,0.2l-0.2,0.4
		c-0.1-0.1-0.3-0.2-0.5-0.2C126.1,16.4,125.9,16.7,125.9,17.1z"/>
	<path d="M130.1,17.5V18c0,0-0.1,0-0.1,0c-0.8,0-1.2,0.5-1.2,1.4v1.9h-0.5v-3.7h0.5v0.7C128.9,17.8,129.4,17.5,130.1,17.5z"/>
	<path d="M130.6,19.4c0-1.1,0.8-1.9,1.9-1.9s1.9,0.8,1.9,1.9s-0.8,1.9-1.9,1.9S130.6,20.5,130.6,19.4z M133.8,19.4
		c0-0.9-0.6-1.4-1.4-1.4c-0.8,0-1.4,0.6-1.4,1.4s0.6,1.4,1.4,1.4C133.2,20.8,133.8,20.2,133.8,19.4z"/>
	<path d="M141.4,19.1v2.1h-0.5v-2.1c0-0.8-0.4-1.2-1.1-1.2c-0.8,0-1.2,0.5-1.2,1.3v1.9h-0.5v-2.1c0-0.8-0.4-1.2-1.1-1.2
		c-0.7,0-1.2,0.5-1.2,1.3v1.9h-0.5v-3.7h0.5v0.7c0.3-0.4,0.7-0.7,1.4-0.7c0.6,0,1.1,0.3,1.3,0.8c0.3-0.5,0.8-0.8,1.5-0.8
		C140.8,17.5,141.4,18,141.4,19.1z"/>
	<path d="M146.5,21c-0.2,0.2-0.5,0.3-0.8,0.3c-0.7,0-1.1-0.4-1.1-1.1V18H144v-0.4h0.7v-0.8h0.5v0.8h1.1V18h-1.1v2.2
		c0,0.4,0.2,0.7,0.6,0.7c0.2,0,0.4-0.1,0.5-0.2L146.5,21z"/>
	<path d="M150.8,19.1v2.1h-0.5v-2.1c0-0.8-0.4-1.2-1.1-1.2c-0.8,0-1.3,0.5-1.3,1.3v1.9h-0.5V16h0.5v2.2c0.3-0.4,0.8-0.7,1.4-0.7
		C150.2,17.5,150.8,18,150.8,19.1z"/>
	<path d="M155.4,19.5h-3.1c0.1,0.8,0.6,1.3,1.4,1.3c0.4,0,0.8-0.2,1.1-0.5l0.3,0.3c-0.3,0.4-0.8,0.6-1.4,0.6c-1.1,0-1.9-0.8-1.9-1.9
		s0.8-1.9,1.8-1.9s1.8,0.8,1.8,1.9C155.4,19.4,155.4,19.5,155.4,19.5z M152.3,19.2h2.6c-0.1-0.7-0.6-1.2-1.3-1.2
		C152.9,17.9,152.4,18.4,152.3,19.2z"/>
	<path d="M161.4,17.5l-1.8,4.1c-0.3,0.7-0.7,1-1.2,1c-0.3,0-0.7-0.1-0.9-0.3l0.2-0.4c0.2,0.2,0.4,0.3,0.7,0.3c0.3,0,0.6-0.2,0.8-0.6
		l0.2-0.4l-1.6-3.7h0.5l1.4,3.1l1.4-3.1H161.4z"/>
	<path d="M165.2,19.5h-3.1c0.1,0.8,0.6,1.3,1.4,1.3c0.4,0,0.8-0.2,1.1-0.5l0.3,0.3c-0.3,0.4-0.8,0.6-1.4,0.6c-1.1,0-1.9-0.8-1.9-1.9
		s0.8-1.9,1.8-1.9s1.8,0.8,1.8,1.9C165.2,19.4,165.2,19.5,165.2,19.5z M162.1,19.2h2.6c-0.1-0.7-0.6-1.2-1.3-1.2
		C162.7,17.9,162.1,18.4,162.1,19.2z"/>
	<path d="M168.8,18.9v2.3h-0.5v-0.6c-0.2,0.4-0.7,0.6-1.3,0.6c-0.8,0-1.3-0.4-1.3-1.1c0-0.6,0.4-1,1.4-1h1.2v-0.2c0-0.6-0.4-1-1-1
		c-0.5,0-0.9,0.2-1.2,0.4l-0.2-0.4c0.4-0.3,0.9-0.5,1.5-0.5C168.3,17.5,168.8,18,168.8,18.9z M168.4,20.1v-0.6h-1.2
		c-0.7,0-0.9,0.3-0.9,0.7c0,0.4,0.3,0.7,0.9,0.7C167.7,20.9,168.2,20.6,168.4,20.1z"/>
	<path d="M172.1,17.5V18c0,0-0.1,0-0.1,0c-0.8,0-1.2,0.5-1.2,1.4v1.9h-0.5v-3.7h0.5v0.7C170.9,17.8,171.4,17.5,172.1,17.5z"/>
	<path d="M172.5,20.8l0.2-0.4c0.3,0.2,0.8,0.4,1.3,0.4c0.7,0,1-0.2,1-0.6c0-1-2.4-0.2-2.4-1.7c0-0.6,0.5-1.1,1.5-1.1
		c0.5,0,1,0.1,1.3,0.3l-0.2,0.4c-0.3-0.2-0.7-0.3-1.1-0.3c-0.7,0-1,0.3-1,0.6c0,1,2.4,0.2,2.4,1.7c0,0.6-0.6,1.1-1.5,1.1
		C173.4,21.3,172.8,21.1,172.5,20.8z"/>
	<path d="M181.4,16.3v0.4l-2.1,4.5h-0.5l2-4.5h-2.5v0.9h-0.5v-1.4H181.4z"/>
	<path d="M186.1,21c-0.2,0.2-0.5,0.3-0.8,0.3c-0.7,0-1.1-0.4-1.1-1.1V18h-0.7v-0.4h0.7v-0.8h0.5v0.8h1.1V18h-1.1v2.2
		c0,0.4,0.2,0.7,0.6,0.7c0.2,0,0.4-0.1,0.5-0.2L186.1,21z"/>
	<path d="M186.5,19.4c0-1.1,0.8-1.9,1.9-1.9s1.9,0.8,1.9,1.9s-0.8,1.9-1.9,1.9S186.5,20.5,186.5,19.4z M189.8,19.4
		c0-0.9-0.6-1.4-1.4-1.4c-0.8,0-1.4,0.6-1.4,1.4s0.6,1.4,1.4,1.4C189.2,20.8,189.8,20.2,189.8,19.4z"/>
	<path d="M102.9,26.3v4.9h-0.5v-4.5h-1.2v-0.4H102.9z"/>
	<path d="M104,28.8c0-1.6,0.8-2.5,2-2.5c1.1,0,2,0.9,2,2.5s-0.8,2.5-2,2.5C104.8,31.3,104,30.3,104,28.8z M107.4,28.8
		c0-1.3-0.6-2-1.4-2s-1.4,0.7-1.4,2s0.6,2,1.4,2S107.4,30.1,107.4,28.8z"/>
	<path d="M110.5,29.4c0-1.1,0.8-1.9,1.9-1.9s1.9,0.8,1.9,1.9s-0.8,1.9-1.9,1.9S110.5,30.5,110.5,29.4z M113.7,29.4
		c0-0.9-0.6-1.4-1.4-1.4c-0.8,0-1.4,0.6-1.4,1.4s0.6,1.4,1.4,1.4C113.1,30.8,113.7,30.2,113.7,29.4z"/>
	<path d="M117.1,27.5V28c0,0-0.1,0-0.1,0c-0.8,0-1.2,0.5-1.2,1.4v1.9h-0.5v-3.7h0.5v0.7C115.9,27.8,116.4,27.5,117.1,27.5z"/>
	<path d="M123.3,29.9c0,0.9-0.7,1.4-1.9,1.4c-1.2,0-1.9-0.5-1.9-1.4c0-0.6,0.3-1,0.9-1.2c-0.5-0.2-0.8-0.6-0.8-1.1
		c0-0.8,0.7-1.3,1.7-1.3s1.7,0.5,1.7,1.3c0,0.5-0.3,0.9-0.8,1.1C123,28.9,123.3,29.3,123.3,29.9z M122.8,29.9c0-0.6-0.5-1-1.4-1
		c-0.9,0-1.4,0.4-1.4,1c0,0.6,0.5,1,1.4,1C122.3,30.8,122.8,30.5,122.8,29.9z M121.4,28.5c0.8,0,1.2-0.3,1.2-0.9
		c0-0.6-0.5-0.9-1.2-0.9c-0.7,0-1.2,0.3-1.2,0.9C120.2,28.1,120.6,28.5,121.4,28.5z"/>
	<path d="M128.1,31c-0.2,0.2-0.5,0.3-0.8,0.3c-0.7,0-1.1-0.4-1.1-1.1V28h-0.7v-0.4h0.7v-0.8h0.5v0.8h1.1V28h-1.1v2.2
		c0,0.4,0.2,0.7,0.6,0.7c0.2,0,0.4-0.1,0.5-0.2L128.1,31z"/>
	<path d="M128.5,29.4c0-1.1,0.8-1.9,1.9-1.9s1.9,0.8,1.9,1.9s-0.8,1.9-1.9,1.9S128.5,30.5,128.5,29.4z M131.7,29.4
		c0-0.9-0.6-1.4-1.4-1.4c-0.8,0-1.4,0.6-1.4,1.4s0.6,1.4,1.4,1.4C131.2,30.8,131.7,30.2,131.7,29.4z"/>
	<path d="M136.1,26.3v4.9h-0.5v-4.5h-1.2v-0.4H136.1z"/>
	<path d="M137.3,28.8c0-1.6,0.8-2.5,2-2.5c1.1,0,2,0.9,2,2.5s-0.8,2.5-2,2.5C138.1,31.3,137.3,30.3,137.3,28.8z M140.7,28.8
		c0-1.3-0.6-2-1.4-2s-1.4,0.7-1.4,2s0.6,2,1.4,2S140.7,30.1,140.7,28.8z"/>
	<path d="M146.9,28.9v2.3h-0.5v-0.6c-0.2,0.4-0.7,0.6-1.3,0.6c-0.8,0-1.3-0.4-1.3-1.1c0-0.6,0.4-1,1.4-1h1.2v-0.2c0-0.6-0.4-1-1-1
		c-0.5,0-0.9,0.2-1.2,0.4l-0.2-0.4c0.4-0.3,0.9-0.5,1.5-0.5C146.3,27.5,146.9,28,146.9,28.9z M146.4,30.1v-0.6h-1.2
		c-0.7,0-0.9,0.3-0.9,0.7c0,0.4,0.3,0.7,0.9,0.7C145.8,30.9,146.2,30.6,146.4,30.1z"/>
	<path d="M151.6,29.1v2.1h-0.5v-2.1c0-0.8-0.4-1.2-1.1-1.2c-0.8,0-1.3,0.5-1.3,1.3v1.9h-0.5v-3.7h0.5v0.7c0.3-0.4,0.8-0.7,1.4-0.7
		C151,27.5,151.6,28,151.6,29.1z"/>
	<path d="M156.3,26v5.2h-0.5v-0.7c-0.3,0.5-0.8,0.8-1.4,0.8c-1.1,0-1.8-0.8-1.8-1.9c0-1.1,0.8-1.9,1.8-1.9c0.6,0,1.1,0.3,1.4,0.7V26
		H156.3z M155.8,29.4c0-0.9-0.6-1.4-1.4-1.4c-0.8,0-1.4,0.6-1.4,1.4s0.6,1.4,1.4,1.4C155.2,30.8,155.8,30.2,155.8,29.4z"/>
	<path d="M161.4,27.5V28c0,0-0.1,0-0.1,0c-0.8,0-1.2,0.5-1.2,1.4v1.9h-0.5v-3.7h0.5v0.7C160.3,27.8,160.7,27.5,161.4,27.5z"/>
	<path d="M165.7,27.5v3.7h-0.5v-0.7c-0.3,0.4-0.7,0.7-1.3,0.7c-0.9,0-1.6-0.5-1.6-1.6v-2.1h0.5v2.1c0,0.8,0.4,1.2,1.1,1.2
		c0.8,0,1.3-0.5,1.3-1.3v-1.9H165.7z"/>
	<path d="M170.5,29.1v2.1H170v-2.1c0-0.8-0.4-1.2-1.1-1.2c-0.8,0-1.3,0.5-1.3,1.3v1.9h-0.5v-3.7h0.5v0.7c0.3-0.4,0.8-0.7,1.4-0.7
		C169.8,27.5,170.5,28,170.5,29.1z"/>
	<path d="M171.3,30.8l0.2-0.4c0.3,0.2,0.8,0.4,1.3,0.4c0.7,0,1-0.2,1-0.6c0-1-2.4-0.2-2.4-1.7c0-0.6,0.5-1.1,1.5-1.1
		c0.5,0,1,0.1,1.3,0.3l-0.2,0.4c-0.3-0.2-0.7-0.3-1.1-0.3c-0.7,0-1,0.3-1,0.6c0,1,2.4,0.2,2.4,1.7c0,0.6-0.6,1.1-1.5,1.1
		C172.2,31.3,171.6,31.1,171.3,30.8z"/>
	<path d="M177.6,27.1v0.4h1.1V28h-1.1v3.3h-0.5V28h-0.7v-0.4h0.7v-0.5c0-0.7,0.4-1.1,1.1-1.1c0.3,0,0.6,0.1,0.7,0.2l-0.2,0.4
		c-0.1-0.1-0.3-0.2-0.5-0.2C177.9,26.4,177.6,26.7,177.6,27.1z"/>
	<path d="M179,29.4c0-1.1,0.8-1.9,1.9-1.9s1.9,0.8,1.9,1.9s-0.8,1.9-1.9,1.9S179,30.5,179,29.4z M182.2,29.4c0-0.9-0.6-1.4-1.4-1.4
		c-0.8,0-1.4,0.6-1.4,1.4s0.6,1.4,1.4,1.4C181.7,30.8,182.2,30.2,182.2,29.4z"/>
	<path d="M185.6,27.5V28c0,0-0.1,0-0.1,0c-0.8,0-1.2,0.5-1.2,1.4v1.9h-0.5v-3.7h0.5v0.7C184.5,27.8,184.9,27.5,185.6,27.5z"/>
	<path d="M114.2,41c-0.2,0.2-0.5,0.3-0.8,0.3c-0.7,0-1.1-0.4-1.1-1.1V38h-0.7v-0.4h0.7v-0.8h0.5v0.8h1.1V38h-1.1v2.2
		c0,0.4,0.2,0.7,0.6,0.7c0.2,0,0.4-0.1,0.5-0.2L114.2,41z"/>
	<path d="M118.5,39.1v2.1H118v-2.1c0-0.8-0.4-1.2-1.1-1.2c-0.8,0-1.3,0.5-1.3,1.3v1.9h-0.5V36h0.5v2.2c0.3-0.4,0.8-0.7,1.4-0.7
		C117.9,37.5,118.5,38,118.5,39.1z"/>
	<path d="M121.7,37.5V38c0,0-0.1,0-0.1,0c-0.8,0-1.2,0.5-1.2,1.4v1.9h-0.5v-3.7h0.5v0.7C120.6,37.8,121.1,37.5,121.7,37.5z"/>
	<path d="M125.8,39.5h-3.1c0.1,0.8,0.6,1.3,1.4,1.3c0.4,0,0.8-0.2,1.1-0.5l0.3,0.3c-0.3,0.4-0.8,0.6-1.4,0.6c-1.1,0-1.9-0.8-1.9-1.9
		s0.8-1.9,1.8-1.9s1.8,0.8,1.8,1.9C125.8,39.4,125.8,39.5,125.8,39.5z M122.7,39.2h2.6c-0.1-0.7-0.6-1.2-1.3-1.2
		C123.3,37.9,122.8,38.4,122.7,39.2z"/>
	<path d="M130,39.5h-3.1c0.1,0.8,0.6,1.3,1.4,1.3c0.4,0,0.8-0.2,1.1-0.5l0.3,0.3c-0.3,0.4-0.8,0.6-1.4,0.6c-1.1,0-1.9-0.8-1.9-1.9
		s0.8-1.9,1.8-1.9c1,0,1.8,0.8,1.8,1.9C130,39.4,130,39.5,130,39.5z M126.9,39.2h2.6c-0.1-0.7-0.6-1.2-1.3-1.2
		C127.5,37.9,127,38.4,126.9,39.2z"/>
	<path d="M132.5,39.4c0-1.1,0.8-1.9,1.9-1.9s1.9,0.8,1.9,1.9s-0.8,1.9-1.9,1.9S132.5,40.5,132.5,39.4z M135.8,39.4
		c0-0.9-0.6-1.4-1.4-1.4c-0.8,0-1.4,0.6-1.4,1.4s0.6,1.4,1.4,1.4C135.2,40.8,135.8,40.2,135.8,39.4z"/>
	<path d="M139.1,37.5V38c0,0-0.1,0-0.1,0c-0.8,0-1.2,0.5-1.2,1.4v1.9h-0.5v-3.7h0.5v0.7C138,37.8,138.4,37.5,139.1,37.5z"/>
	<path d="M142.5,37.1v0.4h1.1V38h-1.1v3.3H142V38h-0.7v-0.4h0.7v-0.5c0-0.7,0.4-1.1,1.1-1.1c0.3,0,0.6,0.1,0.7,0.2l-0.2,0.4
		c-0.1-0.1-0.3-0.2-0.5-0.2C142.7,36.4,142.5,36.7,142.5,37.1z"/>
	<path d="M143.8,39.4c0-1.1,0.8-1.9,1.9-1.9s1.9,0.8,1.9,1.9s-0.8,1.9-1.9,1.9S143.8,40.5,143.8,39.4z M147.1,39.4
		c0-0.9-0.6-1.4-1.4-1.4c-0.8,0-1.4,0.6-1.4,1.4s0.6,1.4,1.4,1.4C146.5,40.8,147.1,40.2,147.1,39.4z"/>
	<path d="M151.9,37.5v3.7h-0.5v-0.7c-0.3,0.4-0.7,0.7-1.3,0.7c-0.9,0-1.6-0.5-1.6-1.6v-2.1h0.5v2.1c0,0.8,0.4,1.2,1.1,1.2
		c0.8,0,1.3-0.5,1.3-1.3v-1.9H151.9z"/>
	<path d="M155.2,37.5V38c0,0-0.1,0-0.1,0c-0.8,0-1.2,0.5-1.2,1.4v1.9h-0.5v-3.7h0.5v0.7C154,37.8,154.5,37.5,155.2,37.5z"/>
	<path d="M161.1,37.5l-1.8,4.1c-0.3,0.7-0.7,1-1.2,1c-0.3,0-0.7-0.1-0.9-0.3l0.2-0.4c0.2,0.2,0.4,0.3,0.7,0.3c0.3,0,0.6-0.2,0.8-0.6
		l0.2-0.4l-1.6-3.7h0.5l1.4,3.1l1.4-3.1H161.1z"/>
	<path d="M164.9,39.5h-3.1c0.1,0.8,0.6,1.3,1.4,1.3c0.4,0,0.8-0.2,1.1-0.5l0.3,0.3c-0.3,0.4-0.8,0.6-1.4,0.6c-1.1,0-1.9-0.8-1.9-1.9
		s0.8-1.9,1.8-1.9s1.8,0.8,1.8,1.9C164.9,39.4,164.9,39.5,164.9,39.5z M161.8,39.2h2.6c-0.1-0.7-0.6-1.2-1.3-1.2
		C162.4,37.9,161.8,38.4,161.8,39.2z"/>
	<path d="M168.6,38.9v2.3h-0.5v-0.6c-0.2,0.4-0.7,0.6-1.3,0.6c-0.8,0-1.3-0.4-1.3-1.1c0-0.6,0.4-1,1.4-1h1.2v-0.2c0-0.6-0.4-1-1-1
		c-0.5,0-0.9,0.2-1.2,0.4l-0.2-0.4c0.4-0.3,0.9-0.5,1.5-0.5C168,37.5,168.6,38,168.6,38.9z M168.1,40.1v-0.6h-1.2
		c-0.7,0-0.9,0.3-0.9,0.7c0,0.4,0.3,0.7,0.9,0.7C167.4,40.9,167.9,40.6,168.1,40.1z"/>
	<path d="M171.8,37.5V38c0,0-0.1,0-0.1,0c-0.8,0-1.2,0.5-1.2,1.4v1.9h-0.5v-3.7h0.5v0.7C170.6,37.8,171.1,37.5,171.8,37.5z"/>
	<path d="M172.2,40.8l0.2-0.4c0.3,0.2,0.8,0.4,1.3,0.4c0.7,0,1-0.2,1-0.6c0-1-2.4-0.2-2.4-1.7c0-0.6,0.5-1.1,1.5-1.1
		c0.5,0,1,0.1,1.3,0.3l-0.2,0.4c-0.3-0.2-0.7-0.3-1.1-0.3c-0.7,0-1,0.3-1,0.6c0,1,2.4,0.2,2.4,1.7c0,0.6-0.6,1.1-1.5,1.1
		C173.1,41.3,172.5,41.1,172.2,40.8z"/>
</g>
<g>
	<path class="st7" d="M253.5,7.8l0.4-1c0.6,0.4,1.4,0.8,2.3,0.8c1.1,0,1.5-0.4,1.5-0.9c0-1.5-4.2-0.5-4.2-3.1c0-1.1,0.9-2.1,2.8-2.1
		c0.8,0,1.7,0.2,2.3,0.6l-0.4,1c-0.6-0.4-1.3-0.5-1.9-0.5c-1.1,0-1.5,0.4-1.5,0.9c0,1.5,4.1,0.5,4.1,3.1c0,1.1-0.9,2.1-2.8,2.1
		C255.2,8.6,254.1,8.3,253.5,7.8z"/>
	<path class="st7" d="M265.3,6.2h-4.2c0.1,0.8,0.8,1.3,1.7,1.3c0.6,0,1.1-0.2,1.4-0.6l0.7,0.8c-0.5,0.6-1.2,0.9-2.1,0.9
		c-1.8,0-2.9-1.1-2.9-2.7c0-1.6,1.2-2.7,2.8-2.7c1.6,0,2.7,1.1,2.7,2.8C265.3,6,265.3,6.1,265.3,6.2z M261.1,5.4h3
		c-0.1-0.8-0.7-1.3-1.5-1.3C261.8,4.1,261.2,4.6,261.1,5.4z"/>
	<path class="st7" d="M271.8,5.4v3.1h-1.2V5.6c0-0.9-0.5-1.4-1.3-1.4c-0.9,0-1.5,0.5-1.5,1.6v2.7h-1.2V3.2h1.2v0.7
		c0.4-0.5,1.1-0.7,1.8-0.7C270.8,3.1,271.8,3.8,271.8,5.4z"/>
	<path class="st7" d="M273.2,1.5c0-0.4,0.3-0.7,0.8-0.7s0.8,0.3,0.8,0.7c0,0.4-0.3,0.8-0.8,0.8C273.5,2.3,273.2,2,273.2,1.5z
		 M273.4,3.2h1.2v5.3h-1.2V3.2z"/>
	<path class="st7" d="M275.8,5.8c0-1.6,1.2-2.7,2.8-2.7c1.7,0,2.8,1.1,2.8,2.7s-1.2,2.7-2.8,2.7C277,8.6,275.8,7.4,275.8,5.8z
		 M280.2,5.8c0-1-0.7-1.7-1.6-1.7c-0.9,0-1.6,0.6-1.6,1.7s0.7,1.7,1.6,1.7C279.6,7.5,280.2,6.9,280.2,5.8z"/>
	<path class="st7" d="M285.8,3.1v1.2c-0.1,0-0.2,0-0.3,0c-0.9,0-1.5,0.6-1.5,1.6v2.6h-1.2V3.2h1.2v0.8
		C284.3,3.4,284.9,3.1,285.8,3.1z"/>
	<path class="st7" d="M289.2,7.8l0.5-1c0.6,0.4,1.4,0.8,2.3,0.8c1.1,0,1.5-0.4,1.5-0.9c0-1.5-4.2-0.5-4.2-3.1c0-1.1,0.9-2.1,2.8-2.1
		c0.8,0,1.7,0.2,2.3,0.6l-0.4,1c-0.6-0.4-1.3-0.5-1.9-0.5c-1.1,0-1.5,0.4-1.5,0.9c0,1.5,4.1,0.5,4.1,3.1c0,1.1-0.9,2.1-2.8,2.1
		C290.9,8.6,289.8,8.3,289.2,7.8z"/>
	<path class="st7" d="M295.5,5.8c0-1.6,1.2-2.7,2.9-2.7c1,0,1.9,0.4,2.3,1.2l-1,0.6c-0.3-0.5-0.8-0.7-1.3-0.7
		c-0.9,0-1.6,0.6-1.6,1.7c0,1,0.7,1.7,1.6,1.7c0.5,0,1-0.2,1.3-0.7l1,0.6c-0.4,0.8-1.2,1.2-2.3,1.2C296.7,8.6,295.5,7.4,295.5,5.8z"
		/>
	<path class="st7" d="M307,5.4v3.1h-1.2V5.6c0-0.9-0.5-1.4-1.3-1.4c-0.9,0-1.5,0.5-1.5,1.6v2.7h-1.2V1.1h1.2v2.7
		c0.4-0.4,1-0.7,1.8-0.7C306,3.1,307,3.8,307,5.4z"/>
	<path class="st7" d="M308.2,5.8c0-1.6,1.2-2.7,2.8-2.7c1.7,0,2.8,1.1,2.8,2.7s-1.2,2.7-2.8,2.7C309.4,8.6,308.2,7.4,308.2,5.8z
		 M312.6,5.8c0-1-0.7-1.7-1.6-1.7c-0.9,0-1.6,0.6-1.6,1.7s0.7,1.7,1.6,1.7C311.9,7.5,312.6,6.9,312.6,5.8z"/>
	<path class="st7" d="M314.6,5.8c0-1.6,1.2-2.7,2.8-2.7c1.7,0,2.8,1.1,2.8,2.7s-1.2,2.7-2.8,2.7C315.8,8.6,314.6,7.4,314.6,5.8z
		 M319.1,5.8c0-1-0.7-1.7-1.6-1.7c-0.9,0-1.6,0.6-1.6,1.7s0.7,1.7,1.6,1.7C318.4,7.5,319.1,6.9,319.1,5.8z"/>
	<path class="st7" d="M321.5,1.1h1.2v7.4h-1.2V1.1z"/>
</g>
<g>
	<path d="M247.7,16.3h0.5v4.9h-0.5V16.3z"/>
	<path d="M251.7,21c-0.2,0.2-0.5,0.3-0.8,0.3c-0.7,0-1.1-0.4-1.1-1.1V18h-0.7v-0.4h0.7v-0.8h0.5v0.8h1.1V18h-1.1v2.2
		c0,0.4,0.2,0.7,0.6,0.7c0.2,0,0.4-0.1,0.5-0.2L251.7,21z"/>
	<path d="M253.9,20.8l0.2-0.4c0.3,0.2,0.8,0.4,1.3,0.4c0.7,0,1-0.2,1-0.6c0-1-2.4-0.2-2.4-1.7c0-0.6,0.5-1.1,1.5-1.1
		c0.5,0,1,0.1,1.3,0.3l-0.2,0.4c-0.3-0.2-0.7-0.3-1.1-0.3c-0.7,0-1,0.3-1,0.6c0,1,2.4,0.2,2.4,1.7c0,0.6-0.6,1.1-1.5,1.1
		C254.8,21.3,254.2,21.1,253.9,20.8z"/>
	<path d="M259.8,21c-0.2,0.2-0.5,0.3-0.8,0.3c-0.7,0-1.1-0.4-1.1-1.1V18h-0.7v-0.4h0.7v-0.8h0.5v0.8h1.1V18h-1.1v2.2
		c0,0.4,0.2,0.7,0.6,0.7c0.2,0,0.4-0.1,0.5-0.2L259.8,21z"/>
	<path d="M263.5,18.9v2.3H263v-0.6c-0.2,0.4-0.7,0.6-1.3,0.6c-0.8,0-1.3-0.4-1.3-1.1c0-0.6,0.4-1,1.4-1h1.2v-0.2c0-0.6-0.4-1-1-1
		c-0.5,0-0.9,0.2-1.2,0.4l-0.2-0.4c0.4-0.3,0.9-0.5,1.5-0.5C262.9,17.5,263.5,18,263.5,18.9z M263,20.1v-0.6h-1.2
		c-0.7,0-0.9,0.3-0.9,0.7c0,0.4,0.3,0.7,0.9,0.7C262.4,20.9,262.8,20.6,263,20.1z"/>
	<path d="M266.7,17.5V18c0,0-0.1,0-0.1,0c-0.8,0-1.2,0.5-1.2,1.4v1.9h-0.5v-3.7h0.5v0.7C265.5,17.8,266,17.5,266.7,17.5z"/>
	<path d="M269.7,21c-0.2,0.2-0.5,0.3-0.8,0.3c-0.7,0-1.1-0.4-1.1-1.1V18h-0.7v-0.4h0.7v-0.8h0.5v0.8h1.1V18h-1.1v2.2
		c0,0.4,0.2,0.7,0.6,0.7c0.2,0,0.4-0.1,0.5-0.2L269.7,21z"/>
	<path d="M270.1,20.8l0.2-0.4c0.3,0.2,0.8,0.4,1.3,0.4c0.7,0,1-0.2,1-0.6c0-1-2.4-0.2-2.4-1.7c0-0.6,0.5-1.1,1.5-1.1
		c0.5,0,1,0.1,1.3,0.3l-0.2,0.4c-0.3-0.2-0.7-0.3-1.1-0.3c-0.7,0-1,0.3-1,0.6c0,1,2.4,0.2,2.4,1.7c0,0.6-0.6,1.1-1.5,1.1
		C271,21.3,270.4,21.1,270.1,20.8z"/>
	<path d="M276.4,17.1v0.4h1.1V18h-1.1v3.3h-0.5V18h-0.7v-0.4h0.7v-0.5c0-0.7,0.4-1.1,1.1-1.1c0.3,0,0.6,0.1,0.7,0.2l-0.2,0.4
		c-0.1-0.1-0.3-0.2-0.5-0.2C276.6,16.4,276.4,16.7,276.4,17.1z"/>
	<path d="M280.6,17.5V18c0,0-0.1,0-0.1,0c-0.8,0-1.2,0.5-1.2,1.4v1.9h-0.5v-3.7h0.5v0.7C279.5,17.8,279.9,17.5,280.6,17.5z"/>
	<path d="M281.1,19.4c0-1.1,0.8-1.9,1.9-1.9c1.1,0,1.9,0.8,1.9,1.9s-0.8,1.9-1.9,1.9C281.9,21.3,281.1,20.5,281.1,19.4z M284.4,19.4
		c0-0.9-0.6-1.4-1.4-1.4c-0.8,0-1.4,0.6-1.4,1.4s0.6,1.4,1.4,1.4C283.8,20.8,284.4,20.2,284.4,19.4z"/>
	<path d="M292,19.1v2.1h-0.5v-2.1c0-0.8-0.4-1.2-1.1-1.2c-0.8,0-1.2,0.5-1.2,1.3v1.9h-0.5v-2.1c0-0.8-0.4-1.2-1.1-1.2
		c-0.8,0-1.2,0.5-1.2,1.3v1.9h-0.5v-3.7h0.5v0.7c0.3-0.4,0.7-0.7,1.4-0.7c0.6,0,1.1,0.3,1.3,0.8c0.3-0.5,0.8-0.8,1.5-0.8
		C291.4,17.5,292,18,292,19.1z"/>
	<path d="M297.1,21c-0.2,0.2-0.5,0.3-0.8,0.3c-0.7,0-1.1-0.4-1.1-1.1V18h-0.7v-0.4h0.7v-0.8h0.5v0.8h1.1V18h-1.1v2.2
		c0,0.4,0.2,0.7,0.6,0.7c0.2,0,0.4-0.1,0.5-0.2L297.1,21z"/>
	<path d="M301.4,19.1v2.1h-0.5v-2.1c0-0.8-0.4-1.2-1.1-1.2c-0.8,0-1.3,0.5-1.3,1.3v1.9H298V16h0.5v2.2c0.3-0.4,0.8-0.7,1.4-0.7
		C300.7,17.5,301.4,18,301.4,19.1z"/>
	<path d="M305.9,19.5h-3.1c0.1,0.8,0.6,1.3,1.4,1.3c0.4,0,0.8-0.2,1.1-0.5l0.3,0.3c-0.3,0.4-0.8,0.6-1.4,0.6c-1.1,0-1.9-0.8-1.9-1.9
		s0.8-1.9,1.8-1.9c1,0,1.8,0.8,1.8,1.9C305.9,19.4,305.9,19.5,305.9,19.5z M302.9,19.2h2.6c-0.1-0.7-0.6-1.2-1.3-1.2
		C303.4,17.9,302.9,18.4,302.9,19.2z"/>
	<path d="M311.9,17.5l-1.8,4.1c-0.3,0.7-0.7,1-1.2,1c-0.3,0-0.7-0.1-0.9-0.3l0.2-0.4c0.2,0.2,0.4,0.3,0.7,0.3c0.3,0,0.6-0.2,0.8-0.6
		l0.2-0.4l-1.6-3.7h0.5l1.4,3.1l1.4-3.1H311.9z"/>
	<path d="M315.7,19.5h-3.1c0.1,0.8,0.6,1.3,1.4,1.3c0.4,0,0.8-0.2,1.1-0.5l0.3,0.3c-0.3,0.4-0.8,0.6-1.4,0.6c-1.1,0-1.9-0.8-1.9-1.9
		s0.8-1.9,1.8-1.9c1,0,1.8,0.8,1.8,1.9C315.7,19.4,315.7,19.5,315.7,19.5z M312.6,19.2h2.6c-0.1-0.7-0.6-1.2-1.3-1.2
		C313.2,17.9,312.7,18.4,312.6,19.2z"/>
	<path d="M319.4,18.9v2.3h-0.5v-0.6c-0.2,0.4-0.7,0.6-1.3,0.6c-0.8,0-1.3-0.4-1.3-1.1c0-0.6,0.4-1,1.4-1h1.2v-0.2c0-0.6-0.4-1-1-1
		c-0.5,0-0.9,0.2-1.2,0.4l-0.2-0.4c0.4-0.3,0.9-0.5,1.5-0.5C318.8,17.5,319.4,18,319.4,18.9z M318.9,20.1v-0.6h-1.2
		c-0.7,0-0.9,0.3-0.9,0.7c0,0.4,0.3,0.7,0.9,0.7C318.3,20.9,318.7,20.6,318.9,20.1z"/>
	<path d="M322.6,17.5V18c0,0-0.1,0-0.1,0c-0.8,0-1.2,0.5-1.2,1.4v1.9h-0.5v-3.7h0.5v0.7C321.4,17.8,321.9,17.5,322.6,17.5z"/>
	<path d="M323,20.8l0.2-0.4c0.3,0.2,0.8,0.4,1.3,0.4c0.7,0,1-0.2,1-0.6c0-1-2.4-0.2-2.4-1.7c0-0.6,0.5-1.1,1.5-1.1
		c0.5,0,1,0.1,1.3,0.3l-0.2,0.4c-0.3-0.2-0.7-0.3-1.1-0.3c-0.7,0-1,0.3-1,0.6c0,1,2.4,0.2,2.4,1.7c0,0.6-0.6,1.1-1.5,1.1
		C323.9,21.3,323.3,21.1,323,20.8z"/>
	<path d="M244.2,26.3v4.9h-0.5v-4.5h-1.2v-0.4H244.2z"/>
	<path d="M246.7,26.3v4.9h-0.5v-4.5h-1.2v-0.4H246.7z"/>
	<path d="M252.8,28.9v2.3h-0.5v-0.6c-0.2,0.4-0.7,0.6-1.3,0.6c-0.8,0-1.3-0.4-1.3-1.1c0-0.6,0.4-1,1.4-1h1.2v-0.2c0-0.6-0.4-1-1-1
		c-0.5,0-0.9,0.2-1.2,0.4l-0.2-0.4c0.4-0.3,0.9-0.5,1.5-0.5C252.3,27.5,252.8,28,252.8,28.9z M252.4,30.1v-0.6h-1.2
		c-0.7,0-0.9,0.3-0.9,0.7c0,0.4,0.3,0.7,0.9,0.7C251.7,30.9,252.2,30.6,252.4,30.1z"/>
	<path d="M257.6,29.1v2.1h-0.5v-2.1c0-0.8-0.4-1.2-1.1-1.2c-0.8,0-1.3,0.5-1.3,1.3v1.9h-0.5v-3.7h0.5v0.7c0.3-0.4,0.8-0.7,1.4-0.7
		C257,27.5,257.6,28,257.6,29.1z"/>
	<path d="M262.3,26v5.2h-0.5v-0.7c-0.3,0.5-0.8,0.8-1.4,0.8c-1.1,0-1.8-0.8-1.8-1.9c0-1.1,0.8-1.9,1.8-1.9c0.6,0,1.1,0.3,1.4,0.7V26
		H262.3z M261.8,29.4c0-0.9-0.6-1.4-1.4-1.4c-0.8,0-1.4,0.6-1.4,1.4s0.6,1.4,1.4,1.4C261.2,30.8,261.8,30.2,261.8,29.4z"/>
	<path d="M266.6,26.3v4.9h-0.5v-4.5h-1.2v-0.4H266.6z"/>
	<path d="M271.1,30.8v0.4h-3.4v-0.4l2-2c0.6-0.5,0.7-0.9,0.7-1.2c0-0.6-0.4-0.9-1.1-0.9c-0.6,0-1,0.2-1.3,0.5l-0.4-0.3
		c0.4-0.4,1-0.7,1.7-0.7c1,0,1.6,0.5,1.6,1.3c0,0.5-0.1,0.9-0.8,1.5l-1.7,1.6H271.1z"/>
	<path d="M276.6,28.9v2.3h-0.5v-0.6c-0.2,0.4-0.7,0.6-1.3,0.6c-0.8,0-1.3-0.4-1.3-1.1c0-0.6,0.4-1,1.4-1h1.2v-0.2c0-0.6-0.4-1-1-1
		c-0.5,0-0.9,0.2-1.2,0.4l-0.2-0.4c0.4-0.3,0.9-0.5,1.5-0.5C276.1,27.5,276.6,28,276.6,28.9z M276.2,30.1v-0.6H275
		c-0.7,0-0.9,0.3-0.9,0.7c0,0.4,0.3,0.7,0.9,0.7C275.5,30.9,276,30.6,276.2,30.1z"/>
	<path d="M281.4,29.1v2.1h-0.5v-2.1c0-0.8-0.4-1.2-1.1-1.2c-0.8,0-1.3,0.5-1.3,1.3v1.9H278v-3.7h0.5v0.7c0.3-0.4,0.8-0.7,1.4-0.7
		C280.8,27.5,281.4,28,281.4,29.1z"/>
	<path d="M286.1,26v5.2h-0.5v-0.7c-0.3,0.5-0.8,0.8-1.4,0.8c-1.1,0-1.8-0.8-1.8-1.9c0-1.1,0.8-1.9,1.8-1.9c0.6,0,1.1,0.3,1.4,0.7V26
		H286.1z M285.6,29.4c0-0.9-0.6-1.4-1.4-1.4c-0.8,0-1.4,0.6-1.4,1.4s0.6,1.4,1.4,1.4C285,30.8,285.6,30.2,285.6,29.4z"/>
	<path d="M291.2,27.5V28c0,0-0.1,0-0.1,0c-0.8,0-1.2,0.5-1.2,1.4v1.9h-0.5v-3.7h0.5v0.7C290,27.8,290.5,27.5,291.2,27.5z"/>
	<path d="M295.5,27.5v3.7H295v-0.7c-0.3,0.4-0.7,0.7-1.3,0.7c-0.9,0-1.6-0.5-1.6-1.6v-2.1h0.5v2.1c0,0.8,0.4,1.2,1.1,1.2
		c0.8,0,1.3-0.5,1.3-1.3v-1.9H295.5z"/>
	<path d="M300.2,29.1v2.1h-0.5v-2.1c0-0.8-0.4-1.2-1.1-1.2c-0.8,0-1.3,0.5-1.3,1.3v1.9h-0.5v-3.7h0.5v0.7c0.3-0.4,0.8-0.7,1.4-0.7
		C299.6,27.5,300.2,28,300.2,29.1z"/>
	<path d="M301.1,30.8l0.2-0.4c0.3,0.2,0.8,0.4,1.3,0.4c0.7,0,1-0.2,1-0.6c0-1-2.4-0.2-2.4-1.7c0-0.6,0.5-1.1,1.5-1.1
		c0.5,0,1,0.1,1.3,0.3l-0.2,0.4c-0.3-0.2-0.7-0.3-1.1-0.3c-0.7,0-1,0.3-1,0.6c0,1,2.4,0.2,2.4,1.7c0,0.6-0.6,1.1-1.5,1.1
		C302,31.3,301.4,31.1,301.1,30.8z"/>
	<path d="M307.4,27.1v0.4h1.1V28h-1.1v3.3h-0.5V28h-0.7v-0.4h0.7v-0.5c0-0.7,0.4-1.1,1.1-1.1c0.3,0,0.6,0.1,0.7,0.2l-0.2,0.4
		c-0.1-0.1-0.3-0.2-0.5-0.2C307.6,26.4,307.4,26.7,307.4,27.1z"/>
	<path d="M308.8,29.4c0-1.1,0.8-1.9,1.9-1.9c1.1,0,1.9,0.8,1.9,1.9s-0.8,1.9-1.9,1.9C309.6,31.3,308.8,30.5,308.8,29.4z M312,29.4
		c0-0.9-0.6-1.4-1.4-1.4s-1.4,0.6-1.4,1.4s0.6,1.4,1.4,1.4S312,30.2,312,29.4z"/>
	<path d="M315.4,27.5V28c0,0-0.1,0-0.1,0c-0.8,0-1.2,0.5-1.2,1.4v1.9h-0.5v-3.7h0.5v0.7C314.2,27.8,314.7,27.5,315.4,27.5z"/>
	<path d="M320.1,31c-0.2,0.2-0.5,0.3-0.8,0.3c-0.7,0-1.1-0.4-1.1-1.1V28h-0.7v-0.4h0.7v-0.8h0.5v0.8h1.1V28h-1.1v2.2
		c0,0.4,0.2,0.7,0.6,0.7c0.2,0,0.4-0.1,0.5-0.2L320.1,31z"/>
	<path d="M326.4,27.5l-1.4,3.7h-0.5l-1.2-3l-1.2,3h-0.5l-1.4-3.7h0.5l1.2,3.1l1.2-3.1h0.4l1.2,3.1l1.2-3.1H326.4z"/>
	<path d="M326.6,29.4c0-1.1,0.8-1.9,1.9-1.9c1.1,0,1.9,0.8,1.9,1.9s-0.8,1.9-1.9,1.9C327.4,31.3,326.6,30.5,326.6,29.4z M329.9,29.4
		c0-0.9-0.6-1.4-1.4-1.4c-0.8,0-1.4,0.6-1.4,1.4s0.6,1.4,1.4,1.4C329.3,30.8,329.9,30.2,329.9,29.4z"/>
	<path d="M281.3,37.5l-1.8,4.1c-0.3,0.7-0.7,1-1.2,1c-0.3,0-0.7-0.1-0.9-0.3l0.2-0.4c0.2,0.2,0.4,0.3,0.7,0.3c0.3,0,0.6-0.2,0.8-0.6
		l0.2-0.4l-1.6-3.7h0.5l1.4,3.1l1.4-3.1H281.3z"/>
	<path d="M285.1,39.5H282c0.1,0.8,0.6,1.3,1.4,1.3c0.4,0,0.8-0.2,1.1-0.5l0.3,0.3c-0.3,0.4-0.8,0.6-1.4,0.6c-1.1,0-1.9-0.8-1.9-1.9
		s0.8-1.9,1.8-1.9c1,0,1.8,0.8,1.8,1.9C285.1,39.4,285.1,39.5,285.1,39.5z M282,39.2h2.6c-0.1-0.7-0.6-1.2-1.3-1.2
		C282.6,37.9,282.1,38.4,282,39.2z"/>
	<path d="M288.8,38.9v2.3h-0.5v-0.6c-0.2,0.4-0.7,0.6-1.3,0.6c-0.8,0-1.3-0.4-1.3-1.1c0-0.6,0.4-1,1.4-1h1.2v-0.2c0-0.6-0.4-1-1-1
		c-0.5,0-0.9,0.2-1.2,0.4l-0.2-0.4c0.4-0.3,0.9-0.5,1.5-0.5C288.3,37.5,288.8,38,288.8,38.9z M288.3,40.1v-0.6h-1.2
		c-0.7,0-0.9,0.3-0.9,0.7c0,0.4,0.3,0.7,0.9,0.7C287.7,40.9,288.1,40.6,288.3,40.1z"/>
	<path d="M292,37.5V38c0,0-0.1,0-0.1,0c-0.8,0-1.2,0.5-1.2,1.4v1.9h-0.5v-3.7h0.5v0.7C290.9,37.8,291.3,37.5,292,37.5z"/>
	<path d="M292.4,40.8l0.2-0.4c0.3,0.2,0.8,0.4,1.3,0.4c0.7,0,1-0.2,1-0.6c0-1-2.4-0.2-2.4-1.7c0-0.6,0.5-1.1,1.5-1.1
		c0.5,0,1,0.1,1.3,0.3l-0.2,0.4c-0.3-0.2-0.7-0.3-1.1-0.3c-0.7,0-1,0.3-1,0.6c0,1,2.4,0.2,2.4,1.7c0,0.6-0.6,1.1-1.5,1.1
		C293.3,41.3,292.7,41.1,292.4,40.8z"/>
</g>
<g>
	<path class="st7" d="M350.4,83.2h-2.3v-1.1h5.9v1.1h-2.3v5.9h-1.3V83.2z"/>
	<path class="st7" d="M359.3,86.8h-4.2c0.2,0.8,0.8,1.3,1.7,1.3c0.6,0,1.1-0.2,1.4-0.6l0.7,0.8c-0.5,0.6-1.2,0.9-2.1,0.9
		c-1.8,0-2.9-1.1-2.9-2.7c0-1.6,1.2-2.7,2.8-2.7c1.6,0,2.7,1.1,2.7,2.8C359.3,86.6,359.3,86.7,359.3,86.8z M355.1,86h3
		c-0.1-0.8-0.7-1.3-1.5-1.3C355.8,84.7,355.2,85.2,355.1,86z"/>
	<path class="st7" d="M363.6,83.7v1.2c-0.1,0-0.2,0-0.3,0c-0.9,0-1.5,0.6-1.5,1.6v2.6h-1.2v-5.3h1.2v0.8
		C362.1,84,362.7,83.7,363.6,83.7z"/>
	<path class="st7" d="M368.1,88.8c-0.3,0.2-0.7,0.4-1.2,0.4c-1.2,0-1.8-0.6-1.8-1.8v-2.6h-0.9v-1h0.9v-1.2h1.2v1.2h1.4v1h-1.4v2.5
		c0,0.5,0.3,0.8,0.7,0.8c0.3,0,0.5-0.1,0.7-0.2L368.1,88.8z"/>
	<path class="st7" d="M369,82.1c0-0.4,0.3-0.7,0.8-0.7s0.8,0.3,0.8,0.7c0,0.4-0.3,0.8-0.8,0.8C369.3,82.9,369,82.6,369,82.1z
		 M369.1,83.8h1.2v5.3h-1.2V83.8z"/>
	<path class="st7" d="M376.5,86v3.1h-1.2v-0.6c-0.3,0.5-0.9,0.7-1.7,0.7c-1.2,0-2-0.7-2-1.6c0-0.9,0.6-1.6,2.2-1.6h1.4v-0.1
		c0-0.7-0.4-1.2-1.3-1.2c-0.6,0-1.2,0.2-1.6,0.5l-0.5-0.9c0.6-0.4,1.4-0.7,2.3-0.7C375.6,83.7,376.5,84.4,376.5,86z M375.2,87.4
		v-0.6H374c-0.8,0-1.1,0.3-1.1,0.7c0,0.4,0.4,0.7,1,0.7C374.5,88.3,375,88,375.2,87.4z"/>
	<path class="st7" d="M381.2,83.7v1.2c-0.1,0-0.2,0-0.3,0c-0.9,0-1.5,0.6-1.5,1.6v2.6h-1.2v-5.3h1.2v0.8
		C379.6,84,380.3,83.7,381.2,83.7z"/>
	<path class="st7" d="M387.4,83.8l-2.5,5.8c-0.5,1.2-1.2,1.6-2.1,1.6c-0.5,0-1.1-0.2-1.4-0.5l0.5-0.9c0.2,0.2,0.6,0.4,0.9,0.4
		c0.4,0,0.7-0.2,0.9-0.7l0.1-0.2l-2.3-5.4h1.3l1.7,3.9l1.7-3.9H387.4z"/>
	<path class="st7" d="M396.4,88v1.1h-5.2v-7h5.1v1.1h-3.8V85h3.4v1.1h-3.4V88H396.4z"/>
	<path class="st7" d="M402.9,81.7v7.4h-1.2v-0.7c-0.4,0.5-1,0.8-1.8,0.8c-1.5,0-2.7-1.1-2.7-2.7s1.1-2.7,2.7-2.7
		c0.7,0,1.3,0.2,1.7,0.7v-2.7H402.9z M401.6,86.4c0-1-0.7-1.7-1.6-1.7c-0.9,0-1.6,0.6-1.6,1.7s0.7,1.7,1.6,1.7
		C400.9,88.1,401.6,87.5,401.6,86.4z"/>
	<path class="st7" d="M409.7,83.8v5.3h-1.2v-0.7c-0.4,0.5-1,0.7-1.7,0.7c-1.4,0-2.3-0.7-2.3-2.4v-3h1.2v2.9c0,1,0.5,1.4,1.2,1.4
		c0.9,0,1.5-0.5,1.5-1.6v-2.7H409.7z"/>
	<path class="st7" d="M410.9,86.4c0-1.6,1.2-2.7,2.9-2.7c1,0,1.9,0.4,2.3,1.2l-1,0.6c-0.3-0.5-0.8-0.7-1.3-0.7
		c-0.9,0-1.6,0.6-1.6,1.7c0,1,0.7,1.7,1.6,1.7c0.5,0,1-0.2,1.3-0.7l1,0.6c-0.4,0.8-1.2,1.2-2.3,1.2C412.1,89.2,410.9,88,410.9,86.4z
		"/>
	<path class="st7" d="M421.6,86v3.1h-1.2v-0.6c-0.3,0.5-0.9,0.7-1.7,0.7c-1.2,0-2-0.7-2-1.6c0-0.9,0.6-1.6,2.2-1.6h1.4v-0.1
		c0-0.7-0.4-1.2-1.3-1.2c-0.6,0-1.2,0.2-1.6,0.5l-0.5-0.9c0.6-0.4,1.4-0.7,2.3-0.7C420.7,83.7,421.6,84.4,421.6,86z M420.3,87.4
		v-0.6h-1.3c-0.8,0-1.1,0.3-1.1,0.7c0,0.4,0.4,0.7,1,0.7C419.6,88.3,420.1,88,420.3,87.4z"/>
	<path class="st7" d="M426.4,88.8c-0.3,0.2-0.8,0.4-1.2,0.4c-1.2,0-1.8-0.6-1.8-1.8v-2.6h-0.9v-1h0.9v-1.2h1.2v1.2h1.4v1h-1.4v2.5
		c0,0.5,0.3,0.8,0.7,0.8c0.3,0,0.5-0.1,0.7-0.2L426.4,88.8z"/>
	<path class="st7" d="M427.3,82.1c0-0.4,0.3-0.7,0.8-0.7s0.8,0.3,0.8,0.7c0,0.4-0.3,0.8-0.8,0.8C427.6,82.9,427.3,82.6,427.3,82.1z
		 M427.4,83.8h1.2v5.3h-1.2V83.8z"/>
	<path class="st7" d="M429.9,86.4c0-1.6,1.2-2.7,2.8-2.7c1.7,0,2.8,1.1,2.8,2.7s-1.2,2.7-2.8,2.7C431.1,89.2,429.9,88,429.9,86.4z
		 M434.3,86.4c0-1-0.7-1.7-1.6-1.7c-0.9,0-1.6,0.6-1.6,1.7s0.7,1.7,1.6,1.7C433.6,88.1,434.3,87.5,434.3,86.4z"/>
	<path class="st7" d="M442,86v3.1h-1.2v-2.9c0-0.9-0.5-1.4-1.3-1.4c-0.9,0-1.5,0.5-1.5,1.6v2.7h-1.2v-5.3h1.2v0.7
		c0.4-0.5,1.1-0.7,1.8-0.7C441.1,83.7,442,84.4,442,86z"/>
</g>
<g>
	<path d="M355.3,96.9h0.5v4.9h-0.5V96.9z"/>
	<path d="M359.2,101.6c-0.2,0.2-0.5,0.3-0.8,0.3c-0.7,0-1.1-0.4-1.1-1.1v-2.2h-0.7v-0.4h0.7v-0.8h0.5v0.8h1.1v0.4h-1.1v2.2
		c0,0.4,0.2,0.7,0.6,0.7c0.2,0,0.4-0.1,0.5-0.2L359.2,101.6z"/>
	<path d="M361.9,97c0-0.2,0.2-0.4,0.4-0.4s0.4,0.2,0.4,0.3c0,0.2-0.2,0.4-0.4,0.4C362,97.3,361.9,97.2,361.9,97z M362,98.1h0.5v3.7
		H362V98.1z"/>
	<path d="M367.2,99.7v2.1h-0.5v-2.1c0-0.8-0.4-1.2-1.1-1.2c-0.8,0-1.3,0.5-1.3,1.3v1.9h-0.5v-3.7h0.5v0.7c0.3-0.4,0.8-0.7,1.4-0.7
		C366.6,98.1,367.2,98.6,367.2,99.7z"/>
	<path d="M368.2,100c0-1.1,0.8-1.9,1.9-1.9c0.6,0,1.1,0.2,1.4,0.7l-0.4,0.3c-0.3-0.4-0.6-0.5-1.1-0.5c-0.8,0-1.4,0.6-1.4,1.4
		c0,0.9,0.6,1.4,1.4,1.4c0.4,0,0.8-0.2,1.1-0.5l0.4,0.3c-0.3,0.5-0.8,0.7-1.4,0.7C369,101.9,368.2,101.1,368.2,100z"/>
	<path d="M372.5,96.6h0.5v5.2h-0.5V96.6z"/>
	<path d="M377.7,98.1v3.7h-0.5v-0.7c-0.3,0.4-0.7,0.7-1.3,0.7c-0.9,0-1.6-0.5-1.6-1.6v-2.1h0.5v2.1c0,0.8,0.4,1.2,1.1,1.2
		c0.8,0,1.3-0.5,1.3-1.3v-1.9H377.7z"/>
	<path d="M382.4,96.6v5.2H382v-0.7c-0.3,0.5-0.8,0.8-1.4,0.8c-1.1,0-1.8-0.8-1.8-1.9c0-1.1,0.8-1.9,1.8-1.9c0.6,0,1.1,0.3,1.4,0.7
		v-2.2H382.4z M382,100c0-0.9-0.6-1.4-1.4-1.4c-0.8,0-1.4,0.6-1.4,1.4s0.6,1.4,1.4,1.4C381.4,101.4,382,100.8,382,100z"/>
	<path d="M387,100.1H384c0.1,0.8,0.6,1.3,1.4,1.3c0.4,0,0.8-0.2,1.1-0.5l0.3,0.3c-0.3,0.4-0.8,0.6-1.4,0.6c-1.1,0-1.9-0.8-1.9-1.9
		s0.8-1.9,1.8-1.9c1,0,1.8,0.8,1.8,1.9C387,100,387,100.1,387,100.1z M384,99.8h2.6c-0.1-0.7-0.6-1.2-1.3-1.2
		C384.5,98.5,384,99,384,99.8z"/>
	<path d="M387.5,101.4l0.2-0.4c0.3,0.2,0.8,0.4,1.3,0.4c0.7,0,1-0.2,1-0.6c0-1-2.4-0.2-2.4-1.7c0-0.6,0.5-1.1,1.5-1.1
		c0.5,0,1,0.1,1.3,0.3l-0.2,0.4c-0.3-0.2-0.7-0.3-1.1-0.3c-0.7,0-1,0.3-1,0.6c0,1,2.4,0.2,2.4,1.7c0,0.6-0.6,1.1-1.5,1.1
		C388.4,101.9,387.9,101.7,387.5,101.4z"/>
	<path d="M397.1,100c0,1.1-0.8,1.9-1.8,1.9c-0.6,0-1.1-0.3-1.4-0.8v0.7h-0.5v-5.2h0.5v2.2c0.3-0.5,0.8-0.7,1.4-0.7
		C396.3,98.1,397.1,98.9,397.1,100z M396.6,100c0-0.9-0.6-1.4-1.4-1.4c-0.8,0-1.4,0.6-1.4,1.4s0.6,1.4,1.4,1.4
		C396,101.4,396.6,100.8,396.6,100z"/>
	<path d="M397.7,100c0-1.1,0.8-1.9,1.9-1.9c1.1,0,1.9,0.8,1.9,1.9s-0.8,1.9-1.9,1.9C398.5,101.9,397.7,101.1,397.7,100z M400.9,100
		c0-0.9-0.6-1.4-1.4-1.4s-1.4,0.6-1.4,1.4s0.6,1.4,1.4,1.4S400.9,100.8,400.9,100z"/>
	<path d="M404.4,101.6c-0.2,0.2-0.5,0.3-0.8,0.3c-0.7,0-1.1-0.4-1.1-1.1v-2.2h-0.7v-0.4h0.7v-0.8h0.5v0.8h1.1v0.4H403v2.2
		c0,0.4,0.2,0.7,0.6,0.7c0.2,0,0.4-0.1,0.5-0.2L404.4,101.6z"/>
	<path d="M408.7,99.7v2.1h-0.5v-2.1c0-0.8-0.4-1.2-1.1-1.2c-0.8,0-1.3,0.5-1.3,1.3v1.9h-0.5v-5.2h0.5v2.2c0.3-0.4,0.8-0.7,1.4-0.7
		C408.1,98.1,408.7,98.6,408.7,99.7z"/>
	<path d="M415.3,99.7v2.1h-0.5v-2.1c0-0.8-0.4-1.2-1.1-1.2c-0.8,0-1.3,0.5-1.3,1.3v1.9h-0.5v-5.2h0.5v2.2c0.3-0.4,0.8-0.7,1.4-0.7
		C414.6,98.1,415.3,98.6,415.3,99.7z"/>
	<path d="M416.5,97c0-0.2,0.2-0.4,0.4-0.4s0.4,0.2,0.4,0.3c0,0.2-0.2,0.4-0.4,0.4C416.7,97.3,416.5,97.2,416.5,97z M416.6,98.1h0.5
		v3.7h-0.5V98.1z"/>
	<path d="M421.9,98.1v3.2c0,1.3-0.6,1.8-1.8,1.8c-0.7,0-1.3-0.2-1.7-0.6l0.3-0.4c0.4,0.3,0.9,0.5,1.5,0.5c0.9,0,1.4-0.4,1.4-1.3V101
		c-0.3,0.5-0.8,0.7-1.4,0.7c-1.1,0-1.8-0.7-1.8-1.8s0.8-1.8,1.8-1.8c0.6,0,1.1,0.3,1.5,0.7v-0.7H421.9z M421.4,99.9
		c0-0.8-0.6-1.3-1.4-1.3s-1.4,0.5-1.4,1.3c0,0.8,0.6,1.4,1.4,1.4S421.4,100.7,421.4,99.9z"/>
	<path d="M426.7,99.7v2.1h-0.5v-2.1c0-0.8-0.4-1.2-1.1-1.2c-0.8,0-1.3,0.5-1.3,1.3v1.9h-0.5v-5.2h0.5v2.2c0.3-0.4,0.8-0.7,1.4-0.7
		C426.1,98.1,426.7,98.6,426.7,99.7z"/>
	<path d="M431.3,100.1h-3.1c0.1,0.8,0.6,1.3,1.4,1.3c0.4,0,0.8-0.2,1.1-0.5l0.3,0.3c-0.3,0.4-0.8,0.6-1.4,0.6
		c-1.1,0-1.9-0.8-1.9-1.9s0.8-1.9,1.8-1.9c1,0,1.8,0.8,1.8,1.9C431.3,100,431.3,100.1,431.3,100.1z M428.2,99.8h2.6
		c-0.1-0.7-0.6-1.2-1.3-1.2C428.8,98.5,428.2,99,428.2,99.8z"/>
	<path d="M434.1,98.1v0.5c0,0-0.1,0-0.1,0c-0.8,0-1.2,0.5-1.2,1.4v1.9h-0.5v-3.7h0.5v0.7C433,98.4,433.4,98.1,434.1,98.1z"/>
	<path d="M353.5,110.1h-3.1c0.1,0.8,0.6,1.3,1.4,1.3c0.4,0,0.8-0.2,1.1-0.5l0.3,0.3c-0.3,0.4-0.8,0.6-1.4,0.6
		c-1.1,0-1.9-0.8-1.9-1.9s0.8-1.9,1.8-1.9c1,0,1.8,0.8,1.8,1.9C353.5,110,353.5,110.1,353.5,110.1z M350.4,109.8h2.6
		c-0.1-0.7-0.6-1.2-1.3-1.2C351,108.5,350.5,109,350.4,109.8z"/>
	<path d="M357.9,106.6v5.2h-0.5v-0.7c-0.3,0.5-0.8,0.8-1.4,0.8c-1.1,0-1.8-0.8-1.8-1.9c0-1.1,0.8-1.9,1.8-1.9c0.6,0,1.1,0.3,1.4,0.7
		v-2.2H357.9z M357.4,110c0-0.9-0.6-1.4-1.4-1.4c-0.8,0-1.4,0.6-1.4,1.4s0.6,1.4,1.4,1.4C356.8,111.4,357.4,110.8,357.4,110z"/>
	<path d="M362.6,108.1v3.7h-0.5v-0.7c-0.3,0.4-0.7,0.7-1.3,0.7c-0.9,0-1.6-0.5-1.6-1.6v-2.1h0.5v2.1c0,0.8,0.4,1.2,1.1,1.2
		c0.8,0,1.3-0.5,1.3-1.3v-1.9H362.6z"/>
	<path d="M363.6,110c0-1.1,0.8-1.9,1.9-1.9c0.6,0,1.1,0.2,1.4,0.7l-0.4,0.3c-0.3-0.4-0.6-0.5-1.1-0.5c-0.8,0-1.4,0.6-1.4,1.4
		c0,0.9,0.6,1.4,1.4,1.4c0.4,0,0.8-0.2,1.1-0.5l0.4,0.3c-0.3,0.5-0.8,0.7-1.4,0.7C364.4,111.9,363.6,111.1,363.6,110z"/>
	<path d="M370.7,109.5v2.3h-0.5v-0.6c-0.2,0.4-0.7,0.6-1.3,0.6c-0.8,0-1.3-0.4-1.3-1.1c0-0.6,0.4-1,1.4-1h1.2v-0.2c0-0.6-0.4-1-1-1
		c-0.5,0-0.9,0.2-1.2,0.4l-0.2-0.4c0.4-0.3,0.9-0.5,1.5-0.5C370.1,108.1,370.7,108.6,370.7,109.5z M370.2,110.7v-0.6H369
		c-0.7,0-0.9,0.3-0.9,0.7c0,0.4,0.3,0.7,0.9,0.7C369.6,111.5,370,111.2,370.2,110.7z"/>
	<path d="M374,111.6c-0.2,0.2-0.5,0.3-0.8,0.3c-0.7,0-1.1-0.4-1.1-1.1v-2.2h-0.7v-0.4h0.7v-0.8h0.5v0.8h1.1v0.4h-1.1v2.2
		c0,0.4,0.2,0.7,0.6,0.7c0.2,0,0.4-0.1,0.5-0.2L374,111.6z"/>
	<path d="M374.8,107c0-0.2,0.2-0.4,0.4-0.4s0.4,0.2,0.4,0.3c0,0.2-0.2,0.4-0.4,0.4C374.9,107.3,374.8,107.2,374.8,107z M374.9,108.1
		h0.5v3.7h-0.5V108.1z"/>
	<path d="M376.4,110c0-1.1,0.8-1.9,1.9-1.9c1.1,0,1.9,0.8,1.9,1.9s-0.8,1.9-1.9,1.9C377.2,111.9,376.4,111.1,376.4,110z M379.6,110
		c0-0.9-0.6-1.4-1.4-1.4c-0.8,0-1.4,0.6-1.4,1.4s0.6,1.4,1.4,1.4C379,111.4,379.6,110.8,379.6,110z"/>
	<path d="M384.5,109.7v2.1H384v-2.1c0-0.8-0.4-1.2-1.1-1.2c-0.8,0-1.3,0.5-1.3,1.3v1.9h-0.5v-3.7h0.5v0.7c0.3-0.4,0.8-0.7,1.4-0.7
		C383.9,108.1,384.5,108.6,384.5,109.7z"/>
	<path d="M390.5,109.5v2.3H390v-0.6c-0.2,0.4-0.7,0.6-1.3,0.6c-0.8,0-1.3-0.4-1.3-1.1c0-0.6,0.4-1,1.4-1h1.2v-0.2c0-0.6-0.4-1-1-1
		c-0.5,0-0.9,0.2-1.2,0.4l-0.2-0.4c0.4-0.3,0.9-0.5,1.5-0.5C389.9,108.1,390.5,108.6,390.5,109.5z M390,110.7v-0.6h-1.2
		c-0.7,0-0.9,0.3-0.9,0.7c0,0.4,0.3,0.7,0.9,0.7C389.4,111.5,389.8,111.2,390,110.7z"/>
	<path d="M395.2,109.7v2.1h-0.5v-2.1c0-0.8-0.4-1.2-1.1-1.2c-0.8,0-1.3,0.5-1.3,1.3v1.9h-0.5v-3.7h0.5v0.7c0.3-0.4,0.8-0.7,1.4-0.7
		C394.6,108.1,395.2,108.6,395.2,109.7z"/>
	<path d="M400,106.6v5.2h-0.5v-0.7c-0.3,0.5-0.8,0.8-1.4,0.8c-1.1,0-1.8-0.8-1.8-1.9c0-1.1,0.8-1.9,1.8-1.9c0.6,0,1.1,0.3,1.4,0.7
		v-2.2H400z M399.5,110c0-0.9-0.6-1.4-1.4-1.4c-0.8,0-1.4,0.6-1.4,1.4s0.6,1.4,1.4,1.4C398.9,111.4,399.5,110.8,399.5,110z"/>
	<path d="M407.4,106.9l-2.2,4.9h-0.5l-2.2-4.9h0.6l1.9,4.3l1.9-4.3H407.4z"/>
	<path d="M407.3,110c0-1.1,0.8-1.9,1.9-1.9c1.1,0,1.9,0.8,1.9,1.9s-0.8,1.9-1.9,1.9C408.1,111.9,407.3,111.1,407.3,110z M410.5,110
		c0-0.9-0.6-1.4-1.4-1.4c-0.8,0-1.4,0.6-1.4,1.4s0.6,1.4,1.4,1.4C410,111.4,410.5,110.8,410.5,110z"/>
	<path d="M411.7,110c0-1.1,0.8-1.9,1.9-1.9c0.6,0,1.1,0.2,1.4,0.7l-0.4,0.3c-0.3-0.4-0.6-0.5-1.1-0.5c-0.8,0-1.4,0.6-1.4,1.4
		c0,0.9,0.6,1.4,1.4,1.4c0.4,0,0.8-0.2,1.1-0.5l0.4,0.3c-0.3,0.5-0.8,0.7-1.4,0.7C412.5,111.9,411.7,111.1,411.7,110z"/>
	<path d="M418.8,109.5v2.3h-0.5v-0.6c-0.2,0.4-0.7,0.6-1.3,0.6c-0.8,0-1.3-0.4-1.3-1.1c0-0.6,0.4-1,1.4-1h1.2v-0.2c0-0.6-0.4-1-1-1
		c-0.5,0-0.9,0.2-1.2,0.4l-0.2-0.4c0.4-0.3,0.9-0.5,1.5-0.5C418.2,108.1,418.8,108.6,418.8,109.5z M418.3,110.7v-0.6h-1.2
		c-0.7,0-0.9,0.3-0.9,0.7c0,0.4,0.3,0.7,0.9,0.7C417.7,111.5,418.1,111.2,418.3,110.7z"/>
	<path d="M422.1,111.6c-0.2,0.2-0.5,0.3-0.8,0.3c-0.7,0-1.1-0.4-1.1-1.1v-2.2h-0.7v-0.4h0.7v-0.8h0.5v0.8h1.1v0.4h-1.1v2.2
		c0,0.4,0.2,0.7,0.6,0.7c0.2,0,0.4-0.1,0.5-0.2L422.1,111.6z"/>
	<path d="M422.9,107c0-0.2,0.2-0.4,0.4-0.4s0.4,0.2,0.4,0.3c0,0.2-0.2,0.4-0.4,0.4C423,107.3,422.9,107.2,422.9,107z M423,108.1h0.5
		v3.7H423V108.1z"/>
	<path d="M424.5,110c0-1.1,0.8-1.9,1.9-1.9c1.1,0,1.9,0.8,1.9,1.9s-0.8,1.9-1.9,1.9C425.3,111.9,424.5,111.1,424.5,110z M427.7,110
		c0-0.9-0.6-1.4-1.4-1.4c-0.8,0-1.4,0.6-1.4,1.4s0.6,1.4,1.4,1.4C427.1,111.4,427.7,110.8,427.7,110z"/>
	<path d="M432.6,109.7v2.1h-0.5v-2.1c0-0.8-0.4-1.2-1.1-1.2c-0.8,0-1.3,0.5-1.3,1.3v1.9h-0.5v-3.7h0.5v0.7c0.3-0.4,0.8-0.7,1.4-0.7
		C432,108.1,432.6,108.6,432.6,109.7z"/>
	<path d="M436.8,109.5v2.3h-0.5v-0.6c-0.2,0.4-0.7,0.6-1.3,0.6c-0.8,0-1.3-0.4-1.3-1.1c0-0.6,0.4-1,1.4-1h1.2v-0.2c0-0.6-0.4-1-1-1
		c-0.5,0-0.9,0.2-1.2,0.4l-0.2-0.4c0.4-0.3,0.9-0.5,1.5-0.5C436.2,108.1,436.8,108.6,436.8,109.5z M436.3,110.7v-0.6h-1.2
		c-0.7,0-0.9,0.3-0.9,0.7c0,0.4,0.3,0.7,0.9,0.7C435.7,111.5,436.1,111.2,436.3,110.7z"/>
	<path d="M438.1,106.6h0.5v5.2h-0.5V106.6z"/>
	<path d="M358,120.1h-3.1c0.1,0.8,0.6,1.3,1.4,1.3c0.4,0,0.8-0.2,1.1-0.5l0.3,0.3c-0.3,0.4-0.8,0.6-1.4,0.6c-1.1,0-1.9-0.8-1.9-1.9
		s0.8-1.9,1.8-1.9c1,0,1.8,0.8,1.8,1.9C358,120,358,120.1,358,120.1z M354.9,119.8h2.6c-0.1-0.7-0.6-1.2-1.3-1.2
		C355.5,118.5,355,119,354.9,119.8z"/>
	<path d="M362.4,116.6v5.2h-0.5v-0.7c-0.3,0.5-0.8,0.8-1.4,0.8c-1.1,0-1.8-0.8-1.8-1.9c0-1.1,0.8-1.9,1.8-1.9c0.6,0,1.1,0.3,1.4,0.7
		v-2.2H362.4z M361.9,120c0-0.9-0.6-1.4-1.4-1.4c-0.8,0-1.4,0.6-1.4,1.4s0.6,1.4,1.4,1.4C361.3,121.4,361.9,120.8,361.9,120z"/>
	<path d="M367.1,118.1v3.7h-0.5v-0.7c-0.3,0.4-0.7,0.7-1.3,0.7c-0.9,0-1.6-0.5-1.6-1.6v-2.1h0.5v2.1c0,0.8,0.4,1.2,1.1,1.2
		c0.8,0,1.3-0.5,1.3-1.3v-1.9H367.1z"/>
	<path d="M368.1,120c0-1.1,0.8-1.9,1.9-1.9c0.6,0,1.1,0.2,1.4,0.7l-0.4,0.3c-0.3-0.4-0.6-0.5-1.1-0.5c-0.8,0-1.4,0.6-1.4,1.4
		c0,0.9,0.6,1.4,1.4,1.4c0.4,0,0.8-0.2,1.1-0.5l0.4,0.3c-0.3,0.5-0.8,0.7-1.4,0.7C368.9,121.9,368.1,121.1,368.1,120z"/>
	<path d="M375.2,119.5v2.3h-0.5v-0.6c-0.2,0.4-0.7,0.6-1.3,0.6c-0.8,0-1.3-0.4-1.3-1.1c0-0.6,0.4-1,1.4-1h1.2v-0.2c0-0.6-0.4-1-1-1
		c-0.5,0-0.9,0.2-1.2,0.4l-0.2-0.4c0.4-0.3,0.9-0.5,1.5-0.5C374.7,118.1,375.2,118.6,375.2,119.5z M374.7,120.7v-0.6h-1.2
		c-0.7,0-0.9,0.3-0.9,0.7c0,0.4,0.3,0.7,0.9,0.7C374.1,121.5,374.5,121.2,374.7,120.7z"/>
	<path d="M378.5,121.6c-0.2,0.2-0.5,0.3-0.8,0.3c-0.7,0-1.1-0.4-1.1-1.1v-2.2H376v-0.4h0.7v-0.8h0.5v0.8h1.1v0.4h-1.1v2.2
		c0,0.4,0.2,0.7,0.6,0.7c0.2,0,0.4-0.1,0.5-0.2L378.5,121.6z"/>
	<path d="M379.3,117c0-0.2,0.2-0.4,0.4-0.4s0.4,0.2,0.4,0.3c0,0.2-0.2,0.4-0.4,0.4C379.4,117.3,379.3,117.2,379.3,117z M379.4,118.1
		h0.5v3.7h-0.5V118.1z"/>
	<path d="M380.9,120c0-1.1,0.8-1.9,1.9-1.9c1.1,0,1.9,0.8,1.9,1.9s-0.8,1.9-1.9,1.9C381.7,121.9,380.9,121.1,380.9,120z M384.1,120
		c0-0.9-0.6-1.4-1.4-1.4c-0.8,0-1.4,0.6-1.4,1.4s0.6,1.4,1.4,1.4C383.6,121.4,384.1,120.8,384.1,120z"/>
	<path d="M389,119.7v2.1h-0.5v-2.1c0-0.8-0.4-1.2-1.1-1.2c-0.8,0-1.3,0.5-1.3,1.3v1.9h-0.5v-3.7h0.5v0.7c0.3-0.4,0.8-0.7,1.4-0.7
		C388.4,118.1,389,118.6,389,119.7z"/>
	<path d="M395,119.5v2.3h-0.5v-0.6c-0.2,0.4-0.7,0.6-1.3,0.6c-0.8,0-1.3-0.4-1.3-1.1c0-0.6,0.4-1,1.4-1h1.2v-0.2c0-0.6-0.4-1-1-1
		c-0.5,0-0.9,0.2-1.2,0.4l-0.2-0.4c0.4-0.3,0.9-0.5,1.5-0.5C394.5,118.1,395,118.6,395,119.5z M394.5,120.7v-0.6h-1.2
		c-0.7,0-0.9,0.3-0.9,0.7c0,0.4,0.3,0.7,0.9,0.7C393.9,121.5,394.3,121.2,394.5,120.7z"/>
	<path d="M399.8,119.7v2.1h-0.5v-2.1c0-0.8-0.4-1.2-1.1-1.2c-0.8,0-1.3,0.5-1.3,1.3v1.9h-0.5v-3.7h0.5v0.7c0.3-0.4,0.8-0.7,1.4-0.7
		C399.1,118.1,399.8,118.6,399.8,119.7z"/>
	<path d="M404.5,116.6v5.2H404v-0.7c-0.3,0.5-0.8,0.8-1.4,0.8c-1.1,0-1.8-0.8-1.8-1.9c0-1.1,0.8-1.9,1.8-1.9c0.6,0,1.1,0.3,1.4,0.7
		v-2.2H404.5z M404,120c0-0.9-0.6-1.4-1.4-1.4c-0.8,0-1.4,0.6-1.4,1.4s0.6,1.4,1.4,1.4C403.4,121.4,404,120.8,404,120z"/>
	<path d="M409.6,121.6c-0.2,0.2-0.5,0.3-0.8,0.3c-0.7,0-1.1-0.4-1.1-1.1v-2.2h-0.7v-0.4h0.7v-0.8h0.5v0.8h1.1v0.4h-1.1v2.2
		c0,0.4,0.2,0.7,0.6,0.7c0.2,0,0.4-0.1,0.5-0.2L409.6,121.6z"/>
	<path d="M412.4,118.1v0.5c0,0-0.1,0-0.1,0c-0.8,0-1.2,0.5-1.2,1.4v1.9h-0.5v-3.7h0.5v0.7C411.2,118.4,411.7,118.1,412.4,118.1z"/>
	<path d="M416.1,119.5v2.3h-0.5v-0.6c-0.2,0.4-0.7,0.6-1.3,0.6c-0.8,0-1.3-0.4-1.3-1.1c0-0.6,0.4-1,1.4-1h1.2v-0.2c0-0.6-0.4-1-1-1
		c-0.5,0-0.9,0.2-1.2,0.4l-0.2-0.4c0.4-0.3,0.9-0.5,1.5-0.5C415.5,118.1,416.1,118.6,416.1,119.5z M415.6,120.7v-0.6h-1.2
		c-0.7,0-0.9,0.3-0.9,0.7c0,0.4,0.3,0.7,0.9,0.7C415,121.5,415.4,121.2,415.6,120.7z"/>
	<path d="M417.3,117c0-0.2,0.2-0.4,0.4-0.4s0.4,0.2,0.4,0.3c0,0.2-0.2,0.4-0.4,0.4C417.5,117.3,417.3,117.2,417.3,117z M417.4,118.1
		h0.5v3.7h-0.5V118.1z"/>
	<path d="M422.7,119.7v2.1h-0.5v-2.1c0-0.8-0.4-1.2-1.1-1.2c-0.8,0-1.3,0.5-1.3,1.3v1.9h-0.5v-3.7h0.5v0.7c0.3-0.4,0.8-0.7,1.4-0.7
		C422.1,118.1,422.7,118.6,422.7,119.7z"/>
	<path d="M423.9,117c0-0.2,0.2-0.4,0.4-0.4s0.4,0.2,0.4,0.3c0,0.2-0.2,0.4-0.4,0.4C424.1,117.3,423.9,117.2,423.9,117z M424,118.1
		h0.5v3.7H424V118.1z"/>
	<path d="M429.3,119.7v2.1h-0.5v-2.1c0-0.8-0.4-1.2-1.1-1.2c-0.8,0-1.3,0.5-1.3,1.3v1.9h-0.5v-3.7h0.5v0.7c0.3-0.4,0.8-0.7,1.4-0.7
		C428.7,118.1,429.3,118.6,429.3,119.7z"/>
	<path d="M434.1,118.1v3.2c0,1.3-0.6,1.8-1.8,1.8c-0.7,0-1.3-0.2-1.7-0.6l0.3-0.4c0.4,0.3,0.9,0.5,1.5,0.5c0.9,0,1.4-0.4,1.4-1.3
		V121c-0.3,0.5-0.8,0.7-1.4,0.7c-1.1,0-1.8-0.7-1.8-1.8s0.8-1.8,1.8-1.8c0.6,0,1.1,0.3,1.5,0.7v-0.7H434.1z M433.6,119.9
		c0-0.8-0.6-1.3-1.4-1.3s-1.4,0.5-1.4,1.3c0,0.8,0.6,1.4,1.4,1.4S433.6,120.7,433.6,119.9z"/>
	<path d="M386.1,129.9c0-1.3,0.3-2.4,0.8-3.3h0.5c-0.6,1-0.8,2-0.8,3.3c0,1.2,0.2,2.3,0.8,3.3h-0.5
		C386.4,132.3,386.1,131.2,386.1,129.9z"/>
	<path d="M392.6,126.9l-2.2,4.9h-0.5l-2.2-4.9h0.6l1.9,4.3l1.9-4.3H392.6z"/>
	<path d="M396.7,131.4v0.4h-3.5v-4.9h3.4v0.4h-2.8v1.7h2.5v0.4h-2.5v1.8H396.7z"/>
	<path d="M398.9,127.4h-1.7v-0.4h4v0.4h-1.7v4.5h-0.5V127.4z"/>
	<path d="M401.5,133.2c0.6-1,0.8-2,0.8-3.3c0-1.2-0.2-2.3-0.8-3.3h0.5c0.5,0.8,0.8,2,0.8,3.3s-0.3,2.4-0.8,3.3H401.5z"/>
</g>
</svg>
