<?xml version="1.0" encoding="utf-8"?>
<!-- Generator: Adobe Illustrator 27.0.1, SVG Export Plug-In . SVG Version: 6.00 Build 0)  -->
<svg version="1.1" id="Layer_1" xmlns="http://www.w3.org/2000/svg" xmlns:xlink="http://www.w3.org/1999/xlink" x="0px" y="0px"
	 viewBox="0 0 524.2 419.2" style="enable-background:new 0 0 524.2 419.2;" xml:space="preserve">
<style type="text/css">
	.st0{fill-rule:evenodd;clip-rule:evenodd;fill:#EAEEF9;}
	.st1{fill-rule:evenodd;clip-rule:evenodd;fill:#A6B7DF;}
	.st2{fill-rule:evenodd;clip-rule:evenodd;fill:#7C96CD;}
	
		.st3{fill-rule:evenodd;clip-rule:evenodd;fill:none;stroke:#244093;stroke-width:0.5139;stroke-miterlimit:2.6131;stroke-dasharray:1.0278,0.5139;}
	
		.st4{fill-rule:evenodd;clip-rule:evenodd;fill:none;stroke:#244093;stroke-width:0.4717;stroke-miterlimit:2.6131;stroke-dasharray:0.9434,0.4717;}
	.st5{fill:#133B79;}
	.st6{fill-rule:evenodd;clip-rule:evenodd;fill:#133B79;}
	
		.st7{fill-rule:evenodd;clip-rule:evenodd;fill:none;stroke:#008BD2;stroke-width:0.5139;stroke-miterlimit:2.6131;stroke-dasharray:1.0278,0.5139;}
	.st8{fill:#E51B21;}
	.st9{fill-rule:evenodd;clip-rule:evenodd;fill:#F3987A;}
	.st10{fill-rule:evenodd;clip-rule:evenodd;fill:#F08162;}
	.st11{fill-rule:evenodd;clip-rule:evenodd;fill:#ED694A;}
	.st12{fill-rule:evenodd;clip-rule:evenodd;fill:#EA4E34;}
	.st13{fill-rule:evenodd;clip-rule:evenodd;fill:#E63121;}
	.st14{fill-rule:evenodd;clip-rule:evenodd;fill:#E51B21;}
	
		.st15{fill-rule:evenodd;clip-rule:evenodd;fill:none;stroke:#FFFFFF;stroke-width:0.5136;stroke-miterlimit:2.6131;stroke-dasharray:1.0273,0.5136;}
	
		.st16{fill-rule:evenodd;clip-rule:evenodd;fill:none;stroke:#133B79;stroke-width:0.9278;stroke-miterlimit:2.6131;stroke-dasharray:1.8556,0.9278;}
	
		.st17{fill-rule:evenodd;clip-rule:evenodd;fill:none;stroke:#133B79;stroke-width:0.9272;stroke-miterlimit:2.6131;stroke-dasharray:1.8544,0.9272;}
	
		.st18{fill-rule:evenodd;clip-rule:evenodd;fill:none;stroke:#133B79;stroke-width:0.9558;stroke-miterlimit:2.6131;stroke-dasharray:1.9117,0.9558;}
	
		.st19{fill-rule:evenodd;clip-rule:evenodd;fill:none;stroke:#133B79;stroke-width:0.9275;stroke-miterlimit:2.6131;stroke-dasharray:1.855,0.9275;}
	.st20{fill-rule:evenodd;clip-rule:evenodd;fill:none;stroke:#133B79;stroke-width:1.5744;stroke-miterlimit:2.6131;}
	.st21{fill:#FFFFFF;}
	.st22{fill-rule:evenodd;clip-rule:evenodd;fill:#E3000F;}
	.st23{fill-rule:evenodd;clip-rule:evenodd;fill:none;stroke:#133B79;stroke-width:0.9998;stroke-miterlimit:2.6131;}
</style>
<polygon class="st0" points="241.1,419.2 59.7,419.2 59.7,337.7 153.2,337.7 153.2,323.7 241.1,323.7 241.1,337.7 241.1,354.9 "/>
<polygon class="st1" points="149,333.5 59.7,333.5 59.7,252.1 149,252.1 149,279.2 241.1,279.2 241.1,319.9 149,319.9 "/>
<polygon class="st2" points="241.1,226.4 59.7,226.4 59.7,182.9 150.4,182.9 150.4,168.3 241.1,168.3 "/>
<line class="st3" x1="40.2" y1="211.9" x2="241.1" y2="211.9"/>
<line class="st3" x1="40.2" y1="197.4" x2="241.1" y2="197.4"/>
<line class="st3" x1="40.2" y1="182.9" x2="241.1" y2="182.9"/>
<g>
	<line class="st3" x1="40.2" y1="319.9" x2="241.1" y2="319.9"/>
	<line class="st3" x1="40.2" y1="306.4" x2="241.1" y2="306.4"/>
	<line class="st3" x1="40.2" y1="292.8" x2="241.1" y2="292.8"/>
	<line class="st3" x1="40.2" y1="279.2" x2="241.1" y2="279.2"/>
	<line class="st4" x1="40.2" y1="265.7" x2="224.6" y2="265.7"/>
</g>
<g>
	<line class="st3" x1="40.2" y1="405.6" x2="241.1" y2="405.6"/>
	<line class="st3" x1="40.2" y1="392" x2="241.1" y2="392"/>
	<line class="st3" x1="40.2" y1="378.4" x2="241.1" y2="378.4"/>
	<line class="st3" x1="40.2" y1="364.9" x2="241.1" y2="364.9"/>
	<line class="st3" x1="40.2" y1="351.3" x2="241.1" y2="351.3"/>
	<line class="st3" x1="40.2" y1="337.7" x2="241.1" y2="337.7"/>
</g>
<g>
	<path class="st5" d="M135.4,383.8c0,1.7-1.3,2.7-3.3,2.7h-1.7v2.2H129V381h3.2C134.2,381,135.4,382.1,135.4,383.8z M134,383.8
		c0-1-0.6-1.5-1.9-1.5h-1.7v3.1h1.7C133.3,385.3,134,384.7,134,383.8z"/>
	<path class="st5" d="M140.1,382.8v1.3c-0.1,0-0.2,0-0.3,0c-1,0-1.7,0.6-1.7,1.8v2.8h-1.4v-5.9h1.3v0.9
		C138.4,383.1,139.1,382.8,140.1,382.8z"/>
	<path class="st5" d="M141,381.1c0-0.5,0.4-0.8,0.9-0.8s0.9,0.3,0.9,0.8c0,0.5-0.4,0.9-0.9,0.9C141.4,381.9,141,381.5,141,381.1z
		 M141.2,382.8h1.4v5.9h-1.4V382.8z"/>
	<path class="st5" d="M154.2,385.4v3.4h-1.4v-3.2c0-1-0.5-1.6-1.3-1.6c-0.9,0-1.5,0.6-1.5,1.8v3h-1.4v-3.2c0-1-0.5-1.6-1.3-1.6
		c-0.9,0-1.5,0.6-1.5,1.8v3h-1.4v-5.9h1.3v0.7c0.4-0.5,1.1-0.8,1.9-0.8c0.9,0,1.6,0.3,2,1c0.5-0.6,1.3-1,2.2-1
		C153.2,382.8,154.2,383.6,154.2,385.4z"/>
	<path class="st5" d="M160.9,385.3v3.4h-1.3V388c-0.3,0.5-1,0.8-1.8,0.8c-1.3,0-2.2-0.7-2.2-1.8c0-1,0.7-1.7,2.4-1.7h1.5v-0.1
		c0-0.8-0.5-1.3-1.5-1.3c-0.7,0-1.3,0.2-1.8,0.6l-0.5-1c0.6-0.5,1.5-0.7,2.5-0.7C159.9,382.8,160.9,383.6,160.9,385.3z M159.5,386.9
		v-0.7h-1.4c-0.9,0-1.2,0.4-1.2,0.8c0,0.5,0.4,0.8,1.1,0.8C158.7,387.8,159.3,387.5,159.5,386.9z"/>
	<path class="st5" d="M166.1,382.8v1.3c-0.1,0-0.2,0-0.3,0c-1,0-1.7,0.6-1.7,1.8v2.8h-1.4v-5.9h1.3v0.9
		C164.4,383.1,165.1,382.8,166.1,382.8z"/>
	<path class="st5" d="M172.9,382.8l-2.8,6.3c-0.5,1.3-1.3,1.7-2.3,1.7c-0.6,0-1.2-0.2-1.6-0.5l0.6-1c0.3,0.3,0.6,0.4,1,0.4
		c0.5,0,0.8-0.2,1-0.8l0.1-0.2l-2.6-5.9h1.4l1.8,4.3l1.9-4.3H172.9z"/>
</g>
<polygon class="st6" points="331,298.4 334.1,300.8 331,303.2 "/>
<polygon class="st6" points="331,280.7 334.1,283.1 331,285.5 "/>
<polygon class="st6" points="331,263.5 334.1,265.9 331,268.3 "/>
<polygon class="st6" points="331,250.1 334.1,252.5 331,254.9 "/>
<polygon class="st6" points="248.1,197.1 245,199.5 248.1,201.9 "/>
<polygon class="st6" points="248.1,180.5 245,182.9 248.1,185.3 "/>
<polygon class="st6" points="345.8,166 348.8,168.4 345.8,170.8 "/>
<polygon class="st6" points="127.3,230.6 124.9,227.5 122.5,230.6 "/>
<line class="st7" x1="40.2" y1="168.3" x2="241.1" y2="168.3"/>
<g>
	<path class="st8" d="M6.2,315.9h2.5v1.3H6.2l-4.7,2.8v-1.4l3.5-2.1l-3.5-2.1v-1.3L6.2,315.9z"/>
	<path class="st8" d="M6.4,307.8v4.3c0.8-0.2,1.3-0.8,1.3-1.8c0-0.6-0.2-1.1-0.6-1.5l0.8-0.7c0.6,0.5,0.9,1.3,0.9,2.2
		c0,1.8-1.2,3-2.8,3s-2.8-1.2-2.8-2.8c0-1.6,1.1-2.8,2.8-2.8C6.1,307.8,6.3,307.8,6.4,307.8z M5.5,312.1V309
		c-0.8,0.1-1.3,0.7-1.3,1.5C4.2,311.4,4.7,312,5.5,312.1z"/>
	<path class="st8" d="M5.5,302.1h3.2v1.2H8.1c0.5,0.3,0.7,0.9,0.7,1.7c0,1.3-0.7,2-1.6,2c-0.9,0-1.6-0.6-1.6-2.3v-1.4H5.4
		c-0.7,0-1.2,0.5-1.2,1.4c0,0.6,0.2,1.3,0.5,1.7l-0.9,0.5c-0.5-0.6-0.7-1.4-0.7-2.3C3.2,303,3.9,302.1,5.5,302.1z M7,303.4H6.4v1.3
		c0,0.9,0.3,1.1,0.7,1.1c0.5,0,0.8-0.4,0.8-1C7.9,304.2,7.6,303.6,7,303.4z"/>
	<path class="st8" d="M3.2,297.3h1.2c0,0.1,0,0.2,0,0.3c0,1,0.6,1.6,1.7,1.6h2.7v1.3H3.2v-1.2H4C3.5,298.9,3.2,298.2,3.2,297.3z"/>
	<path class="st8" d="M8.2,296.8l-1-0.5c0.3-0.5,0.5-1.2,0.5-1.9c0-0.8-0.2-1.2-0.6-1.2c-1,0-0.1,3.4-2.2,3.4c-1,0-1.7-0.9-1.7-2.4
		c0-0.7,0.2-1.6,0.5-2.1l1,0.5c-0.3,0.5-0.4,1-0.4,1.6c0,0.8,0.3,1.2,0.6,1.2c1.1,0,0.1-3.4,2.3-3.4c1,0,1.7,0.9,1.7,2.5
		C8.8,295.4,8.5,296.3,8.2,296.8z"/>
	<path class="st8" d="M6,288.5c-1.6,0-2.8-1.2-2.8-2.9c0-1.7,1.2-2.9,2.8-2.9s2.8,1.2,2.8,2.9C8.8,287.3,7.6,288.5,6,288.5z M6,284
		c-1,0-1.7,0.7-1.7,1.6c0,0.9,0.7,1.6,1.7,1.6c1,0,1.7-0.7,1.7-1.6C7.7,284.7,7,284,6,284z"/>
	<path class="st8" d="M3,280h0.3v-1.5h1v1.5h4.4v1.3H4.3v0.9h-1v-0.9H2.9c-1.1,0-1.9-0.7-1.9-2c0-0.4,0.1-0.9,0.3-1.2l1,0.4
		c-0.1,0.2-0.2,0.4-0.2,0.7C2.1,279.7,2.4,280,3,280z"/>
	<path class="st8" d="M8.2,275.4l-1-0.5c0.3-0.5,0.5-1.2,0.5-1.9c0-0.8-0.2-1.2-0.6-1.2c-1,0-0.1,3.4-2.2,3.4c-1,0-1.7-0.9-1.7-2.4
		c0-0.7,0.2-1.6,0.5-2.1l1,0.5c-0.3,0.5-0.4,1-0.4,1.6c0,0.8,0.3,1.2,0.6,1.2c1.1,0,0.1-3.4,2.3-3.4c1,0,1.7,0.9,1.7,2.5
		C8.8,274,8.5,274.9,8.2,275.4z"/>
	<path class="st8" d="M8.4,266.2c0.2,0.3,0.4,0.8,0.4,1.2c0,1.2-0.6,1.9-1.8,1.9H4.3v0.9h-1v-0.9H2v-1.3h1.3v-1.5h1v1.5h2.6
		c0.5,0,0.8-0.3,0.8-0.8c0-0.3-0.1-0.5-0.2-0.7L8.4,266.2z"/>
	<path class="st8" d="M3.2,259.9h5.5v1.2H8c0.5,0.4,0.8,1.1,0.8,1.8c0,1.4-0.8,2.4-2.4,2.4H3.2v-1.3h3c1,0,1.5-0.5,1.5-1.3
		c0-0.9-0.6-1.5-1.7-1.5H3.2V259.9z"/>
	<path class="st8" d="M1.1,252.8h7.6v1.2H8c0.5,0.4,0.8,1.1,0.8,1.8c0,1.6-1.1,2.8-2.8,2.8c-1.7,0-2.8-1.2-2.8-2.8
		c0-0.7,0.2-1.3,0.7-1.8H1.1V252.8z M6,254.1c-1,0-1.7,0.7-1.7,1.6s0.7,1.6,1.7,1.6c1,0,1.7-0.7,1.7-1.6S7,254.1,6,254.1z"/>
	<path class="st8" d="M3.2,246l5.9,2.6c1.2,0.5,1.6,1.2,1.6,2.1c0,0.5-0.2,1.1-0.5,1.5l-0.9-0.5c0.2-0.2,0.4-0.6,0.4-0.9
		c0-0.5-0.2-0.7-0.8-1l-0.2-0.1L3.2,252v-1.3l4.1-1.7l-4.1-1.7V246z"/>
</g>
<g>
	<path class="st8" d="M102.8,11h-5.6l-1.1,2.6h-2.1l5-11.2h2l5.1,11.2h-2.2L102.8,11z M102.1,9.4L100,4.5l-2.1,4.9H102.1z"/>
	<path class="st8" d="M115.4,5.1v8.5h-1.9v-1.1c-0.6,0.8-1.6,1.2-2.8,1.2c-2.2,0-3.7-1.2-3.7-3.8V5.1h2v4.6c0,1.6,0.7,2.3,2,2.3
		c1.4,0,2.3-0.9,2.3-2.6V5.1H115.4z"/>
	<path class="st8" d="M117.1,12.8l0.8-1.5c0.8,0.5,1.9,0.8,3,0.8c1.3,0,1.8-0.4,1.8-0.9c0-1.6-5.3-0.1-5.3-3.5
		c0-1.6,1.5-2.7,3.8-2.7c1.1,0,2.4,0.3,3.2,0.7l-0.8,1.5c-0.8-0.5-1.6-0.6-2.4-0.6c-1.2,0-1.8,0.4-1.8,1c0,1.7,5.3,0.2,5.3,3.5
		c0,1.6-1.5,2.6-3.9,2.6C119.2,13.7,117.8,13.3,117.1,12.8z"/>
	<path class="st8" d="M131.4,13.1c-0.5,0.4-1.2,0.6-1.9,0.6c-1.9,0-2.9-1-2.9-2.9V6.7h-1.4V5.1h1.4v-2h2v2h2.3v1.6h-2.3v4.1
		c0,0.8,0.4,1.3,1.2,1.3c0.4,0,0.8-0.1,1.1-0.4L131.4,13.1z"/>
	<path class="st8" d="M138,5v1.9c-0.2,0-0.3,0-0.5,0c-1.5,0-2.5,0.9-2.5,2.6v4.1h-2V5.1h1.9v1.2C135.5,5.4,136.6,5,138,5z"/>
	<path class="st8" d="M146.8,8.6v5h-1.9v-1c-0.5,0.7-1.4,1.2-2.7,1.2c-2,0-3.2-1.1-3.2-2.6c0-1.4,1-2.5,3.6-2.5h2.2V8.5
		c0-1.2-0.7-1.9-2.1-1.9c-1,0-2,0.3-2.6,0.8L139.3,6c0.9-0.7,2.2-1.1,3.6-1.1C145.4,5,146.8,6.1,146.8,8.6z M144.8,10.9v-1h-2.1
		c-1.4,0-1.7,0.5-1.7,1.1c0,0.7,0.6,1.2,1.6,1.2C143.6,12.3,144.5,11.8,144.8,10.9z"/>
	<path class="st8" d="M149.4,1.7h2v11.9h-2V1.7z"/>
	<path class="st8" d="M153.7,2.4c0-0.7,0.5-1.2,1.3-1.2s1.3,0.5,1.3,1.2c0,0.7-0.5,1.2-1.3,1.2C154.3,3.6,153.7,3.1,153.7,2.4z
		 M154,5.1h2v8.5h-2V5.1z"/>
	<path class="st8" d="M165.8,8.6v5h-1.9v-1c-0.5,0.7-1.4,1.2-2.7,1.2c-2,0-3.2-1.1-3.2-2.6c0-1.4,1-2.5,3.6-2.5h2.2V8.5
		c0-1.2-0.7-1.9-2.1-1.9c-1,0-2,0.3-2.6,0.8L158.3,6c0.9-0.7,2.2-1.1,3.6-1.1C164.3,5,165.8,6.1,165.8,8.6z M163.8,10.9v-1h-2.1
		c-1.4,0-1.7,0.5-1.7,1.1c0,0.7,0.6,1.2,1.6,1.2C162.6,12.3,163.4,11.8,163.8,10.9z"/>
	<path class="st8" d="M176.7,8.7v4.9h-2V9c0-1.5-0.8-2.3-2-2.3c-1.4,0-2.4,0.9-2.4,2.6v4.3h-2V5.1h1.9v1.1c0.7-0.8,1.7-1.2,2.9-1.2
		C175.2,5,176.7,6.1,176.7,8.7z"/>
	<path class="st8" d="M195.7,14.7c-0.7,0.9-1.7,1.3-2.9,1.3c-1.5,0-2.7-0.6-4.3-2.3c-3.1-0.3-5.4-2.6-5.4-5.7c0-3.3,2.6-5.8,6-5.8
		c3.5,0,6,2.4,6,5.8c0,2.7-1.7,4.8-4.2,5.5c0.6,0.7,1.2,0.9,1.9,0.9c0.7,0,1.4-0.3,1.9-0.9L195.7,14.7z M189.1,11.9
		c2.3,0,3.9-1.6,3.9-3.9c0-2.3-1.7-3.9-3.9-3.9s-3.9,1.6-3.9,3.9C185.2,10.3,186.9,11.9,189.1,11.9z"/>
	<path class="st8" d="M205.4,5.1v8.5h-1.9v-1.1c-0.6,0.8-1.6,1.2-2.8,1.2c-2.2,0-3.7-1.2-3.7-3.8V5.1h2v4.6c0,1.6,0.7,2.3,2,2.3
		c1.4,0,2.3-0.9,2.3-2.6V5.1H205.4z"/>
	<path class="st8" d="M215.2,8.6v5h-1.9v-1c-0.5,0.7-1.4,1.2-2.7,1.2c-2,0-3.2-1.1-3.2-2.6c0-1.4,1-2.5,3.6-2.5h2.2V8.5
		c0-1.2-0.7-1.9-2.1-1.9c-1,0-2,0.3-2.6,0.8L207.7,6c0.9-0.7,2.2-1.1,3.6-1.1C213.8,5,215.2,6.1,215.2,8.6z M213.2,10.9v-1h-2.1
		c-1.4,0-1.7,0.5-1.7,1.1c0,0.7,0.6,1.2,1.6,1.2C212,12.3,212.9,11.8,213.2,10.9z"/>
	<path class="st8" d="M217.8,1.7h2v11.9h-2V1.7z"/>
	<path class="st8" d="M222.1,2.4c0-0.7,0.5-1.2,1.3-1.2s1.3,0.5,1.3,1.2c0,0.7-0.5,1.2-1.3,1.2C222.7,3.6,222.1,3.1,222.1,2.4z
		 M222.4,5.1h2v8.5h-2V5.1z"/>
	<path class="st8" d="M229.2,4.6v0.5h2.4v1.6h-2.3v6.9h-2V6.7h-1.4V5.1h1.4V4.6c0-1.8,1.1-3,3.1-3c0.7,0,1.4,0.1,1.8,0.5l-0.6,1.5
		c-0.3-0.2-0.7-0.4-1.1-0.4C229.7,3.2,229.2,3.7,229.2,4.6z"/>
	<path class="st8" d="M233.9,2.4c0-0.7,0.5-1.2,1.3-1.2s1.3,0.5,1.3,1.2c0,0.7-0.5,1.2-1.3,1.2C234.5,3.6,233.9,3.1,233.9,2.4z
		 M234.2,5.1h2v8.5h-2V5.1z"/>
	<path class="st8" d="M238.1,9.3c0-2.6,1.9-4.4,4.6-4.4c1.7,0,3,0.7,3.6,2l-1.5,0.9c-0.5-0.8-1.3-1.2-2.1-1.2c-1.5,0-2.6,1-2.6,2.7
		c0,1.7,1.1,2.7,2.6,2.7c0.8,0,1.6-0.4,2.1-1.2l1.5,0.9c-0.7,1.3-2,2-3.6,2C240,13.7,238.1,11.9,238.1,9.3z"/>
	<path class="st8" d="M255.3,8.6v5h-1.9v-1c-0.5,0.7-1.4,1.2-2.7,1.2c-2,0-3.2-1.1-3.2-2.6c0-1.4,1-2.5,3.6-2.5h2.2V8.5
		c0-1.2-0.7-1.9-2.1-1.9c-1,0-2,0.3-2.6,0.8L247.8,6c0.9-0.7,2.2-1.1,3.6-1.1C253.9,5,255.3,6.1,255.3,8.6z M253.3,10.9v-1h-2.1
		c-1.4,0-1.7,0.5-1.7,1.1c0,0.7,0.6,1.2,1.6,1.2C252.1,12.3,252.9,11.8,253.3,10.9z"/>
	<path class="st8" d="M263,13.1c-0.5,0.4-1.2,0.6-1.9,0.6c-1.9,0-2.9-1-2.9-2.9V6.7h-1.4V5.1h1.4v-2h2v2h2.3v1.6h-2.3v4.1
		c0,0.8,0.4,1.3,1.2,1.3c0.4,0,0.8-0.1,1.1-0.4L263,13.1z"/>
	<path class="st8" d="M264.3,2.4c0-0.7,0.5-1.2,1.3-1.2s1.3,0.5,1.3,1.2c0,0.7-0.5,1.2-1.3,1.2C264.9,3.6,264.3,3.1,264.3,2.4z
		 M264.6,5.1h2v8.5h-2V5.1z"/>
	<path class="st8" d="M268.5,9.3c0-2.6,1.9-4.4,4.5-4.4c2.7,0,4.6,1.8,4.6,4.4s-1.9,4.4-4.6,4.4C270.5,13.7,268.5,11.9,268.5,9.3z
		 M275.6,9.3c0-1.6-1.1-2.7-2.5-2.7c-1.4,0-2.5,1-2.5,2.7c0,1.6,1.1,2.7,2.5,2.7C274.5,12,275.6,11,275.6,9.3z"/>
	<path class="st8" d="M288,8.7v4.9h-2V9c0-1.5-0.8-2.3-2-2.3c-1.4,0-2.4,0.9-2.4,2.6v4.3h-2V5.1h1.9v1.1c0.7-0.8,1.7-1.2,2.9-1.2
		C286.5,5,288,6.1,288,8.7z"/>
	<path class="st8" d="M297.2,4.1v3.4h5.4v1.8h-5.4v4.3h-2.1V2.4h8.2v1.7H297.2z"/>
	<path class="st8" d="M309.9,5v1.9c-0.2,0-0.3,0-0.5,0c-1.5,0-2.5,0.9-2.5,2.6v4.1h-2V5.1h1.9v1.2C307.5,5.4,308.5,5,309.9,5z"/>
	<path class="st8" d="M318.7,8.6v5h-1.9v-1c-0.5,0.7-1.4,1.2-2.7,1.2c-2,0-3.2-1.1-3.2-2.6c0-1.4,1-2.5,3.6-2.5h2.2V8.5
		c0-1.2-0.7-1.9-2.1-1.9c-1,0-2,0.3-2.6,0.8L311.2,6c0.9-0.7,2.2-1.1,3.6-1.1C317.3,5,318.7,6.1,318.7,8.6z M316.7,10.9v-1h-2.1
		c-1.4,0-1.7,0.5-1.7,1.1c0,0.7,0.6,1.2,1.6,1.2C315.5,12.3,316.4,11.8,316.7,10.9z"/>
	<path class="st8" d="M335.6,8.7v4.9h-2V9c0-1.5-0.7-2.3-1.9-2.3c-1.3,0-2.2,0.9-2.2,2.6v4.3h-2V9c0-1.5-0.7-2.3-1.9-2.3
		c-1.3,0-2.2,0.9-2.2,2.6v4.3h-2V5.1h1.9v1.1c0.6-0.8,1.6-1.2,2.8-1.2c1.2,0,2.3,0.5,2.9,1.4c0.7-0.9,1.8-1.4,3.2-1.4
		C334.1,5,335.6,6.1,335.6,8.7z"/>
	<path class="st8" d="M346.2,10h-6.7c0.2,1.2,1.3,2,2.8,2c1,0,1.7-0.3,2.3-0.9l1.1,1.2c-0.8,0.9-2,1.4-3.4,1.4
		c-2.9,0-4.7-1.8-4.7-4.4c0-2.5,1.9-4.4,4.4-4.4c2.5,0,4.3,1.7,4.3,4.4C346.2,9.5,346.2,9.8,346.2,10z M339.5,8.6h4.9
		c-0.2-1.2-1.1-2.1-2.4-2.1C340.6,6.6,339.7,7.4,339.5,8.6z"/>
	<path class="st8" d="M361.3,5.1l-3.2,8.5h-1.9L354,7.7l-2.2,5.9h-1.9l-3.1-8.5h1.9l2.3,6.3l2.4-6.3h1.7l2.3,6.3l2.3-6.3H361.3z"/>
	<path class="st8" d="M361.8,9.3c0-2.6,1.9-4.4,4.5-4.4c2.7,0,4.6,1.8,4.6,4.4s-1.9,4.4-4.6,4.4C363.7,13.7,361.8,11.9,361.8,9.3z
		 M368.8,9.3c0-1.6-1.1-2.7-2.5-2.7c-1.4,0-2.5,1-2.5,2.7c0,1.6,1.1,2.7,2.5,2.7C367.8,12,368.8,11,368.8,9.3z"/>
	<path class="st8" d="M377.7,5v1.9c-0.2,0-0.3,0-0.5,0c-1.5,0-2.5,0.9-2.5,2.6v4.1h-2V5.1h1.9v1.2C375.3,5.4,376.3,5,377.7,5z"/>
	<path class="st8" d="M382.9,9.9l-1.5,1.4v2.3h-2V1.7h2v7.2l4.1-3.8h2.4l-3.6,3.6l3.9,5h-2.4L382.9,9.9z"/>
	<path class="st8" d="M394,9.2c0-2.9,0.7-5.6,2-7.5h1.9c-1.3,2.3-1.9,4.8-1.9,7.5s0.6,5.2,1.9,7.5H396C394.7,14.8,394,12.2,394,9.2z
		"/>
	<path class="st8" d="M407,11h-5.6l-1.1,2.6h-2.1l5-11.2h2l5.1,11.2h-2.2L407,11z M406.3,9.4l-2.1-4.9l-2.1,4.9H406.3z"/>
	<path class="st8" d="M423.4,14.7c-0.7,0.9-1.7,1.3-2.9,1.3c-1.5,0-2.7-0.6-4.3-2.3c-3.1-0.3-5.4-2.6-5.4-5.7c0-3.3,2.6-5.8,6-5.8
		c3.5,0,6,2.4,6,5.8c0,2.7-1.7,4.8-4.2,5.5c0.6,0.7,1.2,0.9,1.9,0.9c0.7,0,1.4-0.3,1.9-0.9L423.4,14.7z M416.8,11.9
		c2.3,0,3.9-1.6,3.9-3.9c0-2.3-1.7-3.9-3.9-3.9c-2.3,0-3.9,1.6-3.9,3.9C412.9,10.3,414.6,11.9,416.8,11.9z"/>
	<path class="st8" d="M427.1,4.1v3.4h5.4v1.8h-5.4v4.3H425V2.4h8.2v1.7H427.1z"/>
	<path class="st8" d="M434,16.7c1.3-2.3,1.9-4.8,1.9-7.5s-0.6-5.2-1.9-7.5h1.9c1.3,1.9,2,4.5,2,7.5s-0.7,5.6-2,7.5H434z"/>
</g>
<rect x="343.2" y="300" class="st9" width="181.1" height="16"/>
<rect x="343.2" y="284" class="st10" width="181.1" height="16"/>
<rect x="343.2" y="268" class="st11" width="181.1" height="16"/>
<rect x="343.2" y="252" class="st12" width="181.1" height="16"/>
<rect x="343.2" y="236" class="st13" width="181.1" height="16"/>
<rect x="343.2" y="220" class="st14" width="181.1" height="16"/>
<line class="st15" x1="343.2" y1="300" x2="524.2" y2="300"/>
<line class="st15" x1="343.2" y1="284" x2="524.2" y2="284"/>
<line class="st15" x1="343.2" y1="268" x2="524.2" y2="268"/>
<line class="st15" x1="343.2" y1="252" x2="524.2" y2="252"/>
<line class="st15" x1="343.2" y1="236" x2="524.2" y2="236"/>
<polyline class="st16" points="286.7,265.7 286.7,300.8 332.2,300.8 "/>
<line class="st17" x1="331.2" y1="283.1" x2="286.7" y2="283.1"/>
<line class="st18" x1="149" y1="252.1" x2="331.2" y2="252.1"/>
<polyline class="st19" points="246.2,182.9 433.7,182.9 433.7,220 "/>
<line class="st20" x1="246.2" y1="168.3" x2="347.3" y2="168.3"/>
<polyline class="st19" points="343.2,236 287.5,236 287.5,199.5 246.2,199.5 "/>
<g>
	<path class="st21" d="M395.1,231h-3.3l-0.7,1.6h-0.9l2.9-6.3h0.9l2.9,6.3h-0.9L395.1,231z M394.8,230.3l-1.4-3.1l-1.4,3.1H394.8z"
		/>
	<path class="st21" d="M402,225.9v6.7h-0.8v-0.8c-0.4,0.5-1,0.8-1.7,0.8c-1.4,0-2.4-1-2.4-2.4s1-2.4,2.4-2.4c0.7,0,1.3,0.3,1.7,0.8
		v-2.6H402z M401.2,230.2c0-1-0.7-1.7-1.6-1.7c-0.9,0-1.6,0.7-1.6,1.7s0.7,1.7,1.6,1.7C400.5,231.9,401.2,231.2,401.2,230.2z"/>
	<path class="st21" d="M407.9,227.8l-2.1,4.8h-0.9l-2.1-4.8h0.9l1.6,3.8l1.7-3.8H407.9z"/>
	<path class="st21" d="M412.3,229.7v2.9h-0.8v-0.6c-0.3,0.4-0.8,0.7-1.6,0.7c-1.1,0-1.8-0.6-1.8-1.4c0-0.8,0.5-1.4,1.9-1.4h1.4v-0.2
		c0-0.7-0.4-1.2-1.3-1.2c-0.6,0-1.1,0.2-1.5,0.5l-0.4-0.6c0.5-0.4,1.2-0.6,2-0.6C411.6,227.7,412.3,228.4,412.3,229.7z M411.4,231.1
		v-0.7h-1.3c-0.9,0-1.1,0.3-1.1,0.7c0,0.5,0.4,0.8,1.1,0.8C410.7,232,411.2,231.7,411.4,231.1z"/>
	<path class="st21" d="M418.4,229.8v2.7h-0.9v-2.6c0-0.9-0.5-1.4-1.3-1.4c-0.9,0-1.5,0.5-1.5,1.6v2.5h-0.9v-4.8h0.8v0.7
		c0.4-0.5,1-0.8,1.7-0.8C417.6,227.7,418.4,228.4,418.4,229.8z"/>
	<path class="st21" d="M419.6,230.2c0-1.4,1.1-2.4,2.5-2.4c0.9,0,1.6,0.4,1.9,1l-0.7,0.4c-0.3-0.5-0.8-0.7-1.3-0.7
		c-0.9,0-1.6,0.7-1.6,1.7c0,1,0.7,1.7,1.6,1.7c0.5,0,1-0.2,1.3-0.7l0.7,0.4c-0.4,0.7-1.1,1-1.9,1
		C420.7,232.6,419.6,231.6,419.6,230.2z"/>
	<path class="st21" d="M429.4,230.5h-3.9c0.1,0.8,0.8,1.4,1.7,1.4c0.6,0,1-0.2,1.4-0.6l0.5,0.6c-0.4,0.5-1.1,0.8-1.9,0.8
		c-1.5,0-2.6-1-2.6-2.4c0-1.4,1-2.4,2.4-2.4c1.4,0,2.4,1,2.4,2.5C429.4,230.3,429.4,230.4,429.4,230.5z M425.6,229.8h3.1
		c-0.1-0.8-0.7-1.4-1.5-1.4C426.3,228.5,425.6,229,425.6,229.8z"/>
	<path class="st21" d="M435.1,225.9v6.7h-0.8v-0.8c-0.4,0.5-1,0.8-1.7,0.8c-1.4,0-2.4-1-2.4-2.4s1-2.4,2.4-2.4
		c0.7,0,1.3,0.3,1.7,0.8v-2.6H435.1z M434.3,230.2c0-1-0.7-1.7-1.6-1.7c-0.9,0-1.6,0.7-1.6,1.7s0.7,1.7,1.6,1.7
		C433.6,231.9,434.3,231.2,434.3,230.2z"/>
	<path class="st21" d="M439.3,226.3h2.7c2,0,3.4,1.3,3.4,3.2c0,1.9-1.4,3.2-3.4,3.2h-2.7V226.3z M441.9,231.8c1.6,0,2.6-1,2.6-2.4
		c0-1.4-1-2.4-2.6-2.4h-1.7v4.7H441.9z"/>
	<path class="st21" d="M446.5,226.3c0-0.3,0.3-0.6,0.6-0.6s0.6,0.2,0.6,0.5c0,0.3-0.2,0.6-0.6,0.6
		C446.7,226.9,446.5,226.6,446.5,226.3z M446.6,227.8h0.9v4.8h-0.9V227.8z"/>
	<path class="st21" d="M454.1,230.2c0,1.5-1,2.4-2.4,2.4c-0.7,0-1.3-0.3-1.7-0.8v2.5h-0.9v-6.5h0.8v0.8c0.4-0.5,1-0.8,1.7-0.8
		C453.1,227.7,454.1,228.7,454.1,230.2z M453.2,230.2c0-1-0.7-1.7-1.6-1.7c-0.9,0-1.6,0.7-1.6,1.7c0,1,0.7,1.7,1.6,1.7
		C452.5,231.9,453.2,231.2,453.2,230.2z"/>
	<path class="st21" d="M455.3,225.9h0.9v6.7h-0.9V225.9z"/>
	<path class="st21" d="M457.4,230.2c0-1.4,1.1-2.4,2.5-2.4c1.4,0,2.5,1,2.5,2.4s-1,2.4-2.5,2.4C458.4,232.6,457.4,231.6,457.4,230.2
		z M461.4,230.2c0-1-0.7-1.7-1.6-1.7c-0.9,0-1.6,0.7-1.6,1.7s0.7,1.7,1.6,1.7C460.8,231.9,461.4,231.2,461.4,230.2z"/>
	<path class="st21" d="M471.4,229.8v2.7h-0.9v-2.6c0-0.9-0.5-1.4-1.2-1.4c-0.9,0-1.4,0.5-1.4,1.6v2.5H467v-2.6
		c0-0.9-0.5-1.4-1.2-1.4c-0.9,0-1.4,0.5-1.4,1.6v2.5h-0.9v-4.8h0.8v0.7c0.3-0.5,0.9-0.8,1.6-0.8c0.7,0,1.3,0.3,1.7,0.9
		c0.4-0.5,1-0.9,1.8-0.9C470.6,227.7,471.4,228.4,471.4,229.8z"/>
	<path class="st21" d="M476.8,229.7v2.9H476v-0.6c-0.3,0.4-0.8,0.7-1.6,0.7c-1.1,0-1.8-0.6-1.8-1.4c0-0.8,0.5-1.4,1.9-1.4h1.4v-0.2
		c0-0.7-0.4-1.2-1.3-1.2c-0.6,0-1.1,0.2-1.5,0.5l-0.4-0.6c0.5-0.4,1.2-0.6,2-0.6C476.1,227.7,476.8,228.4,476.8,229.7z M475.9,231.1
		v-0.7h-1.3c-0.9,0-1.1,0.3-1.1,0.7c0,0.5,0.4,0.8,1.1,0.8C475.2,232,475.7,231.7,475.9,231.1z"/>
</g>
<g>
	<path class="st21" d="M404.4,261.7c0-1.9,1.4-3.2,3.3-3.2c1,0,1.8,0.3,2.4,1l-0.6,0.6c-0.5-0.5-1.1-0.7-1.8-0.7
		c-1.4,0-2.5,1-2.5,2.4c0,1.4,1.1,2.4,2.5,2.4c0.7,0,1.3-0.2,1.8-0.8l0.6,0.6c-0.6,0.6-1.4,1-2.4,1
		C405.8,264.9,404.4,263.5,404.4,261.7z"/>
	<path class="st21" d="M415.4,262.7h-3.9c0.1,0.8,0.8,1.4,1.7,1.4c0.6,0,1-0.2,1.4-0.6l0.5,0.6c-0.4,0.5-1.1,0.8-1.9,0.8
		c-1.5,0-2.6-1-2.6-2.4c0-1.4,1-2.4,2.4-2.4c1.4,0,2.4,1,2.4,2.5C415.4,262.5,415.4,262.6,415.4,262.7z M411.5,262.1h3.1
		c-0.1-0.8-0.7-1.4-1.5-1.4C412.2,260.7,411.6,261.3,411.5,262.1z"/>
	<path class="st21" d="M419.2,260v0.8c-0.1,0-0.1,0-0.2,0c-0.9,0-1.5,0.6-1.5,1.6v2.4h-0.9V260h0.8v0.8
		C417.7,260.3,418.3,260,419.2,260z"/>
	<path class="st21" d="M423.1,264.5c-0.3,0.2-0.7,0.3-1,0.3c-1,0-1.5-0.5-1.5-1.5v-2.6h-0.8V260h0.8v-1h0.9v1h1.4v0.7h-1.4v2.6
		c0,0.5,0.3,0.8,0.7,0.8c0.3,0,0.5-0.1,0.7-0.2L423.1,264.5z"/>
	<path class="st21" d="M424,258.6c0-0.3,0.3-0.6,0.6-0.6c0.3,0,0.6,0.2,0.6,0.5c0,0.3-0.2,0.6-0.6,0.6
		C424.2,259.1,424,258.9,424,258.6z M424.1,260h0.9v4.8h-0.9V260z"/>
	<path class="st21" d="M427.6,259.6v0.4h1.4v0.7h-1.4v4.1h-0.9v-4.1H426V260h0.8v-0.4c0-0.9,0.6-1.5,1.6-1.5c0.4,0,0.7,0.1,1,0.3
		l-0.3,0.7c-0.2-0.1-0.4-0.2-0.7-0.2C427.9,258.8,427.6,259.1,427.6,259.6z"/>
	<path class="st21" d="M430.4,258.6c0-0.3,0.3-0.6,0.6-0.6s0.6,0.2,0.6,0.5c0,0.3-0.2,0.6-0.6,0.6
		C430.7,259.1,430.4,258.9,430.4,258.6z M430.6,260h0.9v4.8h-0.9V260z"/>
	<path class="st21" d="M432.6,262.4c0-1.4,1.1-2.4,2.5-2.4c0.9,0,1.6,0.4,1.9,1l-0.7,0.4c-0.3-0.5-0.8-0.7-1.3-0.7
		c-0.9,0-1.6,0.7-1.6,1.7c0,1,0.7,1.7,1.6,1.7c0.5,0,1-0.2,1.3-0.7l0.7,0.4c-0.4,0.7-1.1,1-1.9,1
		C433.7,264.9,432.6,263.8,432.6,262.4z"/>
	<path class="st21" d="M442,261.9v2.9h-0.8v-0.6c-0.3,0.4-0.8,0.7-1.6,0.7c-1.1,0-1.8-0.6-1.8-1.4c0-0.8,0.5-1.4,1.9-1.4h1.4v-0.2
		c0-0.7-0.4-1.2-1.3-1.2c-0.6,0-1.1,0.2-1.5,0.5l-0.4-0.6c0.5-0.4,1.2-0.6,2-0.6C441.2,260,442,260.6,442,261.9z M441.1,263.3v-0.7
		h-1.3c-0.9,0-1.1,0.3-1.1,0.7c0,0.5,0.4,0.8,1.1,0.8C440.4,264.2,440.9,263.9,441.1,263.3z"/>
	<path class="st21" d="M446.3,264.5c-0.3,0.2-0.7,0.3-1,0.3c-1,0-1.5-0.5-1.5-1.5v-2.6h-0.8V260h0.8v-1h0.9v1h1.4v0.7h-1.4v2.6
		c0,0.5,0.3,0.8,0.7,0.8c0.3,0,0.5-0.1,0.7-0.2L446.3,264.5z"/>
	<path class="st21" d="M451.4,262.7h-3.9c0.1,0.8,0.8,1.4,1.7,1.4c0.6,0,1-0.2,1.4-0.6l0.5,0.6c-0.4,0.5-1.1,0.8-1.9,0.8
		c-1.5,0-2.6-1-2.6-2.4c0-1.4,1-2.4,2.4-2.4c1.4,0,2.4,1,2.4,2.5C451.5,262.5,451.5,262.6,451.4,262.7z M447.6,262.1h3.1
		c-0.1-0.8-0.7-1.4-1.5-1.4C448.3,260.7,447.7,261.3,447.6,262.1z"/>
	<path class="st21" d="M455.2,258.5h0.9v6.3h-0.9V258.5z"/>
	<path class="st21" d="M463.4,258.5l-2.8,6.3h-0.9l-2.8-6.3h1l2.3,5.2l2.3-5.2H463.4z"/>
</g>
<g>
	<path class="st21" d="M405.2,277.7c0-1.9,1.4-3.2,3.3-3.2c1,0,1.8,0.3,2.4,1l-0.6,0.6c-0.5-0.5-1.1-0.7-1.8-0.7
		c-1.4,0-2.5,1-2.5,2.4c0,1.4,1.1,2.4,2.5,2.4c0.7,0,1.3-0.2,1.8-0.8l0.6,0.6c-0.6,0.6-1.4,1-2.4,1
		C406.6,280.9,405.2,279.6,405.2,277.7z"/>
	<path class="st21" d="M416.2,278.8h-3.9c0.1,0.8,0.8,1.4,1.7,1.4c0.6,0,1-0.2,1.4-0.6l0.5,0.6c-0.4,0.5-1.1,0.8-1.9,0.8
		c-1.5,0-2.6-1-2.6-2.4c0-1.4,1-2.4,2.4-2.4c1.4,0,2.4,1,2.4,2.5C416.2,278.6,416.2,278.7,416.2,278.8z M412.3,278.1h3.1
		c-0.1-0.8-0.7-1.4-1.5-1.4C413,276.8,412.4,277.3,412.3,278.1z"/>
	<path class="st21" d="M420,276v0.8c-0.1,0-0.1,0-0.2,0c-0.9,0-1.5,0.6-1.5,1.6v2.4h-0.9v-4.8h0.8v0.8
		C418.5,276.3,419.1,276,420,276z"/>
	<path class="st21" d="M423.9,280.6c-0.3,0.2-0.7,0.3-1,0.3c-1,0-1.5-0.5-1.5-1.5v-2.6h-0.8v-0.7h0.8v-1h0.9v1h1.4v0.7h-1.4v2.6
		c0,0.5,0.3,0.8,0.7,0.8c0.3,0,0.5-0.1,0.7-0.2L423.9,280.6z"/>
	<path class="st21" d="M424.8,274.6c0-0.3,0.3-0.6,0.6-0.6s0.6,0.2,0.6,0.5c0,0.3-0.2,0.6-0.6,0.6
		C425.1,275.2,424.8,274.9,424.8,274.6z M425,276.1h0.9v4.8H425V276.1z"/>
	<path class="st21" d="M428.5,275.7v0.4h1.4v0.7h-1.4v4.1h-0.9v-4.1h-0.8v-0.7h0.8v-0.4c0-0.9,0.6-1.5,1.6-1.5c0.4,0,0.7,0.1,1,0.3
		l-0.3,0.7c-0.2-0.1-0.4-0.2-0.7-0.2C428.7,274.8,428.5,275.1,428.5,275.7z"/>
	<path class="st21" d="M431.2,274.6c0-0.3,0.3-0.6,0.6-0.6c0.3,0,0.6,0.2,0.6,0.5c0,0.3-0.2,0.6-0.6,0.6
		C431.5,275.2,431.2,274.9,431.2,274.6z M431.4,276.1h0.9v4.8h-0.9V276.1z"/>
	<path class="st21" d="M433.4,278.5c0-1.4,1.1-2.4,2.5-2.4c0.9,0,1.6,0.4,1.9,1l-0.7,0.4c-0.3-0.5-0.8-0.7-1.3-0.7
		c-0.9,0-1.6,0.7-1.6,1.7c0,1,0.7,1.7,1.6,1.7c0.5,0,1-0.2,1.3-0.7l0.7,0.4c-0.4,0.7-1.1,1-1.9,1
		C434.5,280.9,433.4,279.9,433.4,278.5z"/>
	<path class="st21" d="M442.8,278v2.9H442v-0.6c-0.3,0.4-0.8,0.7-1.6,0.7c-1.1,0-1.8-0.6-1.8-1.4c0-0.8,0.5-1.4,1.9-1.4h1.4v-0.2
		c0-0.7-0.4-1.2-1.3-1.2c-0.6,0-1.1,0.2-1.5,0.5l-0.4-0.6c0.5-0.4,1.2-0.6,2-0.6C442.1,276,442.8,276.7,442.8,278z M441.9,279.4
		v-0.7h-1.3c-0.9,0-1.1,0.3-1.1,0.7c0,0.5,0.4,0.8,1.1,0.8C441.2,280.2,441.7,279.9,441.9,279.4z"/>
	<path class="st21" d="M447.1,280.6c-0.3,0.2-0.7,0.3-1,0.3c-1,0-1.5-0.5-1.5-1.5v-2.6h-0.8v-0.7h0.8v-1h0.9v1h1.4v0.7h-1.4v2.6
		c0,0.5,0.3,0.8,0.7,0.8c0.3,0,0.5-0.1,0.7-0.2L447.1,280.6z"/>
	<path class="st21" d="M452.3,278.8h-3.9c0.1,0.8,0.8,1.4,1.7,1.4c0.6,0,1-0.2,1.4-0.6l0.5,0.6c-0.4,0.5-1.1,0.8-1.9,0.8
		c-1.5,0-2.6-1-2.6-2.4c0-1.4,1-2.4,2.4-2.4c1.4,0,2.4,1,2.4,2.5C452.3,278.6,452.3,278.7,452.3,278.8z M448.4,278.1h3.1
		c-0.1-0.8-0.7-1.4-1.5-1.4C449.1,276.8,448.5,277.3,448.4,278.1z"/>
	<path class="st21" d="M456,274.6h0.9v6.3H456V274.6z"/>
	<path class="st21" d="M458.8,274.6h0.9v6.3h-0.9V274.6z"/>
	<path class="st21" d="M461.6,274.6h0.9v6.3h-0.9V274.6z"/>
</g>
<g>
	<path class="st21" d="M406.6,293.5c0-1.9,1.4-3.2,3.3-3.2c1,0,1.8,0.3,2.4,1l-0.6,0.6c-0.5-0.5-1.1-0.7-1.8-0.7
		c-1.4,0-2.5,1-2.5,2.4c0,1.4,1.1,2.4,2.5,2.4c0.7,0,1.3-0.2,1.8-0.8l0.6,0.6c-0.6,0.6-1.4,1-2.4,1
		C408,296.7,406.6,295.4,406.6,293.5z"/>
	<path class="st21" d="M417.6,294.6h-3.9c0.1,0.8,0.8,1.4,1.7,1.4c0.6,0,1-0.2,1.4-0.6l0.5,0.6c-0.4,0.5-1.1,0.8-1.9,0.8
		c-1.5,0-2.6-1-2.6-2.4c0-1.4,1-2.4,2.4-2.4c1.4,0,2.4,1,2.4,2.5C417.6,294.4,417.6,294.5,417.6,294.6z M413.7,293.9h3.1
		c-0.1-0.8-0.7-1.4-1.5-1.4C414.4,292.6,413.8,293.1,413.7,293.9z"/>
	<path class="st21" d="M421.4,291.8v0.8c-0.1,0-0.1,0-0.2,0c-0.9,0-1.5,0.6-1.5,1.6v2.4h-0.9v-4.8h0.8v0.8
		C419.9,292.1,420.5,291.8,421.4,291.8z"/>
	<path class="st21" d="M425.3,296.4c-0.3,0.2-0.7,0.3-1,0.3c-1,0-1.5-0.5-1.5-1.5v-2.6H422v-0.7h0.8v-1h0.9v1h1.4v0.7h-1.4v2.6
		c0,0.5,0.3,0.8,0.7,0.8c0.3,0,0.5-0.1,0.7-0.2L425.3,296.4z"/>
	<path class="st21" d="M426.2,290.4c0-0.3,0.3-0.6,0.6-0.6s0.6,0.2,0.6,0.5c0,0.3-0.2,0.6-0.6,0.6
		C426.5,291,426.2,290.7,426.2,290.4z M426.4,291.9h0.9v4.8h-0.9V291.9z"/>
	<path class="st21" d="M429.8,291.5v0.4h1.4v0.7h-1.4v4.1H429v-4.1h-0.8v-0.7h0.8v-0.4c0-0.9,0.6-1.5,1.6-1.5c0.4,0,0.7,0.1,1,0.3
		l-0.3,0.7c-0.2-0.1-0.4-0.2-0.7-0.2C430.1,290.6,429.8,290.9,429.8,291.5z"/>
	<path class="st21" d="M432.6,290.4c0-0.3,0.3-0.6,0.6-0.6c0.3,0,0.6,0.2,0.6,0.5c0,0.3-0.2,0.6-0.6,0.6
		C432.9,291,432.6,290.7,432.6,290.4z M432.8,291.9h0.9v4.8h-0.9V291.9z"/>
	<path class="st21" d="M434.8,294.3c0-1.4,1.1-2.4,2.5-2.4c0.9,0,1.6,0.4,1.9,1l-0.7,0.4c-0.3-0.5-0.8-0.7-1.3-0.7
		c-0.9,0-1.6,0.7-1.6,1.7c0,1,0.7,1.7,1.6,1.7c0.5,0,1-0.2,1.3-0.7l0.7,0.4c-0.4,0.7-1.1,1-1.9,1
		C435.9,296.7,434.8,295.7,434.8,294.3z"/>
	<path class="st21" d="M444.2,293.8v2.9h-0.8V296c-0.3,0.4-0.8,0.7-1.6,0.7c-1.1,0-1.8-0.6-1.8-1.4c0-0.8,0.5-1.4,1.9-1.4h1.4v-0.2
		c0-0.7-0.4-1.2-1.3-1.2c-0.6,0-1.1,0.2-1.5,0.5l-0.4-0.6c0.5-0.4,1.2-0.6,2-0.6C443.5,291.8,444.2,292.5,444.2,293.8z M443.3,295.2
		v-0.7H442c-0.9,0-1.1,0.3-1.1,0.7c0,0.5,0.4,0.8,1.1,0.8C442.6,296,443.1,295.7,443.3,295.2z"/>
	<path class="st21" d="M448.5,296.4c-0.3,0.2-0.7,0.3-1,0.3c-1,0-1.5-0.5-1.5-1.5v-2.6h-0.8v-0.7h0.8v-1h0.9v1h1.4v0.7h-1.4v2.6
		c0,0.5,0.3,0.8,0.7,0.8c0.3,0,0.5-0.1,0.7-0.2L448.5,296.4z"/>
	<path class="st21" d="M453.7,294.6h-3.9c0.1,0.8,0.8,1.4,1.7,1.4c0.6,0,1-0.2,1.4-0.6l0.5,0.6c-0.4,0.5-1.1,0.8-1.9,0.8
		c-1.5,0-2.6-1-2.6-2.4c0-1.4,1-2.4,2.4-2.4c1.4,0,2.4,1,2.4,2.5C453.7,294.4,453.7,294.5,453.7,294.6z M449.8,293.9h3.1
		c-0.1-0.8-0.7-1.4-1.5-1.4C450.5,292.6,449.9,293.1,449.8,293.9z"/>
	<path class="st21" d="M457.4,290.4h0.9v6.3h-0.9V290.4z"/>
	<path class="st21" d="M460.2,290.4h0.9v6.3h-0.9V290.4z"/>
</g>
<g>
	<path class="st21" d="M408,309.4c0-1.9,1.4-3.2,3.3-3.2c1,0,1.8,0.3,2.4,1l-0.6,0.6c-0.5-0.5-1.1-0.7-1.8-0.7c-1.4,0-2.5,1-2.5,2.4
		c0,1.4,1.1,2.4,2.5,2.4c0.7,0,1.3-0.2,1.8-0.8l0.6,0.6c-0.6,0.6-1.4,1-2.4,1C409.4,312.6,408,311.3,408,309.4z"/>
	<path class="st21" d="M419,310.5h-3.9c0.1,0.8,0.8,1.4,1.7,1.4c0.6,0,1-0.2,1.4-0.6l0.5,0.6c-0.4,0.5-1.1,0.8-1.9,0.8
		c-1.5,0-2.6-1-2.6-2.4c0-1.4,1-2.4,2.4-2.4c1.4,0,2.4,1,2.4,2.5C419,310.3,419,310.4,419,310.5z M415.1,309.9h3.1
		c-0.1-0.8-0.7-1.4-1.5-1.4C415.8,308.5,415.2,309,415.1,309.9z"/>
	<path class="st21" d="M422.8,307.8v0.8c-0.1,0-0.1,0-0.2,0c-0.9,0-1.5,0.6-1.5,1.6v2.4h-0.9v-4.8h0.8v0.8
		C421.3,308,421.9,307.8,422.8,307.8z"/>
	<path class="st21" d="M426.7,312.3c-0.3,0.2-0.7,0.3-1,0.3c-1,0-1.5-0.5-1.5-1.5v-2.6h-0.8v-0.7h0.8v-1h0.9v1h1.4v0.7H425v2.6
		c0,0.5,0.3,0.8,0.7,0.8c0.3,0,0.5-0.1,0.7-0.2L426.7,312.3z"/>
	<path class="st21" d="M427.6,306.3c0-0.3,0.3-0.6,0.6-0.6c0.3,0,0.6,0.2,0.6,0.5c0,0.3-0.2,0.6-0.6,0.6
		C427.9,306.9,427.6,306.6,427.6,306.3z M427.8,307.8h0.9v4.8h-0.9V307.8z"/>
	<path class="st21" d="M431.2,307.4v0.4h1.4v0.7h-1.4v4.1h-0.9v-4.1h-0.8v-0.7h0.8v-0.4c0-0.9,0.6-1.5,1.6-1.5c0.4,0,0.7,0.1,1,0.3
		l-0.3,0.7c-0.2-0.1-0.4-0.2-0.7-0.2C431.5,306.6,431.2,306.8,431.2,307.4z"/>
	<path class="st21" d="M434,306.3c0-0.3,0.3-0.6,0.6-0.6s0.6,0.2,0.6,0.5c0,0.3-0.2,0.6-0.6,0.6C434.3,306.9,434,306.6,434,306.3z
		 M434.2,307.8h0.9v4.8h-0.9V307.8z"/>
	<path class="st21" d="M436.2,310.2c0-1.4,1.1-2.4,2.5-2.4c0.9,0,1.6,0.4,1.9,1l-0.7,0.4c-0.3-0.5-0.8-0.7-1.3-0.7
		c-0.9,0-1.6,0.7-1.6,1.7c0,1,0.7,1.7,1.6,1.7c0.5,0,1-0.2,1.3-0.7l0.7,0.4c-0.4,0.7-1.1,1-1.9,1
		C437.3,312.6,436.2,311.6,436.2,310.2z"/>
	<path class="st21" d="M445.6,309.7v2.9h-0.8v-0.6c-0.3,0.4-0.8,0.7-1.6,0.7c-1.1,0-1.8-0.6-1.8-1.4c0-0.8,0.5-1.4,1.9-1.4h1.4v-0.2
		c0-0.7-0.4-1.2-1.3-1.2c-0.6,0-1.1,0.2-1.5,0.5l-0.4-0.6c0.5-0.4,1.2-0.6,2-0.6C444.9,307.8,445.6,308.4,445.6,309.7z M444.7,311.1
		v-0.7h-1.3c-0.9,0-1.1,0.3-1.1,0.7c0,0.5,0.4,0.8,1.1,0.8C444,312,444.5,311.7,444.7,311.1z"/>
	<path class="st21" d="M449.9,312.3c-0.3,0.2-0.7,0.3-1,0.3c-1,0-1.5-0.5-1.5-1.5v-2.6h-0.8v-0.7h0.8v-1h0.9v1h1.4v0.7h-1.4v2.6
		c0,0.5,0.3,0.8,0.7,0.8c0.3,0,0.5-0.1,0.7-0.2L449.9,312.3z"/>
	<path class="st21" d="M455.1,310.5h-3.9c0.1,0.8,0.8,1.4,1.7,1.4c0.6,0,1-0.2,1.4-0.6l0.5,0.6c-0.4,0.5-1.1,0.8-1.9,0.8
		c-1.5,0-2.6-1-2.6-2.4c0-1.4,1-2.4,2.4-2.4c1.4,0,2.4,1,2.4,2.5C455.1,310.3,455.1,310.4,455.1,310.5z M451.2,309.9h3.1
		c-0.1-0.8-0.7-1.4-1.5-1.4C451.9,308.5,451.3,309,451.2,309.9z"/>
	<path class="st21" d="M458.8,306.3h0.9v6.3h-0.9V306.3z"/>
</g>
<g>
	<path class="st5" d="M413.1,333c0-2.3,1.8-4,4.1-4c1.3,0,2.3,0.5,3,1.3l-0.9,0.9c-0.6-0.6-1.3-0.9-2.1-0.9c-1.6,0-2.8,1.1-2.8,2.7
		s1.2,2.7,2.8,2.7c0.8,0,1.5-0.3,2.1-0.9l0.9,0.9c-0.7,0.8-1.8,1.3-3.1,1.3C414.9,336.9,413.1,335.3,413.1,333z"/>
	<path class="st5" d="M420.8,333.9c0-1.8,1.3-3,3.1-3c1.8,0,3.1,1.2,3.1,3c0,1.8-1.3,3-3.1,3C422.2,336.9,420.8,335.6,420.8,333.9z
		 M425.7,333.9c0-1.1-0.7-1.8-1.7-1.8c-1,0-1.7,0.7-1.7,1.8s0.7,1.8,1.7,1.8C425,335.7,425.7,335,425.7,333.9z"/>
	<path class="st5" d="M428.4,328.6h1.4v8.2h-1.4V328.6z"/>
	<path class="st5" d="M431.6,328.6h1.4v8.2h-1.4V328.6z"/>
	<path class="st5" d="M440.3,334.3h-4.6c0.2,0.9,0.9,1.4,1.9,1.4c0.7,0,1.2-0.2,1.6-0.6l0.7,0.8c-0.5,0.6-1.4,1-2.4,1
		c-2,0-3.2-1.3-3.2-3s1.3-3,3-3c1.7,0,3,1.2,3,3C440.3,334,440.3,334.2,440.3,334.3z M435.7,333.4h3.3c-0.1-0.8-0.8-1.4-1.7-1.4
		C436.4,332,435.8,332.5,435.7,333.4z"/>
	<path class="st5" d="M447.4,330.9v5c0,2.1-1.1,3.1-3.2,3.1c-1.1,0-2.2-0.3-2.9-0.8l0.6-1c0.5,0.4,1.4,0.7,2.2,0.7
		c1.3,0,1.9-0.6,1.9-1.8v-0.3c-0.5,0.5-1.2,0.8-2,0.8c-1.7,0-3-1.1-3-2.8s1.3-2.8,3-2.8c0.8,0,1.6,0.3,2,0.8v-0.8H447.4z
		 M446.1,333.7c0-1-0.7-1.7-1.8-1.7c-1,0-1.8,0.7-1.8,1.7c0,1,0.7,1.7,1.8,1.7C445.3,335.4,446.1,334.7,446.1,333.7z"/>
	<path class="st5" d="M454.8,334.3h-4.6c0.2,0.9,0.9,1.4,1.9,1.4c0.7,0,1.2-0.2,1.6-0.6l0.7,0.8c-0.5,0.6-1.4,1-2.4,1
		c-2,0-3.2-1.3-3.2-3s1.3-3,3-3c1.7,0,3,1.2,3,3C454.8,334,454.8,334.2,454.8,334.3z M450.1,333.4h3.3c-0.1-0.8-0.8-1.4-1.7-1.4
		C450.9,332,450.3,332.5,450.1,333.4z"/>
</g>
<g>
	<path class="st5" d="M362.5,153.6l-3.1,7h-0.7l-3.1-7h0.8l2.7,6.1l2.7-6.1H362.5z"/>
	<path class="st5" d="M362.5,158c0-1.6,1.1-2.7,2.7-2.7c1.5,0,2.7,1.1,2.7,2.7c0,1.6-1.1,2.7-2.7,2.7
		C363.6,160.6,362.5,159.5,362.5,158z M367.1,158c0-1.2-0.8-2-1.9-2c-1.1,0-2,0.8-2,2c0,1.2,0.8,2,2,2
		C366.3,160,367.1,159.2,367.1,158z"/>
	<path class="st5" d="M368.8,158c0-1.6,1.1-2.7,2.7-2.7c0.9,0,1.6,0.3,2.1,1l-0.5,0.4c-0.4-0.5-0.9-0.8-1.5-0.8c-1.1,0-2,0.8-2,2
		c0,1.2,0.8,2,2,2c0.6,0,1.2-0.2,1.5-0.8l0.5,0.4c-0.4,0.7-1.2,1-2.1,1C369.9,160.6,368.8,159.5,368.8,158z"/>
	<path class="st5" d="M378.9,157.3v3.3h-0.7v-0.8c-0.3,0.5-0.9,0.9-1.8,0.9c-1.2,0-1.9-0.6-1.9-1.5c0-0.8,0.5-1.5,2-1.5h1.7v-0.3
		c0-0.9-0.5-1.4-1.5-1.4c-0.7,0-1.3,0.2-1.7,0.6l-0.3-0.5c0.5-0.4,1.3-0.7,2.1-0.7C378.1,155.3,378.9,156,378.9,157.3z M378.2,159
		v-0.9h-1.6c-1,0-1.3,0.4-1.3,0.9c0,0.6,0.5,1,1.3,1C377.3,160.1,377.9,159.7,378.2,159z"/>
	<path class="st5" d="M383.6,160.3c-0.3,0.2-0.7,0.4-1.1,0.4c-1,0-1.5-0.6-1.5-1.5v-3.2H380v-0.6h0.9v-1.1h0.7v1.1h1.6v0.6h-1.6v3.1
		c0,0.6,0.3,1,0.9,1c0.3,0,0.6-0.1,0.8-0.3L383.6,160.3z"/>
	<path class="st5" d="M384.7,153.7c0-0.3,0.2-0.5,0.5-0.5c0.3,0,0.5,0.2,0.5,0.5c0,0.3-0.2,0.5-0.5,0.5
		C384.9,154.2,384.7,154,384.7,153.7z M384.9,155.3h0.7v5.3h-0.7V155.3z"/>
	<path class="st5" d="M387,158c0-1.6,1.1-2.7,2.7-2.7s2.7,1.1,2.7,2.7c0,1.6-1.1,2.7-2.7,2.7S387,159.5,387,158z M391.7,158
		c0-1.2-0.8-2-1.9-2c-1.1,0-2,0.8-2,2c0,1.2,0.8,2,2,2C390.8,160,391.7,159.2,391.7,158z"/>
	<path class="st5" d="M398.7,157.5v3H398v-3c0-1.1-0.6-1.7-1.6-1.7c-1.1,0-1.8,0.7-1.8,1.9v2.8h-0.7v-5.3h0.7v1c0.4-0.6,1.1-1,2-1
		C397.8,155.3,398.7,156,398.7,157.5z"/>
	<path class="st5" d="M404.6,157.3v3.3h-0.7v-0.8c-0.3,0.5-0.9,0.9-1.8,0.9c-1.2,0-1.9-0.6-1.9-1.5c0-0.8,0.5-1.5,2-1.5h1.7v-0.3
		c0-0.9-0.5-1.4-1.5-1.4c-0.7,0-1.3,0.2-1.7,0.6l-0.3-0.5c0.5-0.4,1.3-0.7,2.1-0.7C403.8,155.3,404.6,156,404.6,157.3z M403.9,159
		v-0.9h-1.6c-1,0-1.3,0.4-1.3,0.9c0,0.6,0.5,1,1.3,1C403,160.1,403.6,159.7,403.9,159z"/>
	<path class="st5" d="M406.5,153.2h0.7v7.4h-0.7V153.2z"/>
	<path class="st5" d="M416.9,157.1h0.7v2.7c-0.7,0.6-1.6,0.9-2.6,0.9c-2.1,0-3.7-1.5-3.7-3.6s1.6-3.6,3.7-3.6c1.1,0,2,0.3,2.6,1
		l-0.5,0.5c-0.6-0.6-1.3-0.8-2.1-0.8c-1.7,0-3,1.2-3,2.9c0,1.7,1.3,2.9,3,2.9c0.7,0,1.3-0.2,1.8-0.5V157.1z"/>
	<path class="st5" d="M422.2,155.3v0.7c-0.1,0-0.1,0-0.2,0c-1.1,0-1.8,0.7-1.8,1.9v2.7h-0.7v-5.3h0.7v1
		C420.5,155.7,421.2,155.3,422.2,155.3z"/>
	<path class="st5" d="M427.4,157.3v3.3h-0.7v-0.8c-0.3,0.5-0.9,0.9-1.8,0.9c-1.2,0-1.9-0.6-1.9-1.5c0-0.8,0.5-1.5,2-1.5h1.7v-0.3
		c0-0.9-0.5-1.4-1.5-1.4c-0.7,0-1.3,0.2-1.7,0.6l-0.3-0.5c0.5-0.4,1.3-0.7,2.1-0.7C426.7,155.3,427.4,156,427.4,157.3z M426.7,159
		v-0.9h-1.6c-1,0-1.3,0.4-1.3,0.9c0,0.6,0.5,1,1.3,1C425.8,160.1,426.4,159.7,426.7,159z"/>
	<path class="st5" d="M434.2,153.2v7.4h-0.7v-1c-0.4,0.7-1.2,1.1-2,1.1c-1.5,0-2.6-1.1-2.6-2.7c0-1.6,1.1-2.7,2.6-2.7
		c0.8,0,1.6,0.4,2,1v-3.2H434.2z M433.5,158c0-1.2-0.8-2-1.9-2c-1.1,0-2,0.8-2,2c0,1.2,0.8,2,2,2C432.6,160,433.5,159.2,433.5,158z"
		/>
	<path class="st5" d="M440.9,155.3v5.3h-0.7v-1c-0.4,0.6-1,1-1.9,1c-1.3,0-2.2-0.7-2.2-2.3v-3h0.7v3c0,1.1,0.6,1.7,1.6,1.7
		c1.1,0,1.8-0.7,1.8-1.9v-2.8H440.9z"/>
	<path class="st5" d="M446.9,157.3v3.3h-0.7v-0.8c-0.3,0.5-0.9,0.9-1.8,0.9c-1.2,0-1.9-0.6-1.9-1.5c0-0.8,0.5-1.5,2-1.5h1.7v-0.3
		c0-0.9-0.5-1.4-1.5-1.4c-0.7,0-1.3,0.2-1.7,0.6l-0.3-0.5c0.5-0.4,1.3-0.7,2.1-0.7C446.1,155.3,446.9,156,446.9,157.3z M446.1,159
		v-0.9h-1.6c-1,0-1.3,0.4-1.3,0.9c0,0.6,0.5,1,1.3,1C445.3,160.1,445.9,159.7,446.1,159z"/>
	<path class="st5" d="M451.6,160.3c-0.3,0.2-0.7,0.4-1.1,0.4c-1,0-1.5-0.6-1.5-1.5v-3.2H448v-0.6h0.9v-1.1h0.7v1.1h1.6v0.6h-1.6v3.1
		c0,0.6,0.3,1,0.9,1c0.3,0,0.6-0.1,0.8-0.3L451.6,160.3z"/>
	<path class="st5" d="M457.2,158.2h-4.4c0.1,1.1,0.9,1.8,2.1,1.8c0.6,0,1.2-0.2,1.6-0.7l0.4,0.5c-0.5,0.6-1.2,0.9-2,0.9
		c-1.6,0-2.8-1.1-2.8-2.7c0-1.6,1.1-2.7,2.6-2.7s2.5,1.1,2.5,2.7C457.2,158,457.2,158.1,457.2,158.2z M452.8,157.7h3.7
		c-0.1-1-0.8-1.7-1.9-1.7C453.7,155.9,452.9,156.6,452.8,157.7z"/>
	<path class="st5" d="M460.8,157.1c0-2,1.6-3.6,3.7-3.6c1,0,1.9,0.3,2.6,1l-0.5,0.5c-0.6-0.6-1.3-0.8-2.1-0.8c-1.7,0-3,1.2-3,2.9
		s1.3,2.9,3,2.9c0.8,0,1.5-0.2,2.1-0.8l0.5,0.5c-0.6,0.7-1.5,1-2.6,1C462.4,160.6,460.8,159.1,460.8,157.1z"/>
	<path class="st5" d="M472.9,158.2h-4.4c0.1,1.1,0.9,1.8,2.1,1.8c0.6,0,1.2-0.2,1.6-0.7l0.4,0.5c-0.5,0.6-1.2,0.9-2,0.9
		c-1.6,0-2.8-1.1-2.8-2.7c0-1.6,1.1-2.7,2.6-2.7s2.5,1.1,2.5,2.7C472.9,158,472.9,158.1,472.9,158.2z M468.5,157.7h3.7
		c-0.1-1-0.8-1.7-1.9-1.7C469.3,155.9,468.5,156.6,468.5,157.7z"/>
	<path class="st5" d="M477,155.3v0.7c-0.1,0-0.1,0-0.2,0c-1.1,0-1.8,0.7-1.8,1.9v2.7h-0.7v-5.3h0.7v1
		C475.3,155.7,476,155.3,477,155.3z"/>
	<path class="st5" d="M481.2,160.3c-0.3,0.2-0.7,0.4-1.1,0.4c-1,0-1.5-0.6-1.5-1.5v-3.2h-0.9v-0.6h0.9v-1.1h0.7v1.1h1.6v0.6h-1.6
		v3.1c0,0.6,0.3,1,0.9,1c0.3,0,0.6-0.1,0.8-0.3L481.2,160.3z"/>
	<path class="st5" d="M482.4,153.7c0-0.3,0.2-0.5,0.5-0.5c0.3,0,0.5,0.2,0.5,0.5c0,0.3-0.2,0.5-0.5,0.5
		C482.6,154.2,482.4,154,482.4,153.7z M482.5,155.3h0.7v5.3h-0.7V155.3z"/>
	<path class="st5" d="M486,154.7v0.6h1.6v0.6h-1.6v4.7h-0.7v-4.7h-0.9v-0.6h0.9v-0.7c0-0.9,0.6-1.6,1.6-1.6c0.4,0,0.8,0.1,1,0.3
		l-0.2,0.5c-0.2-0.2-0.5-0.3-0.8-0.3C486.4,153.7,486,154.1,486,154.7z"/>
	<path class="st5" d="M489.3,153.7c0-0.3,0.2-0.5,0.5-0.5c0.3,0,0.5,0.2,0.5,0.5c0,0.3-0.2,0.5-0.5,0.5
		C489.5,154.2,489.3,154,489.3,153.7z M489.4,155.3h0.7v5.3h-0.7V155.3z"/>
	<path class="st5" d="M491.6,158c0-1.6,1.1-2.7,2.7-2.7c0.9,0,1.6,0.3,2.1,1l-0.5,0.4c-0.4-0.5-0.9-0.8-1.5-0.8c-1.1,0-2,0.8-2,2
		c0,1.2,0.8,2,2,2c0.6,0,1.2-0.2,1.5-0.8l0.5,0.4c-0.4,0.7-1.2,1-2.1,1C492.7,160.6,491.6,159.5,491.6,158z"/>
	<path class="st5" d="M501.7,157.3v3.3H501v-0.8c-0.3,0.5-0.9,0.9-1.8,0.9c-1.2,0-1.9-0.6-1.9-1.5c0-0.8,0.5-1.5,2-1.5h1.7v-0.3
		c0-0.9-0.5-1.4-1.5-1.4c-0.7,0-1.3,0.2-1.7,0.6l-0.3-0.5c0.5-0.4,1.3-0.7,2.1-0.7C500.9,155.3,501.7,156,501.7,157.3z M501,159
		v-0.9h-1.6c-1,0-1.3,0.4-1.3,0.9c0,0.6,0.5,1,1.3,1C500.1,160.1,500.7,159.7,501,159z"/>
	<path class="st5" d="M506.4,160.3c-0.3,0.2-0.7,0.4-1.1,0.4c-1,0-1.5-0.6-1.5-1.5v-3.2h-0.9v-0.6h0.9v-1.1h0.7v1.1h1.6v0.6h-1.6
		v3.1c0,0.6,0.3,1,0.9,1c0.3,0,0.6-0.1,0.8-0.3L506.4,160.3z"/>
	<path class="st5" d="M512.1,158.2h-4.4c0.1,1.1,0.9,1.8,2.1,1.8c0.6,0,1.2-0.2,1.6-0.7l0.4,0.5c-0.5,0.6-1.2,0.9-2,0.9
		c-1.6,0-2.8-1.1-2.8-2.7c0-1.6,1.1-2.7,2.6-2.7s2.5,1.1,2.5,2.7C512.1,158,512.1,158.1,512.1,158.2z M507.7,157.7h3.7
		c-0.1-1-0.8-1.7-1.9-1.7C508.5,155.9,507.8,156.6,507.7,157.7z"/>
	<path class="st5" d="M515.6,152.2h0.7l-3.3,9.4h-0.6L515.6,152.2z"/>
	<path class="st5" d="M368.7,166.6l-3.1,7h-0.7l-3.1-7h0.8l2.7,6.1l2.7-6.1H368.7z"/>
	<path class="st5" d="M368.7,171c0-1.6,1.1-2.7,2.7-2.7c1.5,0,2.7,1.1,2.7,2.7c0,1.6-1.1,2.7-2.7,2.7
		C369.8,173.6,368.7,172.5,368.7,171z M373.3,171c0-1.2-0.8-2-1.9-2c-1.1,0-2,0.8-2,2c0,1.2,0.8,2,2,2
		C372.5,173,373.3,172.2,373.3,171z"/>
	<path class="st5" d="M374.9,171c0-1.6,1.1-2.7,2.7-2.7c0.9,0,1.6,0.3,2.1,1l-0.5,0.4c-0.4-0.5-0.9-0.8-1.5-0.8c-1.1,0-2,0.8-2,2
		c0,1.2,0.8,2,2,2c0.6,0,1.2-0.2,1.5-0.8l0.5,0.4c-0.4,0.7-1.2,1-2.1,1C376.1,173.6,374.9,172.5,374.9,171z"/>
	<path class="st5" d="M385.1,170.3v3.3h-0.7v-0.8c-0.3,0.5-0.9,0.9-1.8,0.9c-1.2,0-1.9-0.6-1.9-1.5c0-0.8,0.5-1.5,2-1.5h1.7v-0.3
		c0-0.9-0.5-1.4-1.5-1.4c-0.7,0-1.3,0.2-1.7,0.6l-0.3-0.5c0.5-0.4,1.3-0.7,2.1-0.7C384.3,168.3,385.1,169,385.1,170.3z M384.4,172
		v-0.9h-1.6c-1,0-1.3,0.4-1.3,0.9c0,0.6,0.5,1,1.3,1C383.5,173.1,384.1,172.7,384.4,172z"/>
	<path class="st5" d="M389.8,173.3c-0.3,0.2-0.7,0.4-1.1,0.4c-1,0-1.5-0.6-1.5-1.5v-3.2h-0.9v-0.6h0.9v-1.1h0.7v1.1h1.6v0.6h-1.6
		v3.1c0,0.6,0.3,1,0.9,1c0.3,0,0.6-0.1,0.8-0.3L389.8,173.3z"/>
	<path class="st5" d="M390.9,166.7c0-0.3,0.2-0.5,0.5-0.5c0.3,0,0.5,0.2,0.5,0.5c0,0.3-0.2,0.5-0.5,0.5
		C391.1,167.2,390.9,167,390.9,166.7z M391.1,168.3h0.7v5.3h-0.7V168.3z"/>
	<path class="st5" d="M393.2,171c0-1.6,1.1-2.7,2.7-2.7s2.7,1.1,2.7,2.7c0,1.6-1.1,2.7-2.7,2.7S393.2,172.5,393.2,171z M397.8,171
		c0-1.2-0.8-2-1.9-2c-1.1,0-2,0.8-2,2c0,1.2,0.8,2,2,2C397,173,397.8,172.2,397.8,171z"/>
	<path class="st5" d="M404.9,170.5v3h-0.7v-3c0-1.1-0.6-1.7-1.6-1.7c-1.1,0-1.8,0.7-1.8,1.9v2.8H400v-5.3h0.7v1c0.4-0.6,1.1-1,2-1
		C404,168.3,404.9,169,404.9,170.5z"/>
	<path class="st5" d="M410.8,170.3v3.3h-0.7v-0.8c-0.3,0.5-0.9,0.9-1.8,0.9c-1.2,0-1.9-0.6-1.9-1.5c0-0.8,0.5-1.5,2-1.5h1.7v-0.3
		c0-0.9-0.5-1.4-1.5-1.4c-0.7,0-1.3,0.2-1.7,0.6l-0.3-0.5c0.5-0.4,1.3-0.7,2.1-0.7C410,168.3,410.8,169,410.8,170.3z M410,172v-0.9
		h-1.6c-1,0-1.3,0.4-1.3,0.9c0,0.6,0.5,1,1.3,1C409.2,173.1,409.8,172.7,410,172z"/>
	<path class="st5" d="M412.7,166.2h0.7v7.4h-0.7V166.2z"/>
	<path class="st5" d="M423.1,170.1h0.7v2.7c-0.7,0.6-1.6,0.9-2.6,0.9c-2.1,0-3.7-1.5-3.7-3.6s1.6-3.6,3.7-3.6c1.1,0,2,0.3,2.6,1
		l-0.5,0.5c-0.6-0.6-1.3-0.8-2.1-0.8c-1.7,0-3,1.2-3,2.9c0,1.7,1.3,2.9,3,2.9c0.7,0,1.3-0.2,1.8-0.5V170.1z"/>
	<path class="st5" d="M428.4,168.3v0.7c-0.1,0-0.1,0-0.2,0c-1.1,0-1.8,0.7-1.8,1.9v2.7h-0.7v-5.3h0.7v1
		C426.7,168.7,427.4,168.3,428.4,168.3z"/>
	<path class="st5" d="M433.6,170.3v3.3h-0.7v-0.8c-0.3,0.5-0.9,0.9-1.8,0.9c-1.2,0-1.9-0.6-1.9-1.5c0-0.8,0.5-1.5,2-1.5h1.7v-0.3
		c0-0.9-0.5-1.4-1.5-1.4c-0.7,0-1.3,0.2-1.7,0.6l-0.3-0.5c0.5-0.4,1.3-0.7,2.1-0.7C432.8,168.3,433.6,169,433.6,170.3z M432.9,172
		v-0.9h-1.6c-1,0-1.3,0.4-1.3,0.9c0,0.6,0.5,1,1.3,1C432,173.1,432.6,172.7,432.9,172z"/>
	<path class="st5" d="M440.4,166.2v7.4h-0.7v-1c-0.4,0.7-1.2,1.1-2,1.1c-1.5,0-2.6-1.1-2.6-2.7c0-1.6,1.1-2.7,2.6-2.7
		c0.8,0,1.6,0.4,2,1v-3.2H440.4z M439.7,171c0-1.2-0.8-2-1.9-2c-1.1,0-2,0.8-2,2c0,1.2,0.8,2,2,2C438.8,173,439.7,172.2,439.7,171z"
		/>
	<path class="st5" d="M447.1,168.3v5.3h-0.7v-1c-0.4,0.6-1,1-1.9,1c-1.3,0-2.2-0.7-2.2-2.3v-3h0.7v3c0,1.1,0.6,1.7,1.6,1.7
		c1.1,0,1.8-0.7,1.8-1.9v-2.8H447.1z"/>
	<path class="st5" d="M453,170.3v3.3h-0.7v-0.8c-0.3,0.5-0.9,0.9-1.8,0.9c-1.2,0-1.9-0.6-1.9-1.5c0-0.8,0.5-1.5,2-1.5h1.7v-0.3
		c0-0.9-0.5-1.4-1.5-1.4c-0.7,0-1.3,0.2-1.7,0.6l-0.3-0.5c0.5-0.4,1.3-0.7,2.1-0.7C452.3,168.3,453,169,453,170.3z M452.3,172v-0.9
		h-1.6c-1,0-1.3,0.4-1.3,0.9c0,0.6,0.5,1,1.3,1C451.5,173.1,452.1,172.7,452.3,172z"/>
	<path class="st5" d="M457.7,173.3c-0.3,0.2-0.7,0.4-1.1,0.4c-1,0-1.5-0.6-1.5-1.5v-3.2h-0.9v-0.6h0.9v-1.1h0.7v1.1h1.6v0.6h-1.6
		v3.1c0,0.6,0.3,1,0.9,1c0.3,0,0.6-0.1,0.8-0.3L457.7,173.3z"/>
	<path class="st5" d="M463.4,171.2H459c0.1,1.1,0.9,1.8,2.1,1.8c0.6,0,1.2-0.2,1.6-0.7l0.4,0.5c-0.5,0.6-1.2,0.9-2,0.9
		c-1.6,0-2.8-1.1-2.8-2.7c0-1.6,1.1-2.7,2.6-2.7s2.5,1.1,2.5,2.7C463.4,171,463.4,171.1,463.4,171.2z M459,170.7h3.7
		c-0.1-1-0.8-1.7-1.9-1.7C459.9,168.9,459.1,169.6,459,170.7z"/>
	<path class="st5" d="M467.7,166.6h2.8c2.2,0,3.7,1.4,3.7,3.5s-1.5,3.5-3.7,3.5h-2.8V166.6z M470.5,172.9c1.9,0,3.1-1.2,3.1-2.9
		s-1.2-2.9-3.1-2.9h-2.1v5.7H470.5z"/>
	<path class="st5" d="M475.6,166.7c0-0.3,0.2-0.5,0.5-0.5c0.3,0,0.5,0.2,0.5,0.5c0,0.3-0.2,0.5-0.5,0.5
		C475.8,167.2,475.6,167,475.6,166.7z M475.8,168.3h0.7v5.3h-0.7V168.3z"/>
	<path class="st5" d="M483.8,171c0,1.6-1.1,2.7-2.6,2.7c-0.8,0-1.6-0.4-2-1v2.9h-0.7v-7.2h0.7v1c0.4-0.7,1.2-1.1,2-1.1
		C482.7,168.3,483.8,169.4,483.8,171z M483.1,171c0-1.2-0.8-2-2-2c-1.1,0-2,0.8-2,2c0,1.2,0.8,2,2,2
		C482.2,173,483.1,172.2,483.1,171z"/>
	<path class="st5" d="M485.2,166.2h0.7v7.4h-0.7V166.2z"/>
	<path class="st5" d="M487.4,171c0-1.6,1.1-2.7,2.7-2.7s2.7,1.1,2.7,2.7c0,1.6-1.1,2.7-2.7,2.7S487.4,172.5,487.4,171z M492,171
		c0-1.2-0.8-2-1.9-2c-1.1,0-2,0.8-2,2c0,1.2,0.8,2,2,2C491.2,173,492,172.2,492,171z"/>
	<path class="st5" d="M502.9,170.5v3h-0.7v-3c0-1.1-0.6-1.7-1.5-1.7c-1.1,0-1.8,0.7-1.8,1.9v2.8h-0.7v-3c0-1.1-0.6-1.7-1.5-1.7
		c-1.1,0-1.8,0.7-1.8,1.9v2.8h-0.7v-5.3h0.7v1c0.4-0.6,1-1,1.9-1c0.9,0,1.5,0.4,1.9,1.1c0.4-0.7,1.1-1.1,2.1-1.1
		C502,168.3,502.9,169,502.9,170.5z"/>
	<path class="st5" d="M508.8,170.3v3.3h-0.7v-0.8c-0.3,0.5-0.9,0.9-1.8,0.9c-1.2,0-1.9-0.6-1.9-1.5c0-0.8,0.5-1.5,2-1.5h1.7v-0.3
		c0-0.9-0.5-1.4-1.5-1.4c-0.7,0-1.3,0.2-1.7,0.6l-0.3-0.5c0.5-0.4,1.3-0.7,2.1-0.7C508,168.3,508.8,169,508.8,170.3z M508.1,172
		v-0.9h-1.6c-1,0-1.3,0.4-1.3,0.9c0,0.6,0.5,1,1.3,1C507.2,173.1,507.8,172.7,508.1,172z"/>
</g>
<g>
	<g>
		<rect x="265.9" y="108.3" class="st22" width="0.9" height="8.2"/>
		<polygon class="st22" points="268.7,110.3 266.3,107.3 263.9,110.3 		"/>
	</g>
	<g>
		<rect x="265.9" y="67.1" class="st14" width="0.9" height="8.2"/>
		<polygon class="st14" points="268.7,69.1 266.3,66 263.9,69.1 		"/>
	</g>
	<g>
		<rect x="265.9" y="42.3" class="st14" width="0.9" height="8.2"/>
		<polygon class="st14" points="268.7,44.3 266.3,41.3 263.9,44.3 		"/>
	</g>
	<g>
		<path class="st5" d="M237.7,128.3c0,0.8-0.6,1.3-1.8,1.3h-2.3v-4.9h2.1c1.1,0,1.7,0.5,1.7,1.3c0,0.6-0.3,0.9-0.7,1.1
			C237.3,127.2,237.7,127.6,237.7,128.3z M234.1,125.1v1.8h1.6c0.8,0,1.2-0.3,1.2-0.9s-0.5-0.9-1.2-0.9H234.1z M237.2,128.3
			c0-0.6-0.5-0.9-1.3-0.9h-1.7v1.8h1.7C236.7,129.2,237.2,128.9,237.2,128.3z"/>
		<path class="st5" d="M241.5,127.3v2.3h-0.5V129c-0.2,0.4-0.7,0.6-1.3,0.6c-0.8,0-1.3-0.4-1.3-1.1c0-0.6,0.4-1,1.4-1h1.2v-0.2
			c0-0.6-0.4-1-1-1c-0.5,0-0.9,0.2-1.2,0.4l-0.2-0.4c0.4-0.3,0.9-0.5,1.5-0.5C241,125.9,241.5,126.4,241.5,127.3z M241.1,128.5v-0.6
			h-1.2c-0.7,0-0.9,0.3-0.9,0.7c0,0.4,0.3,0.7,0.9,0.7C240.4,129.3,240.9,129,241.1,128.5z"/>
		<path class="st5" d="M242.5,127.8c0-1.1,0.8-1.9,1.9-1.9c0.6,0,1.1,0.2,1.4,0.7l-0.4,0.3c-0.3-0.4-0.6-0.5-1.1-0.5
			c-0.8,0-1.4,0.6-1.4,1.4c0,0.9,0.6,1.4,1.4,1.4c0.4,0,0.8-0.2,1.1-0.5l0.4,0.3c-0.3,0.5-0.8,0.7-1.4,0.7
			C243.3,129.6,242.5,128.9,242.5,127.8z"/>
		<path class="st5" d="M250.2,127.5v2.1h-0.5v-2.1c0-0.8-0.4-1.2-1.1-1.2c-0.8,0-1.3,0.5-1.3,1.3v1.9h-0.5v-5.2h0.5v2.2
			c0.3-0.4,0.8-0.7,1.4-0.7C249.6,125.9,250.2,126.4,250.2,127.5z"/>
		<path class="st5" d="M254.8,127.9h-3.1c0.1,0.8,0.6,1.3,1.4,1.3c0.4,0,0.8-0.2,1.1-0.5l0.3,0.3c-0.3,0.4-0.8,0.6-1.4,0.6
			c-1.1,0-1.9-0.8-1.9-1.9s0.8-1.9,1.8-1.9s1.8,0.8,1.8,1.9C254.8,127.8,254.8,127.9,254.8,127.9z M251.7,127.5h2.6
			c-0.1-0.7-0.6-1.2-1.3-1.2C252.3,126.3,251.7,126.8,251.7,127.5z"/>
		<path class="st5" d="M255.8,124.4h0.5v5.2h-0.5V124.4z"/>
		<path class="st5" d="M257.3,127.8c0-1.1,0.8-1.9,1.9-1.9s1.9,0.8,1.9,1.9s-0.8,1.9-1.9,1.9S257.3,128.9,257.3,127.8z M260.5,127.8
			c0-0.9-0.6-1.4-1.4-1.4c-0.8,0-1.4,0.6-1.4,1.4s0.6,1.4,1.4,1.4C260,129.2,260.5,128.6,260.5,127.8z"/>
		<path class="st5" d="M263.9,125.9v0.5c0,0-0.1,0-0.1,0c-0.8,0-1.2,0.5-1.2,1.4v1.9h-0.5v-3.7h0.5v0.7
			C262.8,126.2,263.2,125.9,263.9,125.9z"/>
		<path class="st5" d="M266.7,127.7c0-1.3,0.3-2.4,0.8-3.3h0.5c-0.6,1-0.8,2-0.8,3.3s0.2,2.3,0.8,3.3h-0.5
			C267,130.1,266.7,129,266.7,127.7z"/>
		<path class="st5" d="M273.2,124.7v4.9h-0.5v-2.3h-3.1v2.3h-0.5v-4.9h0.5v2.2h3.1v-2.2H273.2z"/>
		<path class="st5" d="M274.3,127.8c0-1.1,0.8-1.9,1.9-1.9c1.1,0,1.9,0.8,1.9,1.9s-0.8,1.9-1.9,1.9
			C275.1,129.6,274.3,128.9,274.3,127.8z M277.6,127.8c0-0.9-0.6-1.4-1.4-1.4s-1.4,0.6-1.4,1.4s0.6,1.4,1.4,1.4
			S277.6,128.6,277.6,127.8z"/>
		<path class="st5" d="M282.5,127.5v2.1H282v-2.1c0-0.8-0.4-1.2-1.1-1.2c-0.8,0-1.3,0.5-1.3,1.3v1.9h-0.5v-3.7h0.5v0.7
			c0.3-0.4,0.8-0.7,1.4-0.7C281.8,125.9,282.5,126.4,282.5,127.5z"/>
		<path class="st5" d="M283.5,127.8c0-1.1,0.8-1.9,1.9-1.9s1.9,0.8,1.9,1.9s-0.8,1.9-1.9,1.9S283.5,128.9,283.5,127.8z M286.7,127.8
			c0-0.9-0.6-1.4-1.4-1.4s-1.4,0.6-1.4,1.4s0.6,1.4,1.4,1.4S286.7,128.6,286.7,127.8z"/>
		<path class="st5" d="M291.5,125.9v3.7h-0.5v-0.7c-0.3,0.4-0.7,0.7-1.3,0.7c-0.9,0-1.6-0.5-1.6-1.6v-2.1h0.5v2.1
			c0,0.8,0.4,1.2,1.1,1.2c0.8,0,1.3-0.5,1.3-1.3v-1.9H291.5z"/>
		<path class="st5" d="M294.8,125.9v0.5c0,0-0.1,0-0.1,0c-0.8,0-1.2,0.5-1.2,1.4v1.9h-0.5v-3.7h0.5v0.7
			C293.6,126.2,294.1,125.9,294.8,125.9z"/>
		<path class="st5" d="M295.2,129.2l0.2-0.4c0.3,0.2,0.8,0.4,1.3,0.4c0.7,0,1-0.2,1-0.6c0-1-2.4-0.2-2.4-1.7c0-0.6,0.5-1.1,1.5-1.1
			c0.5,0,1,0.1,1.3,0.3l-0.2,0.4c-0.3-0.2-0.7-0.3-1.1-0.3c-0.7,0-1,0.3-1,0.6c0,1,2.4,0.2,2.4,1.7c0,0.6-0.6,1.1-1.5,1.1
			C296.1,129.6,295.5,129.4,295.2,129.2z"/>
		<path class="st5" d="M298.7,131c0.6-1,0.8-2,0.8-3.3s-0.2-2.3-0.8-3.3h0.5c0.5,0.8,0.8,2,0.8,3.3s-0.3,2.4-0.8,3.3H298.7z"/>
		<path class="st5" d="M254.6,135.7h2c1.6,0,2.6,1,2.6,2.5c0,1.4-1.1,2.5-2.6,2.5h-2V135.7z M256.5,140.2c1.3,0,2.1-0.8,2.1-2
			s-0.8-2-2.1-2h-1.4v4H256.5z"/>
		<path class="st5" d="M263.5,138.9h-3.1c0.1,0.8,0.6,1.3,1.4,1.3c0.4,0,0.8-0.2,1.1-0.5l0.3,0.3c-0.3,0.4-0.8,0.6-1.4,0.6
			c-1.1,0-1.9-0.8-1.9-1.9s0.8-1.9,1.8-1.9s1.8,0.8,1.8,1.9C263.5,138.8,263.5,138.9,263.5,138.9z M260.4,138.5h2.6
			c-0.1-0.7-0.6-1.2-1.3-1.2C261,137.3,260.4,137.8,260.4,138.5z"/>
		<path class="st5" d="M267.9,136.9v3.2c0,1.3-0.6,1.8-1.8,1.8c-0.7,0-1.3-0.2-1.7-0.6l0.3-0.4c0.4,0.3,0.9,0.5,1.4,0.5
			c0.9,0,1.4-0.4,1.4-1.3v-0.5c-0.3,0.5-0.8,0.7-1.4,0.7c-1.1,0-1.8-0.7-1.8-1.8s0.8-1.8,1.8-1.8c0.6,0,1.1,0.3,1.5,0.7v-0.7H267.9z
			 M267.4,138.7c0-0.8-0.6-1.3-1.4-1.3s-1.4,0.5-1.4,1.3c0,0.8,0.6,1.4,1.4,1.4S267.4,139.5,267.4,138.7z"/>
		<path class="st5" d="M271.1,136.9v0.5c0,0-0.1,0-0.1,0c-0.8,0-1.2,0.5-1.2,1.4v1.9h-0.5v-3.7h0.5v0.7
			C270,137.2,270.5,136.9,271.1,136.9z"/>
		<path class="st5" d="M275.2,138.9h-3.1c0.1,0.8,0.6,1.3,1.5,1.3c0.4,0,0.8-0.2,1.1-0.5l0.3,0.3c-0.3,0.4-0.8,0.6-1.4,0.6
			c-1.1,0-1.9-0.8-1.9-1.9s0.8-1.9,1.8-1.9c1,0,1.8,0.8,1.8,1.9C275.2,138.8,275.2,138.9,275.2,138.9z M272.1,138.5h2.6
			c-0.1-0.7-0.6-1.2-1.3-1.2C272.7,137.3,272.2,137.8,272.1,138.5z"/>
		<path class="st5" d="M279.4,138.9h-3.1c0.1,0.8,0.6,1.3,1.5,1.3c0.4,0,0.8-0.2,1.1-0.5l0.3,0.3c-0.3,0.4-0.8,0.6-1.4,0.6
			c-1.1,0-1.9-0.8-1.9-1.9s0.8-1.9,1.8-1.9c1,0,1.8,0.8,1.8,1.9C279.4,138.8,279.4,138.9,279.4,138.9z M276.4,138.5h2.6
			c-0.1-0.7-0.6-1.2-1.3-1.2C276.9,137.3,276.4,137.8,276.4,138.5z"/>
	</g>
	<g>
		<path class="st5" d="M233.8,87.5h0.5v1.9c-0.5,0.4-1.1,0.6-1.8,0.6c-1.5,0-2.6-1.1-2.6-2.5s1.1-2.5,2.6-2.5c0.7,0,1.4,0.2,1.8,0.7
			L234,86c-0.4-0.4-0.9-0.6-1.5-0.6c-1.2,0-2.1,0.9-2.1,2c0,1.2,0.9,2,2.1,2c0.5,0,0.9-0.1,1.3-0.4V87.5z"/>
		<path class="st5" d="M237.5,86.2v0.5c0,0-0.1,0-0.1,0c-0.8,0-1.2,0.5-1.2,1.4v1.9h-0.5v-3.7h0.5v0.7
			C236.4,86.5,236.9,86.2,237.5,86.2z"/>
		<path class="st5" d="M241.2,87.6v2.3h-0.5v-0.6c-0.2,0.4-0.7,0.6-1.3,0.6c-0.8,0-1.3-0.4-1.3-1.1c0-0.6,0.4-1,1.4-1h1.2v-0.2
			c0-0.6-0.4-1-1-1c-0.5,0-0.9,0.2-1.2,0.4l-0.2-0.4c0.4-0.3,0.9-0.5,1.5-0.5C240.7,86.2,241.2,86.7,241.2,87.6z M240.7,88.8v-0.6
			h-1.2c-0.7,0-0.9,0.3-0.9,0.7c0,0.4,0.3,0.7,0.9,0.7C240.1,89.5,240.5,89.3,240.7,88.8z"/>
		<path class="st5" d="M245.9,84.7v5.2h-0.5v-0.7c-0.3,0.5-0.8,0.8-1.4,0.8c-1.1,0-1.8-0.8-1.8-1.9c0-1.1,0.8-1.9,1.8-1.9
			c0.6,0,1.1,0.3,1.4,0.7v-2.2H245.9z M245.5,88.1c0-0.9-0.6-1.4-1.4-1.4c-0.8,0-1.4,0.6-1.4,1.4s0.6,1.4,1.4,1.4
			C244.9,89.5,245.5,88.9,245.5,88.1z"/>
		<path class="st5" d="M250.6,86.2v3.7h-0.5v-0.7c-0.3,0.4-0.7,0.7-1.3,0.7c-0.9,0-1.6-0.5-1.6-1.6v-2.1h0.5v2.1
			c0,0.8,0.4,1.2,1.1,1.2c0.8,0,1.3-0.5,1.3-1.3v-1.9H250.6z"/>
		<path class="st5" d="M254.8,87.6v2.3h-0.5v-0.6c-0.2,0.4-0.7,0.6-1.3,0.6c-0.8,0-1.3-0.4-1.3-1.1c0-0.6,0.4-1,1.4-1h1.2v-0.2
			c0-0.6-0.4-1-1-1c-0.5,0-0.9,0.2-1.2,0.4l-0.2-0.4c0.4-0.3,0.9-0.5,1.5-0.5C254.3,86.2,254.8,86.7,254.8,87.6z M254.3,88.8v-0.6
			h-1.2c-0.7,0-0.9,0.3-0.9,0.7c0,0.4,0.3,0.7,0.9,0.7C253.7,89.5,254.1,89.3,254.3,88.8z"/>
		<path class="st5" d="M258.1,89.7c-0.2,0.2-0.5,0.3-0.8,0.3c-0.7,0-1.1-0.4-1.1-1.1v-2.2h-0.7v-0.4h0.7v-0.8h0.5v0.8h1.1v0.4h-1.1
			v2.2c0,0.4,0.2,0.7,0.6,0.7c0.2,0,0.4-0.1,0.5-0.2L258.1,89.7z"/>
		<path class="st5" d="M262.1,88.2H259c0.1,0.8,0.6,1.3,1.4,1.3c0.4,0,0.8-0.2,1.1-0.5l0.3,0.3c-0.3,0.4-0.8,0.6-1.4,0.6
			c-1.1,0-1.9-0.8-1.9-1.9s0.8-1.9,1.8-1.9s1.8,0.8,1.8,1.9C262.1,88.1,262.1,88.2,262.1,88.2z M259,87.8h2.6
			c-0.1-0.7-0.6-1.2-1.3-1.2C259.6,86.6,259.1,87.1,259,87.8z"/>
		<path class="st5" d="M264.6,87.5c0-1.4,1.1-2.5,2.6-2.5c0.7,0,1.4,0.2,1.8,0.7l-0.3,0.3c-0.4-0.4-0.9-0.6-1.4-0.6
			c-1.2,0-2.1,0.9-2.1,2c0,1.2,0.9,2,2.1,2c0.6,0,1.1-0.2,1.4-0.6l0.3,0.3c-0.4,0.5-1.1,0.7-1.8,0.7
			C265.7,89.9,264.6,88.9,264.6,87.5z"/>
		<path class="st5" d="M273,88.2h-3.1c0.1,0.8,0.6,1.3,1.5,1.3c0.4,0,0.8-0.2,1.1-0.5l0.3,0.3c-0.3,0.4-0.8,0.6-1.4,0.6
			c-1.1,0-1.9-0.8-1.9-1.9s0.8-1.9,1.8-1.9c1,0,1.8,0.8,1.8,1.9C273,88.1,273,88.2,273,88.2z M269.9,87.8h2.6
			c-0.1-0.7-0.6-1.2-1.3-1.2C270.5,86.6,270,87.1,269.9,87.8z"/>
		<path class="st5" d="M275.9,86.2v0.5c0,0-0.1,0-0.1,0c-0.8,0-1.2,0.5-1.2,1.4v1.9H274v-3.7h0.5v0.7
			C274.7,86.5,275.2,86.2,275.9,86.2z"/>
		<path class="st5" d="M278.9,89.7c-0.2,0.2-0.5,0.3-0.8,0.3c-0.7,0-1.1-0.4-1.1-1.1v-2.2h-0.7v-0.4h0.7v-0.8h0.5v0.8h1.1v0.4h-1.1
			v2.2c0,0.4,0.2,0.7,0.6,0.7c0.2,0,0.4-0.1,0.5-0.2L278.9,89.7z"/>
		<path class="st5" d="M279.7,85.1c0-0.2,0.2-0.4,0.4-0.4s0.4,0.2,0.4,0.3c0,0.2-0.2,0.4-0.4,0.4C279.8,85.4,279.7,85.3,279.7,85.1z
			 M279.8,86.2h0.5v3.7h-0.5V86.2z"/>
		<path class="st5" d="M282.2,85.8v0.4h1.1v0.4h-1.1v3.3h-0.5v-3.3h-0.7v-0.4h0.7v-0.5c0-0.7,0.4-1.1,1.1-1.1c0.3,0,0.6,0.1,0.7,0.2
			l-0.2,0.4c-0.1-0.1-0.3-0.2-0.5-0.2C282.5,85.1,282.2,85.3,282.2,85.8z"/>
		<path class="st5" d="M284.5,85.1c0-0.2,0.2-0.4,0.4-0.4s0.4,0.2,0.4,0.3c0,0.2-0.2,0.4-0.4,0.4C284.7,85.4,284.5,85.3,284.5,85.1z
			 M284.6,86.2h0.5v3.7h-0.5V86.2z"/>
		<path class="st5" d="M286.1,88.1c0-1.1,0.8-1.9,1.9-1.9c0.6,0,1.1,0.2,1.4,0.7l-0.4,0.3c-0.3-0.4-0.6-0.5-1.1-0.5
			c-0.8,0-1.4,0.6-1.4,1.4c0,0.9,0.6,1.4,1.4,1.4c0.4,0,0.8-0.2,1.1-0.5l0.4,0.3c-0.3,0.5-0.8,0.7-1.4,0.7
			C286.9,89.9,286.1,89.2,286.1,88.1z"/>
		<path class="st5" d="M293.2,87.6v2.3h-0.5v-0.6c-0.2,0.4-0.7,0.6-1.3,0.6c-0.8,0-1.3-0.4-1.3-1.1c0-0.6,0.4-1,1.4-1h1.2v-0.2
			c0-0.6-0.4-1-1-1c-0.5,0-0.9,0.2-1.2,0.4l-0.2-0.4c0.4-0.3,0.9-0.5,1.5-0.5C292.7,86.2,293.2,86.7,293.2,87.6z M292.7,88.8v-0.6
			h-1.2c-0.7,0-0.9,0.3-0.9,0.7c0,0.4,0.3,0.7,0.9,0.7C292.1,89.5,292.5,89.3,292.7,88.8z"/>
		<path class="st5" d="M296.5,89.7c-0.2,0.2-0.5,0.3-0.8,0.3c-0.7,0-1.1-0.4-1.1-1.1v-2.2H294v-0.4h0.7v-0.8h0.5v0.8h1.1v0.4h-1.1
			v2.2c0,0.4,0.2,0.7,0.6,0.7c0.2,0,0.4-0.1,0.5-0.2L296.5,89.7z"/>
		<path class="st5" d="M300.5,88.2h-3.1c0.1,0.8,0.6,1.3,1.5,1.3c0.4,0,0.8-0.2,1.1-0.5l0.3,0.3c-0.3,0.4-0.8,0.6-1.4,0.6
			c-1.1,0-1.9-0.8-1.9-1.9s0.8-1.9,1.8-1.9c1,0,1.8,0.8,1.8,1.9C300.5,88.1,300.5,88.2,300.5,88.2z M297.4,87.8h2.6
			c-0.1-0.7-0.6-1.2-1.3-1.2C298,86.6,297.5,87.1,297.4,87.8z"/>
		<path class="st5" d="M302.9,84h0.5l-2.3,6.6h-0.5L302.9,84z"/>
		<path class="st5" d="M238.2,98.5h0.5v1.9c-0.5,0.4-1.1,0.6-1.8,0.6c-1.5,0-2.6-1.1-2.6-2.5s1.1-2.5,2.6-2.5c0.7,0,1.4,0.2,1.8,0.7
			l-0.3,0.3c-0.4-0.4-0.9-0.6-1.5-0.6c-1.2,0-2.1,0.9-2.1,2c0,1.2,0.9,2,2.1,2c0.5,0,0.9-0.1,1.3-0.4V98.5z"/>
		<path class="st5" d="M241.9,97.2v0.5c0,0-0.1,0-0.1,0c-0.8,0-1.2,0.5-1.2,1.4v1.9H240v-3.7h0.5v0.7
			C240.7,97.5,241.2,97.2,241.9,97.2z"/>
		<path class="st5" d="M245.5,98.6v2.3h-0.5v-0.6c-0.2,0.4-0.7,0.6-1.3,0.6c-0.8,0-1.3-0.4-1.3-1.1c0-0.6,0.4-1,1.4-1h1.2v-0.2
			c0-0.6-0.4-1-1-1c-0.5,0-0.9,0.2-1.2,0.4l-0.2-0.4c0.4-0.3,0.9-0.5,1.5-0.5C245,97.2,245.5,97.7,245.5,98.6z M245.1,99.8v-0.6
			h-1.2c-0.7,0-0.9,0.3-0.9,0.7c0,0.4,0.3,0.7,0.9,0.7C244.4,100.5,244.9,100.3,245.1,99.8z"/>
		<path class="st5" d="M250.3,95.7v5.2h-0.5v-0.7c-0.3,0.5-0.8,0.8-1.4,0.8c-1.1,0-1.8-0.8-1.8-1.9c0-1.1,0.8-1.9,1.8-1.9
			c0.6,0,1.1,0.3,1.4,0.7v-2.2H250.3z M249.8,99.1c0-0.9-0.6-1.4-1.4-1.4c-0.8,0-1.4,0.6-1.4,1.4s0.6,1.4,1.4,1.4
			C249.2,100.5,249.8,99.9,249.8,99.1z"/>
		<path class="st5" d="M255,97.2v3.7h-0.5v-0.7c-0.3,0.4-0.7,0.7-1.3,0.7c-0.9,0-1.6-0.5-1.6-1.6v-2.1h0.5v2.1
			c0,0.8,0.4,1.2,1.1,1.2c0.8,0,1.3-0.5,1.3-1.3v-1.9H255z"/>
		<path class="st5" d="M259.2,98.6v2.3h-0.5v-0.6c-0.2,0.4-0.7,0.6-1.3,0.6c-0.8,0-1.3-0.4-1.3-1.1c0-0.6,0.4-1,1.4-1h1.2v-0.2
			c0-0.6-0.4-1-1-1c-0.5,0-0.9,0.2-1.2,0.4l-0.2-0.4c0.4-0.3,0.9-0.5,1.5-0.5C258.6,97.2,259.2,97.7,259.2,98.6z M258.7,99.8v-0.6
			h-1.2c-0.7,0-0.9,0.3-0.9,0.7c0,0.4,0.3,0.7,0.9,0.7C258,100.5,258.5,100.3,258.7,99.8z"/>
		<path class="st5" d="M262.4,100.7c-0.2,0.2-0.5,0.3-0.8,0.3c-0.7,0-1.1-0.4-1.1-1.1v-2.2h-0.7v-0.4h0.7v-0.8h0.5v0.8h1.1v0.4h-1.1
			v2.2c0,0.4,0.2,0.7,0.6,0.7c0.2,0,0.4-0.1,0.5-0.2L262.4,100.7z"/>
		<path class="st5" d="M266.4,99.2h-3.1c0.1,0.8,0.6,1.3,1.4,1.3c0.4,0,0.8-0.2,1.1-0.5l0.3,0.3c-0.3,0.4-0.8,0.6-1.4,0.6
			c-1.1,0-1.9-0.8-1.9-1.9s0.8-1.9,1.8-1.9s1.8,0.8,1.8,1.9C266.4,99.1,266.4,99.2,266.4,99.2z M263.3,98.8h2.6
			c-0.1-0.7-0.6-1.2-1.3-1.2C263.9,97.6,263.4,98.1,263.3,98.8z"/>
		<path class="st5" d="M269.4,96h2c1.6,0,2.6,1,2.6,2.5c0,1.4-1.1,2.5-2.6,2.5h-2V96z M271.3,100.5c1.3,0,2.1-0.8,2.1-2
			s-0.8-2-2.1-2h-1.5v4H271.3z"/>
		<path class="st5" d="M274.9,96.1c0-0.2,0.2-0.4,0.4-0.4s0.4,0.2,0.4,0.3c0,0.2-0.2,0.4-0.4,0.4C275.1,96.4,274.9,96.3,274.9,96.1z
			 M275.1,97.2h0.5v3.7h-0.5V97.2z"/>
		<path class="st5" d="M280.7,99.1c0,1.1-0.8,1.9-1.8,1.9c-0.6,0-1.1-0.3-1.4-0.7v2.1h-0.5v-5h0.5V98c0.3-0.5,0.8-0.8,1.4-0.8
			C279.9,97.2,280.7,98,280.7,99.1z M280.2,99.1c0-0.9-0.6-1.4-1.4-1.4c-0.8,0-1.4,0.6-1.4,1.4c0,0.9,0.6,1.4,1.4,1.4
			C279.6,100.5,280.2,99.9,280.2,99.1z"/>
		<path class="st5" d="M281.7,95.7h0.5v5.2h-0.5V95.7z"/>
		<path class="st5" d="M283.2,99.1c0-1.1,0.8-1.9,1.9-1.9c1.1,0,1.9,0.8,1.9,1.9s-0.8,1.9-1.9,1.9C284,100.9,283.2,100.2,283.2,99.1
			z M286.4,99.1c0-0.9-0.6-1.4-1.4-1.4s-1.4,0.6-1.4,1.4s0.6,1.4,1.4,1.4S286.4,99.9,286.4,99.1z"/>
		<path class="st5" d="M294,98.8v2.1h-0.5v-2.1c0-0.8-0.4-1.2-1.1-1.2c-0.8,0-1.2,0.5-1.2,1.3v1.9h-0.5v-2.1c0-0.8-0.4-1.2-1.1-1.2
			c-0.7,0-1.2,0.5-1.2,1.3v1.9H288v-3.7h0.5v0.7c0.3-0.4,0.7-0.7,1.4-0.7c0.6,0,1.1,0.3,1.3,0.8c0.3-0.5,0.8-0.8,1.5-0.8
			C293.4,97.2,294,97.7,294,98.8z"/>
		<path class="st5" d="M298.2,98.6v2.3h-0.5v-0.6c-0.2,0.4-0.7,0.6-1.3,0.6c-0.8,0-1.3-0.4-1.3-1.1c0-0.6,0.4-1,1.4-1h1.2v-0.2
			c0-0.6-0.4-1-1-1c-0.5,0-0.9,0.2-1.2,0.4l-0.2-0.4c0.4-0.3,0.9-0.5,1.5-0.5C297.6,97.2,298.2,97.7,298.2,98.6z M297.7,99.8v-0.6
			h-1.2c-0.7,0-0.9,0.3-0.9,0.7c0,0.4,0.3,0.7,0.9,0.7C297.1,100.5,297.5,100.3,297.7,99.8z"/>
	</g>
	<g>
		<path class="st5" d="M244.8,58.6v4.9h-0.5v-3.9l-1.9,3.3h-0.2l-1.9-3.3v3.9h-0.5v-4.9h0.4l2.1,3.6l2.1-3.6H244.8z"/>
		<path class="st5" d="M249.1,61.2v2.3h-0.5v-0.6c-0.2,0.4-0.7,0.6-1.3,0.6c-0.8,0-1.3-0.4-1.3-1.1c0-0.6,0.4-1,1.4-1h1.2v-0.2
			c0-0.6-0.4-1-1-1c-0.5,0-0.9,0.2-1.2,0.4l-0.2-0.4c0.4-0.3,0.9-0.5,1.5-0.5C248.5,59.8,249.1,60.2,249.1,61.2z M248.6,62.4v-0.6
			h-1.2c-0.7,0-0.9,0.3-0.9,0.7c0,0.4,0.3,0.7,0.9,0.7C248,63.1,248.4,62.9,248.6,62.4z"/>
		<path class="st5" d="M249.9,63.1l0.2-0.4c0.3,0.2,0.8,0.4,1.3,0.4c0.7,0,1-0.2,1-0.6c0-1-2.4-0.2-2.4-1.7c0-0.6,0.5-1.1,1.5-1.1
			c0.5,0,1,0.1,1.3,0.3l-0.2,0.4c-0.3-0.2-0.7-0.3-1.1-0.3c-0.7,0-1,0.3-1,0.6c0,1,2.4,0.2,2.4,1.7c0,0.6-0.6,1.1-1.5,1.1
			C250.8,63.5,250.2,63.3,249.9,63.1z"/>
		<path class="st5" d="M255.8,63.2c-0.2,0.2-0.5,0.3-0.8,0.3c-0.7,0-1.1-0.4-1.1-1.1v-2.2h-0.7v-0.4h0.7V59h0.5v0.8h1.1v0.4h-1.1
			v2.2c0,0.4,0.2,0.7,0.6,0.7c0.2,0,0.4-0.1,0.5-0.2L255.8,63.2z"/>
		<path class="st5" d="M259.8,61.8h-3.1c0.1,0.8,0.6,1.3,1.4,1.3c0.4,0,0.8-0.2,1.1-0.5l0.3,0.3c-0.3,0.4-0.8,0.6-1.4,0.6
			c-1.1,0-1.9-0.8-1.9-1.9c0-1.1,0.8-1.9,1.8-1.9s1.8,0.8,1.8,1.9C259.8,61.7,259.8,61.7,259.8,61.8z M256.7,61.4h2.6
			c-0.1-0.7-0.6-1.2-1.3-1.2C257.3,60.2,256.7,60.7,256.7,61.4z"/>
		<path class="st5" d="M262.6,59.8v0.5c0,0-0.1,0-0.1,0c-0.8,0-1.2,0.5-1.2,1.4v1.9h-0.5v-3.7h0.5v0.7C261.5,60,262,59.8,262.6,59.8
			z"/>
		<path class="st5" d="M263.1,63.1l0.2-0.4c0.3,0.2,0.8,0.4,1.3,0.4c0.7,0,1-0.2,1-0.6c0-1-2.4-0.2-2.4-1.7c0-0.6,0.5-1.1,1.5-1.1
			c0.5,0,1,0.1,1.3,0.3l-0.2,0.4c-0.3-0.2-0.7-0.3-1.1-0.3c-0.7,0-1,0.3-1,0.6c0,1,2.4,0.2,2.4,1.7c0,0.6-0.6,1.1-1.5,1.1
			C263.9,63.5,263.4,63.3,263.1,63.1z"/>
		<path class="st5" d="M268.9,58.6h2c1.6,0,2.6,1,2.6,2.5c0,1.4-1.1,2.5-2.6,2.5h-2V58.6z M270.9,63c1.3,0,2.1-0.8,2.1-2
			c0-1.2-0.8-2-2.1-2h-1.5v4H270.9z"/>
		<path class="st5" d="M277.8,61.8h-3.1c0.1,0.8,0.6,1.3,1.5,1.3c0.4,0,0.8-0.2,1.1-0.5l0.3,0.3c-0.3,0.4-0.8,0.6-1.4,0.6
			c-1.1,0-1.9-0.8-1.9-1.9c0-1.1,0.8-1.9,1.8-1.9c1,0,1.8,0.8,1.8,1.9C277.8,61.7,277.8,61.7,277.8,61.8z M274.7,61.4h2.6
			c-0.1-0.7-0.6-1.2-1.3-1.2C275.3,60.2,274.8,60.7,274.7,61.4z"/>
		<path class="st5" d="M282.2,59.8V63c0,1.3-0.6,1.8-1.8,1.8c-0.7,0-1.3-0.2-1.7-0.6l0.3-0.4c0.3,0.3,0.9,0.5,1.4,0.5
			c0.9,0,1.4-0.4,1.4-1.3v-0.5c-0.3,0.5-0.8,0.7-1.4,0.7c-1,0-1.8-0.7-1.8-1.8s0.8-1.8,1.8-1.8c0.6,0,1.1,0.3,1.5,0.7v-0.7H282.2z
			 M281.8,61.5c0-0.8-0.6-1.3-1.4-1.3c-0.8,0-1.4,0.5-1.4,1.3s0.6,1.4,1.4,1.4C281.2,62.9,281.8,62.3,281.8,61.5z"/>
		<path class="st5" d="M285.5,59.8v0.5c0,0-0.1,0-0.1,0c-0.8,0-1.2,0.5-1.2,1.4v1.9h-0.5v-3.7h0.5v0.7
			C284.3,60,284.8,59.8,285.5,59.8z"/>
		<path class="st5" d="M289.6,61.8h-3.1c0.1,0.8,0.6,1.3,1.5,1.3c0.4,0,0.8-0.2,1.1-0.5l0.3,0.3c-0.3,0.4-0.8,0.6-1.4,0.6
			c-1.1,0-1.9-0.8-1.9-1.9c0-1.1,0.8-1.9,1.8-1.9c1,0,1.8,0.8,1.8,1.9C289.6,61.7,289.6,61.7,289.6,61.8z M286.5,61.4h2.6
			c-0.1-0.7-0.6-1.2-1.3-1.2C287.1,60.2,286.5,60.7,286.5,61.4z"/>
		<path class="st5" d="M293.8,61.8h-3.1c0.1,0.8,0.6,1.3,1.5,1.3c0.4,0,0.8-0.2,1.1-0.5l0.3,0.3c-0.3,0.4-0.8,0.6-1.4,0.6
			c-1.1,0-1.9-0.8-1.9-1.9c0-1.1,0.8-1.9,1.8-1.9c1,0,1.8,0.8,1.8,1.9C293.8,61.7,293.8,61.7,293.8,61.8z M290.7,61.4h2.6
			c-0.1-0.7-0.6-1.2-1.3-1.2C291.3,60.2,290.8,60.7,290.7,61.4z"/>
	</g>
	<g>
		<path class="st5" d="M263.4,30.7c0,1-0.8,1.7-2,1.7h-1.3v1.5h-0.5V29h1.8C262.7,29,263.4,29.6,263.4,30.7z M262.9,30.7
			c0-0.8-0.5-1.2-1.5-1.2h-1.3v2.5h1.3C262.4,31.9,262.9,31.4,262.9,30.7z"/>
		<path class="st5" d="M267.9,31.7v2.1h-0.5v-2.1c0-0.8-0.4-1.2-1.1-1.2c-0.8,0-1.3,0.5-1.3,1.3v1.9h-0.5v-5.2h0.5v2.2
			c0.3-0.4,0.8-0.7,1.4-0.7C267.3,30.2,267.9,30.7,267.9,31.7z"/>
		<path class="st5" d="M269.4,29h2c1.6,0,2.6,1,2.6,2.5c0,1.4-1.1,2.5-2.6,2.5h-2V29z M271.3,33.4c1.3,0,2.1-0.8,2.1-2
			c0-1.2-0.8-2-2.1-2h-1.5v4H271.3z"/>
	</g>
</g>
<g>
	<path class="st8" d="M48.5,410.5v6.3h-1.2v-5.3H46v-1H48.5z"/>
</g>
<g>
	<path class="st8" d="M50.2,402.2v1h-4.6v-0.8l2.5-2.4c0.6-0.6,0.7-1,0.7-1.3c0-0.6-0.4-0.9-1.2-0.9c-0.6,0-1.1,0.2-1.5,0.7
		l-0.8-0.6c0.5-0.7,1.4-1,2.4-1c1.4,0,2.3,0.7,2.3,1.8c0,0.6-0.2,1.2-1,2l-1.7,1.6H50.2z"/>
</g>
<g>
	<path class="st8" d="M50.1,387.7c0,1.1-0.8,2-2.5,2c-0.9,0-1.8-0.3-2.4-0.7l0.5-0.9c0.5,0.4,1.1,0.6,1.8,0.6c0.8,0,1.3-0.4,1.3-1
		c0-0.6-0.4-0.9-1.4-0.9h-0.6v-0.8l1.4-1.7h-2.9v-1h4.3v0.8l-1.5,1.8C49.5,386,50.1,386.7,50.1,387.7z"/>
</g>
<g>
	<path class="st8" d="M51.2,374.5h-1.1v1.4h-1.1v-1.4h-3.5v-0.8l3.1-4.1h1.3l-2.9,3.9H49v-1.3h1.1v1.3h1.1V374.5z"/>
</g>
<g>
	<path class="st8" d="M50.2,360.4c0,1.1-0.8,2-2.5,2c-0.9,0-1.8-0.3-2.4-0.7l0.5-0.9c0.5,0.4,1.1,0.6,1.9,0.6c0.8,0,1.3-0.4,1.3-1
		c0-0.6-0.4-1-1.7-1h-1.5l0.3-3.4h3.7v1h-2.7l-0.1,1.5h0.6C49.4,358.4,50.2,359.3,50.2,360.4z"/>
</g>
<g>
	<path class="st8" d="M50.6,346.9c0,1.3-1,2-2.3,2c-1.7,0-2.7-1.1-2.7-3.1c0-2.2,1.3-3.3,3.1-3.3c0.6,0,1.2,0.1,1.7,0.4l-0.4,0.9
		c-0.3-0.2-0.8-0.3-1.2-0.3c-1.2,0-1.9,0.7-1.9,2.2v0c0.4-0.4,1-0.7,1.7-0.7C49.7,344.9,50.6,345.7,50.6,346.9z M49.4,346.9
		c0-0.7-0.5-1.1-1.3-1.1c-0.8,0-1.3,0.5-1.3,1.1c0,0.6,0.5,1.1,1.3,1.1C48.9,348,49.4,347.6,49.4,346.9z"/>
</g>
<g>
	<path class="st8" d="M50.3,324.7v0.8l-2.4,5.5h-1.3l2.4-5.3h-2.5v1.1h-1.1v-2.1H50.3z"/>
</g>
<g>
	<path class="st8" d="M50.7,315.7c0,1.2-1,1.9-2.6,1.9s-2.6-0.7-2.6-1.9c0-0.7,0.4-1.2,1-1.5c-0.5-0.3-0.8-0.7-0.8-1.3
		c0-1.1,0.9-1.8,2.3-1.8c1.4,0,2.4,0.7,2.4,1.8c0,0.6-0.3,1-0.8,1.3C50.3,314.4,50.7,315,50.7,315.7z M49.5,315.6c0-0.6-0.5-1-1.4-1
		s-1.4,0.4-1.4,1c0,0.6,0.5,1,1.4,1S49.5,316.3,49.5,315.6z M46.9,312.9c0,0.5,0.5,0.9,1.2,0.9c0.7,0,1.2-0.3,1.2-0.9
		c0-0.6-0.5-0.9-1.2-0.9S46.9,312.3,46.9,312.9z"/>
</g>
<g>
	<path class="st8" d="M50.4,300.6c0,2.2-1.3,3.3-3.1,3.3c-0.6,0-1.2-0.1-1.7-0.4l0.4-0.9c0.3,0.2,0.8,0.3,1.2,0.3
		c1.2,0,1.9-0.7,1.9-2.2v0c-0.4,0.4-1,0.7-1.7,0.7c-1.2,0-2.2-0.8-2.2-1.9c0-1.3,1-2,2.3-2C49.4,297.5,50.4,298.6,50.4,300.6z
		 M49.1,299.5c0-0.6-0.5-1.1-1.3-1.1c-0.7,0-1.2,0.4-1.2,1.1s0.5,1.1,1.3,1.1C48.5,300.6,49.1,300.1,49.1,299.5z"/>
</g>
<g>
	<path class="st8" d="M45,284v6.3h-1.2V285h-1.3v-1H45z"/>
	<path class="st8" d="M46.2,287.2c0-2.1,1.1-3.2,2.6-3.2c1.5,0,2.6,1.2,2.6,3.2c0,2.1-1.1,3.2-2.6,3.2
		C47.3,290.4,46.2,289.2,46.2,287.2z M50.3,287.2c0-1.5-0.6-2.2-1.5-2.2c-0.9,0-1.4,0.7-1.4,2.2s0.6,2.2,1.4,2.2
		C49.7,289.4,50.3,288.7,50.3,287.2z"/>
</g>
<g>
	<path class="st8" d="M45.7,270.5v6.3h-1.2v-5.3h-1.3v-1H45.7z"/>
	<path class="st8" d="M49.1,270.5v6.3H48v-5.3h-1.3v-1H49.1z"/>
</g>
<g>
	<path class="st8" d="M45,257v6.3h-1.2V258h-1.3v-1H45z"/>
	<path class="st8" d="M50.9,262.3v1h-4.6v-0.8l2.5-2.4c0.6-0.6,0.7-1,0.7-1.3c0-0.6-0.4-0.9-1.2-0.9c-0.6,0-1.1,0.2-1.5,0.7
		l-0.8-0.6c0.5-0.7,1.4-1,2.4-1c1.4,0,2.3,0.7,2.3,1.8c0,0.6-0.2,1.2-1,2l-1.7,1.6H50.9z"/>
</g>
<g>
	<path class="st8" d="M48.5,217.2v6.3h-1.2v-5.3H46v-1H48.5z"/>
</g>
<g>
	<path class="st8" d="M50.2,208v1h-4.6v-0.8l2.5-2.4c0.6-0.6,0.7-1,0.7-1.3c0-0.6-0.4-0.9-1.2-0.9c-0.6,0-1.1,0.2-1.5,0.7l-0.8-0.6
		c0.5-0.7,1.4-1,2.4-1c1.4,0,2.3,0.7,2.3,1.8c0,0.6-0.2,1.2-1,2l-1.7,1.6H50.2z"/>
</g>
<g>
	<path class="st8" d="M50.1,192.5c0,1.1-0.8,2-2.5,2c-0.9,0-1.8-0.3-2.4-0.7l0.5-0.9c0.5,0.4,1.1,0.6,1.8,0.6c0.8,0,1.3-0.4,1.3-1
		c0-0.6-0.4-0.9-1.4-0.9h-0.6v-0.8l1.4-1.7h-2.9v-1h4.3v0.8l-1.5,1.8C49.5,190.9,50.1,191.6,50.1,192.5z"/>
</g>
<g>
	<path class="st8" d="M51.2,178.5h-1.1v1.4h-1.1v-1.4h-3.5v-0.8l3.1-4.1h1.3l-2.9,3.9H49v-1.3h1.1v1.3h1.1V178.5z"/>
</g>
<g>
	<path class="st5" d="M120.7,301.8l0.5-1.1c0.6,0.5,1.6,0.8,2.5,0.8c1.2,0,1.7-0.4,1.7-1c0-1.7-4.6-0.6-4.6-3.4c0-1.2,1-2.3,3.1-2.3
		c0.9,0,1.9,0.2,2.6,0.7l-0.5,1.1c-0.7-0.4-1.5-0.6-2.1-0.6c-1.2,0-1.7,0.5-1.7,1c0,1.6,4.6,0.6,4.6,3.4c0,1.2-1,2.3-3.1,2.3
		C122.6,302.7,121.4,302.4,120.7,301.8z"/>
	<path class="st5" d="M133.7,300.1h-4.6c0.2,0.9,0.9,1.4,1.9,1.4c0.7,0,1.2-0.2,1.6-0.6l0.7,0.8c-0.5,0.6-1.4,1-2.4,1
		c-2,0-3.2-1.3-3.2-3s1.3-3,3-3c1.7,0,3,1.2,3,3C133.7,299.8,133.7,300,133.7,300.1z M129.1,299.2h3.3c-0.1-0.8-0.8-1.4-1.7-1.4
		C129.8,297.8,129.2,298.4,129.1,299.2z"/>
	<path class="st5" d="M134.5,299.7c0-1.8,1.3-3,3.2-3c1.1,0,2.1,0.5,2.5,1.4l-1.1,0.6c-0.4-0.6-0.9-0.8-1.5-0.8
		c-1,0-1.8,0.7-1.8,1.8c0,1.1,0.8,1.8,1.8,1.8c0.6,0,1.1-0.3,1.5-0.8l1.1,0.6c-0.5,0.9-1.4,1.4-2.5,1.4
		C135.9,302.7,134.5,301.4,134.5,299.7z"/>
	<path class="st5" d="M140.8,299.7c0-1.8,1.3-3,3.1-3c1.8,0,3.1,1.2,3.1,3c0,1.8-1.3,3-3.1,3C142.2,302.7,140.8,301.4,140.8,299.7z
		 M145.7,299.7c0-1.1-0.7-1.8-1.7-1.8c-1,0-1.7,0.7-1.7,1.8s0.7,1.8,1.7,1.8C145,301.5,145.7,300.8,145.7,299.7z"/>
	<path class="st5" d="M154.2,299.3v3.4h-1.4v-3.2c0-1-0.5-1.6-1.4-1.6c-1,0-1.6,0.6-1.6,1.8v3h-1.4v-5.9h1.3v0.8
		c0.5-0.5,1.2-0.8,2-0.8C153.2,296.7,154.2,297.5,154.2,299.3z"/>
	<path class="st5" d="M161.8,294.5v8.2h-1.3v-0.8c-0.5,0.6-1.1,0.8-1.9,0.8c-1.7,0-3-1.2-3-3s1.3-3,3-3c0.8,0,1.4,0.3,1.9,0.8v-3
		H161.8z M160.4,299.7c0-1.1-0.8-1.8-1.7-1.8c-1,0-1.7,0.7-1.7,1.8s0.8,1.8,1.7,1.8C159.6,301.5,160.4,300.8,160.4,299.7z"/>
	<path class="st5" d="M168.5,299.2v3.4h-1.3v-0.7c-0.3,0.5-1,0.8-1.8,0.8c-1.3,0-2.2-0.7-2.2-1.8c0-1,0.7-1.7,2.4-1.7h1.5v-0.1
		c0-0.8-0.5-1.3-1.5-1.3c-0.7,0-1.3,0.2-1.8,0.6l-0.5-1c0.6-0.5,1.5-0.7,2.5-0.7C167.5,296.7,168.5,297.5,168.5,299.2z M167.1,300.8
		v-0.7h-1.4c-0.9,0-1.2,0.4-1.2,0.8c0,0.5,0.4,0.8,1.1,0.8C166.3,301.7,166.9,301.4,167.1,300.8z"/>
	<path class="st5" d="M173.6,296.7v1.3c-0.1,0-0.2,0-0.3,0c-1,0-1.7,0.6-1.7,1.8v2.8h-1.4v-5.9h1.3v0.9
		C171.9,297,172.7,296.7,173.6,296.7z"/>
	<path class="st5" d="M180.5,296.8l-2.8,6.3c-0.5,1.3-1.3,1.7-2.3,1.7c-0.6,0-1.2-0.2-1.6-0.5l0.6-1c0.3,0.3,0.6,0.4,1,0.4
		c0.5,0,0.8-0.2,1-0.8l0.1-0.2l-2.6-5.9h1.4l1.8,4.3l1.9-4.3H180.5z"/>
</g>
<polyline class="st16" points="224.6,279.2 224.6,265.7 331.2,265.7 "/>
<line class="st19" x1="124.9" y1="250" x2="124.9" y2="228.6"/>
<g>
	<path class="st5" d="M87,162.1c0,1.2-0.9,1.9-2.6,1.9h-3.2v-7h3c1.6,0,2.5,0.7,2.5,1.8c0,0.8-0.4,1.3-1.1,1.6
		C86.4,160.6,87,161.2,87,162.1z M81.9,157.6v2.5h2.2c1.1,0,1.8-0.4,1.8-1.3s-0.6-1.3-1.8-1.3H81.9z M86.2,162.1
		c0-0.9-0.7-1.3-1.9-1.3h-2.5v2.6h2.5C85.6,163.4,86.2,163,86.2,162.1z"/>
	<path class="st5" d="M92.5,160.7v3.3h-0.7v-0.8c-0.3,0.5-0.9,0.9-1.8,0.9c-1.2,0-1.9-0.6-1.9-1.5c0-0.8,0.5-1.5,2-1.5h1.7v-0.3
		c0-0.9-0.5-1.4-1.5-1.4c-0.7,0-1.3,0.2-1.7,0.6l-0.3-0.5c0.5-0.4,1.3-0.7,2.1-0.7C91.7,158.7,92.5,159.4,92.5,160.7z M91.8,162.4
		v-0.9h-1.6c-1,0-1.3,0.4-1.3,0.9c0,0.6,0.5,1,1.3,1C90.9,163.5,91.5,163.1,91.8,162.4z"/>
	<path class="st5" d="M93.9,161.4c0-1.6,1.1-2.7,2.7-2.7c0.9,0,1.6,0.3,2.1,1l-0.5,0.4c-0.4-0.5-0.9-0.8-1.5-0.8c-1.1,0-2,0.8-2,2
		c0,1.2,0.8,2,2,2c0.6,0,1.2-0.2,1.5-0.8l0.5,0.4c-0.4,0.7-1.2,1-2.1,1C95.1,164,93.9,162.9,93.9,161.4z"/>
	<path class="st5" d="M104.8,160.9v3h-0.7v-3c0-1.1-0.6-1.7-1.6-1.7c-1.1,0-1.8,0.7-1.8,1.9v2.8H100v-7.4h0.7v3.1c0.4-0.6,1.1-1,2-1
		C104,158.7,104.8,159.4,104.8,160.9z"/>
	<path class="st5" d="M111.4,161.6H107c0.1,1.1,0.9,1.8,2.1,1.8c0.6,0,1.2-0.2,1.6-0.7l0.4,0.5c-0.5,0.6-1.2,0.9-2,0.9
		c-1.6,0-2.8-1.1-2.8-2.7c0-1.6,1.1-2.7,2.6-2.7s2.5,1.1,2.5,2.7C111.4,161.4,111.4,161.5,111.4,161.6z M107,161h3.7
		c-0.1-1-0.8-1.7-1.9-1.7C107.8,159.3,107.1,160,107,161z"/>
	<path class="st5" d="M112.8,156.6h0.7v7.4h-0.7V156.6z"/>
	<path class="st5" d="M115,161.4c0-1.6,1.1-2.7,2.7-2.7s2.7,1.1,2.7,2.7c0,1.6-1.1,2.7-2.7,2.7S115,162.9,115,161.4z M119.6,161.4
		c0-1.2-0.8-2-1.9-2c-1.1,0-2,0.8-2,2c0,1.2,0.8,2,2,2C118.8,163.4,119.6,162.6,119.6,161.4z"/>
	<path class="st5" d="M124.4,158.7v0.7c-0.1,0-0.1,0-0.2,0c-1.1,0-1.8,0.7-1.8,1.9v2.7h-0.7v-5.3h0.7v1
		C122.8,159.1,123.5,158.7,124.4,158.7z"/>
	<path class="st5" d="M85,170h2.8c2.2,0,3.7,1.4,3.7,3.5s-1.5,3.5-3.7,3.5H85V170z M87.8,176.3c1.9,0,3.1-1.2,3.1-2.9
		s-1.2-2.9-3.1-2.9h-2.1v5.7H87.8z"/>
	<path class="st5" d="M97.7,174.6h-4.4c0.1,1.1,0.9,1.8,2.1,1.8c0.6,0,1.2-0.2,1.6-0.7l0.4,0.5c-0.5,0.6-1.2,0.9-2,0.9
		c-1.6,0-2.8-1.1-2.8-2.7c0-1.6,1.1-2.7,2.6-2.7s2.5,1.1,2.5,2.7C97.7,174.4,97.7,174.5,97.7,174.6z M93.3,174H97
		c-0.1-1-0.8-1.7-1.9-1.7C94.1,172.3,93.4,173,93.3,174z"/>
	<path class="st5" d="M104,171.7v4.6c0,1.8-0.9,2.6-2.6,2.6c-1,0-1.9-0.3-2.4-0.8l0.4-0.5c0.5,0.5,1.3,0.7,2.1,0.7
		c1.3,0,1.9-0.6,1.9-1.9v-0.7c-0.4,0.7-1.2,1-2,1c-1.5,0-2.6-1-2.6-2.6c0-1.5,1.1-2.5,2.6-2.5c0.9,0,1.6,0.4,2.1,1v-1H104z
		 M103.3,174.2c0-1.1-0.8-1.9-2-1.9c-1.2,0-2,0.8-2,1.9c0,1.1,0.8,1.9,2,1.9C102.5,176.2,103.3,175.4,103.3,174.2z"/>
	<path class="st5" d="M108.6,171.7v0.7c-0.1,0-0.1,0-0.2,0c-1.1,0-1.8,0.7-1.8,1.9v2.7H106v-5.3h0.7v1
		C107,172.1,107.7,171.7,108.6,171.7z"/>
	<path class="st5" d="M114.4,174.6H110c0.1,1.1,0.9,1.8,2.1,1.8c0.6,0,1.2-0.2,1.6-0.7l0.4,0.5c-0.5,0.6-1.2,0.9-2,0.9
		c-1.6,0-2.8-1.1-2.8-2.7c0-1.6,1.1-2.7,2.6-2.7s2.5,1.1,2.5,2.7C114.5,174.4,114.4,174.5,114.4,174.6z M110,174h3.7
		c-0.1-1-0.8-1.7-1.9-1.7C110.9,172.3,110.1,173,110,174z"/>
	<path class="st5" d="M120.5,174.6h-4.4c0.1,1.1,0.9,1.8,2.1,1.8c0.6,0,1.2-0.2,1.6-0.7l0.4,0.5c-0.5,0.6-1.2,0.9-2,0.9
		c-1.6,0-2.8-1.1-2.8-2.7c0-1.6,1.1-2.7,2.6-2.7s2.5,1.1,2.5,2.7C120.5,174.4,120.5,174.5,120.5,174.6z M116.1,174h3.7
		c-0.1-1-0.8-1.7-1.9-1.7C116.9,172.3,116.2,173,116.1,174z"/>
</g>
<g>
	<path class="st5" d="M123,203.8v-4.3h1.4v4.3c0,1.6,0.7,2.3,2,2.3s1.9-0.7,1.9-2.3v-4.3h1.4v4.3c0,2.2-1.3,3.5-3.4,3.5
		C124.3,207.3,123,206.1,123,203.8z"/>
	<path class="st5" d="M137.4,203.8v3.4H136V204c0-1-0.5-1.6-1.4-1.6c-1,0-1.6,0.6-1.6,1.8v3h-1.4v-5.9h1.3v0.8
		c0.5-0.5,1.2-0.8,2-0.8C136.4,201.2,137.4,202,137.4,203.8z"/>
	<path class="st5" d="M139,199.5c0-0.5,0.4-0.8,0.9-0.8s0.9,0.3,0.9,0.8c0,0.5-0.4,0.9-0.9,0.9C139.3,200.3,139,200,139,199.5z
		 M139.2,201.3h1.4v5.9h-1.4V201.3z"/>
	<path class="st5" d="M147.8,201.3l-2.5,5.9h-1.4l-2.5-5.9h1.4l1.8,4.4l1.9-4.4H147.8z"/>
	<path class="st5" d="M154,204.7h-4.6c0.2,0.9,0.9,1.4,1.9,1.4c0.7,0,1.2-0.2,1.6-0.6l0.7,0.8c-0.5,0.6-1.4,1-2.4,1
		c-2,0-3.2-1.3-3.2-3s1.3-3,3-3c1.7,0,3,1.2,3,3C154,204.4,154,204.5,154,204.7z M149.4,203.8h3.3c-0.1-0.8-0.8-1.4-1.7-1.4
		C150.2,202.3,149.5,202.9,149.4,203.8z"/>
	<path class="st5" d="M158.8,201.2v1.3c-0.1,0-0.2,0-0.3,0c-1,0-1.7,0.6-1.7,1.8v2.8h-1.4v-5.9h1.3v0.9
		C157.1,201.5,157.8,201.2,158.8,201.2z"/>
	<path class="st5" d="M159.3,206.6l0.5-1c0.5,0.3,1.3,0.6,2,0.6c0.9,0,1.2-0.2,1.2-0.6c0-1.1-3.6-0.1-3.6-2.4c0-1.1,1-1.8,2.6-1.8
		c0.8,0,1.7,0.2,2.2,0.5l-0.5,1c-0.6-0.3-1.1-0.4-1.7-0.4c-0.8,0-1.2,0.3-1.2,0.7c0,1.2,3.6,0.1,3.6,2.4c0,1.1-1,1.8-2.7,1.8
		C160.8,207.2,159.8,207,159.3,206.6z"/>
	<path class="st5" d="M165.4,199.5c0-0.5,0.4-0.8,0.9-0.8s0.9,0.3,0.9,0.8c0,0.5-0.4,0.9-0.9,0.9C165.8,200.3,165.4,200,165.4,199.5
		z M165.6,201.3h1.4v5.9h-1.4V201.3z"/>
	<path class="st5" d="M172.3,206.8c-0.3,0.3-0.8,0.4-1.3,0.4c-1.3,0-2-0.7-2-2v-2.8h-1v-1.1h1V200h1.4v1.3h1.6v1.1h-1.6v2.8
		c0,0.6,0.3,0.9,0.8,0.9c0.3,0,0.6-0.1,0.8-0.2L172.3,206.8z"/>
	<path class="st5" d="M178.8,201.3l-2.8,6.3c-0.5,1.3-1.3,1.7-2.3,1.7c-0.6,0-1.2-0.2-1.6-0.5l0.6-1c0.3,0.3,0.6,0.4,1,0.4
		c0.5,0,0.8-0.2,1-0.8l0.1-0.2l-2.6-5.9h1.4l1.8,4.3l1.9-4.3H178.8z"/>
</g>
<g>
	<path class="st21" d="M415.2,242.3h2.7c2,0,3.4,1.3,3.4,3.2c0,1.9-1.4,3.2-3.4,3.2h-2.7V242.3z M417.8,247.8c1.6,0,2.6-1,2.6-2.4
		c0-1.4-1-2.4-2.6-2.4h-1.7v4.7H417.8z"/>
	<path class="st21" d="M422.4,242.3c0-0.3,0.3-0.6,0.6-0.6c0.3,0,0.6,0.2,0.6,0.5c0,0.3-0.2,0.6-0.6,0.6
		C422.6,242.9,422.4,242.6,422.4,242.3z M422.5,243.8h0.9v4.8h-0.9V243.8z"/>
	<path class="st21" d="M430,246.2c0,1.5-1,2.4-2.4,2.4c-0.7,0-1.3-0.3-1.7-0.8v2.5H425v-6.5h0.8v0.8c0.4-0.5,1-0.8,1.7-0.8
		C429,243.8,430,244.7,430,246.2z M429.1,246.2c0-1-0.7-1.7-1.6-1.7c-0.9,0-1.6,0.7-1.6,1.7c0,1,0.7,1.7,1.6,1.7
		C428.4,247.9,429.1,247.2,429.1,246.2z"/>
	<path class="st21" d="M431.2,241.9h0.9v6.7h-0.9V241.9z"/>
	<path class="st21" d="M433.2,246.2c0-1.4,1.1-2.4,2.5-2.4c1.4,0,2.5,1,2.5,2.4s-1,2.4-2.5,2.4C434.3,248.6,433.2,247.6,433.2,246.2
		z M437.3,246.2c0-1-0.7-1.7-1.6-1.7c-0.9,0-1.6,0.7-1.6,1.7s0.7,1.7,1.6,1.7C436.6,247.9,437.3,247.2,437.3,246.2z"/>
	<path class="st21" d="M447.3,245.8v2.7h-0.9v-2.6c0-0.9-0.5-1.4-1.2-1.4c-0.9,0-1.4,0.5-1.4,1.6v2.5h-0.9v-2.6
		c0-0.9-0.5-1.4-1.2-1.4c-0.9,0-1.4,0.5-1.4,1.6v2.5h-0.9v-4.8h0.8v0.7c0.3-0.5,0.9-0.8,1.6-0.8c0.7,0,1.3,0.3,1.7,0.9
		c0.4-0.5,1-0.9,1.8-0.9C446.5,243.8,447.3,244.4,447.3,245.8z"/>
	<path class="st21" d="M452.7,245.7v2.9h-0.8v-0.6c-0.3,0.4-0.8,0.7-1.6,0.7c-1.1,0-1.8-0.6-1.8-1.4c0-0.8,0.5-1.4,1.9-1.4h1.4v-0.2
		c0-0.7-0.4-1.2-1.3-1.2c-0.6,0-1.1,0.2-1.5,0.5l-0.4-0.6c0.5-0.4,1.2-0.6,2-0.6C451.9,243.8,452.7,244.4,452.7,245.7z M451.8,247.1
		v-0.7h-1.3c-0.9,0-1.1,0.3-1.1,0.7c0,0.5,0.4,0.8,1.1,0.8C451.1,248,451.6,247.7,451.8,247.1z"/>
</g>
<polyline class="st23" points="211.5,124.8 194.6,124.8 194.6,162.7 "/>
</svg>
