<svg xmlns="http://www.w3.org/2000/svg" viewBox="0 0 350 350" width="350" height="350" preserveAspectRatio="xMidYMid meet" style="width: 100%; height: 100%; transform: translate3d(0px, 0px, 0px);"><defs><clipPath id="__lottie_element_13"><rect width="350" height="350" x="0" y="0"></rect></clipPath><clipPath id="__lottie_element_18"><path fill="#ffffff" clip-rule="nonzero" d=" M-42.38199996948242,-134.125 C-42.38199996948242,-134.125 -44.42499923706055,-89.7750015258789 -44.42499923706055,-89.7750015258789 C-44.42499923706055,-89.7750015258789 46.28900146484375,-88.7750015258789 46.28900146484375,-88.7750015258789 C46.28900146484375,-88.7750015258789 45.018001556396484,-134.125 45.018001556396484,-134.125 C45.018001556396484,-134.125 -42.38199996948242,-134.125 -42.38199996948242,-134.125" fill-opacity="1"></path></clipPath></defs><g clip-path="url(#__lottie_element_13)"><g transform="matrix(1,0,0,1,175,175)" opacity="1" style="display: block;"><g opacity="1" transform="matrix(1,0,0,1,-0.75,-1.378999948501587)"><path fill="rgb(29,45,80)" fill-opacity="1" d=" M86.19999694824219,-86.4000015258789 C86.19999694824219,-86.4000015258789 -84.4000015258789,-86.4000015258789 -84.4000015258789,-86.4000015258789 C-87.69999694824219,-86.4000015258789 -90.4000015258789,-89.0999984741211 -90.4000015258789,-92.4000015258789 C-90.4000015258789,-95.69999694824219 -87.69999694824219,-98.4000015258789 -84.4000015258789,-98.4000015258789 C-84.4000015258789,-98.4000015258789 86.19999694824219,-98.4000015258789 86.19999694824219,-98.4000015258789 C89.5,-98.4000015258789 92.19999694824219,-95.69999694824219 92.19999694824219,-92.4000015258789 C92.19999694824219,-89.0999984741211 89.5,-86.4000015258789 86.19999694824219,-86.4000015258789z"></path></g><g opacity="1" transform="matrix(1,0,0,1,-0.75,-0.27399998903274536)"><path fill="rgb(29,45,80)" fill-opacity="1" d=" M86.19999694824219,123.5 C86.19999694824219,123.5 -84.4000015258789,123.5 -84.4000015258789,123.5 C-87.69999694824219,123.5 -90.4000015258789,120.80000305175781 -90.4000015258789,117.5 C-90.4000015258789,114.19999694824219 -87.69999694824219,111.5 -84.4000015258789,111.5 C-84.4000015258789,111.5 86.19999694824219,111.5 86.19999694824219,111.5 C89.5,111.5 92.19999694824219,114.19999694824219 92.19999694824219,117.5 C92.19999694824219,120.80000305175781 89.5,123.5 86.19999694824219,123.5z"></path></g><g opacity="1" transform="matrix(1,0,0,1,0,0)"><path fill="rgb(29,45,80)" fill-opacity="1" d=" M-116.80000305175781,123.5 C-116.80000305175781,123.5 -137.1999969482422,123.5 -137.1999969482422,123.5 C-153.1999969482422,123.5 -166.1999969482422,110.5 -166.1999969482422,94.5 C-166.1999969482422,94.5 -166.1999969482422,-69.5 -166.1999969482422,-69.5 C-166.1999969482422,-85.5 -153.1999969482422,-98.5 -137.1999969482422,-98.5 C-137.1999969482422,-98.5 -116.80000305175781,-98.5 -116.80000305175781,-98.5 C-113.5,-98.5 -110.80000305175781,-95.80000305175781 -110.80000305175781,-92.5 C-110.80000305175781,-89.19999694824219 -113.5,-86.5 -116.80000305175781,-86.5 C-116.80000305175781,-86.5 -137.1999969482422,-86.5 -137.1999969482422,-86.5 C-146.5,-86.5 -154.1999969482422,-78.9000015258789 -154.1999969482422,-69.5 C-154.1999969482422,-69.5 -154.1999969482422,94.5 -154.1999969482422,94.5 C-154.1999969482422,103.80000305175781 -146.60000610351562,111.5 -137.1999969482422,111.5 C-137.1999969482422,111.5 -116.80000305175781,111.5 -116.80000305175781,111.5 C-113.5,111.5 -110.80000305175781,114.19999694824219 -110.80000305175781,117.5 C-110.80000305175781,120.80000305175781 -113.5,123.5 -116.80000305175781,123.5z"></path></g><g opacity="1" transform="matrix(1,0,0,1,0,0)"><path fill="rgb(29,45,80)" fill-opacity="1" d=" M137.1999969482422,123.5 C137.1999969482422,123.5 118.69999694824219,123.5 118.69999694824219,123.5 C115.4000015258789,123.5 112.69999694824219,120.80000305175781 112.69999694824219,117.5 C112.69999694824219,114.19999694824219 115.4000015258789,111.5 118.69999694824219,111.5 C118.69999694824219,111.5 137.1999969482422,111.5 137.1999969482422,111.5 C146.5,111.5 154.1999969482422,103.9000015258789 154.1999969482422,94.5 C154.1999969482422,94.5 154.1999969482422,-69.5 154.1999969482422,-69.5 C154.1999969482422,-78.80000305175781 146.60000610351562,-86.5 137.1999969482422,-86.5 C137.1999969482422,-86.5 118.69999694824219,-86.5 118.69999694824219,-86.5 C115.4000015258789,-86.5 112.69999694824219,-89.19999694824219 112.69999694824219,-92.5 C112.69999694824219,-95.80000305175781 115.4000015258789,-98.5 118.69999694824219,-98.5 C118.69999694824219,-98.5 137.1999969482422,-98.5 137.1999969482422,-98.5 C153.1999969482422,-98.5 166.1999969482422,-85.5 166.1999969482422,-69.5 C166.1999969482422,-69.5 166.1999969482422,94.5 166.1999969482422,94.5 C166.10000610351562,110.5 153.10000610351562,123.5 137.1999969482422,123.5z"></path></g></g><g transform="matrix(1,0,0,1,174.25,174)" opacity="1" style="display: block;"><g opacity="1" transform="matrix(1,0,0,1,0,0)"><path fill="rgb(148,20,61)" fill-opacity="1" d=" M-84.4000015258789,131.5 C-84.4000015258789,131.5 -116.80000305175781,131.5 -116.80000305175781,131.5 C-120.0999984741211,131.5 -122.80000305175781,128.8000030517578 -122.80000305175781,125.5 C-122.80000305175781,125.5 -122.80000305175781,-100.4000015258789 -122.80000305175781,-100.4000015258789 C-122.80000305175781,-103.69999694824219 -120.0999984741211,-106.4000015258789 -116.80000305175781,-106.4000015258789 C-116.80000305175781,-106.4000015258789 -84.4000015258789,-106.4000015258789 -84.4000015258789,-106.4000015258789 C-81.0999984741211,-106.4000015258789 -78.4000015258789,-103.69999694824219 -78.4000015258789,-100.4000015258789 C-78.4000015258789,-100.4000015258789 -78.4000015258789,125.5 -78.4000015258789,125.5 C-78.4000015258789,128.8000030517578 -81.0999984741211,131.5 -84.4000015258789,131.5z M-110.80000305175781,119.5 C-110.80000305175781,119.5 -90.4000015258789,119.5 -90.4000015258789,119.5 C-90.4000015258789,119.5 -90.4000015258789,-94.4000015258789 -90.4000015258789,-94.4000015258789 C-90.4000015258789,-94.4000015258789 -110.80000305175781,-94.4000015258789 -110.80000305175781,-94.4000015258789 C-110.80000305175781,-94.4000015258789 -110.80000305175781,119.5 -110.80000305175781,119.5z"></path></g><g opacity="1" transform="matrix(1,0,0,1,0,0)"><path fill="rgb(148,20,61)" fill-opacity="1" d=" M118.5999984741211,131.5 C118.5999984741211,131.5 86.19999694824219,131.5 86.19999694824219,131.5 C82.9000015258789,131.5 80.19999694824219,128.8000030517578 80.19999694824219,125.5 C80.19999694824219,125.5 80.19999694824219,-100.4000015258789 80.19999694824219,-100.4000015258789 C80.19999694824219,-103.69999694824219 82.9000015258789,-106.4000015258789 86.19999694824219,-106.4000015258789 C86.19999694824219,-106.4000015258789 118.5999984741211,-106.4000015258789 118.5999984741211,-106.4000015258789 C121.9000015258789,-106.4000015258789 124.5999984741211,-103.69999694824219 124.5999984741211,-100.4000015258789 C124.5999984741211,-100.4000015258789 124.5999984741211,125.5 124.5999984741211,125.5 C124.5999984741211,128.8000030517578 122,131.5 118.5999984741211,131.5z M92.19999694824219,119.5 C92.19999694824219,119.5 112.5999984741211,119.5 112.5999984741211,119.5 C112.5999984741211,119.5 112.5999984741211,-94.4000015258789 112.5999984741211,-94.4000015258789 C112.5999984741211,-94.4000015258789 92.19999694824219,-94.4000015258789 92.19999694824219,-94.4000015258789 C92.19999694824219,-94.4000015258789 92.19999694824219,119.5 92.19999694824219,119.5z"></path></g></g><g clip-path="url(#__lottie_element_18)" style="display: block;" transform="matrix(1,0,0,1,174.25,170)" opacity="1"><g opacity="1" transform="matrix(1,0,0,1,0,0)"><path fill="rgb(29,45,80)" fill-opacity="1" d=" M38.70000076293945,-86.4000015258789 C35.400001525878906,-86.4000015258789 32.70000076293945,-89.0999984741211 32.70000076293945,-92.4000015258789 C32.70000076293945,-92.4000015258789 32.70000076293945,-106.80000305175781 32.70000076293945,-106.80000305175781 C32.70000076293945,-113.80000305175781 27,-119.5 20,-119.5 C20,-119.5 -18,-119.5 -18,-119.5 C-25,-119.5 -30.700000762939453,-113.80000305175781 -30.700000762939453,-106.80000305175781 C-30.700000762939453,-106.80000305175781 -30.700000762939453,-92.4000015258789 -30.700000762939453,-92.4000015258789 C-30.700000762939453,-89.0999984741211 -33.400001525878906,-86.4000015258789 -36.70000076293945,-86.4000015258789 C-40,-86.4000015258789 -42.70000076293945,-89.0999984741211 -42.70000076293945,-92.4000015258789 C-42.70000076293945,-92.4000015258789 -42.70000076293945,-106.80000305175781 -42.70000076293945,-106.80000305175781 C-42.70000076293945,-120.4000015258789 -31.600000381469727,-131.5 -18,-131.5 C-18,-131.5 20,-131.5 20,-131.5 C33.599998474121094,-131.5 44.70000076293945,-120.4000015258789 44.70000076293945,-106.80000305175781 C44.70000076293945,-106.80000305175781 44.70000076293945,-92.4000015258789 44.70000076293945,-92.4000015258789 C44.70000076293945,-89.0999984741211 42.099998474121094,-86.4000015258789 38.70000076293945,-86.4000015258789z"></path></g></g><g style="display: block;" transform="matrix(1,0,0,1,175,175)" opacity="1"><g opacity="1" transform="matrix(1,0,0,1,0,0)"><path fill="rgb(29,45,80)" fill-opacity="1" d=" M38.70000076293945,-4.5 C38.70000076293945,-4.5 -36.599998474121094,-4.5 -36.599998474121094,-4.5 C-39.900001525878906,-4.5 -42.599998474121094,-7.199999809265137 -42.599998474121094,-10.5 C-42.599998474121094,-10.5 -42.599998474121094,-46.70000076293945 -42.599998474121094,-46.70000076293945 C-42.599998474121094,-50 -39.900001525878906,-52.70000076293945 -36.599998474121094,-52.70000076293945 C-36.599998474121094,-52.70000076293945 38.70000076293945,-52.70000076293945 38.70000076293945,-52.70000076293945 C42,-52.70000076293945 44.70000076293945,-50 44.70000076293945,-46.70000076293945 C44.70000076293945,-46.70000076293945 44.70000076293945,-10.5 44.70000076293945,-10.5 C44.70000076293945,-7.199999809265137 42.099998474121094,-4.5 38.70000076293945,-4.5z M-30.600000381469727,-16.5 C-30.600000381469727,-16.5 32.70000076293945,-16.5 32.70000076293945,-16.5 C32.70000076293945,-16.5 32.70000076293945,-40.70000076293945 32.70000076293945,-40.70000076293945 C32.70000076293945,-40.70000076293945 -30.600000381469727,-40.70000076293945 -30.600000381469727,-40.70000076293945 C-30.600000381469727,-40.70000076293945 -30.600000381469727,-16.5 -30.600000381469727,-16.5z"></path></g></g></g></svg>