<?xml version="1.0" encoding="utf-8"?>
<!-- Generator: Adobe Illustrator 27.2.0, SVG Export Plug-In . SVG Version: 6.00 Build 0)  -->
<svg version="1.1" xmlns="http://www.w3.org/2000/svg" xmlns:xlink="http://www.w3.org/1999/xlink" x="0px" y="0px"
	 viewBox="0 0 344.6 384.4" style="enable-background:new 0 0 344.6 384.4;" xml:space="preserve">
<style type="text/css">
	.st0{fill:#ED1C24;}
	.st1{fill:#224099;}
</style>
<g id="Layer_2">
	<path class="st0" d="M338.6,252c-2.8,0-5.3-2-5.9-4.8l-47.8-240c-0.7-3.2,1.5-6.4,4.7-7.1s6.4,1.5,7.1,4.7l47.8,240
		c0.6,3.2-1.5,6.4-4.7,7.1C339.4,251.9,339,252,338.6,252z"/>
</g>
<g id="Layer_5">
	<path class="st0" d="M175.6,132.5c-2.7,0-5.1-1.8-5.8-4.5c-0.2-0.9-0.3-1.8-0.1-2.8l7.9-38.5l-21.4-31.5c-0.1-0.1-0.2-0.2-0.2-0.2
		c-1.4-1.6-1.9-3.7-1.3-5.8V49c0.7-2.2,2.5-3.9,4.8-4.2c0.3-0.1,0.7-0.1,1-0.1c31.8-6.5,46.6-13.9,62.3-21.7
		c15.9-7.9,32.4-16.1,66.6-23c3.2-0.7,6.4,1.5,7.1,4.7c0.7,3.3-1.5,6.4-4.7,7.1c-32.7,6.6-47.7,14.1-63.6,22
		c-14.5,7.2-29.4,14.6-57.7,21.1L189,82.1c0.9,1.3,1.2,3,0.9,4.6l-6.6,32c26.7-6.1,40.3-12.9,54.7-20.1c15.9-7.9,32.4-16.1,66.6-23
		c3.2-0.6,6.4,1.4,7.1,4.7c0.6,3.2-1.5,6.4-4.7,7.1c-32.7,6.6-47.7,14.1-63.6,22s-32.4,16.1-66.6,23
		C176.4,132.5,176,132.5,175.6,132.5z"/>
</g>
<g id="Layer_6">
	<path class="st1" d="M98.1,233.3c-6.6,0-13.3-2.2-18.7-6.8l-2.7-2.3c-1.2-1-2-2.5-2.1-4.1s0.4-3.2,1.4-4.4l54.7-63.8
		c1.1-1.3,2.8-2.1,4.6-2.1h71.9c3.3,0,6,2.7,6,6s-2.7,6-6,6h-69.1l-48.9,57c6.8,4.3,16,3.1,21.5-3.1l27.7-31.3c1.1-1.3,2.8-2,4.5-2
		h34.5c3.3,0,6,2.7,6,6s-2.7,6-6,6h-31.8l-25.9,29.3C114.1,230,106.1,233.3,98.1,233.3z"/>
</g>
<g id="Layer_3">
	<g>
		<path class="st1" d="M263.8,238.3c-1.3,0-2.5-0.4-3.5-1.2l-46.1-33.8c-2.7-2-3.2-5.7-1.3-8.4c2-2.7,5.7-3.2,8.4-1.3l43.7,32
			l55.9-16.6c6.7-2,11.4-8.3,11.4-15.3v-3.6l-62.7,17.8c-1.8,0.5-3.8,0.1-5.3-1l-56.5-43l-58.4,64c-2.2,2.5-6,2.6-8.5,0.4
			c-2.4-2.2-2.6-6-0.4-8.5l62.1-68c2.1-2.3,5.6-2.6,8.1-0.7l58.4,44.5l67.4-19.2c1.8-0.5,3.8-0.1,5.3,1s2.4,2.9,2.4,4.8v11.5
			c0,12.3-8.2,23.3-20,26.8L265.5,238C264.9,238.2,264.3,238.3,263.8,238.3z"/>
		<path class="st1" d="M187.2,257.6c-1.3,0-2.7-0.4-3.8-1.3c-2.6-2.1-3-5.9-0.9-8.4l38.1-46.9c2.1-2.6,5.9-3,8.4-0.9
			c2.6,2.1,3,5.9,0.9,8.4l-38.1,46.9C190.7,256.8,188.9,257.6,187.2,257.6z"/>
		<path class="st1" d="M253.7,384.4h-51.1c-3.3,0-6-2.7-6-6V311l-43.3-24.7c-1.6-0.9-2.8-2.6-3-4.5s0.4-3.8,1.8-5.1l30.8-29.4
			c2.1-2.1,5.5-2.2,7.8-0.4l35.5,27.5c9.8,7.6,15.4,19,15.4,31.4v44.8l17.1,24.2c1.3,1.8,1.5,4.2,0.4,6.2
			C258,383.1,256,384.4,253.7,384.4z M208.6,372.4h33.5L230.7,356c-0.7-1-1.1-2.2-1.1-3.5v-46.7c0-8.6-3.9-16.6-10.7-21.9
			l-31.4-24.4l-21.2,20.3l39.3,22.4c1.9,1.1,3,3.1,3,5.2V372.4L208.6,372.4z"/>
		<path class="st1" d="M94.3,333.5H6c-3.3,0-6-2.7-6-6c0-11.4,4.5-22.2,12.5-30.3c8.1-8.1,18.8-12.5,30.2-12.5h50.7l46.6-64.3
			c1.9-2.6,5.5-3.2,8.1-1.5l40.6,26.7c0.1,0.1,0.2,0.1,0.3,0.2l0.1,0.1l1.4,1.1c1.4,1.1,2.2,2.7,2.3,4.4s-0.6,3.4-1.9,4.6
			l-69.5,66.4C114.3,329.5,104.6,333.5,94.3,333.5z M12.6,321.5h81.7c7.2,0,14-2.7,19.2-7.7l64.1-61.3L146.5,232l-45.1,62.1
			c-1.1,1.6-2.9,2.5-4.9,2.5H42.8c-8.2,0-16,3.2-21.8,9C16.6,310.1,13.7,315.5,12.6,321.5z"/>
		<path class="st1" d="M187.1,257.7c-1.3,0-2.6-0.4-3.7-1.3l-1.4-1.1c-2.5-2-3.1-5.6-1.2-8.2c1.9-2.6,5.5-3.3,8.2-1.5l1.6,1
			c1.6,1,2.6,2.7,2.7,4.6c0.1,1.9-0.6,3.7-2,4.9l-0.1,0.1C189.9,257.2,188.5,257.7,187.1,257.7z"/>
	</g>
</g>
<g id="Layer_4">
	<path class="st1" d="M246.6,164c-1.2,0-2.4-0.4-3.4-1.1L229,153c-10.5-7.4-13.1-22-5.8-32.5l12.1-17.3c3.6-5.1,8.9-8.5,15.1-9.6
		c6.1-1.1,12.3,0.3,17.4,3.9c10.5,7.4,13.1,22,5.8,32.5l-22,31.5C250.3,163.1,248.5,164,246.6,164z M254.4,105.2
		c-0.7,0-1.3,0.1-2,0.2c-3,0.5-5.6,2.2-7.3,4.7L233,127.3c-3.6,5.1-2.3,12.2,2.8,15.8l9.3,6.5l18.6-26.6c3.6-5.1,2.3-12.2-2.8-15.8
		C259,105.9,256.8,105.2,254.4,105.2z"/>
</g>
</svg>
