<?xml version="1.0" encoding="utf-8"?>
<!-- Generator: Adobe Illustrator 27.0.1, SVG Export Plug-In . SVG Version: 6.00 Build 0)  -->
<svg version="1.1" id="Layer_1" xmlns="http://www.w3.org/2000/svg" xmlns:xlink="http://www.w3.org/1999/xlink" x="0px" y="0px"
	 viewBox="0 0 332.2 266.4" style="enable-background:new 0 0 332.2 266.4;" xml:space="preserve">
<style type="text/css">
	.st0{fill:#224099;}
	.st1{fill:#ED1C24;}
	.st2{fill:none;stroke:#121331;stroke-width:12;stroke-linecap:round;stroke-linejoin:round;stroke-miterlimit:10;}
</style>
<path class="st0" d="M295.9,266.4H36.3c-20,0-36.3-16.3-36.3-36.3V80.8c0-20,16.3-36.3,36.3-36.3h109.8c3.3,0,6,2.7,6,6s-2.7,6-6,6
	H36.3C22.9,56.5,12,67.4,12,80.8v149.3c0,13.4,10.9,24.3,24.3,24.3h259.6c13.4,0,24.3-10.9,24.3-24.3V80.8
	c0-13.4-10.9-24.3-24.3-24.3H186.1c-3.3,0-6-2.7-6-6s2.7-6,6-6h109.8c20,0,36.3,16.3,36.3,36.3v149.3
	C332.2,250.1,315.9,266.4,295.9,266.4z"/>
<path class="st1" d="M186.1,92.1h-40c-3.3,0-6-2.7-6-6V6c0-3.3,2.7-6,6-6h40c3.3,0,6,2.7,6,6v80.1C192.1,89.4,189.4,92.1,186.1,92.1
	z M152.1,80.1h28V12h-28V80.1z"/>
<path class="st0" d="M83.7,224.5c-6.8,0-13.7-1.3-20-4h-0.1c-1.7-0.7-3.6-1.2-5.6-1.4l-8.3-1c-5.3-0.6-9.3-5.1-9.3-10.4v-8.3
	c0-17,13.9-30.9,30.9-30.9h24.9c17,0,30.9,13.9,30.9,30.9v8.3c0,5.3-4,9.8-9.3,10.4l-8.7,1c-1.8,0.2-3.6,0.7-5.3,1.4
	C97.5,223.1,90.6,224.5,83.7,224.5z M52.5,206.3l6.9,0.8c3,0.4,6,1.1,8.8,2.3h0.1c9.8,4.1,21.1,4.1,30.9-0.1
	c2.7-1.1,5.6-1.9,8.5-2.2l7.4-0.9v-7c0-10.4-8.5-18.9-18.9-18.9H71.3c-10.4,0-18.9,8.5-18.9,18.9L52.5,206.3L52.5,206.3z"/>
<path class="st0" d="M83.8,157.6c-12.9,0-23.4-10.1-23.9-23.1l-0.6-16.7c-0.2-6.5,2.1-12.7,6.7-17.4c4.5-4.7,10.6-7.3,17.2-7.3h1.2
	c6.5,0,12.6,2.6,17.2,7.3c4.5,4.7,6.9,10.9,6.7,17.4l-0.6,16.7C107.3,147.5,96.8,157.6,83.8,157.6z M83.3,105.1
	c-3.3,0-6.3,1.3-8.6,3.6c-2.3,2.3-3.4,5.4-3.3,8.7l0.6,16.7c0.2,6.4,5.4,11.5,11.9,11.5c6.4,0,11.7-5,11.9-11.5l0.6-16.7
	c0.1-3.3-1.1-6.3-3.3-8.7s-5.3-3.6-8.6-3.6H83.3z"/>
<path class="st2" d="M249.1,238.6"/>
<path class="st0" d="M279.8,216.5H168.1c-3.3,0-6-2.7-6-6s2.7-6,6-6h111.7c3.3,0,6,2.7,6,6S283.2,216.5,279.8,216.5z"/>
<path class="st0" d="M279.8,178.4H168.1c-3.3,0-6-2.7-6-6s2.7-6,6-6h111.7c3.3,0,6,2.7,6,6C285.8,175.7,283.2,178.4,279.8,178.4z"/>
<path class="st1" d="M231.4,140.3h-63.3c-3.3,0-6-2.7-6-6s2.7-6,6-6h63.3c3.3,0,6,2.7,6,6S234.7,140.3,231.4,140.3z"/>
<path class="st1" d="M279.8,140.3h-17c-3.3,0-6-2.7-6-6s2.7-6,6-6h17c3.3,0,6,2.7,6,6S283.2,140.3,279.8,140.3z"/>
</svg>
