<?xml version="1.0" encoding="utf-8"?>
<!-- Generator: Adobe Illustrator 27.2.0, SVG Export Plug-In . SVG Version: 6.00 Build 0)  -->
<svg version="1.1" xmlns="http://www.w3.org/2000/svg" xmlns:xlink="http://www.w3.org/1999/xlink" x="0px" y="0px"
	 viewBox="0 0 332.2 329.4" style="enable-background:new 0 0 332.2 329.4;" xml:space="preserve">
<style type="text/css">
	.st0{fill:#ED1C24;}
	.st1{fill:#224099;}
</style>
<g id="botom_00000013881027185271299580000017631611896511795085_">
	<path class="st0" d="M260.6,209.6h-20.5l-18.2-6.8c-0.7-0.2-1.4-0.4-2.1-0.4H179c-7.7,0-14.5,4.9-17.1,12.1c-0.1,0.3-0.2,0.7-0.3,1
		l-6,37.3c-0.1,0.4-0.1,0.8-0.1,1.3c0.5,10.2,9,18.2,19.2,18.2h13.2v15.3c0,11.9,11.4,22.4,24.4,22.4c3.3,0,6-2.7,6-6v-20.3
		c0-9.1,5.8-14.2,11.2-16.9h9.4h21.6c3.3,0,6-2.7,6-6v-45.2C266.6,212.2,263.9,209.6,260.6,209.6z M228.3,254.7
		c-0.9,0-1.7,0.2-2.5,0.5c-12.3,5.6-19.3,15.9-19.3,28.4v12.8c-3.7-1.9-6.4-5.3-6.4-8.8v-21.3c0-3.3-2.7-6-6-6h-19.2
		c-3.7,0-6.7-2.7-7.2-6.3l5.8-35.9c1-2.2,3.1-3.7,5.6-3.7h39.7l14.3,5.4v35h-4.8V254.7z M254.6,254.7H245v-33.2h9.6V254.7z"/>
	<path class="st1" d="M326.2,329.4h-170c-42,0-76.2-34.2-76.2-76.2s34.2-76.2,76.2-76.2H256c42,0,76.2,34.2,76.2,76.2v70.2
		C332.2,326.7,329.5,329.4,326.2,329.4z M156.3,188.9c-35.4,0-64.2,28.8-64.2,64.2s28.8,64.2,64.2,64.2h163.9v-64.2
		c0-35.4-28.8-64.2-64.2-64.2H156.3z"/>
</g>
<g id="top">
	<path class="st0" d="M157.3,59.1h-13.2V43.8c0-11.9-11.4-22.4-24.4-22.4c-3.3,0-6,2.7-6,6v20.3c0,9.1-5.8,14.2-11.2,16.9h-9.4H71.6
		c-3.3,0-6,2.7-6,6v45.2c0,3.3,2.7,6,6,6h20.5l18.2,6.8c0.7,0.2,1.4,0.4,2.1,0.4h40.8c7.7,0,14.5-4.9,17.1-12.1
		c0.1-0.3,0.2-0.7,0.3-1l6-37.3c0.1-0.4,0.1-0.8,0.1-1.3C176,67.1,167.6,59.1,157.3,59.1z M87.2,109.8h-9.6V76.6h9.6V109.8z
		 M158.7,113.4c-1,2.2-3.1,3.7-5.6,3.7h-39.7l-14.3-5.4v-35h4.7c0.9,0,1.7-0.2,2.5-0.5c12.3-5.6,19.3-15.9,19.3-28.3V35
		c3.7,1.9,6.4,5.3,6.4,8.8v21.3c0,3.3,2.7,6,6,6h19.2c3.7,0,6.7,2.7,7.2,6.3L158.7,113.4z"/>
	<path class="st1" d="M176,152.5H6c-3.3,0-6-2.7-6-6V76.2C0,34.2,34.2,0,76.2,0H176c42,0,76.2,34.2,76.2,76.2S218,152.5,176,152.5z
		 M12,140.5h163.9c35.4,0,64.2-28.8,64.2-64.2S211.4,12,175.9,12H76.2C40.8,12,12,40.8,12,76.2V140.5L12,140.5z"/>
</g>
</svg>
