<?xml version="1.0" encoding="utf-8"?>
<!-- Generator: Adobe Illustrator 27.0.1, SVG Export Plug-In . SVG Version: 6.00 Build 0)  -->
<svg version="1.1" id="Ñëîé_1" xmlns="http://www.w3.org/2000/svg" xmlns:xlink="http://www.w3.org/1999/xlink" x="0px" y="0px"
	 viewBox="0 0 1276.7 403.3" style="enable-background:new 0 0 1276.7 403.3;" xml:space="preserve">
<style type="text/css">
	.st0{fill:#3957AF;}
</style>
<g>
	<path class="st0" d="M1275.9,284c-2.3-8.2-10.3-14.8-19.7-14.8c-9.1,0-16.8,5.9-19.5,14.2c-6.7,15.6,19.5,47.1,19.5,47.1
		s16.7-20.2,20-36.2c0.2-0.9,0.3-1.8,0.4-2.8C1276.9,288.8,1276.5,286.3,1275.9,284z M1256.2,305c-8.6,0-15.6-7-15.6-15.6
		c0-8.6,7-15.6,15.6-15.6c8.6,0,15.6,7,15.6,15.6C1271.9,298,1264.9,305,1256.2,305z"/>
	<path class="st0" d="M1256.2,275.9c-7.5,0-13.5,6-13.5,13.5c0,7.5,6,13.5,13.5,13.5c7.4,0,13.5-6,13.5-13.5
		C1269.7,281.9,1263.7,275.9,1256.2,275.9z M1256.2,300.7c-6.3,0-11.3-5.1-11.3-11.3s5.1-11.3,11.3-11.3s11.3,5.1,11.3,11.3
		S1262.5,300.7,1256.2,300.7z"/>
	<path class="st0" d="M1261.5,341.4c0,2.9-2.3,5.2-5.2,5.2c-2.9,0-5.2-2.3-5.2-5.2c0-2.9,2.3-5.2,5.2-5.2
		C1259.1,336.1,1261.5,338.5,1261.5,341.4z"/>
</g>
<path class="st0" d="M15,321.8L15,321.8c4.5,2.1,9.8,1.7,13.9-1.1l41.8-28.9c2.9-2,6.6-2.3,9.9-0.9l17.6,8.1c4.4,2,9.2,3,14,2.9
	l3.1-0.1c2.5,0,3.9-2.9,2.3-4.9l-1.9-2.5c-3-3.8-6.8-6.8-11.2-8.9l-17.5-8.4c-3.2-1.5-5.3-4.6-5.6-8.2l-4.2-50.7
	c-0.4-5-3.4-9.3-8-11.5l0,0c1.2,21.7-3.6,45.9-5.9,55.8c-0.3,1.4-1.8,2.1-3.1,1.5l0,0l0.8-4.1c0.4-2-0.9-4-2.8-4.5l-5.3-1.4
	c-0.7-0.2-1.5-0.1-2.2,0.1h0c-0.7,0.3-1.5,0.3-2.3,0.1l-1.9-0.6l1.8,1.3c0.6,0.4,1,1,1.2,1.6l0.4,1.1l0.7,1.8l-3.7-1.8
	c-2.4-1.1-4.9-2-7.5-2.5l-13-2.6l1.3-14.8c0.3-3.2-1.7-6.1-4.7-7.1l-4.6-1.5l-1.8,21.4l-3.6-0.7c-0.6-0.1-1,0.6-0.5,1l2.9,2.3
	L0,268.3l4.1,2.6c2.7,1.7,6.1,1.3,8.4-0.8l10.7-10.3l10.2,8.3c2,1.7,4.3,3.1,6.7,4.2l3.7,1.7l-1.8,0.6l-1.1,0.4
	c-0.7,0.2-1.4,0.3-2,0.1l-2.1-0.6l1.6,1.1c0.6,0.4,1.1,1.1,1.3,1.8l0,0c0.2,0.7,0.7,1.3,1.3,1.8l4.5,3.2c1.7,1.2,4,0.9,5.3-0.7
	l2.7-3.2l0,0c1.3,0.6,1.7,2.2,0.8,3.3C48.1,289.8,32.6,308.9,15,321.8z"/>
<g>
	<path class="st0" d="M165.2,334.2c-0.6,0-1.2-0.2-1.7-0.5c-2.8-1.9-5.6-3.8-8.3-5.7c-1.3-1-1.7-2.8-0.7-4.2c1-1.3,2.8-1.7,4.2-0.7
		c2.7,1.9,5.4,3.8,8.2,5.6c1.4,0.9,1.7,2.8,0.8,4.2C167.1,333.7,166.2,334.2,165.2,334.2z"/>
	<path class="st0" d="M392.3,403.3C392.3,403.3,392.3,403.3,392.3,403.3c-2,0-4.1,0-6.1-0.1c-4.7-0.1-9.4-0.3-14.1-0.5
		c-1.7-0.1-2.9-1.5-2.8-3.2c0.1-1.7,1.5-2.9,3.2-2.8c4.6,0.3,9.3,0.4,13.9,0.5c2,0,4,0.1,6,0.1c1.7,0,3,1.4,3,3
		C395.3,401.9,393.9,403.3,392.3,403.3z M412.3,402.7c-1.6,0-2.9-1.2-3-2.8c-0.1-1.7,1.2-3.1,2.8-3.2c6.8-0.4,13.5-1.1,19.7-2
		c1.6-0.2,3.2,0.9,3.4,2.5c0.2,1.6-0.9,3.2-2.5,3.4c-6.4,0.9-13.2,1.6-20.2,2C412.5,402.7,412.4,402.7,412.3,402.7z M599.7,401.1
		C599.7,401.1,599.7,401.1,599.7,401.1c-6.7,0-13.5-0.2-20.2-0.6c-1.7-0.1-2.9-1.5-2.8-3.2c0.1-1.7,1.5-2.9,3.2-2.8
		c6.6,0.4,13.3,0.6,19.9,0.6c1.7,0,3,1.3,3,3C602.7,399.8,601.4,401.1,599.7,401.1z M352.2,401c-0.1,0-0.2,0-0.3,0
		c-6.7-0.7-13.4-1.6-20-2.6c-1.6-0.2-2.8-1.8-2.5-3.4c0.2-1.6,1.8-2.8,3.4-2.5c6.5,1,13.2,1.8,19.8,2.5c1.6,0.2,2.8,1.6,2.7,3.3
		C355.1,399.9,353.8,401,352.2,401z M619.8,400.6c-1.6,0-2.9-1.2-3-2.8c-0.1-1.7,1.2-3.1,2.8-3.2c6.6-0.4,13.3-0.9,19.8-1.6
		c1.6-0.2,3.1,1,3.3,2.7c0.2,1.6-1,3.1-2.7,3.3c-6.7,0.7-13.5,1.3-20.2,1.7C619.9,400.6,619.8,400.6,619.8,400.6z M559.7,398.8
		c-0.1,0-0.2,0-0.3,0c-6.7-0.8-13.4-1.8-20-2.9c-1.6-0.3-2.7-1.8-2.4-3.5c0.3-1.6,1.8-2.7,3.5-2.4c6.5,1.1,13.1,2.1,19.7,2.9
		c1.6,0.2,2.8,1.7,2.6,3.3C562.5,397.6,561.2,398.8,559.7,398.8z M452,396.8c-1.3,0-2.6-0.9-2.9-2.3c-0.4-1.6,0.6-3.2,2.2-3.7
		c6.6-1.7,12.8-3.8,18.7-6.1c1.5-0.6,3.3,0.1,3.9,1.6c0.6,1.5-0.1,3.3-1.6,3.9c-6.1,2.5-12.6,4.6-19.4,6.4
		C452.5,396.8,452.2,396.8,452,396.8z M659.6,396.2c-1.4,0-2.7-1-3-2.5c-0.3-1.6,0.8-3.2,2.5-3.5c6.5-1.1,13.1-2.4,19.5-3.9
		c1.6-0.4,3.2,0.6,3.6,2.3c0.4,1.6-0.6,3.2-2.3,3.6c-6.5,1.5-13.2,2.8-19.9,3.9C660,396.2,659.8,396.2,659.6,396.2z M312.6,395
		c-0.2,0-0.4,0-0.6-0.1c-6.6-1.3-13.2-2.8-19.7-4.5c-1.6-0.4-2.6-2-2.2-3.6c0.4-1.6,2-2.6,3.6-2.2c6.4,1.6,12.9,3.1,19.4,4.4
		c1.6,0.3,2.7,1.9,2.3,3.5C315.2,394,314,395,312.6,395z M520.2,391.8c-0.2,0-0.5,0-0.7-0.1c-2.7-0.6-5.5-1.3-8.2-2.1
		c-3.9-1-7.7-2.1-11.4-3.3c-1.6-0.5-2.5-2.2-2-3.8c0.5-1.6,2.2-2.5,3.8-2c3.6,1.1,7.3,2.2,11.1,3.2c2.7,0.7,5.4,1.4,8,2
		c1.6,0.4,2.6,2,2.2,3.6C522.8,390.9,521.6,391.8,520.2,391.8z M698.8,387.3c-1.3,0-2.5-0.9-2.9-2.2c-0.5-1.6,0.5-3.3,2-3.7
		c6.4-1.8,12.7-3.9,18.9-6.1c1.6-0.6,3.3,0.3,3.8,1.8c0.6,1.6-0.3,3.3-1.8,3.8c-6.3,2.2-12.8,4.3-19.3,6.2
		C699.3,387.2,699,387.3,698.8,387.3z M273.7,385.2c-0.3,0-0.6,0-0.9-0.1c-6.4-1.9-12.9-4.1-19.2-6.3c-1.6-0.6-2.4-2.3-1.8-3.8
		c0.6-1.6,2.3-2.4,3.8-1.8c6.2,2.2,12.6,4.3,18.9,6.2c1.6,0.5,2.5,2.2,2,3.7C276.2,384.4,275,385.2,273.7,385.2z M488.9,381.5
		c-1,0-2-0.5-2.6-1.4c-0.9-1.4-0.4-3.3,1-4.1c5.5-3.4,10.7-7.4,15.3-11.9c1.2-1.1,3.1-1.1,4.2,0.1c1.1,1.2,1.1,3.1-0.1,4.2
		c-5,4.8-10.5,9-16.3,12.7C490,381.4,489.5,381.5,488.9,381.5z M482,379.7c-0.4,0-0.8-0.1-1.2-0.2c-6.6-2.8-12.7-5.9-18.3-9.1
		c-1.4-0.8-1.9-2.7-1.1-4.1c0.8-1.4,2.7-1.9,4.1-1.1c5.3,3.1,11.2,6.1,17.6,8.8c1.5,0.6,2.2,2.4,1.6,3.9
		C484.3,379,483.2,379.7,482,379.7z M736.5,373.8c-1.2,0-2.3-0.7-2.8-1.8c-0.6-1.5,0.1-3.3,1.6-3.9c2.9-1.2,5.8-2.5,8.7-3.9
		c3.1-1.4,6.3-3,9.3-4.5c1.5-0.7,3.3-0.1,4,1.3c0.7,1.5,0.1,3.3-1.3,4c-3.1,1.6-6.3,3.1-9.5,4.6c-2.9,1.3-5.9,2.7-8.9,3.9
		C737.3,373.8,736.9,373.8,736.5,373.8z M235.9,371.8c-0.4,0-0.8-0.1-1.1-0.2c-6.2-2.6-12.4-5.3-18.5-8.1c-1.5-0.7-2.1-2.5-1.4-4
		c0.7-1.5,2.5-2.1,4-1.4c6,2.8,12.1,5.5,18.2,8c1.5,0.6,2.3,2.4,1.6,3.9C238.2,371.1,237.1,371.8,235.9,371.8z M447.8,359.1
		c-0.7,0-1.4-0.2-2-0.7c-5.4-4.7-10.1-9.9-13.9-15.4c-0.9-1.4-0.6-3.2,0.7-4.2c1.4-0.9,3.2-0.6,4.2,0.7c3.5,5.1,7.9,9.9,12.9,14.3
		c1.2,1.1,1.4,3,0.3,4.2C449.4,358.7,448.6,359.1,447.8,359.1z M772.4,355.8c-1,0-2-0.5-2.6-1.5c-0.8-1.4-0.4-3.3,1.1-4.1
		c5.7-3.3,11.4-6.9,16.8-10.6c1.4-0.9,3.2-0.6,4.2,0.8c0.9,1.4,0.6,3.2-0.8,4.2c-5.6,3.7-11.4,7.4-17.2,10.8
		C773.4,355.7,772.9,355.8,772.4,355.8z M199.6,354.8c-0.5,0-1-0.1-1.4-0.4c-5.9-3.2-11.9-6.5-17.6-9.9c-1.4-0.9-1.9-2.7-1-4.1
		c0.8-1.4,2.7-1.9,4.1-1c5.6,3.4,11.5,6.7,17.3,9.8c1.5,0.8,2,2.6,1.2,4.1C201.7,354.2,200.7,354.8,199.6,354.8z M517.6,353.9
		c-0.6,0-1.1-0.2-1.7-0.5c-1.4-0.9-1.8-2.8-0.8-4.2c3.7-5.6,6.5-11.4,8.5-17.2c0.5-1.6,2.2-2.4,3.8-1.9c1.6,0.5,2.4,2.2,1.9,3.8
		c-2.1,6.4-5.2,12.7-9.2,18.7C519.5,353.4,518.6,353.9,517.6,353.9z M805.7,333.5c-0.9,0-1.8-0.4-2.4-1.2c-1-1.3-0.8-3.2,0.6-4.2
		c5.2-4,10.4-8.3,15.4-12.6c1.2-1.1,3.1-1,4.2,0.3c1.1,1.2,1,3.1-0.3,4.2c-5.1,4.4-10.3,8.7-15.7,12.8
		C807,333.3,806.3,333.5,805.7,333.5z M425.9,326.2c-1.3,0-2.5-0.9-2.9-2.2c-1.5-5.4-2.2-11-2.2-16.6c0-1.4,0.1-2.8,0.1-4.2
		c0.1-1.7,1.5-2.9,3.2-2.8c1.7,0.1,2.9,1.5,2.8,3.2c-0.1,1.3-0.1,2.5-0.1,3.8c0,5.1,0.7,10.1,2,15.1c0.4,1.6-0.5,3.2-2.1,3.7
		C426.4,326.1,426.2,326.2,425.9,326.2z M529.7,316.3c-1.6,0-3-1.3-3-3c0-4.3-0.6-8.6-1.7-12.7c-0.5-1.9-1.2-3.8-2-5.7
		c-0.7-1.5,0.1-3.3,1.6-3.9c1.5-0.7,3.3,0,3.9,1.6c0.9,2.1,1.7,4.3,2.3,6.5c1.2,4.6,1.8,9.4,1.9,14.2
		C532.7,314.9,531.4,316.2,529.7,316.3C529.7,316.3,529.7,316.3,529.7,316.3z M835.9,307.1c-0.8,0-1.5-0.3-2.1-0.9
		c-1.2-1.2-1.2-3.1,0-4.2c4.7-4.7,9.3-9.5,13.6-14.5c1.1-1.2,3-1.4,4.2-0.3c1.2,1.1,1.4,3,0.3,4.2c-4.4,5-9.1,10-13.9,14.8
		C837.4,306.8,836.7,307.1,835.9,307.1z M428.9,287c-0.4,0-0.9-0.1-1.3-0.3c-1.5-0.7-2.1-2.5-1.4-4c3.2-6.6,7.7-12.2,13.2-16.6
		c1.3-1,3.2-0.8,4.2,0.5s0.8,3.2-0.5,4.2c-4.9,3.9-8.8,8.7-11.6,14.5C431.1,286.4,430,287,428.9,287z M514.4,280.3
		c-0.8,0-1.5-0.3-2.1-0.9c-4.5-4.4-9.7-8.2-15.5-11.1c-1.5-0.8-2.1-2.6-1.3-4c0.8-1.5,2.6-2.1,4-1.3c6.4,3.2,12.1,7.4,17,12.2
		c1.2,1.2,1.2,3.1,0,4.2C516,280,515.2,280.3,514.4,280.3z M862.4,277c-0.6,0-1.3-0.2-1.8-0.6c-1.3-1-1.6-2.9-0.6-4.2
		c4-5.3,7.9-10.7,11.6-16.2c0.9-1.4,2.8-1.8,4.2-0.8c1.4,0.9,1.8,2.8,0.8,4.2c-3.7,5.6-7.7,11.1-11.8,16.5
		C864.2,276.6,863.3,277,862.4,277z M459.3,262.9c-1.4,0-2.6-0.9-2.9-2.3c-0.4-1.6,0.6-3.2,2.3-3.6c6.6-1.5,13.8-1.7,21.1-0.5
		c1.6,0.3,2.8,1.8,2.5,3.4c-0.3,1.6-1.8,2.7-3.4,2.5c-6.5-1-12.9-0.9-18.8,0.5C459.7,262.9,459.5,262.9,459.3,262.9z M884.6,243.6
		c-0.5,0-1-0.1-1.5-0.4c-1.4-0.8-1.9-2.6-1.1-4.1c3.3-5.8,6.3-11.7,9.1-17.6c0.7-1.5,2.5-2.1,4-1.4c1.5,0.7,2.1,2.5,1.4,4
		c-2.9,6.1-6,12.1-9.3,18C886.6,243,885.6,243.6,884.6,243.6z M901.7,207.3c-0.4,0-0.7-0.1-1.1-0.2c-1.5-0.6-2.3-2.3-1.7-3.9
		c2.4-6.2,4.5-12.6,6.3-18.8c0.5-1.6,2.1-2.5,3.7-2.1c1.6,0.5,2.5,2.1,2.1,3.7c-1.8,6.4-4,12.9-6.4,19.3
		C904.1,206.6,902.9,207.3,901.7,207.3z M912.7,168.8c-0.2,0-0.4,0-0.6-0.1c-1.6-0.3-2.7-1.9-2.4-3.5c1.2-6.6,2.1-13.2,2.6-19.6
		c0.1-1.7,1.6-2.9,3.2-2.8c1.7,0.1,2.9,1.6,2.8,3.2c-0.5,6.6-1.4,13.4-2.7,20.2C915.4,167.8,914.1,168.8,912.7,168.8z M915.7,128.8
		c-1.6,0-2.9-1.3-3-2.9c-0.3-6.6-1-13.2-2.1-19.5c-0.3-1.6,0.8-3.2,2.4-3.5c1.6-0.3,3.2,0.8,3.5,2.4c1.2,6.6,1.9,13.4,2.2,20.3
		c0.1,1.7-1.2,3.1-2.9,3.1C915.8,128.8,915.8,128.8,915.7,128.8z M908.7,89.5c-1.3,0-2.4-0.8-2.8-2c-1.1-3.2-2.3-6.5-3.7-9.6
		c-1.2-2.8-2.5-5.6-4-8.4c-0.8-1.5-0.2-3.3,1.2-4.1c1.5-0.8,3.3-0.2,4.1,1.2c1.5,2.9,3,5.9,4.2,8.8c1.4,3.3,2.7,6.7,3.8,10.1
		c0.5,1.6-0.3,3.3-1.9,3.8C909.3,89.4,909,89.5,908.7,89.5z M709.4,64.1c-0.3,0-0.6,0-0.9-0.1c-1.6-0.5-2.4-2.2-1.9-3.8
		c2.1-6.4,5.2-12.7,9.2-18.7c0.9-1.4,2.8-1.7,4.2-0.8c1.4,0.9,1.7,2.8,0.8,4.2c-3.7,5.5-6.6,11.3-8.5,17.2
		C711.8,63.3,710.7,64.1,709.4,64.1z M889.9,54.2c-0.9,0-1.8-0.4-2.4-1.2c-3.9-5.1-8.4-10-13.1-14.5c-1.2-1.1-1.3-3-0.1-4.2
		c1.1-1.2,3-1.2,4.2-0.1c5,4.7,9.6,9.8,13.7,15.2c1,1.3,0.8,3.2-0.6,4.2C891.2,54,890.6,54.2,889.9,54.2z M731.4,31.1
		c-0.8,0-1.6-0.3-2.2-1c-1.1-1.2-1-3.1,0.2-4.2c5-4.6,10.6-8.8,16.6-12.3c1.4-0.8,3.3-0.4,4.1,1c0.8,1.4,0.4,3.3-1,4.1
		c-5.6,3.3-10.9,7.2-15.6,11.6C732.8,30.8,732.1,31.1,731.4,31.1z M861,26.7c-0.6,0-1.2-0.2-1.7-0.5c-5.4-3.7-11.1-7-16.9-9.8
		c-1.5-0.7-2.1-2.5-1.4-4c0.7-1.5,2.5-2.1,4-1.4c6.1,2.9,12.1,6.4,17.8,10.3c1.4,0.9,1.7,2.8,0.8,4.2
		C862.8,26.2,861.9,26.7,861,26.7z M765.6,10.7c-1.2,0-2.4-0.8-2.8-2c-0.5-1.6,0.3-3.3,1.9-3.8c6.6-2.3,13.4-3.8,20.1-4.6
		c1.7-0.2,3.1,1,3.3,2.6c0.2,1.6-1,3.1-2.6,3.3c-6.3,0.7-12.7,2.2-18.9,4.3C766.3,10.6,765.9,10.7,765.6,10.7z M824.9,9.6
		c-0.3,0-0.5,0-0.8-0.1c-6.3-1.8-12.8-3-19.2-3.5c-1.7-0.1-2.9-1.6-2.7-3.3c0.1-1.7,1.6-2.9,3.3-2.7c6.8,0.6,13.6,1.9,20.2,3.7
		c1.6,0.4,2.5,2.1,2.1,3.7C827.4,8.8,826.2,9.6,824.9,9.6z"/>
	<path class="st0" d="M707.7,93.9c-1,0-2-0.5-2.5-1.4c-1.7-2.6-3.6-5.2-5.7-7.5c-1.1-1.2-1.1-3.1,0.2-4.2c1.1-1,2.8-1.1,4-0.1
		c0.2-1.5,1.4-2.6,2.9-2.7c1.7,0,3,1.3,3.1,2.9c0.1,3.1,0.5,6.3,1.1,9.4c0.3,1.4-0.5,2.9-1.8,3.4C708.4,93.9,708,93.9,707.7,93.9z"
		/>
	<path class="st0" d="M1010.9,392C1010.9,392,1010.9,392,1010.9,392c-6.6,0-13.3-0.1-19.8-0.3c-1.7-0.1-3-1.4-2.9-3.1
		c0.1-1.7,1.4-3,3.1-2.9c6.5,0.2,13.1,0.3,19.7,0.3c1.7,0,3,1.4,3,3C1013.9,390.7,1012.6,392,1010.9,392z M1030.6,391.8
		c-1.6,0-3-1.3-3-2.9c0-1.7,1.3-3,2.9-3.1c6.5-0.2,13.1-0.4,19.6-0.8c1.7-0.1,3.1,1.2,3.2,2.8c0.1,1.7-1.2,3.1-2.8,3.2
		C1044,391.4,1037.3,391.6,1030.6,391.8C1030.7,391.8,1030.7,391.8,1030.6,391.8z M971.5,390.8c-0.1,0-0.1,0-0.2,0
		c-6.6-0.4-13.2-0.9-19.8-1.5c-1.7-0.1-2.9-1.6-2.7-3.3c0.1-1.7,1.6-2.9,3.3-2.7c6.5,0.6,13.1,1.1,19.6,1.4c1.7,0.1,2.9,1.5,2.8,3.2
		C974.4,389.5,973,390.8,971.5,390.8z M1070.1,389.7c-1.5,0-2.9-1.2-3-2.8c-0.1-1.7,1.1-3.1,2.7-3.2c6.5-0.5,13.1-1.2,19.6-1.9
		c1.6-0.2,3.1,1,3.3,2.6c0.2,1.6-1,3.1-2.6,3.3c-6.5,0.7-13.2,1.4-19.7,1.9C1070.2,389.6,1070.1,389.7,1070.1,389.7z M932.1,387.3
		c-0.1,0-0.2,0-0.4,0c-6.5-0.8-13.1-1.6-19.7-2.6c-1.6-0.2-2.8-1.8-2.5-3.4c0.2-1.6,1.8-2.8,3.4-2.5c6.5,0.9,13,1.8,19.5,2.5
		c1.6,0.2,2.8,1.7,2.6,3.3C934.9,386.2,933.6,387.3,932.1,387.3z M1109.3,385.2c-1.5,0-2.8-1.1-3-2.6c-0.2-1.6,0.9-3.2,2.5-3.4
		c6.5-0.9,13-1.9,19.4-3.1c1.6-0.3,3.2,0.8,3.5,2.4c0.3,1.6-0.8,3.2-2.4,3.5c-6.5,1.1-13.1,2.2-19.6,3.1
		C1109.6,385.2,1109.4,385.2,1109.3,385.2z M893.1,381.6c-0.2,0-0.3,0-0.5,0c-6.5-1.1-13.1-2.4-19.5-3.7c-1.6-0.3-2.7-1.9-2.3-3.5
		c0.3-1.6,1.9-2.7,3.5-2.3c6.4,1.3,12.9,2.5,19.3,3.7c1.6,0.3,2.7,1.8,2.4,3.5C895.8,380.6,894.5,381.6,893.1,381.6z M1148.2,378.5
		c-1.4,0-2.6-1-2.9-2.4c-0.3-1.6,0.7-3.2,2.3-3.5c6.4-1.3,12.9-2.7,19.2-4.2c1.6-0.4,3.2,0.6,3.6,2.2c0.4,1.6-0.6,3.2-2.2,3.6
		c-6.4,1.5-12.9,2.9-19.4,4.3C1148.6,378.5,1148.4,378.5,1148.2,378.5z M854.4,373.7c-0.2,0-0.5,0-0.7-0.1
		c-6.4-1.5-12.9-3.1-19.2-4.8c-1.6-0.4-2.6-2.1-2.1-3.7c0.4-1.6,2.1-2.6,3.7-2.1c6.3,1.7,12.7,3.3,19.1,4.8c1.6,0.4,2.6,2,2.2,3.6
		C857,372.8,855.8,373.7,854.4,373.7z M1186.6,369.5c-1.3,0-2.5-0.9-2.9-2.2c-0.4-1.6,0.5-3.2,2.1-3.7c6.3-1.7,12.7-3.5,18.9-5.4
		c1.6-0.5,3.3,0.4,3.7,2c0.5,1.6-0.4,3.3-2,3.7c-6.3,1.9-12.7,3.7-19.1,5.4C1187.1,369.4,1186.9,369.5,1186.6,369.5z M816.2,363.6
		c-0.3,0-0.6,0-0.9-0.1c-6.3-1.9-12.7-3.9-18.9-5.9c-1.6-0.5-2.4-2.2-1.9-3.8c0.5-1.6,2.2-2.4,3.8-1.9c6.2,2,12.5,4,18.7,5.9
		c1.6,0.5,2.5,2.1,2,3.7C818.7,362.8,817.5,363.6,816.2,363.6z M778.8,351.3c-0.3,0-0.7-0.1-1-0.2c-6.2-2.3-12.4-4.6-18.5-7.1
		c-1.5-0.6-2.3-2.4-1.7-3.9c0.6-1.5,2.4-2.3,3.9-1.7c6,2.4,12.2,4.8,18.4,7c1.6,0.6,2.4,2.3,1.8,3.8
		C781.1,350.5,780,351.3,778.8,351.3z M742.1,336.6c-0.4,0-0.8-0.1-1.2-0.2c-6.1-2.6-12.1-5.4-18.1-8.2c-1.5-0.7-2.1-2.5-1.4-4
		c0.7-1.5,2.5-2.1,4-1.4c5.9,2.8,11.9,5.5,17.9,8.1c1.5,0.7,2.2,2.4,1.6,3.9C744.4,336,743.3,336.6,742.1,336.6z M706.4,319.8
		c-0.5,0-0.9-0.1-1.4-0.3c-5.9-3-11.8-6.2-17.5-9.3c-1.4-0.8-2-2.6-1.2-4.1c0.8-1.4,2.6-2,4.1-1.2c5.7,3.2,11.5,6.3,17.3,9.3
		c1.5,0.8,2.1,2.6,1.3,4C708.6,319.2,707.5,319.8,706.4,319.8z M671.9,300.6c-0.5,0-1.1-0.1-1.5-0.4c-2.3-1.4-4.6-2.8-6.9-4.2
		c-3.4-2.1-6.8-4.2-10-6.3c-1.4-0.9-1.8-2.8-0.9-4.2c0.9-1.4,2.8-1.8,4.2-0.9c3.1,2,6.5,4.1,9.8,6.2c2.3,1.4,4.5,2.8,6.8,4.2
		c1.4,0.9,1.9,2.7,1,4.1C673.9,300.1,672.9,300.6,671.9,300.6z M638.9,279c-0.6,0-1.2-0.2-1.8-0.6c-5.6-4-10.9-8.1-15.8-12.1
		c-1.3-1-1.5-2.9-0.4-4.2c1-1.3,2.9-1.5,4.2-0.4c4.8,3.9,10.1,7.9,15.5,11.9c1.3,1,1.6,2.8,0.7,4.2C640.7,278.6,639.8,279,638.9,279
		z M608.4,254c-0.7,0-1.5-0.3-2.1-0.8c-5-4.7-9.7-9.6-13.9-14.4c-1.1-1.2-1-3.1,0.3-4.2c1.2-1.1,3.1-1,4.2,0.3
		c4.1,4.7,8.7,9.4,13.5,14c1.2,1.1,1.3,3,0.1,4.2C610,253.7,609.2,254,608.4,254z M582.5,224.3c-0.9,0-1.9-0.4-2.5-1.3
		c-3.9-5.6-7.4-11.4-10.4-17.2c-0.8-1.5-0.2-3.3,1.3-4c1.5-0.8,3.3-0.2,4,1.3c2.9,5.6,6.3,11.1,10,16.5c0.9,1.4,0.6,3.2-0.7,4.2
		C583.7,224.1,583.1,224.3,582.5,224.3z M564.6,189.3c-1.3,0-2.4-0.8-2.9-2.1c-2.1-6.4-3.6-13.1-4.6-19.7c-0.2-1.6,0.9-3.2,2.5-3.4
		c1.6-0.2,3.2,0.9,3.4,2.5c0.9,6.3,2.4,12.6,4.4,18.7c0.5,1.6-0.3,3.3-1.9,3.8C565.2,189.2,564.9,189.3,564.6,189.3z M559,150.4
		C558.9,150.4,558.9,150.4,559,150.4c-1.8-0.1-3.1-1.4-3-3.1c0.2-6.9,1.1-13.6,2.6-20.1c0.4-1.6,2-2.6,3.6-2.3
		c1.6,0.4,2.6,2,2.3,3.6c-1.4,6.1-2.2,12.5-2.4,19C561.9,149.1,560.6,150.4,559,150.4z M567.9,112.2c-0.4,0-0.9-0.1-1.3-0.3
		c-1.5-0.7-2.1-2.5-1.4-4c2.9-6.2,6.5-12,10.8-17.3c1-1.3,2.9-1.5,4.2-0.5c1.3,1,1.5,2.9,0.5,4.2c-3.9,4.9-7.3,10.4-10,16.1
		C570.1,111.6,569,112.2,567.9,112.2z M592.3,81.7c-0.9,0-1.8-0.4-2.4-1.2c-1-1.3-0.7-3.2,0.6-4.2c5.3-4,11.3-7.4,17.8-10.1
		c1.5-0.6,3.3,0.1,3.9,1.6c0.6,1.5-0.1,3.3-1.6,3.9c-6,2.5-11.6,5.7-16.5,9.3C593.6,81.5,592.9,81.7,592.3,81.7z M685.9,74.1
		c-0.5,0-1-0.1-1.4-0.4c-5.3-2.9-11.3-5.1-17.7-6.6c-1.6-0.4-2.6-2-2.2-3.6c0.4-1.6,2-2.6,3.6-2.2c6.9,1.6,13.3,4.1,19.2,7.2
		c1.5,0.8,2,2.6,1.2,4.1C688,73.5,687,74.1,685.9,74.1z M628.3,66.4c-1.4,0-2.7-1-2.9-2.5c-0.3-1.6,0.8-3.2,2.4-3.5
		c6.7-1.2,13.5-1.8,20.2-1.7c1.7,0,3,1.4,2.9,3.1c0,1.6-1.4,2.9-3,2.9c0,0,0,0-0.1,0c-6.4-0.1-12.8,0.4-19,1.6
		C628.7,66.3,628.5,66.4,628.3,66.4z"/>
	<path class="st0" d="M1224.5,358c-1.3,0-2.4-0.8-2.8-2c-0.5-1.6,0.3-3.3,1.9-3.8c3.1-1.1,6.3-2.2,9.4-3.3c1.6-0.6,3.3,0.3,3.8,1.8
		c0.6,1.6-0.3,3.3-1.8,3.8c-3.1,1.1-6.3,2.2-9.5,3.3C1225.2,358,1224.8,358,1224.5,358z"/>
</g>
</svg>
