<svg xmlns="http://www.w3.org/2000/svg" viewBox="0 0 333 293" width="333" height="293" preserveAspectRatio="xMidYMid meet" style="width: 100%; height: 100%; transform: translate3d(0px, 0px, 0px);"><defs><clipPath id="__lottie_element_46"><rect width="333" height="293" x="0" y="0"></rect></clipPath><clipPath id="__lottie_element_48"><path d="M0,0 L333,0 L333,293 L0,293z"></path></clipPath><clipPath id="__lottie_element_49"><path fill="#ffffff" clip-rule="nonzero" d=" M306.81201171875,12.375 C306.81201171875,12.375 132.06199645996094,12.375 132.06199645996094,12.375 C132.06199645996094,12.375 132.06199645996094,93.375 132.06199645996094,93.375 C132.06199645996094,93.375 306.81201171875,93.375 306.81201171875,93.375 C306.81201171875,93.375 306.81201171875,12.375 306.81201171875,12.375" fill-opacity="1"></path></clipPath></defs><g clip-path="url(#__lottie_element_46)"><g transform="matrix(0.9980859756469727,0.061841730028390884,-0.061841730028390884,0.9980859756469727,28.550752639770508,94.28622436523438)" opacity="1" style="display: block;"><g opacity="1" transform="matrix(1,0,0,1,32.95000076293945,32.95000076293945)"><path fill="rgb(237,28,36)" fill-opacity="1" d=" M0,32.70000076293945 C-18,32.70000076293945 -32.70000076293945,18 -32.70000076293945,0 C-32.70000076293945,0 -32.70000076293945,-26.700000762939453 -32.70000076293945,-26.700000762939453 C-32.70000076293945,-30 -30,-32.70000076293945 -26.700000762939453,-32.70000076293945 C-26.700000762939453,-32.70000076293945 26.700000762939453,-32.70000076293945 26.700000762939453,-32.70000076293945 C30,-32.70000076293945 32.70000076293945,-30 32.70000076293945,-26.700000762939453 C32.70000076293945,-26.700000762939453 32.70000076293945,0 32.70000076293945,0 C32.599998474121094,18 18,32.70000076293945 0,32.70000076293945z M-20.700000762939453,-20.700000762939453 C-20.700000762939453,-20.700000762939453 -20.700000762939453,0 -20.700000762939453,0 C-20.700000762939453,11.399999618530273 -11.399999618530273,20.700000762939453 0,20.700000762939453 C11.399999618530273,20.700000762939453 20.700000762939453,11.399999618530273 20.700000762939453,0 C20.700000762939453,0 20.700000762939453,-20.700000762939453 20.700000762939453,-20.700000762939453 C20.700000762939453,-20.700000762939453 -20.700000762939453,-20.700000762939453 -20.700000762939453,-20.700000762939453z"></path></g></g><g transform="matrix(1,0,0,1,-0.25,173.14999389648438)" opacity="1" style="display: block;"><g opacity="1" transform="matrix(1,0,0,1,46.29999923706055,79.5999984741211)"><path fill="rgb(237,28,36)" fill-opacity="1" d=" M13.350000381469727,39.349998474121094 C13.350000381469727,39.349998474121094 -13.350000381469727,39.349998474121094 -13.350000381469727,39.349998474121094 C-16.649999618530273,39.349998474121094 -19.350000381469727,36.650001525878906 -19.350000381469727,33.349998474121094 C-19.350000381469727,33.349998474121094 -19.350000381469727,-33.349998474121094 -19.350000381469727,-33.349998474121094 C-19.350000381469727,-36.650001525878906 -16.649999618530273,-39.349998474121094 -13.350000381469727,-39.349998474121094 C-10.050000190734863,-39.349998474121094 -7.349999904632568,-36.650001525878906 -7.349999904632568,-33.349998474121094 C-7.349999904632568,-33.349998474121094 -7.349999904632568,27.350000381469727 -7.349999904632568,27.350000381469727 C-7.349999904632568,27.350000381469727 7.349999904632568,27.350000381469727 7.349999904632568,27.350000381469727 C7.349999904632568,27.350000381469727 7.349999904632568,-33.349998474121094 7.349999904632568,-33.349998474121094 C7.349999904632568,-36.650001525878906 10.050000190734863,-39.349998474121094 13.350000381469727,-39.349998474121094 C16.649999618530273,-39.349998474121094 19.350000381469727,-36.650001525878906 19.350000381469727,-33.349998474121094 C19.350000381469727,-33.349998474121094 19.350000381469727,33.349998474121094 19.350000381469727,33.349998474121094 C19.350000381469727,36.650001525878906 16.649999618530273,39.349998474121094 13.350000381469727,39.349998474121094z"></path></g><g opacity="1" transform="matrix(1,0,0,1,286.3999938964844,79.5999984741211)"><path fill="rgb(237,28,36)" fill-opacity="1" d=" M13.350000381469727,39.349998474121094 C13.350000381469727,39.349998474121094 -13.350000381469727,39.349998474121094 -13.350000381469727,39.349998474121094 C-16.649999618530273,39.349998474121094 -19.350000381469727,36.650001525878906 -19.350000381469727,33.349998474121094 C-19.350000381469727,33.349998474121094 -19.350000381469727,-33.349998474121094 -19.350000381469727,-33.349998474121094 C-19.350000381469727,-36.650001525878906 -16.649999618530273,-39.349998474121094 -13.350000381469727,-39.349998474121094 C-10.050000190734863,-39.349998474121094 -7.349999904632568,-36.650001525878906 -7.349999904632568,-33.349998474121094 C-7.349999904632568,-33.349998474121094 -7.349999904632568,27.350000381469727 -7.349999904632568,27.350000381469727 C-7.349999904632568,27.350000381469727 7.349999904632568,27.350000381469727 7.349999904632568,27.350000381469727 C7.349999904632568,27.350000381469727 7.349999904632568,-33.349998474121094 7.349999904632568,-33.349998474121094 C7.349999904632568,-36.650001525878906 10.050000190734863,-39.349998474121094 13.350000381469727,-39.349998474121094 C16.649999618530273,-39.349998474121094 19.350000381469727,-36.650001525878906 19.350000381469727,-33.349998474121094 C19.350000381469727,-33.349998474121094 19.350000381469727,33.349998474121094 19.350000381469727,33.349998474121094 C19.350000381469727,36.650001525878906 16.649999618530273,39.349998474121094 13.350000381469727,39.349998474121094z"></path></g><g opacity="1" transform="matrix(1,0,0,1,166.35000610351562,26.25)"><path fill="rgb(34,64,153)" fill-opacity="1" d=" M160.10000610351562,26 C160.10000610351562,26 -160.10000610351562,26 -160.10000610351562,26 C-163.39999389648438,26 -166.10000610351562,23.299999237060547 -166.10000610351562,20 C-166.10000610351562,20 -166.10000610351562,-20 -166.10000610351562,-20 C-166.10000610351562,-23.299999237060547 -163.39999389648438,-26 -160.10000610351562,-26 C-160.10000610351562,-26 160.10000610351562,-26 160.10000610351562,-26 C163.39999389648438,-26 166.10000610351562,-23.299999237060547 166.10000610351562,-20 C166.10000610351562,-20 166.10000610351562,20 166.10000610351562,20 C166.10000610351562,23.299999237060547 163.39999389648438,26 160.10000610351562,26z M-154.10000610351562,14 C-154.10000610351562,14 154.10000610351562,14 154.10000610351562,14 C154.10000610351562,14 154.10000610351562,-14 154.10000610351562,-14 C154.10000610351562,-14 -154.10000610351562,-14 -154.10000610351562,-14 C-154.10000610351562,-14 -154.10000610351562,14 -154.10000610351562,14z"></path></g></g><g transform="matrix(1,0,0,1,119.8499984741211,-0.25)" opacity="1" style="display: block;"><g opacity="1" transform="matrix(1,0,0,1,99.6500015258789,72.94999694824219)"><path fill="rgb(34,64,153)" fill-opacity="1" d=" M81.69999694824219,72.69999694824219 C81.69999694824219,72.69999694824219 -81.69999694824219,72.69999694824219 -81.69999694824219,72.69999694824219 C-91.5,72.69999694824219 -99.4000015258789,64.80000305175781 -99.4000015258789,55 C-99.4000015258789,55 -99.4000015258789,-55 -99.4000015258789,-55 C-99.4000015258789,-64.80000305175781 -91.5,-72.69999694824219 -81.69999694824219,-72.69999694824219 C-81.69999694824219,-72.69999694824219 81.69999694824219,-72.69999694824219 81.69999694824219,-72.69999694824219 C91.5,-72.69999694824219 99.4000015258789,-64.80000305175781 99.4000015258789,-55 C99.4000015258789,-55 99.4000015258789,55 99.4000015258789,55 C99.4000015258789,64.69999694824219 91.4000015258789,72.69999694824219 81.69999694824219,72.69999694824219z M-81.69999694824219,-60.79999923706055 C-84.80000305175781,-60.79999923706055 -87.4000015258789,-58.20000076293945 -87.4000015258789,-55.099998474121094 C-87.4000015258789,-55.099998474121094 -87.4000015258789,54.900001525878906 -87.4000015258789,54.900001525878906 C-87.4000015258789,58 -84.80000305175781,60.599998474121094 -81.69999694824219,60.599998474121094 C-81.69999694824219,60.599998474121094 81.69999694824219,60.599998474121094 81.69999694824219,60.599998474121094 C84.80000305175781,60.599998474121094 87.4000015258789,58 87.4000015258789,54.900001525878906 C87.4000015258789,54.900001525878906 87.4000015258789,-55.099998474121094 87.4000015258789,-55.099998474121094 C87.4000015258789,-58.20000076293945 84.80000305175781,-60.79999923706055 81.69999694824219,-60.79999923706055 C81.69999694824219,-60.79999923706055 -81.69999694824219,-60.79999923706055 -81.69999694824219,-60.79999923706055z"></path></g><g opacity="1" transform="matrix(1,0,0,1,99.75,159.25)"><path fill="rgb(34,64,153)" fill-opacity="1" d=" M44.599998474121094,26.399999618530273 C44.599998474121094,26.399999618530273 -44.79999923706055,26.399999618530273 -44.79999923706055,26.399999618530273 C-47.599998474121094,26.399999618530273 -50,24.5 -50.599998474121094,21.799999237060547 C-51.20000076293945,19.100000381469727 -49.900001525878906,16.299999237060547 -47.400001525878906,15.100000381469727 C-39,11 -29.5,-9.5 -25.399999618530273,-21.5 C-24.299999237060547,-24.600000381469727 -20.899999618530273,-26.299999237060547 -17.799999237060547,-25.299999237060547 C-14.699999809265137,-24.200000762939453 -13,-20.799999237060547 -14,-17.700000762939453 C-14.899999618530273,-15.100000381469727 -20.899999618530273,2 -29.899999618530273,14.399999618530273 C-29.899999618530273,14.399999618530273 29.899999618530273,14.399999618530273 29.899999618530273,14.399999618530273 C20.899999618530273,2 14.899999618530273,-15.100000381469727 14,-17.700000762939453 C12.899999618530273,-20.799999237060547 14.600000381469727,-24.200000762939453 17.799999237060547,-25.299999237060547 C20.899999618530273,-26.399999618530273 24.299999237060547,-24.700000762939453 25.399999618530273,-21.5 C29.5,-9.5 39,11 47.400001525878906,15.100000381469727 C49.900001525878906,16.299999237060547 51.20000076293945,19.100000381469727 50.599998474121094,21.799999237060547 C49.79999923706055,24.5 47.400001525878906,26.399999618530273 44.599998474121094,26.399999618530273z"></path></g><g opacity="1" transform="matrix(1,0,0,1,99.69999694824219,118.1500015258789)"><path fill="rgb(237,28,36)" fill-opacity="1" d=" M-0.05000000074505806,9 C-5.050000190734863,9 -9.050000190734863,5 -9.050000190734863,0 C-9.050000190734863,-5 -5.050000190734863,-9 -0.05000000074505806,-9 C-0.05000000074505806,-9 0.05000000074505806,-9 0.05000000074505806,-9 C5.050000190734863,-9 9.050000190734863,-5 9.050000190734863,0 C9.050000190734863,5 4.949999809265137,9 -0.05000000074505806,9z"></path></g><g opacity="1" transform="matrix(1,0,0,1,99.5999984741211,99.55000305175781)"><path fill="rgb(34,64,153)" fill-opacity="1" d=" M92.8499984741211,6 C92.8499984741211,6 -92.8499984741211,6 -92.8499984741211,6 C-96.1500015258789,6 -98.8499984741211,3.299999952316284 -98.8499984741211,0 C-98.8499984741211,-3.299999952316284 -96.1500015258789,-6 -92.8499984741211,-6 C-92.8499984741211,-6 92.8499984741211,-6 92.8499984741211,-6 C96.1500015258789,-6 98.8499984741211,-3.299999952316284 98.8499984741211,0 C98.8499984741211,3.299999952316284 96.1500015258789,6 92.8499984741211,6z"></path></g></g><g transform="matrix(0.8483731150627136,0.05256547033786774,-0.05256547033786774,0.8483731150627136,172.29896545410156,120.83598327636719)" opacity="1" style="display: block;"><g opacity="1" transform="matrix(1,0,0,1,0,0)"><path stroke-linecap="round" stroke-linejoin="miter" fill-opacity="0" stroke-miterlimit="4" stroke="rgb(34,64,153)" stroke-opacity="1" stroke-width="12" d=" M-123.56721496582031,-78.47279357910156 C-123.56721496582031,-78.47279357910156 -123.88470458984375,-70.44808959960938 -119.54097747802734,-65.3011474609375 C-115.6810073852539,-60.70927429199219 -122.43653869628906,-51.43728256225586 -122.43653869628906,-50.68728256225586 C-122.43653869628906,-49.93728256225586 -124.2601318359375,-45.52395248413086 -120.06721496582031,-39.5977897644043"></path></g><g opacity="1" transform="matrix(1,0,0,1,0,0)"><path stroke-linecap="butt" stroke-linejoin="miter" fill-opacity="0" stroke-miterlimit="4" stroke="rgb(34,64,153)" stroke-opacity="1" stroke-width="12" d=" M720.5120239257812,-6.304999828338623"></path></g></g><g transform="matrix(0.8483731150627136,0.05256547033786774,-0.05256547033786774,0.8483731150627136,150.341064453125,119.4754638671875)" opacity="1" style="display: block;"><g opacity="1" transform="matrix(1,0,0,1,0,0)"><path stroke-linecap="round" stroke-linejoin="miter" fill-opacity="0" stroke-miterlimit="4" stroke="rgb(34,64,153)" stroke-opacity="1" stroke-width="12" d=" M-123.56721496582031,-78.47279357910156 C-123.56721496582031,-78.47279357910156 -123.88470458984375,-70.44808959960938 -119.54097747802734,-65.3011474609375 C-115.6810073852539,-60.70927429199219 -122.43653869628906,-51.43728256225586 -122.43653869628906,-50.68728256225586 C-122.43653869628906,-49.93728256225586 -124.2601318359375,-45.52395248413086 -120.06721496582031,-39.5977897644043"></path></g></g><g clip-path="url(#__lottie_element_48)" transform="matrix(1,0,0,1,0,0)" opacity="1" style="display: block;"><g clip-path="url(#__lottie_element_49)"><g transform="matrix(1.2799999713897705,0,0,1.2799999713897705,226.84971618652344,152.6112518310547)" opacity="0.5" style="display: block;"><g opacity="1" transform="matrix(1,0,0,1,0,0)"><path stroke-linecap="butt" stroke-linejoin="miter" fill-opacity="0" stroke-miterlimit="4" stroke="rgb(237,28,36)" stroke-opacity="1" stroke-width="6" d=" M-62.5,-126 C-62.5,-126 -10.34488296508789,-91.76658630371094 45.16236877441406,-24.832796096801758"></path></g></g><g style="display: block;" transform="matrix(1.3300000429153442,0,0,1.3300000429153442,169.15838623046875,212.81222534179688)" opacity="0.5"><g opacity="1" transform="matrix(1,0,0,1,0,-1)"><path stroke-linecap="butt" stroke-linejoin="miter" fill-opacity="0" stroke-miterlimit="4" stroke="rgb(237,28,36)" stroke-opacity="1" stroke-width="5" d=" M-62.5,-126 C-62.5,-126 -9.173417091369629,-91.39176177978516 34.5,-23.5"></path></g></g><g style="display: block;" transform="matrix(1.590000033378601,0,0,1.590000033378601,122.62491607666016,258.84185791015625)" opacity="0.5"><g opacity="1" transform="matrix(1,0,0,1,0,0)"><path stroke-linecap="butt" stroke-linejoin="miter" fill-opacity="0" stroke-miterlimit="4" stroke="rgb(237,28,36)" stroke-opacity="1" stroke-width="5" d=" M-62.5,-126 C-62.5,-126 -43.317901611328125,-53.070945739746094 33.66480255126953,-24.31780242919922"></path></g></g></g></g></g></svg>