<?xml version="1.0" encoding="utf-8"?>
<!-- Generator: Adobe Illustrator 27.0.0, SVG Export Plug-In . SVG Version: 6.00 Build 0)  -->
<svg version="1.1" id="Layer_1" xmlns="http://www.w3.org/2000/svg" xmlns:xlink="http://www.w3.org/1999/xlink" x="0px" y="0px"
	 viewBox="0 0 845 285.8" style="enable-background:new 0 0 845 285.8;" xml:space="preserve">
<style type="text/css">
	.st0{fill:#FCEE24;}
	.st1{fill:#A7A4A4;}
	.st2{fill:#FFFFFF;}
	.st3{fill:#050505;}
	.st4{fill:#060505;}
	.st5{fill:#040404;}
	.st6{fill:#030303;}
	.st7{fill:#050404;}
</style>
<g>
	<path class="st0" d="M700.3,285.8c-1.1-0.6-2.3-0.3-3.4-0.3c-2.7,0-5.3-0.3-7.9-0.5c-2.6-0.2-5.1-0.5-7.7-0.9
		c-3.3-0.5-6.5-1.1-9.8-1.8c-5.3-1.2-10.5-2.6-15.6-4.4c-7.3-2.5-14.4-5.5-21.2-9.2c-6.9-3.7-13.5-8-19.8-12.8
		c-3-2.4-5.9-4.9-8.8-7.5c-3.2-2.9-6.3-5.9-9.2-9c-6.9-7.4-12.9-15.4-18-24.1c-3.1-5.3-5.9-10.8-8.3-16.4c-1.8-4-3.3-8.2-4.7-12.4
		c-1.9-5.9-3.5-12-4.6-18.1c-0.6-3.3-1-6.6-1.4-9.9c-0.9-7.1-0.8-14.3-0.8-21.4c0-4,0.4-7.9,0.8-11.8c0.9-7.4,2.3-14.7,4.4-21.8
		c1.8-6.1,3.9-12,6.4-17.8c3.6-8.2,7.9-16,13-23.4c2.8-4.1,5.8-8,9-11.8c3.5-4.1,7.1-8.1,11.1-11.8c5.5-5.2,11.4-9.9,17.7-14.2
		c5.3-3.6,10.8-6.8,16.4-9.7c4.2-2.1,8.6-4,13.1-5.7c7.9-3.1,16.1-5.3,24.5-6.9c5.1-1,10.3-1.6,15.5-1.9c5.7-0.4,11.3-0.6,17-0.4
		c23,1.1,44.5,7.2,64.5,18.4c0.8,0.5,1,0.8,0.5,1.6c-4.4,7.5-8.7,15-13,22.6c-0.5,0.8-0.8,0.8-1.5,0.4c-12.3-7-25.5-11.5-39.5-13.6
		c-11.4-1.7-22.8-1.7-34.2,0.1c-19.5,3-37.1,10.5-52.6,22.6c-22.4,17.5-36.6,40.3-42.4,68.1c-1.7,8-2.4,16.2-2.2,24.3
		c0.6,25.3,8.5,48.2,24.1,68.2c16.2,20.7,37.1,34.4,62.6,41c8.1,2.1,16.4,3.2,24.7,3.4c28.5,0.6,53.9-8,75.9-26.1
		c20.7-17,33.8-38.8,39.5-65c1.6-7.3,2.4-14.8,2.4-22.3c0-0.9,0.2-1.2,1.1-1.2c8.7,0,17.4,0,26.1,0c1.1,0,1.1,0.4,1.1,1.3
		c-0.3,20.9-4.8,40.9-13.7,59.8c-7.2,15.2-16.8,28.7-28.8,40.5c-20.2,19.8-44.2,32.7-71.9,38.4c-8.6,1.8-17.3,2.7-26.1,2.8
		c-0.4,0-0.8-0.2-1,0.2C702.3,285.8,701.3,285.8,700.3,285.8z"/>
	<path class="st1" d="M0,90.1c0.1,0,0.2,0,0.3,0c0,6.5,0,13.1,0,19.6c0,0.1,0,0.1-0.1,0.2c-0.1-0.1-0.1-0.1-0.2-0.2
		C0,103.2,0,96.7,0,90.1z"/>
	<path class="st2" d="M0,109.7c0.1,0.1,0.1,0.1,0.2,0.2C0.1,110,0.1,110,0,110C0,109.9,0,109.8,0,109.7z"/>
	<path class="st3" d="M716.2,159c0,22.5,0,44.9,0,67.4c0,1.4-0.4,1.6-1.6,1.6c-8.5-0.1-17-0.1-25.4,0c-1.1,0-1.3-0.3-1.3-1.4
		c0-35.5,0-71.1,0.1-106.6c0-1.3-0.4-1.6-1.6-1.6c-17.9,0-35.8,0-53.7,0.1c-1.3,0-1.5-0.4-1.5-1.6c0.1-8.5,0-17,0-25.6
		c0-1,0.2-1.3,1.3-1.3c27.6,0,55.1,0,82.7,0c1.2,0,1.2,0.5,1.2,1.4C716.2,114,716.2,136.5,716.2,159z"/>
	<path class="st4" d="M146.7,159.3c0,1.9,0,3.6,0,5.3c0,5.2,0,10.4,0,15.6c0,1-0.4,1.5-1.2,1.8c-4.6,1.7-9.2,2.9-14.1,3.2
		c-2.4,0.1-4.7,0.3-7,0.1c-5.3-0.5-10.5-1.6-15.5-3.7c-3.5-1.5-6.7-3.4-9.8-5.6c-2.9-2.1-5.4-4.7-7.8-7.4c-2.5-2.8-4.5-5.9-6.2-9.2
		c-1.6-3-2.7-6.3-3.6-9.6c-1.5-5.7-1.8-11.5-1.3-17.2c0.8-8.1,3.7-15.6,8.4-22.3c1.9-2.7,4-5.3,6.5-7.6c3-2.7,6.3-5.1,9.9-7
		c4.8-2.6,9.9-4.3,15.3-5.1c4.2-0.6,8.5-0.7,12.8-0.2c6.3,0.7,12.1,2.5,17.6,5.5c8.1,4.4,14.3,10.7,18.8,18.7
		c2.8,4.9,4.6,10.2,5.4,15.8c0.3,2.1,0.6,4.2,0.6,6.4c0,15.7,0,31.4,0,47.1c0,1.4-0.4,1.7-1.7,1.6c-5.3-0.1-10.6-0.1-15.9,0
		c-1.3,0-1.5-0.4-1.5-1.6c0-15.4,0-30.9,0-46.3c0-6.2-1.6-11.9-5.3-16.8c-4.4-5.9-10.2-9.7-17.5-11c-2.2-0.4-4.3-0.8-6.5-0.7
		c-6.5,0.2-12.3,2.3-17.4,6.4c-5.3,4.4-8.7,9.9-10.1,16.6c-1.5,7.5-0.1,14.7,3.8,21.2c4.3,7.1,10.7,11.1,18.9,12.6
		c5.4,1,10.6,0.5,15.7-1.4c2.7-1,5.2-2.5,7.4-4.4C145.7,159.8,146.2,159.6,146.7,159.3z"/>
	<path class="st5" d="M397.2,137.8c0.2,26.1-21.2,47.5-47.6,47.6c-11.2,0-21.3-3.5-30-10.6c-11.7-9.6-17.6-22.3-17.7-37.3
		c0-11.8,4-22.4,11.9-31.3c9.7-10.8,22-16.2,36.5-16.1C376.2,90.5,397.4,111.7,397.2,137.8z M349.6,166.4
		c15.8,0,28.7-12.9,28.7-28.7c-0.1-15.7-12.9-28.5-28.7-28.5c-15.8,0-28.7,12.8-28.7,28.5C321.1,154.1,334.2,166.4,349.6,166.4z"/>
	<path class="st6" d="M465.6,109.8c-15.7,0-31.4,0-47.2,0c-1.1,0-1.4-0.2-1.4-1.4c0.1-5.8,0.1-11.5,0-17.3c0-0.8,0.2-1.1,1.1-1.1
		c28.2,0,56.5,0,85,0c-17.2,25.2-34.2,50.3-51.5,75.6c0.8,0,1.3,0,1.7,0c15.3,0,30.6,0,45.9,0c1.1,0,1.4,0.3,1.4,1.4
		c-0.1,5.7,0,11.4,0,17.2c0,0.9-0.2,1.2-1.1,1.2c-27.9,0-55.9,0-83.8,0c-0.3,0-0.8,0.1-1-0.1c-0.3-0.4,0.2-0.8,0.5-1.1
		c3.9-5.7,7.8-11.4,11.7-17.2c3.4-5,6.8-10,10.1-14.9c4.2-6.2,8.5-12.5,12.7-18.7c3.8-5.6,7.7-11.2,11.6-16.8c1.5-2.2,3-4.3,4.4-6.5
		c0-0.1,0.1-0.2,0.1-0.2C465.7,109.8,465.7,109.8,465.6,109.8z"/>
	<path class="st5" d="M199.2,185.2c1.4-2,2.7-4,4-6c3.4-5,6.8-10,10.2-15c4.2-6.2,8.4-12.5,12.8-18.7c1.6-2.3,3.1-4.8,4.9-7.1
		c0.4-0.4,0.3-0.9,0-1.4c-4.4-6.4-8.8-12.8-13.1-19.2c-4.1-6.1-8.4-12.2-12.6-18.3c-2-2.9-4-5.8-6-8.7c-0.1-0.1-0.1-0.3-0.2-0.4
		c0.4-0.3,0.8-0.2,1.1-0.2c7.1,0,14.3,0,21.4,0c0.8,0,1.4,0.3,1.8,0.9c5.4,8.1,10.9,16.1,16.4,24.1c1.1,1.7,2.3,3.3,3.5,5
		c2.7-3.9,5.3-7.8,8-11.6c4-5.9,8.1-11.9,12.1-17.8c0.3-0.4,0.5-0.6,1-0.6c7.7,0,15.4,0,23.3,0c-0.8,1.2-1.6,2.4-2.3,3.5
		c-6.3,9.3-12.6,18.6-18.9,27.8c-3.5,5.1-6.9,10.2-10.5,15.2c-0.6,0.8-0.6,1.4,0,2.2c9.1,13.3,18.2,26.6,27.2,39.9
		c1.3,2,2.7,3.9,4,5.9c0.1,0.2,0.3,0.4,0.2,0.8c-2,0-4,0-6,0c-5.5,0-11,0-16.5,0c-0.8,0-1.3-0.2-1.7-0.9
		c-3.9-5.8-7.7-11.6-11.7-17.3c-2.7-3.9-5.4-7.8-8.2-11.8c-1.3,1.9-2.7,3.8-4,5.7c-5.4,7.9-10.7,15.7-16,23.6
		c-0.3,0.5-0.6,0.7-1.2,0.7c-7.5,0-15.1,0-22.6,0C199.6,185.4,199.5,185.3,199.2,185.2z"/>
	<path class="st7" d="M0.3,109.7c0-6.5,0-13.1,0-19.6c5.6,0,11.1,0,16.7,0c0.9,0,1.2-0.2,1.2-1.2c-0.1-5.5,0-11-0.1-16.5
		c0-1,0.2-1.2,1.2-1.2c5.8,0.1,11.6,0,17.4,0c0.8,0,1.1,0.2,1.1,1.1c0,5.6,0,11.1,0,16.7c0,1,0.3,1.2,1.2,1.2c5.6,0,11.1,0,16.7,0
		c0.9,0,1.2,0.2,1.1,1.1c0,5.8,0,11.6,0,17.4c0,0.9-0.2,1.2-1.1,1.1c-5.6,0-11.1,0-16.7,0c-1,0-1.2,0.3-1.2,1.2c0,15,0,30,0,45.1
		c0,5.6,4.6,9.8,9.8,9.7c2.7-0.1,5.4,0,8.1,0c0.8,0,1,0.2,1,1c0,5.9,0,11.7,0,17.6c0,0.8-0.2,1.1-1.1,1.1c-5.6,0-11.3,0.3-16.9-0.1
		c-5.6-0.4-10.4-2.9-14.3-7c-4.4-4.6-6.4-10.3-6.4-16.6c0-16.8,0-33.7,0-50.5c0-1.1-0.2-1.4-1.4-1.4C11.3,109.8,5.8,109.8,0.3,109.7
		z"/>
	<path class="st6" d="M753.5,90.1c6,0,12.1,0,18.1,0c1,0,1.4,0.2,1.4,1.3c-0.1,8.6,0,17.2,0,25.8c0,1-0.2,1.3-1.2,1.3
		c-12.1,0-24.3,0-36.4,0c-0.9,0-1.2-0.2-1.2-1.2c0-8.7,0-17.4,0-26.1c0-1,0.3-1.2,1.2-1.2C741.4,90.2,747.5,90.1,753.5,90.1z"/>
	<path class="st1" d="M465.6,109.8c0.1,0,0.1,0,0.2,0c0,0.1-0.1,0.2-0.1,0.2C465.7,110,465.6,109.9,465.6,109.8z"/>
</g>
</svg>
